<?xml version="1.0" encoding="UTF-8" standalone="no"?>
<svg
   viewBox="0 0 48 48"
   fill="none"
   version="1.1"
   id="svg4"
   sodipodi:docname="canyon.svg"
   inkscape:version="1.4.4 (dcaf3e7d9e, 2026-05-05)"
   xmlns:inkscape="http://www.inkscape.org/namespaces/inkscape"
   xmlns:sodipodi="http://sodipodi.sourceforge.net/DTD/sodipodi-0.dtd"
   xmlns="http://www.w3.org/2000/svg"
   xmlns:svg="http://www.w3.org/2000/svg">
  <defs
     id="defs4" />
  <sodipodi:namedview
     id="namedview4"
     pagecolor="#ffffff"
     bordercolor="#000000"
     borderopacity="0.25"
     inkscape:showpageshadow="2"
     inkscape:pageopacity="0.0"
     inkscape:pagecheckerboard="0"
     inkscape:deskcolor="#d1d1d1"
     showguides="true"
     inkscape:zoom="1.7207031"
     inkscape:cx="13.07605"
     inkscape:cy="4.6492622"
     inkscape:window-width="1920"
     inkscape:window-height="1011"
     inkscape:window-x="0"
     inkscape:window-y="0"
     inkscape:window-maximized="1"
     inkscape:current-layer="svg4">
    <sodipodi:guide
       position="23.892,58.312737"
       orientation="1,0"
       id="guide4"
       inkscape:locked="false" />
  </sodipodi:namedview>
  <path
     d="M 42.365433,36.918066 H 35.358348 V 21.842137 c 0,-0.351321 0.285752,-0.636994 0.636994,-0.636994 0.351245,0 0.636994,0.285752 0.636994,0.636994 v 13.164871 c 0,0.351867 0.285126,0.636993 0.636993,0.636993 0.351868,0 0.636994,-0.285126 0.636994,-0.636993 v -2.63904 h 1.911058 c 0.351868,0 0.636994,-0.285127 0.636994,-0.636994 v -5.217419 c 0,-1.053732 0.857329,-1.911061 1.911058,-1.911061 0.351868,0 0.636994,-0.285127 0.636994,-0.636991 0,-0.351867 -0.285126,-0.636994 -0.636994,-0.636994 -1.756292,0 -3.185046,1.42875 -3.185046,3.185046 v 4.580426 H 37.9064 v -9.251844 c 0,-1.053729 -0.857329,-1.911058 -1.911058,-1.911058 -1.053729,0 -1.911058,0.857329 -1.911058,1.911058 v 15.075929 h -1.451907 l -1.553579,-4.6605 c -0.0867,-0.260177 -0.330115,-0.435526 -0.604326,-0.435526 h -1.486368 v -4.459033 c 0,-1.538141 -1.095989,-2.824991 -2.548052,-3.120954 v -2.399836 c 0,-1.053729 -0.857329,-1.911058 -1.911058,-1.911058 -1.053729,0 -1.911058,0.857329 -1.911058,1.911058 v 4.883719 h -1.698677 v -4.459033 c 0,-1.538061 -1.096065,-2.825068 -2.548052,-3.12111 v -1.125615 c 0,-1.756293 -1.428753,-3.185046 -3.185046,-3.185046 h -4.246725 c -1.7562963,0 -3.1850453,1.428753 -3.1850453,3.185046 v 2.824525 c -1.452067,0.295886 -2.548052,1.582736 -2.548052,3.120953 v 4.459034 h -1.486216 c -0.3517877,0 -0.6369938,0.285126 -0.6369938,0.636993 0,0.351868 0.2852061,0.636994 0.6369938,0.636994 h 2.123363 c 0.351791,0 0.636993,-0.285126 0.636993,-0.636994 V 23.96558 c 0,-0.830432 0.532596,-1.53853 1.273988,-1.801438 v 5.198865 c 0,0.351867 0.285206,0.636993 0.636994,0.636993 0.351788,0 0.636994,-0.285126 0.636994,-0.636993 v -9.342829 c 0,-1.053729 0.857249,-1.911058 1.9110583,-1.911058 h 4.246728 c 1.053806,0 1.911058,0.857329 1.911058,1.911058 v 1.698673 c 0,0.351868 0.285203,0.636994 0.636994,0.636994 1.053806,0 1.911058,0.857329 1.911058,1.911058 v 5.096104 C 19.645351,27.714874 19.930554,28 20.282345,28 h 2.335667 v 7.007086 c 0,0.351866 0.285206,0.636993 0.636994,0.636993 0.351868,0 0.636994,-0.285127 0.636994,-0.636993 V 21.842137 c 0,-0.351321 0.285749,-0.636994 0.636994,-0.636994 0.351242,0 0.636994,0.285752 0.636994,0.636994 v 5.520793 c 0,0.351868 0.285126,0.636994 0.63699,0.636994 0.351868,0 0.636994,-0.285126 0.636994,-0.636994 v -1.801438 c 0.741392,0.262985 1.273987,0.971086 1.273987,1.801438 v 5.096104 c 0,0.351867 0.285127,0.636993 0.636994,0.636993 h 1.664291 l 1.273988,3.822039 H 3.7201227 c -0.3517877,0 -0.6369938,0.285127 -0.6369938,0.636993 0,0.351867 0.2852061,0.636994 0.6369938,0.636994 H 32.171043 c 0.0041,0 10.19439,0 10.19439,0 0.351868,0 0.636994,-0.285127 0.636994,-0.636994 0,-0.351866 -0.285126,-0.636993 -0.636994,-0.636993 z"
     id="path8-3"
     style="fill:#ffffff;stroke-width:0.0779675" />
</svg>
