<?xml version="1.0" encoding="UTF-8" standalone="no"?>
<svg
   viewBox="0 0 48 48"
   fill="none"
   version="1.1"
   id="svg2"
   sodipodi:docname="timberland.svg"
   inkscape:version="1.4.4 (dcaf3e7d9e, 2026-05-05)"
   xmlns:inkscape="http://www.inkscape.org/namespaces/inkscape"
   xmlns:sodipodi="http://sodipodi.sourceforge.net/DTD/sodipodi-0.dtd"
   xmlns="http://www.w3.org/2000/svg"
   xmlns:svg="http://www.w3.org/2000/svg">
  <defs
     id="defs2">
    <inkscape:path-effect
       effect="fillet_chamfer"
       id="path-effect3"
       is_visible="true"
       lpeversion="1"
       nodesatellites_param="F,0,0,1,0,0,0,1 @ F,0,0,1,0,0,0,1 @ F,0,0,1,0,0,0,1 @ F,0,0,1,0,0,0,1 @ F,0,0,1,0,0,0,1 @ F,0,0,1,0,0,0,1 @ F,0,0,1,0,0,0,1 @ F,0,0,1,0,0,0,1 @ F,0,0,1,0,0,0,1 @ F,0,0,1,0,0,0,1 @ F,0,0,1,0,0,0,1 @ F,0,0,1,0,0,0,1 @ F,0,0,1,0,0,0,1 @ F,0,0,1,0,0,0,1 @ F,0,0,1,0,0,0,1 @ F,0,0,1,0,0,0,1 @ F,0,0,1,0,0,0,1 @ F,0,0,1,0,0,0,1 @ F,0,0,1,0,0,0,1 @ F,0,0,1,0,0,0,1 @ F,0,0,1,0,0,0,1 @ F,0,0,1,0,0,0,1 @ F,0,0,1,0,0,0,1 @ F,0,0,1,0,0,0,1 @ F,0,0,1,0,0,0,1 @ F,0,0,1,0,0,0,1 @ F,0,0,1,0,0,0,1 @ F,0,0,1,0,0,0,1 @ F,0,0,1,0,0,0,1 @ F,0,0,1,0,0,0,1 @ F,0,0,1,0,0,0,1 @ F,0,0,1,0,0,0,1 @ F,0,0,1,0,0,0,1 @ F,0,0,1,0,0,0,1 @ F,0,0,1,0,0,0,1 @ F,0,0,1,0,0,0,1 @ F,0,0,1,0,0,0,1 @ F,0,0,1,0,0,0,1 @ F,0,0,1,0,0,0,1 @ F,0,0,1,0,0,0,1 @ F,0,0,1,0,0,0,1 @ F,0,0,1,0,0,0,1 | F,0,0,1,0,0,0,1 @ F,0,0,1,0,0,0,1 | F,0,0,1,0,0,0,1 @ F,0,0,1,0,0,0,1 @ F,0,0,1,0,0,0,1 @ F,0,0,1,0,0,0,1 @ F,0,0,1,0,0,0,1 @ F,0,0,1,0,0,0,1 @ F,0,0,1,0,0,0,1 @ F,0,0,1,0,0,0,1 @ F,0,0,1,0,0,0,1 @ F,0,0,1,0,0,0,1 @ F,0,0,1,0,0,0,1 @ F,0,0,1,0,0,0,1 @ F,0,0,1,0,0,0,1 @ F,0,0,1,0,0,0,1 @ F,0,0,1,0,0,0,1 @ F,0,0,1,0,0,0,1 @ F,0,0,1,0,0,0,1 @ F,0,0,1,0,0,0,1 @ F,0,0,1,0,0,0,1 @ F,0,0,1,0,0,0,1 @ F,0,0,1,0,0,0,1 @ F,0,0,1,0,0,0,1 @ F,0,0,1,0,0,0,1 @ F,0,0,1,0,0,0,1 @ F,0,0,1,0,0,0,1 @ F,0,0,1,0,0,0,1 @ F,0,0,1,0,0,0,1 @ F,0,0,1,0,0,0,1 @ F,0,0,1,0,0,0,1 | F,0,0,1,0,0,0,1 @ F,0,0,1,0,0,0,1 @ F,0,0,1,0,0,0,1 @ F,0,0,1,0,0,0,1 @ F,0,0,1,0,0,0,1 @ F,0,0,1,0,0,0,1 @ F,0,0,1,0,0,0,1 @ F,0,0,1,0,0,0,1 @ F,0,0,1,0,0,0,1 @ F,0,0,1,0,0,0,1 @ F,0,0,1,0,0,0,1 @ F,0,0,1,0,0,0,1 @ F,0,0,1,0,0,0,1 @ F,0,0,1,0,0,0,1 @ F,0,0,1,0,0,0,1 @ F,0,0,1,0,0,0,1 @ F,0,0,1,0,0,0,1 @ F,0,0,1,0,0,0,1 @ F,0,0,1,0,0,0,1"
       radius="0"
       unit="px"
       method="auto"
       mode="F"
       chamfer_steps="1"
       flexible="false"
       use_knot_distance="true"
       apply_no_radius="true"
       apply_with_radius="true"
       only_selected="false"
       hide_knots="false" />
  </defs>
  <sodipodi:namedview
     id="namedview2"
     pagecolor="#a6a6a6"
     bordercolor="#000000"
     borderopacity="0.25"
     inkscape:showpageshadow="2"
     inkscape:pageopacity="0.0"
     inkscape:pagecheckerboard="0"
     inkscape:deskcolor="#000000"
     showguides="true"
     inkscape:zoom="47.140452"
     inkscape:cx="24.320938"
     inkscape:cy="40.071741"
     inkscape:window-width="1920"
     inkscape:window-height="1011"
     inkscape:window-x="0"
     inkscape:window-y="0"
     inkscape:window-maximized="1"
     inkscape:current-layer="svg2">
    <sodipodi:guide
       position="-2.5807031,33.053906"
       orientation="0,-1"
       id="guide2"
       inkscape:locked="false" />
    <sodipodi:guide
       position="23.976562,45.320625"
       orientation="1,0"
       id="guide3"
       inkscape:locked="false" />
    <sodipodi:guide
       position="21.404122,2.9855823"
       orientation="0,-1"
       id="guide4"
       inkscape:locked="false" />
  </sodipodi:namedview>
  <path
     d="m 32.406402,45.014418 v -3.711427 h 9.783996 c 0.213867,0 0.411458,-0.114082 0.518575,-0.299209 0.107043,-0.185126 0.107263,-0.41329 5.86e-4,-0.59871 l -4.128213,-7.171915 h 1.013321 c 0.213867,0 0.411457,-0.114082 0.518574,-0.299209 0.107044,-0.185126 0.107264,-0.41329 5.87e-4,-0.59871 l -4.128214,-7.171915 h 1.013321 c 0.213867,0 0.411458,-0.114082 0.518574,-0.299208 0.107044,-0.185127 0.107264,-0.413291 5.87e-4,-0.598711 l -5.191537,-9.019148 c -0.106897,-0.185713 -0.304854,-0.300162 -0.519161,-0.300162 -0.214307,0 -0.412264,0.114449 -0.519161,0.300162 l -5.191536,9.019148 c -0.106677,0.185347 -0.106457,0.413584 5.86e-4,0.598711 0.107044,0.185126 0.304708,0.299208 0.518575,0.299208 h 1.01332 l -2.798601,4.862121 c -0.165037,0.286745 -0.06642,0.652966 0.220246,0.81793 0.286598,0.164964 0.652965,0.06635 0.818003,-0.220246 l 3.315489,-5.76004 c 0.106677,-0.185273 0.106457,-0.41351 -5.86e-4,-0.59871 -0.107044,-0.185127 -0.304708,-0.299209 -0.518575,-0.299209 h -1.01332 l 4.155487,-7.219351 4.155488,7.219351 h -1.013248 c -0.213867,0 -0.411458,0.114082 -0.518574,0.299209 -0.107044,0.185126 -0.107264,0.41329 -5.87e-4,0.59871 l 4.128214,7.171988 h -1.013321 c -0.213867,0 -0.411458,0.114082 -0.518575,0.299209 -0.107043,0.185126 -0.107263,0.41329 -5.86e-4,0.59871 l 4.128213,7.171915 H 29.275013 c -0.330808,0 -0.599004,0.268195 -0.599004,0.599004 0,0.330808 0.268196,0.599004 0.599004,0.599004 h 1.933308 v 3.7115 c 0,0.897967 1.198081,0.854572 1.198081,0 z m -15.532111,0 -0.04243,-3.7115 h 9.783997 c 0.213867,0 0.411457,-0.114082 0.518574,-0.299209 0.107044,-0.185127 0.107264,-0.413291 5.87e-4,-0.59871 l -4.128214,-7.171915 h 1.013321 c 0.332421,0 0.600617,-0.268196 0.600617,-0.599004 0,-0.123687 -0.03754,-0.238722 -0.101765,-0.334181 l -4.1079,-7.136649 h 1.01332 c 0.332422,0 0.600617,-0.268195 0.600617,-0.599004 0,-0.123686 -0.03754,-0.238722 -0.101765,-0.334181 l -5.171227,-8.983809 c -0.106824,-0.185713 -0.304854,-0.300162 -0.519161,-0.300162 -0.214307,0 -0.412264,0.114449 -0.519161,0.300162 l -5.191464,9.019221 c -0.106677,0.185347 -0.106457,0.413584 5.87e-4,0.598711 0.107043,0.185127 0.304707,0.299209 0.518574,0.299209 h 1.013321 l -4.128213,7.171914 c -0.106677,0.185347 -0.106457,0.413584 5.86e-4,0.598711 0.107044,0.185126 0.304708,0.299208 0.518575,0.299208 h 1.01332 l -4.128286,7.171842 c -0.106677,0.185346 -0.106457,0.413584 5.86e-4,0.59871 0.107117,0.185127 0.304708,0.299209 0.518575,0.299209 h 9.783996 l -0.0056,3.711427 c 0,0.864281 1.246006,0.847196 1.246006,0 z m -5.86024,-12.081423 c 0.106677,-0.185346 0.106457,-0.413584 -5.87e-4,-0.59871 -0.107043,-0.185127 -0.304707,-0.299209 -0.518574,-0.299209 H 9.481642 l 4.128214,-7.171988 c 0.106677,-0.185273 0.106457,-0.41351 -5.87e-4,-0.59871 -0.107043,-0.185127 -0.304707,-0.299209 -0.518574,-0.299209 h -1.013321 l 4.155488,-7.219351 4.155487,7.219351 h -1.013321 c -0.213867,0 -0.411457,0.114082 -0.518574,0.299209 -0.107044,0.185126 -0.107263,0.41329 -5.87e-4,0.59871 l 4.128214,7.171988 H 21.97076 c -0.213867,0 -0.411458,0.114082 -0.518574,0.299209 -0.107044,0.185126 -0.107264,0.41329 -5.87e-4,0.59871 l 4.128214,7.171915 H 6.885838 Z"
     id="path5"
     style="fill:#ffffff;stroke-width:0.0733175"
     sodipodi:nodetypes="ccscccscccscccsccssccccccscccscccscccssscccccscccssccssccsccssccsscccsccccsscccscccscccscccccs" />
</svg>
