<?xml version="1.0" encoding="iso-8859-1"?>
<!-- Uploaded to: SVG Repo, www.svgrepo.com, Generator: SVG Repo Mixer Tools -->
<svg version="1.1" id="Layer_1" xmlns="http://www.w3.org/2000/svg" xmlns:xlink="http://www.w3.org/1999/xlink" 
	 viewBox="0 0 512 512" xml:space="preserve">
<path style="fill:#D3552B;" d="M471.149,219.234v65.362l-21.787,98.043l54.468-21.787V186.553
	C485.81,186.553,471.149,201.214,471.149,219.234z"/>
<g>
	<path style="fill:#E86C16;" d="M438.468,284.596V159.319c0-9.024-7.316-16.34-16.34-16.34c-9.024,0-16.34,7.316-16.34,16.34
		v201.532h65.362v-76.255H438.468z"/>
	<path style="fill:#E86C16;" d="M351.319,295.489h-27.234v-65.362c0-18.02-14.661-32.681-32.681-32.681v-38.128
		c0-9.024-7.316-16.34-16.34-16.34c-9.024,0-16.34,7.316-16.34,16.34v70.809h-38.128v-65.362c0-18.02-14.661-32.681-32.681-32.681
		v-21.787c0-17.974-14.706-32.681-32.681-32.681h-32.681v326.808l250.553-43.574L351.319,295.489z"/>
</g>
<path style="fill:#FE9528;" d="M35.404,186.553v65.362H8.17v108.936l81.702,21.787L68.085,153.872
	C50.065,153.872,35.404,168.533,35.404,186.553z"/>
<path style="fill:#FD8300;" d="M291.404,159.319c0-9.024-7.316-16.34-16.34-16.34c-9.024,0-16.34,7.316-16.34,16.34v70.809h-70.809
	v-65.362c0-18.02-14.661-32.681-32.681-32.681v-21.787c0-17.974-14.706-32.681-32.681-32.681h-21.787
	c-17.974,0-32.681,14.706-32.681,32.681v272.34h223.319V159.319z"/>
<polygon style="fill:#FFA850;" points="471.149,360.851 449.362,434.383 471.149,507.915 503.83,507.915 503.83,360.851 "/>
<rect x="8.17" y="360.851" style="fill:#FEC14D;" width="462.979" height="147.064"/>
<path style="fill:#E86C16;" d="M348.596,12.255l-21.787,38.128l21.787,38.128c21.057,0,38.128-17.07,38.128-38.128
	S369.653,12.255,348.596,12.255z"/>
<path style="fill:#FE9528;" d="M310.468,50.383c0,21.057,17.07,38.128,38.128,38.128V12.255
	C327.538,12.255,310.468,29.326,310.468,50.383z"/>
<path d="M503.83,352.681h-89.872V159.319c0-4.506,3.665-8.17,8.17-8.17s8.17,3.665,8.17,8.17V328.17c0,4.513,3.657,8.17,8.17,8.17
	c4.513,0,8.17-3.657,8.17-8.17v-33.848h24.511c4.513,0,8.17-3.657,8.17-8.17v-66.918c0-13.515,10.996-24.511,24.511-24.511
	c4.513,0,8.17-3.657,8.17-8.17c0-4.513-3.657-8.17-8.17-8.17c-22.526,0-40.851,18.325-40.851,40.851v58.748h-16.34V159.319
	c0-13.515-10.996-24.511-24.511-24.511c-13.515,0-24.511,10.996-24.511,24.511v193.362h-18.622l-19.926-59.775
	c-1.112-3.337-4.234-5.586-7.751-5.586h-19.064v-57.191c0-19.728-14.057-36.233-32.681-40.029v-30.78
	c0-13.515-10.996-24.511-24.511-24.511c-13.515,0-24.511,10.996-24.511,24.511v62.638h-21.787v-57.191
	c0-19.727-14.058-36.234-32.681-40.031v-14.437c0-22.526-18.325-40.851-40.851-40.851h-54.468
	c-22.526,0-40.851,18.325-40.851,40.851v36.227c-18.624,3.795-32.681,20.3-32.681,40.029v57.191H8.17c-4.512,0-8.17,3.657-8.17,8.17
	c0,4.513,3.658,8.17,8.17,8.17h27.234c4.512,0,8.17-3.657,8.17-8.17v-65.362c0-10.651,6.831-19.733,16.34-23.105v66.68
	c0,4.513,3.658,8.17,8.17,8.17s8.17-3.657,8.17-8.17v-119.83c0-13.515,10.995-24.511,24.511-24.511h54.468
	c13.516,0,24.511,10.996,24.511,24.511v21.787c0,4.513,3.658,8.17,8.17,8.17c13.516,0,24.511,10.996,24.511,24.511v65.362
	c0,4.513,3.658,8.17,8.17,8.17h29.957v89.872c0,4.513,3.658,8.17,8.17,8.17c4.513,0,8.17-3.657,8.17-8.17V159.319
	c0-4.506,3.665-8.17,8.17-8.17s8.17,3.665,8.17,8.17v70.809c0,4.513,3.657,8.17,8.17,8.17c4.513,0,8.17-3.657,8.17-8.17v-23.105
	c9.509,3.373,16.34,12.455,16.34,23.105v65.362c0,4.513,3.657,8.17,8.17,8.17h21.346l16.34,49.021H8.17
	c-4.512,0-8.17,3.657-8.17,8.17c0,4.513,3.658,8.17,8.17,8.17h364.908c0.053,0,130.752,0,130.752,0c4.513,0,8.17-3.657,8.17-8.17
	C512,356.338,508.343,352.681,503.83,352.681z"/>
<path d="M76.255,328.17v-65.362c0-4.513-3.658-8.17-8.17-8.17s-8.17,3.657-8.17,8.17v65.362c0,4.513,3.658,8.17,8.17,8.17
	S76.255,332.683,76.255,328.17z"/>
<path d="M348.596,96.681c25.529,0,46.298-20.769,46.298-46.298S374.125,4.085,348.596,4.085s-46.298,20.769-46.298,46.298
	S323.067,96.681,348.596,96.681z M348.596,20.426c16.518,0,29.957,13.439,29.957,29.957S365.114,80.34,348.596,80.34
	s-29.957-13.439-29.957-29.957S332.078,20.426,348.596,20.426z"/>
<circle cx="81.702" cy="434.383" r="8.17"/>
<circle cx="49.021" cy="467.064" r="8.17"/>
<circle cx="430.298" cy="445.277" r="8.17"/>
</svg>