<?xml version="1.0" encoding="iso-8859-1"?>
<!-- Uploaded to: SVG Repo, www.svgrepo.com, Generator: SVG Repo Mixer Tools -->
<svg height="800px" width="800px" version="1.1" id="Layer_1" xmlns="http://www.w3.org/2000/svg" xmlns:xlink="http://www.w3.org/1999/xlink" 
	 viewBox="0 0 512 512" xml:space="preserve">
<path style="fill:#FE9528;" d="M471.149,335.401C255.475,322.63,244.598,183.83,8.17,183.83v152.508l462.979,138.896V335.401z"/>
<path style="fill:#FFA850;" d="M471.149,184.771l-32.681,161.572l32.681,161.572h32.681V183.83
	C492.426,183.83,481.551,184.156,471.149,184.771z"/>
<path style="fill:#FEC14D;" d="M8.17,336.34v171.574h462.979V184.771C255.479,197.545,244.597,336.34,8.17,336.34z"/>
<path style="fill:#E86C16;" d="M256,44.936v98.043c27.074,0,49.021-21.947,49.021-49.021S283.074,44.936,256,44.936z"/>
<g>
	<path style="fill:#FE9528;" d="M272.34,93.957c0-27.074-7.316-49.021-16.34-49.021c-27.074,0-49.021,21.947-49.021,49.021
		s21.947,49.021,49.021,49.021C265.024,142.979,272.34,121.031,272.34,93.957z"/>
	<path style="fill:#FE9528;" d="M324.148,147.176c-1.549,0-3.114-0.44-4.503-1.36c-3.763-2.491-4.792-7.56-2.301-11.323
		c7.973-12.042,12.188-26.059,12.188-40.536c0-40.546-32.986-73.532-73.532-73.532c-34.835,0-65.138,24.736-72.058,58.817
		c-0.898,4.423-5.212,7.279-9.632,6.38c-4.423-0.897-7.279-5.209-6.38-9.632C176.387,34.327,213.427,4.085,256,4.085
		c49.555,0,89.872,40.317,89.872,89.872c0,17.697-5.154,34.833-14.906,49.557C329.396,145.889,326.797,147.176,324.148,147.176z"/>
	<path style="fill:#FE9528;" d="M256,183.83c-42.573,0-79.613-30.242-88.072-71.907c-0.898-4.423,1.959-8.736,6.38-9.632
		c4.421-0.901,8.736,1.96,9.632,6.38c6.921,34.081,37.225,58.817,72.058,58.817c14.478,0,28.494-4.215,40.536-12.188
		c3.759-2.49,8.83-1.462,11.323,2.301c2.491,3.762,1.462,8.83-2.301,11.323C290.833,178.676,273.697,183.83,256,183.83z"/>
</g>
<path d="M8.17,192c96.048,0,154.302,22.436,212.22,56.125c1.293,0.751,2.705,1.109,4.1,1.109c2.814,0,5.554-1.455,7.07-4.063
	c2.268-3.9,0.946-8.901-2.955-11.17c-22.309-12.975-52.826-29.355-91.117-40.935C98.764,181.353,56.464,175.66,8.17,175.66
	c-4.513,0-8.17,3.657-8.17,8.17C0,188.343,3.657,192,8.17,192z"/>
<path d="M503.83,175.66c-126.228,0-190.223,39.382-252.112,77.467C189.006,291.719,129.772,328.17,8.17,328.17
	c-4.513,0-8.17,3.657-8.17,8.17c0,4.513,3.657,8.17,8.17,8.17c126.228,0,190.223-39.382,252.112-77.467
	C322.994,228.451,382.228,192,503.83,192c4.513,0,8.17-3.657,8.17-8.17C512,179.317,508.343,175.66,503.83,175.66z"/>
<path d="M256,36.766c-31.535,0-57.191,25.657-57.191,57.191s25.657,57.191,57.191,57.191s57.191-25.657,57.191-57.191
	S287.535,36.766,256,36.766z M256,134.809c-22.526,0-40.851-18.325-40.851-40.851S233.474,53.106,256,53.106
	c22.526,0,40.851,18.325,40.851,40.851S278.526,134.809,256,134.809z"/>
<circle cx="49.021" cy="225.683" r="8.17"/>
<circle cx="81.702" cy="258.364" r="8.17"/>
<circle cx="397.617" cy="434.383" r="8.17"/>
<circle cx="430.298" cy="467.064" r="8.17"/>
<circle cx="462.979" cy="258.364" r="8.17"/>
<circle cx="81.702" cy="434.383" r="8.17"/>
</svg>