<?xml version="1.0" encoding="UTF-8" standalone="no"?>
<!-- Uploaded to: SVG Repo, www.svgrepo.com, Generator: SVG Repo Mixer Tools -->

<svg
   height="800px"
   width="800px"
   version="1.1"
   id="Layer_1"
   viewBox="0 0 512 512"
   xml:space="preserve"
   sodipodi:docname="desert.svg"
   inkscape:version="1.4.4 (dcaf3e7d9e, 2026-05-05)"
   xmlns:inkscape="http://www.inkscape.org/namespaces/inkscape"
   xmlns:sodipodi="http://sodipodi.sourceforge.net/DTD/sodipodi-0.dtd"
   xmlns="http://www.w3.org/2000/svg"
   xmlns:svg="http://www.w3.org/2000/svg"><defs
   id="defs15" /><sodipodi:namedview
   id="namedview15"
   pagecolor="#ffffff"
   bordercolor="#000000"
   borderopacity="0.25"
   inkscape:showpageshadow="2"
   inkscape:pageopacity="0.0"
   inkscape:pagecheckerboard="0"
   inkscape:deskcolor="#d1d1d1"
   inkscape:zoom="1"
   inkscape:cx="399.5"
   inkscape:cy="400"
   inkscape:window-width="1920"
   inkscape:window-height="1011"
   inkscape:window-x="0"
   inkscape:window-y="0"
   inkscape:window-maximized="1"
   inkscape:current-layer="Layer_1" />














<path
   style="fill:#ffe246;fill-opacity:1"
   d="M 471.149,335.401 C 255.475,322.63 244.598,183.83 8.17,183.83 v 152.508 l 462.979,138.896 z"
   id="path1" /><path
   style="fill:#ffe246;fill-opacity:1"
   d="m 471.149,184.771 -32.681,161.572 32.681,161.572 H 503.83 V 183.83 c -11.404,0 -22.279,0.326 -32.681,0.941 z"
   id="path2" /><path
   style="fill:#ffd700;fill-opacity:1"
   d="M 8.17,336.34 V 507.914 H 471.149 V 184.771 C 255.479,197.545 244.597,336.34 8.17,336.34 Z"
   id="path3" /><path
   style="fill:#ffa000;fill-opacity:1"
   d="m 256,44.936 v 98.043 c 27.074,0 49.021,-21.947 49.021,-49.021 0,-27.074 -21.947,-49.022 -49.021,-49.022 z"
   id="path4" /><path
   style="fill:#ffe246;fill-opacity:1"
   d="m 272.34,93.957 c 0,-27.074 -7.316,-49.021 -16.34,-49.021 -27.074,0 -49.021,21.947 -49.021,49.021 0,27.074 21.947,49.021 49.021,49.021 9.024,0.001 16.34,-21.947 16.34,-49.021 z"
   id="path5" /><path
   style="fill:#ffe246;fill-opacity:1"
   d="m 324.148,147.176 c -1.549,0 -3.114,-0.44 -4.503,-1.36 -3.763,-2.491 -4.792,-7.56 -2.301,-11.323 7.973,-12.042 12.188,-26.059 12.188,-40.536 0,-40.546 -32.986,-73.532 -73.532,-73.532 -34.835,0 -65.138,24.736 -72.058,58.817 -0.898,4.423 -5.212,7.279 -9.632,6.38 -4.423,-0.897 -7.279,-5.209 -6.38,-9.632 8.457,-41.663 45.497,-71.905 88.07,-71.905 49.555,0 89.872,40.317 89.872,89.872 0,17.697 -5.154,34.833 -14.906,49.557 -1.57,2.375 -4.169,3.662 -6.818,3.662 z"
   id="path6" /><path
   style="fill:#ffe246;fill-opacity:1"
   d="m 256,183.83 c -42.573,0 -79.613,-30.242 -88.072,-71.907 -0.898,-4.423 1.959,-8.736 6.38,-9.632 4.421,-0.901 8.736,1.96 9.632,6.38 6.921,34.081 37.225,58.817 72.058,58.817 14.478,0 28.494,-4.215 40.536,-12.188 3.759,-2.49 8.83,-1.462 11.323,2.301 2.491,3.762 1.462,8.83 -2.301,11.323 -14.723,9.752 -31.859,14.906 -49.556,14.906 z"
   id="path7" /><path
   d="m 8.17,192 c 96.048,0 154.302,22.436 212.22,56.125 1.293,0.751 2.705,1.109 4.1,1.109 2.814,0 5.554,-1.455 7.07,-4.063 2.268,-3.9 0.946,-8.901 -2.955,-11.17 C 206.296,221.026 175.779,204.646 137.488,193.066 98.764,181.353 56.464,175.66 8.17,175.66 3.657,175.66 0,179.317 0,183.83 0,188.343 3.657,192 8.17,192 Z"
   id="path8"
   style="fill:#000000;fill-opacity:1" /><path
   d="m 503.83,175.66 c -126.228,0 -190.223,39.382 -252.112,77.467 -62.712,38.592 -121.946,75.043 -243.548,75.043 -4.513,0 -8.17,3.657 -8.17,8.17 0,4.513 3.657,8.17 8.17,8.17 126.228,0 190.223,-39.382 252.112,-77.467 C 322.994,228.451 382.228,192 503.83,192 c 4.513,0 8.17,-3.657 8.17,-8.17 0,-4.513 -3.657,-8.17 -8.17,-8.17 z"
   id="path9"
   style="fill:#000000" /><path
   d="m 256,36.766 c -31.535,0 -57.191,25.657 -57.191,57.191 0,31.534 25.657,57.191 57.191,57.191 31.534,0 57.191,-25.657 57.191,-57.191 0,-31.534 -25.656,-57.191 -57.191,-57.191 z m 0,98.043 c -22.526,0 -40.851,-18.325 -40.851,-40.851 0,-22.526 18.325,-40.852 40.851,-40.852 22.526,0 40.851,18.325 40.851,40.851 0,22.526 -18.325,40.852 -40.851,40.852 z"
   id="path10"
   style="fill:#000000;fill-opacity:1" /><circle
   cx="49.021"
   cy="225.683"
   r="8.1700001"
   id="circle10"
   style="fill:#000000;fill-opacity:1" /><circle
   cx="81.702003"
   cy="258.36401"
   r="8.1700001"
   id="circle11" /><circle
   cx="397.617"
   cy="434.383"
   r="8.1700001"
   id="circle12"
   style="fill:#000000;fill-opacity:1" /><circle
   cx="430.298"
   cy="467.064"
   r="8.1700001"
   id="circle13"
   style="fill:#000000;fill-opacity:1" /><circle
   cx="462.979"
   cy="258.36401"
   r="8.1700001"
   id="circle14"
   style="fill:#000000;fill-opacity:1" /><circle
   cx="81.702003"
   cy="434.383"
   r="8.1700001"
   id="circle15"
   style="fill:#000000;fill-opacity:1" /></svg>
