<?xml version="1.0" encoding="UTF-8" standalone="no"?>
<!-- Uploaded to: SVG Repo, www.svgrepo.com, Generator: SVG Repo Mixer Tools -->

<svg
   version="1.1"
   id="Layer_1"
   viewBox="0 0 512 512"
   xml:space="preserve"
   sodipodi:docname="flowers.svg"
   inkscape:version="1.4.4 (dcaf3e7d9e, 2026-05-05)"
   xmlns:inkscape="http://www.inkscape.org/namespaces/inkscape"
   xmlns:sodipodi="http://sodipodi.sourceforge.net/DTD/sodipodi-0.dtd"
   xmlns:xlink="http://www.w3.org/1999/xlink"
   xmlns="http://www.w3.org/2000/svg"
   xmlns:svg="http://www.w3.org/2000/svg"><defs
   id="defs21" /><sodipodi:namedview
   id="namedview21"
   pagecolor="#ffffff"
   bordercolor="#666666"
   borderopacity="1.0"
   inkscape:showpageshadow="2"
   inkscape:pageopacity="0.0"
   inkscape:pagecheckerboard="0"
   inkscape:deskcolor="#d1d1d1"
   inkscape:zoom="1.5625"
   inkscape:cx="255.68"
   inkscape:cy="256"
   inkscape:window-width="1920"
   inkscape:window-height="1011"
   inkscape:window-x="0"
   inkscape:window-y="0"
   inkscape:window-maximized="1"
   inkscape:current-layer="Layer_1"
   showgrid="false" />






















<g
   id="g2">
	<path
   style="fill:#d9f7ff"
   d="M 435.907,128.272 H 403.296 V 73.919 h 32.611 c 15.012,0 27.176,12.164 27.176,27.176 0,15.012 -12.164,27.177 -27.176,27.177 z"
   id="path1-0" />
	<path
   style="fill:#d9f7ff"
   d="M 297.308,128.272 237.52,106.531 v 48.917 h 32.611 c 15.013,0 27.177,-12.164 27.177,-27.176 z"
   id="path2-6" />
</g><path
   style="fill:#ffffff"
   d="m 403.295,128.272 c 15.012,0 27.176,-12.164 27.176,-27.176 0,-15.012 -12.164,-27.176 -27.176,-27.176 H 213.062 c -15.012,0 -27.176,12.164 -27.176,27.176 H 77.18 c -15.012,0 -27.176,12.164 -27.176,27.176 0,15.012 12.164,27.176 27.176,27.176 h 160.34 c 15.012,0 27.176,-12.164 27.176,-27.176 h 32.611 z"
   id="path3-8" /><path
   style="fill:#d9f7ff"
   d="M 476.671,166.318 H 444.06 v 54.352 h 32.611 c 15.012,0 27.176,-12.164 27.176,-27.176 0,-15.012 -12.164,-27.176 -27.176,-27.176 z"
   id="path4-9" /><path
   style="fill:#ffffff"
   d="m 444.059,166.318 c 15.012,0 27.176,12.164 27.176,27.176 0,15.012 -12.164,27.176 -27.176,27.176 H 362.53 c -15.012,0 -27.176,-12.164 -27.176,-27.176 0,-15.012 12.164,-27.176 27.176,-27.176 z"
   id="path5-2" /><path
   style="fill:#d9f7ff"
   d="m 150.556,8.696 h -32.611 v 54.352 h 32.611 c 15.012,0 27.176,-12.164 27.176,-27.176 0,-15.012 -12.164,-27.176 -27.176,-27.176 z"
   id="path6-6" /><path
   style="fill:#ffffff"
   d="m 117.945,8.696 c 15.012,0 27.176,12.164 27.176,27.176 0,15.012 -12.164,27.176 -27.176,27.176 H 36.416 C 21.404,63.048 9.24,50.884 9.24,35.872 9.24,20.86 21.404,8.696 36.416,8.696 Z"
   id="path7-6" /><path
   d="m 77.18,92.943 c -19.48,0 -35.329,15.848 -35.329,35.329 0,19.481 15.849,35.329 35.329,35.329 h 192.951 c 16.675,0 30.69,-11.613 34.38,-27.176 h 131.395 c 19.481,0 35.329,-15.848 35.329,-35.329 0,-19.481 -15.848,-35.329 -35.329,-35.329 H 267.414 c -4.504,0 -8.153,3.649 -8.153,8.153 0,4.504 3.649,8.153 8.153,8.153 h 168.493 c 10.489,0 19.023,8.534 19.023,19.023 0,10.489 -8.534,19.023 -19.023,19.023 H 297.308 c -4.504,0 -8.153,3.649 -8.153,8.153 0,10.489 -8.534,19.023 -19.023,19.023 H 77.18 c -10.489,0 -19.023,-8.534 -19.023,-19.023 0,-10.489 8.534,-19.023 19.023,-19.023 h 108.705 c 4.503,0 8.153,-3.649 8.153,-8.153 0,-10.489 8.534,-19.023 19.023,-19.023 h 21.741 c 4.503,0 8.153,-3.649 8.153,-8.153 0,-4.504 -3.65,-8.153 -8.153,-8.153 h -21.741 c -16.675,0 -30.69,11.613 -34.379,27.176 z"
   id="path8-4"
   style="fill:#000000" /><path
   d="m 327.202,193.495 c 0,19.481 15.848,35.329 35.329,35.329 h 114.14 c 19.481,0 35.329,-15.848 35.329,-35.329 0,-19.481 -15.848,-35.329 -35.329,-35.329 h -114.14 c -19.481,0 -35.329,15.848 -35.329,35.329 z m 168.492,0 c 0,10.489 -8.534,19.023 -19.023,19.023 h -114.14 c -10.489,0 -19.023,-8.534 -19.023,-19.023 0,-10.489 8.534,-19.023 19.023,-19.023 h 114.14 c 10.489,-0.001 19.023,8.534 19.023,19.023 z"
   id="path9-9"
   style="fill:#000000;fill-opacity:1" /><path
   d="m 36.416,71.202 h 114.14 c 19.48,0 35.329,-15.848 35.329,-35.329 0,-19.481 -15.849,-35.329 -35.329,-35.329 H 36.416 c -19.48,0 -35.329,15.848 -35.329,35.329 0,19.481 15.849,35.329 35.329,35.329 z m 0,-54.353 h 114.14 c 10.489,0 19.023,8.534 19.023,19.023 0,10.489 -8.534,19.023 -19.023,19.023 H 36.416 c -10.489,0 -19.023,-8.534 -19.023,-19.023 0,-10.489 8.534,-19.023 19.023,-19.023 z"
   id="path10-5" /><path
   d="m 36.416,71.202 h 114.14 c 19.48,0 35.329,-15.848 35.329,-35.329 0,-19.481 -15.849,-35.329 -35.329,-35.329 H 36.416 c -19.48,0 -35.329,15.848 -35.329,35.329 0,19.481 15.849,35.329 35.329,35.329 z m 0,-54.353 h 114.14 c 10.489,0 19.023,8.534 19.023,19.023 0,10.489 -8.534,19.023 -19.023,19.023 H 36.416 c -10.489,0 -19.023,-8.534 -19.023,-19.023 0,-10.489 8.534,-19.023 19.023,-19.023 z"
   id="path10-0"
   style="fill:#000000" /><rect
   style="fill:#9932cc;fill-opacity:1;stroke:none;stroke-width:0.96;stroke-opacity:1"
   id="rect5"
   width="512"
   height="243.2"
   x="0"
   y="268.79999" /><g
   id="g8"
   transform="matrix(6.1207604,2.535302,-2.535302,6.1207604,-21.54268,39.03496)"
   style="fill:#9932cc;fill-opacity:1;stroke:#000000;stroke-opacity:1"><circle
     cx="24"
     cy="29.561327"
     r="3.4494119"
     fill="#ffffff"
     id="circle1"
     style="fill:#9932cc;fill-opacity:1;stroke:#000000;stroke-width:0.862353;stroke-opacity:1" /><ellipse
     cx="24"
     cy="20.075445"
     rx="3.0182352"
     ry="5.1741176"
     fill="#ffffff"
     id="ellipse1"
     style="fill:#9932cc;fill-opacity:1;stroke:#000000;stroke-width:0.862353;stroke-opacity:1" /><ellipse
     cx="24"
     cy="39.047211"
     rx="3.0182352"
     ry="5.1741176"
     fill="#ffffff"
     id="ellipse2"
     style="fill:#9932cc;fill-opacity:1;stroke:#000000;stroke-width:0.862353;stroke-opacity:1" /><ellipse
     cx="14.514117"
     cy="29.561327"
     rx="5.1741176"
     ry="3.0182352"
     fill="#ffffff"
     id="ellipse3"
     style="fill:#9932cc;fill-opacity:1;stroke:#000000;stroke-width:0.862353;stroke-opacity:1" /><ellipse
     cx="33.485882"
     cy="29.561327"
     rx="5.1741176"
     ry="3.0182352"
     fill="#ffffff"
     id="ellipse4"
     style="fill:#9932cc;fill-opacity:1;stroke:#000000;stroke-width:0.862353;stroke-opacity:1" /><ellipse
     cx="-3.9324522"
     cy="28.36108"
     rx="3.0182352"
     ry="5.1741176"
     transform="rotate(-45)"
     fill="#ffffff"
     id="ellipse5"
     style="fill:#9932cc;fill-opacity:1;stroke:#000000;stroke-width:0.862353;stroke-opacity:1" /><ellipse
     cx="-3.9324536"
     cy="47.386078"
     rx="3.0182352"
     ry="5.1741176"
     transform="rotate(-45)"
     fill="#ffffff"
     id="ellipse6"
     style="fill:#9932cc;fill-opacity:1;stroke:#000000;stroke-width:0.862353;stroke-opacity:1" /><ellipse
     cx="37.873577"
     cy="-5.5800462"
     rx="3.0182352"
     ry="5.1741176"
     transform="rotate(45)"
     fill="#ffffff"
     id="ellipse7"
     style="fill:#9932cc;fill-opacity:1;stroke:#000000;stroke-width:0.862353;stroke-opacity:1" /><ellipse
     cx="37.873581"
     cy="13.444951"
     rx="3.0182352"
     ry="5.1741176"
     transform="rotate(45)"
     fill="#ffffff"
     id="ellipse8"
     style="fill:#9932cc;fill-opacity:1;stroke:#000000;stroke-width:0.862353;stroke-opacity:1" /></g><use
   x="0"
   y="0"
   xlink:href="#g8"
   id="use2"
   transform="translate(204.16)" /><use
   x="0"
   y="0"
   xlink:href="#use2"
   id="use3"
   transform="translate(187.33573)" /><use
   x="0"
   y="0"
   xlink:href="#g8"
   id="use1"
   transform="matrix(0.80000007,0,0,0.80000007,105.17557,10.215857)" /><use
   x="0"
   y="0"
   xlink:href="#use1"
   id="use4"
   transform="translate(-36.615487,127.0421)" /><use
   x="0"
   y="0"
   xlink:href="#use1"
   id="use5"
   transform="translate(160.45639,117.76308)" /><use
   x="0"
   y="0"
   xlink:href="#use4"
   id="use6"
   transform="matrix(0.72062569,0,0,0.72062569,123.44787,122.04419)" /><use
   x="0"
   y="0"
   xlink:href="#use6"
   id="use7"
   transform="translate(69.268547,53.742221)" /><use
   x="0"
   y="0"
   xlink:href="#use7"
   id="use8"
   transform="translate(118.24517,-59.69957)" /><use
   x="0"
   y="0"
   xlink:href="#use8"
   id="use9"
   transform="translate(-27.729192,66.94419)" /><use
   x="0"
   y="0"
   xlink:href="#use9"
   id="use10"
   transform="translate(91.63046,-40.475418)" /><use
   x="0"
   y="0"
   xlink:href="#use10"
   id="use11"
   transform="translate(-362.00497,35.379818)" /></svg>
