<?xml version="1.0" encoding="UTF-8" standalone="no"?>
<svg
   viewBox="0 0 512 512"
   fill="none"
   version="1.1"
   id="svg18"
   sodipodi:docname="grass.svg"
   inkscape:version="1.4.4 (dcaf3e7d9e, 2026-05-05)"
   xmlns:inkscape="http://www.inkscape.org/namespaces/inkscape"
   xmlns:sodipodi="http://sodipodi.sourceforge.net/DTD/sodipodi-0.dtd"
   xmlns="http://www.w3.org/2000/svg"
   xmlns:svg="http://www.w3.org/2000/svg">
  <defs
     id="defs18" />
  <sodipodi:namedview
     id="namedview18"
     pagecolor="#ffffff"
     bordercolor="#000000"
     borderopacity="0.25"
     inkscape:showpageshadow="2"
     inkscape:pageopacity="0.0"
     inkscape:pagecheckerboard="0"
     inkscape:deskcolor="#d1d1d1"
     inkscape:zoom="1.5625"
     inkscape:cx="255.68"
     inkscape:cy="256"
     inkscape:window-width="1920"
     inkscape:window-height="1011"
     inkscape:window-x="0"
     inkscape:window-y="0"
     inkscape:window-maximized="1"
     inkscape:current-layer="svg18" />
  <g
     id="g2">
	<path
   style="fill:#d9f7ff"
   d="M 435.907,128.272 H 403.296 V 73.919 h 32.611 c 15.012,0 27.176,12.164 27.176,27.176 0,15.012 -12.164,27.177 -27.176,27.177 z"
   id="path1-0" />

	<path
   style="fill:#d9f7ff"
   d="M 297.308,128.272 237.52,106.531 v 48.917 h 32.611 c 15.013,0 27.177,-12.164 27.177,-27.176 z"
   id="path2-6" />

</g>
  <path
     style="fill:#ffffff"
     d="m 403.295,128.272 c 15.012,0 27.176,-12.164 27.176,-27.176 0,-15.012 -12.164,-27.176 -27.176,-27.176 H 213.062 c -15.012,0 -27.176,12.164 -27.176,27.176 H 77.18 c -15.012,0 -27.176,12.164 -27.176,27.176 0,15.012 12.164,27.176 27.176,27.176 h 160.34 c 15.012,0 27.176,-12.164 27.176,-27.176 h 32.611 z"
     id="path3-8" />
  <path
     style="fill:#d9f7ff"
     d="M 476.671,166.318 H 444.06 v 54.352 h 32.611 c 15.012,0 27.176,-12.164 27.176,-27.176 0,-15.012 -12.164,-27.176 -27.176,-27.176 z"
     id="path4-9" />
  <path
     style="fill:#ffffff"
     d="m 444.059,166.318 c 15.012,0 27.176,12.164 27.176,27.176 0,15.012 -12.164,27.176 -27.176,27.176 H 362.53 c -15.012,0 -27.176,-12.164 -27.176,-27.176 0,-15.012 12.164,-27.176 27.176,-27.176 z"
     id="path5-2" />
  <path
     style="fill:#d9f7ff"
     d="m 150.556,8.696 h -32.611 v 54.352 h 32.611 c 15.012,0 27.176,-12.164 27.176,-27.176 0,-15.012 -12.164,-27.176 -27.176,-27.176 z"
     id="path6-6" />
  <path
     style="fill:#ffffff"
     d="m 117.945,8.696 c 15.012,0 27.176,12.164 27.176,27.176 0,15.012 -12.164,27.176 -27.176,27.176 H 36.416 C 21.404,63.048 9.24,50.884 9.24,35.872 9.24,20.86 21.404,8.696 36.416,8.696 Z"
     id="path7-6" />
  <path
     d="m 77.18,92.943 c -19.48,0 -35.329,15.848 -35.329,35.329 0,19.481 15.849,35.329 35.329,35.329 h 192.951 c 16.675,0 30.69,-11.613 34.38,-27.176 h 131.395 c 19.481,0 35.329,-15.848 35.329,-35.329 0,-19.481 -15.848,-35.329 -35.329,-35.329 H 267.414 c -4.504,0 -8.153,3.649 -8.153,8.153 0,4.504 3.649,8.153 8.153,8.153 h 168.493 c 10.489,0 19.023,8.534 19.023,19.023 0,10.489 -8.534,19.023 -19.023,19.023 H 297.308 c -4.504,0 -8.153,3.649 -8.153,8.153 0,10.489 -8.534,19.023 -19.023,19.023 H 77.18 c -10.489,0 -19.023,-8.534 -19.023,-19.023 0,-10.489 8.534,-19.023 19.023,-19.023 h 108.705 c 4.503,0 8.153,-3.649 8.153,-8.153 0,-10.489 8.534,-19.023 19.023,-19.023 h 21.741 c 4.503,0 8.153,-3.649 8.153,-8.153 0,-4.504 -3.65,-8.153 -8.153,-8.153 h -21.741 c -16.675,0 -30.69,11.613 -34.379,27.176 z"
     id="path8-4"
     style="fill:#000000" />
  <path
     d="m 327.202,193.495 c 0,19.481 15.848,35.329 35.329,35.329 h 114.14 c 19.481,0 35.329,-15.848 35.329,-35.329 0,-19.481 -15.848,-35.329 -35.329,-35.329 h -114.14 c -19.481,0 -35.329,15.848 -35.329,35.329 z m 168.492,0 c 0,10.489 -8.534,19.023 -19.023,19.023 h -114.14 c -10.489,0 -19.023,-8.534 -19.023,-19.023 0,-10.489 8.534,-19.023 19.023,-19.023 h 114.14 c 10.489,-0.001 19.023,8.534 19.023,19.023 z"
     id="path9-9"
     style="fill:#000000;fill-opacity:1" />
  <path
     d="m 36.416,71.202 h 114.14 c 19.48,0 35.329,-15.848 35.329,-35.329 0,-19.481 -15.849,-35.329 -35.329,-35.329 H 36.416 c -19.48,0 -35.329,15.848 -35.329,35.329 0,19.481 15.849,35.329 35.329,35.329 z m 0,-54.353 h 114.14 c 10.489,0 19.023,8.534 19.023,19.023 0,10.489 -8.534,19.023 -19.023,19.023 H 36.416 c -10.489,0 -19.023,-8.534 -19.023,-19.023 0,-10.489 8.534,-19.023 19.023,-19.023 z"
     id="path10-5" />
  <!-- Ground fill -->
  <rect
     x="0"
     y="427"
     width="512"
     height="85"
     fill="#3d7a1e"
     id="rect1"
     style="fill:#7fff00;fill-opacity:1" />
  <!-- Blade shapes: closed filled paths tapered to a point at the tip -->
  <!-- Positions scaled 10.667x from 48x48 icon design -->
  <!-- Left tuft -->
  <path
     d="M 99.592765,426.1902 Q 88.634297,313.21126 85.645623,201.54604 104.57389,313.21126 115.53236,426.1902 Z"
     fill="#5aae2a"
     id="path1"
     style="stroke-width:1.14401" />
  <path
     d="m 131.47195,426.1902 q 0,-168.1547 7.96979,-281.13363 7.9698,112.97893 7.9698,281.13363 z"
     fill="#5aae2a"
     id="path2"
     style="stroke-width:1.14401" />
  <path
     d="m 163.35113,426.1902 q 9.96224,-112.97894 28.89051,-224.64416 -2.98868,111.66522 -12.95092,224.64416 z"
     fill="#5aae2a"
     id="path3"
     style="stroke-width:1.14401" />
  <!-- Center tuft (tallest) -->
  <path
     d="M 216.15102,426.1902 Q 205.19255,229.13391 213.16235,60.979223 221.13215,229.13391 232.09061,426.1902 Z"
     fill="#5aae2a"
     id="path4"
     style="stroke-width:1.14401" />
  <path
     d="M 244.04531,426.1902 Q 244.04531,173.95816 256,5.8034641 267.95469,173.95816 267.95469,426.1902 Z"
     fill="#78c840"
     id="path5"
     style="stroke-width:1.14401" />
  <path
     d="M 279.90939,426.1902 Q 290.86785,229.13391 298.83765,60.979223 306.80745,229.13391 295.84898,426.1902 Z"
     fill="#5aae2a"
     id="path6"
     style="stroke-width:1.14401" />
  <!-- Right tuft -->
  <path
     d="M 332.70928,426.1902 Q 322.74704,313.21126 319.75836,201.54604 338.68663,313.21126 348.64887,426.1902 Z"
     fill="#5aae2a"
     id="path7"
     style="stroke-width:1.14401" />
  <path
     d="m 364.58846,426.1902 q 0,-168.1547 7.9698,-281.13363 7.96979,112.97893 7.96979,281.13363 z"
     fill="#5aae2a"
     id="path8"
     style="stroke-width:1.14401" />
  <path
     d="M 396.46764,426.1902 Q 407.42611,313.21126 426.35438,201.54604 423.3657,313.21126 412.40723,426.1902 Z"
     fill="#5aae2a"
     id="path9"
     style="stroke-width:1.14401" />
  <!-- Black outlines on blades -->
  <path
     d="M 99.592765,426.1902 Q 88.634297,313.21126 85.645623,201.54604 104.57389,313.21126 115.53236,426.1902 Z"
     fill="none"
     stroke="#000000"
     stroke-width="8"
     stroke-linejoin="round"
     id="path10" />
  <path
     d="m 131.47195,426.1902 q 0,-168.1547 7.96979,-281.13363 7.9698,112.97893 7.9698,281.13363 z"
     fill="none"
     stroke="#000000"
     stroke-width="8"
     stroke-linejoin="round"
     id="path11" />
  <path
     d="m 163.35113,426.1902 q 9.96224,-112.97894 28.89051,-224.64416 -2.98868,111.66522 -12.95092,224.64416 z"
     fill="none"
     stroke="#000000"
     stroke-width="8"
     stroke-linejoin="round"
     id="path12" />
  <path
     d="M 216.15102,426.1902 Q 205.19255,229.13391 213.16235,60.979223 221.13215,229.13391 232.09061,426.1902 Z"
     fill="none"
     stroke="#000000"
     stroke-width="8"
     stroke-linejoin="round"
     id="path13" />
  <path
     d="M 244.04531,426.1902 Q 244.04531,173.95816 256,5.8034641 267.95469,173.95816 267.95469,426.1902 Z"
     fill="none"
     stroke="#000000"
     stroke-width="10"
     stroke-linejoin="round"
     id="path14" />
  <path
     d="M 279.90939,426.1902 Q 290.86785,229.13391 298.83765,60.979223 306.80745,229.13391 295.84898,426.1902 Z"
     fill="none"
     stroke="#000000"
     stroke-width="8"
     stroke-linejoin="round"
     id="path15" />
  <path
     d="M 332.70928,426.1902 Q 322.74704,313.21126 319.75836,201.54604 338.68663,313.21126 348.64887,426.1902 Z"
     fill="none"
     stroke="#000000"
     stroke-width="8"
     stroke-linejoin="round"
     id="path16" />
  <path
     d="m 364.58846,426.1902 q 0,-168.1547 7.9698,-281.13363 7.96979,112.97893 7.96979,281.13363 z"
     fill="none"
     stroke="#000000"
     stroke-width="8"
     stroke-linejoin="round"
     id="path17" />
  <path
     d="M 396.46764,426.1902 Q 407.42611,313.21126 426.35438,201.54604 423.3657,313.21126 412.40723,426.1902 Z"
     fill="none"
     stroke="#000000"
     stroke-width="8"
     stroke-linejoin="round"
     id="path18" />
  <!-- Ground line -->
  <line
     x1="43"
     y1="427"
     x2="469"
     y2="427"
     stroke="black"
     stroke-width="21"
     stroke-linecap="round"
     id="line18" />
  <path
     d="m 36.416,71.202 h 114.14 c 19.48,0 35.329,-15.848 35.329,-35.329 0,-19.481 -15.849,-35.329 -35.329,-35.329 H 36.416 c -19.48,0 -35.329,15.848 -35.329,35.329 0,19.481 15.849,35.329 35.329,35.329 z m 0,-54.353 h 114.14 c 10.489,0 19.023,8.534 19.023,19.023 0,10.489 -8.534,19.023 -19.023,19.023 H 36.416 c -10.489,0 -19.023,-8.534 -19.023,-19.023 0,-10.489 8.534,-19.023 19.023,-19.023 z"
     id="path10-0"
     style="fill:#000000" />
</svg>
