<?xml version="1.0" encoding="UTF-8" standalone="no"?>
<!-- Uploaded to: SVG Repo, www.svgrepo.com, Generator: SVG Repo Mixer Tools -->

<svg
   version="1.1"
   id="Layer_1"
   viewBox="0 0 512 512"
   xml:space="preserve"
   sodipodi:docname="timberland.svg"
   inkscape:version="1.4.4 (dcaf3e7d9e, 2026-05-05)"
   xmlns:inkscape="http://www.inkscape.org/namespaces/inkscape"
   xmlns:sodipodi="http://sodipodi.sourceforge.net/DTD/sodipodi-0.dtd"
   xmlns="http://www.w3.org/2000/svg"
   xmlns:svg="http://www.w3.org/2000/svg"><defs
   id="defs16" /><sodipodi:namedview
   id="namedview16"
   pagecolor="#ffffff"
   bordercolor="#000000"
   borderopacity="0.25"
   inkscape:showpageshadow="2"
   inkscape:pageopacity="0.0"
   inkscape:pagecheckerboard="0"
   inkscape:deskcolor="#d1d1d1"
   inkscape:zoom="1.5625"
   inkscape:cx="255.68"
   inkscape:cy="256"
   inkscape:window-width="1920"
   inkscape:window-height="1011"
   inkscape:window-x="0"
   inkscape:window-y="0"
   inkscape:window-maximized="1"
   inkscape:current-layer="Layer_1" />
<polygon
   style="fill:#6dc36d;fill-opacity:1"
   points="503.83,416.681 503.83,503.83 471.149,503.83 438.468,460.255 471.149,416.681 "
   id="polygon1" />
<rect
   x="8.17"
   y="416.681"
   style="fill:#228b22;fill-opacity:1"
   width="462.979"
   height="87.149"
   id="rect1" />
<polygon
   style="fill:#6dc36d;fill-opacity:1"
   points="440.473,241.25 468.426,241.25 410.733,141.022 433.021,131.181 362.213,8.17   318.638,208.569 362.213,351.319 503.83,351.319 "
   id="polygon2" />
<polygon
   style="fill:#73ed73;fill-opacity:1"
   points="362.213,351.319 220.596,351.319 283.953,241.25 256,241.25 319.357,131.181   291.404,131.181 362.213,8.17 "
   id="polygon3" />
<polygon
   style="fill:#589058;fill-opacity:1"
   points="228.047,241.25 256,241.25 198.307,141.022 220.596,131.181 149.787,8.17 117.106,208.569   149.787,351.319 291.404,351.319 "
   id="polygon4" />
<polygon
   style="fill:#66ac66;fill-opacity:1"
   points="149.787,351.319 8.17,351.319 71.527,241.25 43.574,241.25 106.932,131.181 78.979,131.181   149.787,8.17 "
   id="polygon5" />
<path
   d="M503.83,408.511H370.383v-49.021H503.83c2.917,0,5.612-1.556,7.073-4.081c1.46-2.525,1.463-5.637,0.008-8.166l-56.306-97.82  h13.821c2.917,0,5.612-1.556,7.073-4.081c1.46-2.525,1.463-5.637,0.008-8.166l-56.306-97.82h13.821c2.917,0,5.612-1.556,7.073-4.081  c1.46-2.525,1.463-5.637,0.008-8.166L369.294,4.094C367.836,1.561,365.136,0,362.213,0c-2.923,0-5.623,1.561-7.081,4.094  l-70.809,123.015c-1.455,2.528-1.452,5.641,0.008,8.166c1.46,2.525,4.156,4.081,7.073,4.081h13.821l-38.171,66.316  c-2.251,3.911-0.906,8.906,3.004,11.156c3.909,2.25,8.906,0.905,11.157-3.004l45.221-78.563c1.455-2.527,1.452-5.64-0.008-8.166  c-1.46-2.525-4.156-4.081-7.073-4.081h-13.821l56.678-98.467l56.678,98.467H405.07c-2.917,0-5.612,1.556-7.073,4.081  c-1.46,2.525-1.463,5.637-0.008,8.166l56.306,97.821h-13.821c-2.917,0-5.612,1.556-7.073,4.081c-1.46,2.525-1.463,5.637-0.008,8.166  l56.306,97.82H327.673c-4.512,0-8.17,3.658-8.17,8.17c0,4.512,3.658,8.17,8.17,8.17h26.369v49.021H157.957v-49.021h133.447  c2.917,0,5.612-1.556,7.073-4.081c1.46-2.525,1.463-5.637,0.008-8.166l-56.306-97.82H256c4.534,0,8.192-3.658,8.192-8.17  c0-1.687-0.512-3.256-1.388-4.558l-56.029-97.339h13.821c4.534,0,8.192-3.658,8.192-8.17c0-1.687-0.512-3.256-1.388-4.558  L156.868,4.094C155.411,1.561,152.71,0,149.787,0s-5.623,1.561-7.081,4.094L71.898,127.11c-1.455,2.528-1.452,5.641,0.008,8.166  c1.46,2.525,4.156,4.081,7.073,4.081h13.821l-56.306,97.82c-1.455,2.528-1.452,5.641,0.008,8.166  c1.46,2.525,4.156,4.081,7.073,4.081h13.821L1.089,347.243c-1.455,2.528-1.452,5.641,0.008,8.166  c1.461,2.525,4.156,4.081,7.073,4.081h133.447v49.021H8.17c-4.512,0-8.17,3.658-8.17,8.17s3.658,8.17,8.17,8.17h495.66  c4.512,0,8.17-3.658,8.17-8.17S508.342,408.511,503.83,408.511z M78.606,245.329c1.455-2.528,1.452-5.641-0.008-8.166  c-1.46-2.525-4.156-4.081-7.073-4.081H57.705l56.306-97.821c1.455-2.527,1.452-5.64-0.008-8.166  c-1.46-2.525-4.156-4.081-7.073-4.081H93.109l56.678-98.467l56.678,98.467h-13.821c-2.917,0-5.612,1.556-7.073,4.081  c-1.46,2.525-1.463,5.637-0.008,8.166l56.306,97.821h-13.821c-2.917,0-5.612,1.556-7.073,4.081c-1.46,2.525-1.463,5.637-0.008,8.166  l56.306,97.82H22.3L78.606,245.329z"
   id="path5" />
<path
   d="M40.851,441.191c-4.512,0-8.17,3.658-8.17,8.17v10.894c0,4.512,3.658,8.17,8.17,8.17s8.17-3.658,8.17-8.17v-10.894  C49.021,444.85,45.363,441.191,40.851,441.191z"
   id="path6" />
<path
   d="M73.532,484.766c-4.512,0-8.17,3.658-8.17,8.17v10.894c0,4.512,3.658,8.17,8.17,8.17c4.512,0,8.17-3.658,8.17-8.17v-10.894  C81.702,488.424,78.044,484.766,73.532,484.766z"
   id="path7" />
<path
   d="M106.213,462.979c-4.512,0-8.17,3.658-8.17,8.17v10.894c0,4.512,3.658,8.17,8.17,8.17c4.512,0,8.17-3.658,8.17-8.17v-10.894  C114.383,466.637,110.725,462.979,106.213,462.979z"
   id="path8" />
<path
   d="M471.149,441.191c-4.512,0-8.17,3.658-8.17,8.17v10.894c0,4.512,3.658,8.17,8.17,8.17s8.17-3.658,8.17-8.17v-10.894  C479.319,444.85,475.661,441.191,471.149,441.191z"
   id="path9" />
<path
   d="M318.638,484.766c-4.512,0-8.17,3.658-8.17,8.17v10.894c0,4.512,3.658,8.17,8.17,8.17c4.512,0,8.17-3.658,8.17-8.17v-10.894  C326.809,488.424,323.15,484.766,318.638,484.766z"
   id="path10" />
<path
   d="M351.319,462.979c-4.512,0-8.17,3.658-8.17,8.17v10.894c0,4.512,3.658,8.17,8.17,8.17c4.512,0,8.17-3.658,8.17-8.17v-10.894  C359.489,466.637,355.831,462.979,351.319,462.979z"
   id="path11" />
<path
   d="M198.809,462.979c-4.512,0-8.17,3.658-8.17,8.17v10.894c0,4.512,3.658,8.17,8.17,8.17c4.512,0,8.17-3.658,8.17-8.17v-10.894  C206.979,466.637,203.321,462.979,198.809,462.979z"
   id="path12" />
<path
   d="M117.106,254.869c-4.512,0-8.17,3.658-8.17,8.17v10.894c0,4.512,3.658,8.17,8.17,8.17c4.512,0,8.17-3.658,8.17-8.17v-10.894  C125.277,258.527,121.619,254.869,117.106,254.869z"
   id="path13" />
<path
   d="M157.957,241.252v-10.894c0-4.512-3.658-8.17-8.17-8.17s-8.17,3.658-8.17,8.17v10.894c0,4.512,3.658,8.17,8.17,8.17  S157.957,245.764,157.957,241.252z"
   id="path14" />
<path
   d="M370.383,182.468v-10.894c0-4.512-3.658-8.17-8.17-8.17c-4.512,0-8.17,3.658-8.17,8.17v10.894c0,4.512,3.658,8.17,8.17,8.17  C366.725,190.638,370.383,186.98,370.383,182.468z"
   id="path15" />
<path
   d="M403.064,291.404v-10.894c0-4.512-3.658-8.17-8.17-8.17c-4.512,0-8.17,3.658-8.17,8.17v10.894c0,4.512,3.658,8.17,8.17,8.17  C399.406,299.574,403.064,295.916,403.064,291.404z"
   id="path16" />
</svg>
