<?xml version="1.0" encoding="UTF-8" standalone="no"?>
<!-- Uploaded to: SVG Repo, www.svgrepo.com, Generator: SVG Repo Mixer Tools -->

<svg
   version="1.1"
   id="Layer_1"
   viewBox="0 0 512 512"
   xml:space="preserve"
   sodipodi:docname="flowers.svg"
   inkscape:version="1.4 (e7c3feb100, 2024-10-09)"
   xmlns:inkscape="http://www.inkscape.org/namespaces/inkscape"
   xmlns:sodipodi="http://sodipodi.sourceforge.net/DTD/sodipodi-0.dtd"
   xmlns="http://www.w3.org/2000/svg"
   xmlns:svg="http://www.w3.org/2000/svg"><defs
   id="defs21" /><sodipodi:namedview
   id="namedview21"
   pagecolor="#ffffff"
   bordercolor="#666666"
   borderopacity="1.0"
   inkscape:showpageshadow="2"
   inkscape:pageopacity="0.0"
   inkscape:pagecheckerboard="0"
   inkscape:deskcolor="#d1d1d1"
   inkscape:zoom="1.5625"
   inkscape:cx="255.68"
   inkscape:cy="256"
   inkscape:window-width="1920"
   inkscape:window-height="1011"
   inkscape:window-x="0"
   inkscape:window-y="0"
   inkscape:window-maximized="1"
   inkscape:current-layer="Layer_1" />
<g
   id="g2">
	<path
   style="fill:#D9F7FF;"
   d="M435.907,128.272h-32.611V73.919h32.611c15.012,0,27.176,12.164,27.176,27.176   S450.919,128.272,435.907,128.272z"
   id="path1" />
	<path
   style="fill:#D9F7FF;"
   d="M297.308,128.272l-59.788-21.741v48.917h32.611C285.144,155.448,297.308,143.284,297.308,128.272z"
   id="path2" />
</g>
<path
   style="fill:#FFFFFF;"
   d="M403.295,128.272c15.012,0,27.176-12.164,27.176-27.176s-12.164-27.176-27.176-27.176H213.062  c-15.012,0-27.176,12.164-27.176,27.176H77.18c-15.012,0-27.176,12.164-27.176,27.176c0,15.012,12.164,27.176,27.176,27.176h160.34  c15.012,0,27.176-12.164,27.176-27.176h32.611H403.295z"
   id="path3" />
<path
   style="fill:#D9F7FF;"
   d="M476.671,166.318h-32.611v54.352h32.611c15.012,0,27.176-12.164,27.176-27.176  S491.683,166.318,476.671,166.318z"
   id="path4" />
<path
   style="fill:#FFFFFF;"
   d="M444.059,166.318c15.012,0,27.176,12.164,27.176,27.176s-12.164,27.176-27.176,27.176h-81.529  c-15.012,0-27.176-12.164-27.176-27.176s12.164-27.176,27.176-27.176H444.059z"
   id="path5" />
<path
   style="fill:#D9F7FF;"
   d="M150.556,8.696h-32.611v54.352h32.611c15.012,0,27.176-12.164,27.176-27.176  S165.568,8.696,150.556,8.696z"
   id="path6" />
<path
   style="fill:#FFFFFF;"
   d="M117.945,8.696c15.012,0,27.176,12.164,27.176,27.176s-12.164,27.176-27.176,27.176H36.416  c-15.012,0-27.176-12.164-27.176-27.176S21.404,8.696,36.416,8.696H117.945z"
   id="path7" />
<polygon
   style="fill:#dd55ff"
   points="471.236,256 449.495,379.652 471.236,503.304 503.847,503.304 503.847,256 "
   id="polygon7" />
<rect
   x="9.24"
   y="256"
   style="fill:#e580ff"
   width="461.996"
   height="247.304"
   id="rect7" />
<path
   d="M77.18,92.943c-19.48,0-35.329,15.848-35.329,35.329s15.849,35.329,35.329,35.329h192.951  c16.675,0,30.69-11.613,34.38-27.176h131.395c19.481,0,35.329-15.848,35.329-35.329s-15.848-35.329-35.329-35.329H267.414  c-4.504,0-8.153,3.649-8.153,8.153s3.649,8.153,8.153,8.153h168.493c10.489,0,19.023,8.534,19.023,19.023  s-8.534,19.023-19.023,19.023H297.308c-4.504,0-8.153,3.649-8.153,8.153c0,10.489-8.534,19.023-19.023,19.023H77.18  c-10.489,0-19.023-8.534-19.023-19.023s8.534-19.023,19.023-19.023h108.705c4.503,0,8.153-3.649,8.153-8.153  c0-10.489,8.534-19.023,19.023-19.023h21.741c4.503,0,8.153-3.649,8.153-8.153c0-4.504-3.65-8.153-8.153-8.153h-21.741  c-16.675,0-30.69,11.613-34.379,27.176H77.18z"
   id="path8" />
<path
   d="M327.202,193.495c0,19.481,15.848,35.329,35.329,35.329h114.14c19.481,0,35.329-15.848,35.329-35.329  s-15.848-35.329-35.329-35.329h-114.14C343.05,158.166,327.202,174.014,327.202,193.495z M495.694,193.495  c0,10.489-8.534,19.023-19.023,19.023h-114.14c-10.489,0-19.023-8.534-19.023-19.023s8.534-19.023,19.023-19.023h114.14  C487.16,174.471,495.694,183.006,495.694,193.495z"
   id="path9" />
<path
   d="M36.416,71.202h114.14c19.48,0,35.329-15.848,35.329-35.329S170.036,0.544,150.556,0.544H36.416  c-19.48,0-35.329,15.848-35.329,35.329S16.936,71.202,36.416,71.202z M36.416,16.849h114.14c10.489,0,19.023,8.534,19.023,19.023  s-8.534,19.023-19.023,19.023H36.416c-10.489,0-19.023-8.534-19.023-19.023S25.927,16.849,36.416,16.849z"
   id="path10" />
<path
   d="M502.76,247.847H336.985v-2.718c0-4.504-3.649-8.153-8.153-8.153c-4.504,0-8.153,3.649-8.153,8.153v2.718h-38.047v-2.718  c0-4.504-3.649-8.153-8.153-8.153c-4.504,0-8.153,3.649-8.153,8.153v2.718H81.529v-2.718c0-4.504-3.65-8.153-8.153-8.153  s-8.153,3.649-8.153,8.153v2.718H48.917v-2.718c0-4.504-3.65-8.153-8.153-8.153s-8.153,3.649-8.153,8.153v2.718H8.153  C3.65,247.847,0,251.496,0,256c0,4.504,3.65,8.153,8.153,8.153H502.76c4.504,0,8.153-3.649,8.153-8.153  C510.913,251.496,507.264,247.847,502.76,247.847z"
   id="path11" />
<path
   d="M40.764,356.552c-4.503,0-8.153,3.649-8.153,8.153v10.87c0,4.504,3.65,8.153,8.153,8.153s8.153-3.649,8.153-8.153v-10.87  C48.917,360.201,45.267,356.552,40.764,356.552z"
   id="path12" />
<path
   d="M339.703,386.446c-4.504,0-8.153,3.649-8.153,8.153v10.87c0,4.504,3.649,8.153,8.153,8.153c4.504,0,8.153-3.649,8.153-8.153  v-10.87C347.856,390.095,344.206,386.446,339.703,386.446z"
   id="path13" />
<path
   d="M307.091,419.057c-4.504,0-8.153,3.649-8.153,8.153v10.87c0,4.504,3.649,8.153,8.153,8.153s8.153-3.649,8.153-8.153v-10.87  C315.244,422.707,311.595,419.057,307.091,419.057z"
   id="path14" />
<path
   d="M372.314,313.07c-4.504,0-8.153,3.649-8.153,8.153v10.87c0,4.504,3.649,8.153,8.153,8.153c4.504,0,8.153-3.649,8.153-8.153  v-10.87C380.467,316.719,376.818,313.07,372.314,313.07z"
   id="path15" />
<path
   d="M470.149,345.682c-4.504,0-8.153,3.649-8.153,8.153v10.87c0,4.504,3.649,8.153,8.153,8.153c4.504,0,8.153-3.649,8.153-8.153  v-10.87C478.302,349.331,474.652,345.682,470.149,345.682z"
   id="path16" />
<path
   d="M171.21,313.07c-4.503,0-8.153,3.649-8.153,8.153v10.87c0,4.504,3.65,8.153,8.153,8.153c4.503,0,8.153-3.649,8.153-8.153  v-10.87C179.363,316.719,175.713,313.07,171.21,313.07z"
   id="path17" />
<path
   d="M236.433,345.682c-4.503,0-8.153,3.649-8.153,8.153v10.87c0,4.504,3.65,8.153,8.153,8.153c4.503,0,8.153-3.649,8.153-8.153  v-10.87C244.586,349.331,240.936,345.682,236.433,345.682z"
   id="path18" />
<path
   d="M236.433,484.28c-4.503,0-8.153,3.649-8.153,8.153v10.871c0,4.504,3.65,8.153,8.153,8.153c4.503,0,8.153-3.649,8.153-8.153  v-10.871C244.586,487.93,240.936,484.28,236.433,484.28z"
   id="path19" />
<path
   d="M203.822,280.459c-4.503,0-8.153,3.649-8.153,8.153v10.87c0,4.504,3.65,8.153,8.153,8.153c4.503,0,8.153-3.649,8.153-8.153  v-10.87C211.975,284.108,208.324,280.459,203.822,280.459z"
   id="path20" />
<path
   d="M404.926,451.669c-4.504,0-8.153,3.649-8.153,8.153v10.87c0,4.504,3.649,8.153,8.153,8.153c4.504,0,8.153-3.649,8.153-8.153  v-10.87C413.079,455.318,409.429,451.669,404.926,451.669z"
   id="path21" />
</svg>
