<?xml version="1.0" encoding="UTF-8" standalone="no"?>
<!-- Uploaded to: SVG Repo, www.svgrepo.com, Generator: SVG Repo Mixer Tools -->

<svg
   fill="#000000"
   width="800px"
   height="800px"
   viewBox="0 0 14 14"
   role="img"
   focusable="false"
   aria-hidden="true"
   version="1.1"
   id="svg1"
   sodipodi:docname="boat.svg"
   inkscape:version="1.4.3 (0d15f75042, 2025-12-25)"
   xml:space="preserve"
   xmlns:inkscape="http://www.inkscape.org/namespaces/inkscape"
   xmlns:sodipodi="http://sodipodi.sourceforge.net/DTD/sodipodi-0.dtd"
   xmlns="http://www.w3.org/2000/svg"
   xmlns:svg="http://www.w3.org/2000/svg"><defs
     id="defs1" /><sodipodi:namedview
     id="namedview1"
     pagecolor="#ffffff"
     bordercolor="#000000"
     borderopacity="0.25"
     inkscape:showpageshadow="2"
     inkscape:pageopacity="0.0"
     inkscape:pagecheckerboard="0"
     inkscape:deskcolor="#d1d1d1"
     inkscape:zoom="1"
     inkscape:cx="399.5"
     inkscape:cy="400"
     inkscape:window-width="1920"
     inkscape:window-height="1011"
     inkscape:window-x="0"
     inkscape:window-y="0"
     inkscape:window-maximized="1"
     inkscape:current-layer="svg1"
     showguides="true"><sodipodi:guide
       position="7,14"
       orientation="-1,0"
       id="guide6"
       inkscape:locked="false"
       inkscape:label=""
       inkscape:color="rgb(0,134,229)" /><sodipodi:guide
       position="0,7"
       orientation="0,1"
       id="guide7"
       inkscape:locked="false"
       inkscape:label=""
       inkscape:color="rgb(0,134,229)" /></sodipodi:namedview><path
     d="M 2.2021877,13.333199 H 11.797309 L 13.303607,9.5553812 H 0.69588932 Z"
     style="fill:#808080;fill-rule:evenodd;stroke:none;stroke-width:0.198446"
     id="path1-61" /><path
     d="M 2.5912228,8.8887074 H 6.7342492 V 2.3946379 Z m 4.6746642,0 H 12.11776 L 7.265884,1.2835149 Z"
     style="fill:#f9f9f9;fill-rule:evenodd;stroke:none;stroke-width:0.198446"
     id="path1-6" /><path
     d="m 6.912117,0.01883472 c 0.1066003,-0.04685764 0.2249676,-0.0043404 0.2955889,0.1059059 L 12.7982,8.8888344 h 0.93589 c 0.09205,0 0.1779,0.059937 0.226354,0.1579954 0.04851,0.098033 0.05266,0.2213484 0.01104,0.3246511 L 12.199366,13.815973 C 12.154405,13.928863 12.062306,14 11.961943,14 H 2.0380949 C 1.9377425,14 1.8449748,13.928761 1.799963,13.815973 L 0.02784725,9.3714809 C -0.01296204,9.2682417 -0.00881019,9.1449261 0.03959385,9.0468298 0.08809919,8.948797 0.17388984,8.8888344 0.26594872,8.8888344 H 1.9100387 L 6.7342695,1.3271954 V 0.3332546 l 6.906e-4,-0.026032 C 6.7432658,0.17614815 6.8125281,0.06241995 6.9121717,0.01901631 Z M 2.2021877,13.333199 H 11.797309 L 13.303607,9.5553812 H 0.69588932 Z M 2.5912228,8.8887074 H 6.7342492 V 2.3946379 Z m 4.6746642,0 H 12.11776 L 7.265884,1.2835149 Z"
     fill-rule="evenodd"
     id="path1"
     style="fill:#000000;stroke:none;stroke-width:0.198446"
     sodipodi:nodetypes="cccscccsscccsccccccccccccccccccc" /></svg>
