<?xml version="1.0" encoding="UTF-8" standalone="no"?>
<!-- Uploaded to: SVG Repo, www.svgrepo.com, Generator: SVG Repo Mixer Tools -->

<svg
   fill="#000000"
   width="800px"
   height="800px"
   viewBox="0 0 14 14"
   role="img"
   focusable="false"
   aria-hidden="true"
   version="1.1"
   id="svg1"
   sodipodi:docname="wagon.svg"
   inkscape:version="1.4.3 (0d15f75042, 2025-12-25)"
   xml:space="preserve"
   xmlns:inkscape="http://www.inkscape.org/namespaces/inkscape"
   xmlns:sodipodi="http://sodipodi.sourceforge.net/DTD/sodipodi-0.dtd"
   xmlns="http://www.w3.org/2000/svg"
   xmlns:svg="http://www.w3.org/2000/svg"><defs
     id="defs1" /><sodipodi:namedview
     id="namedview1"
     pagecolor="#ffffff"
     bordercolor="#000000"
     borderopacity="0.25"
     inkscape:showpageshadow="2"
     inkscape:pageopacity="0.0"
     inkscape:pagecheckerboard="0"
     inkscape:deskcolor="#d1d1d1"
     inkscape:zoom="1"
     inkscape:cx="399.5"
     inkscape:cy="400"
     inkscape:window-width="1920"
     inkscape:window-height="1011"
     inkscape:window-x="0"
     inkscape:window-y="0"
     inkscape:window-maximized="1"
     inkscape:current-layer="svg1"
     showguides="true"><sodipodi:guide
       position="7,14"
       orientation="-1,0"
       id="guide6"
       inkscape:locked="false"
       inkscape:label=""
       inkscape:color="rgb(0,134,229)" /><sodipodi:guide
       position="0,7"
       orientation="0,1"
       id="guide7"
       inkscape:locked="false"
       inkscape:label=""
       inkscape:color="rgb(0,134,229)" /></sodipodi:namedview><path
     id="path1-5"
     style="stroke-width:0.236051;fill:#808080"
     d="M 0.46667665,0.60809621 C 1.516644,1.0316377 2.6849178,1.0294173 3.7333408,0.60188741 V 6.358403 H 0.46667665 Z M 8.4000037,0.59257421 V 6.358403 H 4.2000071 V 0.59257421 m 7.9333269,0.0145668 V 6.358403 H 8.8666701 V 0.60164862 c 1.0483477,0.42784768 2.2167119,0.43015388 3.2666639,0.006448 z" /><path
     d="M 13.766667,10.895605 H 12.600001 V 0.23986644 c 8.1e-5,-0.17754411 -0.182451,-0.29308907 -0.337634,-0.21372612 -1.110062,0.56498542 -2.4146676,0.56498542 -3.5247301,0 -0.0021,0 -0.00466,0 -0.00677,-0.0016723 -0.03073,-0.0090601 -0.06188,-0.01655173 -0.093336,-0.02244725 h -0.00513 c -0.021339,0.00122331 -0.042397,0.00556582 -0.062534,0.01289548 -0.00794,0.0023877 -0.016333,0 -0.023333,0.0042985 l -0.00373,0.0014328 v 0 L 7.763471,0.33872968 c -0.9391202,0.31303856 -1.9878108,0.32876383 -2.926931,0 L 4.0579072,0.02017032 v 0 l -0.00373,-0.0014328 c -0.0077,-0.0031046 -0.0161,-0.0019108 -0.023333,-0.0042985 C 4.0102114,0.00678886 3.988592,0.00228326 3.9666791,0.00106661 h -0.00513 c -0.011834,0.00154831 -0.023535,0.00402327 -0.035,0.00740312 -0.019702,0.00238023 -0.039006,0.00743966 -0.0574,0.01504443 -0.0021,0 -0.00466,0 -0.00677,0.0016723 -1.1100626,0.56498562 -2.4146681,0.56498562 -3.5247307,0 C 0.1821004,-0.05436317 -7.6023242e-4,0.0619078 1.6712005e-5,0.23986777 V 11.134405 c 6.5736832e-5,0.06445 0.025759328,0.12609 0.07116697799,0.170742 -0.19313307,0.736011 0.0128796,1.521536 0.54016625,2.059651 0.001631,0.0017 0.002097,0.0041 0.003728,0.0057 0.001631,0.0017 0.003728,0.0021 0.005359,0.0036 0.81785796,0.834515 2.14127296,0.834515 2.95913096,0 0.00163,-0.0014 0.00373,-0.0019 0.00537,-0.0036 0.00163,-0.0017 0.0021,-0.0041 0.00373,-0.0057 0.5096195,-0.520665 0.7203262,-1.273787 0.5572031,-1.991593 h 4.3082633 c -0.1631239,0.717806 0.047581,1.470927 0.5571996,1.991593 0.00163,0.0017 0.0021,0.0041 0.00373,0.0057 0.00163,0.0017 0.00373,0.0021 0.00536,0.0036 0.817858,0.834515 2.1412731,0.834515 2.9591311,0 0.0016,-0.0014 0.0038,-0.0019 0.0054,-0.0036 0.0016,-0.0017 0.002,-0.0041 0.0038,-0.0057 0.276778,-0.28533 0.469802,-0.644395 0.557137,-1.036392 h 1.2208 C 13.895548,12.328392 14,12.221482 14,12.089606 v -0.955201 c 0,-0.131886 -0.104467,-0.2388 -0.233333,-0.2388 z m -1.959999,1.95434 -0.676666,-0.69252 c 0.01025,-0.02207 0.01929,-0.04472 0.02707,-0.06782 h 0.956667 c -0.03844,0.275789 -0.144033,0.537255 -0.307067,0.760339 z M 8.8853367,12.089606 h 0.9566659 c 0.00785,0.02319 0.016963,0.04591 0.027301,0.06806 L 9.1926365,12.850184 C 9.0294829,12.627055 8.9238059,12.3655 8.8853367,12.089606 Z m -5.4786623,0.760339 -0.6766661,-0.69252 c 0.01025,-0.02207 0.019286,-0.04472 0.027066,-0.06782 h 0.9566666 c -0.038438,0.275789 -0.144032,0.537255 -0.3070665,0.76034 z M 0.4853433,12.089606 h 0.9566659 c 0.00785,0.02319 0.016963,0.04591 0.027301,0.06806 L 0.79264305,12.850184 C 0.6294895,12.627055 0.52381252,12.3655 0.4853433,12.089606 Z M 3.7333408,6.8360033 V 7.5524037 H 1.4000092 V 6.8360033 Z M 1.4000092,8.0300038 H 3.7333408 V 8.7464042 H 1.4000092 Z m 0,1.1940007 h 2.3333316 v 1.2790135 c -0.045327,-0.05828 -0.093616,-0.114073 -0.1446665,-0.16716 -0.00163,-0.0017 -0.0021,-0.0041 -0.00373,-0.0057 -0.00163,-0.0017 -0.00373,-0.0021 -0.00537,-0.0036 C 3.0087885,9.7422949 2.1597718,9.5476898 1.4000092,9.8269747 Z m 0.4666664,0.9743045 v 0.97908 c -0.02266,0.008 -0.044861,0.01736 -0.066499,0.02794 l -0.6766671,-0.69252 c 0.2180162,-0.166985 0.4735851,-0.275139 0.7431661,-0.3145 z m 0.2333331,1.891297 c -0.3665188,0 0.2333335,-0.613906 0.2333333,-0.2388 -10e-8,0.131886 -0.1044669,0.2388 -0.2333333,0.2388 z m 0.2998331,-0.883561 c -0.021643,-0.0105 -0.043845,-0.01975 -0.0665,-0.0277 v -0.979081 c 0.2695593,0.03929 0.5251263,0.147361 0.7431659,0.314261 z m -1.60649868,-0.354379 0.67666618,0.69252 c -0.01025,0.02207 -0.019287,0.04472 -0.027067,0.06782 h -0.957599 c 0.0387139,-0.275878 0.14463211,-0.537351 0.30799982,-0.76034 z m 1.00683248,1.6439 c 0.021638,0.01058 0.043839,0.01991 0.066499,0.02794 v 0.97908 c -0.2695808,-0.03936 -0.5251495,-0.147515 -0.7431655,-0.3145 z m 0.5331664,0.0277 c 0.02266,-0.008 0.044861,-0.01736 0.066499,-0.02794 l 0.6766665,0.692522 C 2.8585852,13.355174 2.6030093,13.46366 2.333342,13.503303 Z m 0.423733,-0.91126 c -0.00785,-0.02319 -0.016963,-0.04591 -0.0273,-0.06806 l 0.6766661,-0.692521 c 0.1634869,0.223034 0.2694878,0.484596 0.308233,0.760579 z M 4.2000071,6.8360033 H 4.6666735 V 10.895605 H 4.2000071 Z m 3.2666641,0 V 7.5524037 H 5.1333397 V 6.8360033 Z m 0,1.9104009 H 5.1333397 V 8.0300038 H 7.4666712 Z M 5.1333397,9.2240045 H 7.4666712 V 9.9404048 H 5.1333397 Z m 0,1.1940005 h 2.3333315 v 0.4776 H 5.1333397 Z M 7.9333375,6.8360033 H 8.4000037 V 10.895605 H 7.9333375 Z m 4.1999965,0 v 3.6670147 c -0.04533,-0.05828 -0.09362,-0.114073 -0.144673,-0.16716 -0.0016,-0.0017 -0.002,-0.0041 -0.0038,-0.0057 -0.0016,-0.0017 -0.0038,-0.0021 -0.0054,-0.0036 -0.09583,-0.09723 -0.200577,-0.184801 -0.312794,-0.2615 V 6.8360033 Z m -0.976266,4.7760027 c -0.0078,-0.02319 -0.01696,-0.04591 -0.0273,-0.06806 l 0.676666,-0.692521 c 0.163487,0.223034 0.269488,0.484596 0.308233,0.760579 z m -0.657066,0.4776 c -0.366519,0 0.233333,-0.613906 0.233333,-0.2388 0,0.131886 -0.104467,0.2388 -0.233333,0.2388 z m 0.299833,-0.883561 c -0.02164,-0.0105 -0.04384,-0.01975 -0.0665,-0.0277 v -0.979081 c 0.269559,0.03929 0.525126,0.147361 0.743166,0.314261 z M 11.200002,8.7464042 H 8.8666701 V 8.0300038 H 11.200002 Z M 8.8666701,9.2240045 h 2.3333319 v 0.6029702 c -0.760116,-0.278805 -1.6091851,-0.083449 -2.1795654,0.5014803 -0.00163,0.0014 -0.00373,0.0019 -0.00536,0.0036 -0.00163,0.0017 -0.0021,0.0041 -0.00373,0.0057 -0.051051,0.05309 -0.099339,0.108895 -0.1446646,0.167176 z m 1.3999989,0.9743045 v 0.97908 c -0.02266,0.008 -0.04486,0.01736 -0.0665,0.02794 L 9.5235029,10.512809 C 9.7415191,10.345824 9.997088,10.23767 10.266669,10.198309 Z M 11.200002,7.5524037 H 8.8666701 V 6.8360033 h 2.3333319 z m -2.0066655,3.2992623 0.6766662,0.69252 c -0.010338,0.02215 -0.019452,0.04487 -0.027301,0.06806 H 8.8860368 C 8.924506,11.336352 9.030183,11.074797 9.1933365,10.851668 Z m 1.0068325,1.6439 c 0.02164,0.01058 0.04384,0.01991 0.0665,0.02794 v 0.97908 c -0.2695806,-0.03936 -0.5251492,-0.147515 -0.7431651,-0.3145 z m 0.533166,0.0277 c 0.02266,-0.008 0.04486,-0.01736 0.0665,-0.02794 l 0.676666,0.692522 c -0.217922,0.167326 -0.473499,0.275812 -0.743166,0.315455 z M 12.133334,0.60714102 V 6.358403 H 8.8666701 V 0.60164862 C 9.9150178,1.0294963 11.083382,1.0318025 12.133334,0.60809662 Z M 7.9368375,0.78122631 8.4000037,0.59257421 V 6.358403 H 4.2000071 V 0.59257421 L 4.6631734,0.7821815 c 1.0504042,0.4319822 2.2232599,0.4319822 3.2736641,0 z M 0.46667665,0.60809621 C 1.516644,1.0316377 2.6849178,1.0294173 3.7333408,0.60188741 V 6.358403 H 0.46667665 Z m 0,6.22790709 h 0.46666636 v 3.2290547 c -0.11230518,0.07707 -0.21708974,0.165034 -0.31289982,0.262681 -0.001631,0.0014 -0.003728,0.0019 -0.005359,0.0036 -0.001631,0.0017 -0.002097,0.0041 -0.003728,0.0057 -0.0510517,0.05309 -0.0993409,0.108894 -0.14466759,0.167175 z M 13.533333,11.850806 h -0.933332 c -4.75e-4,-0.160775 -0.01863,-0.320984 -0.05413,-0.477601 h 0.987466 z"
     id="path1"
     style="stroke-width:0.236051;fill:#000000;stroke:none"
     sodipodi:nodetypes="sccccccccccccccccccccccccccccccccccccccscccsssccccscccccccccccccccccccccccccccccccccccccccsssccccccccccccccccccccccccccccccccccccccccccccccccccccccccccccccccccccsssccccccccccccccscccccccccccccccccsccccccccccccccccccccccccccccccccccscccccccc" /><path
     d="m 5.5487821,1.6236068 a 3.0148377,3.0148377 0 0 0 1.1239351,0.2164557 0.16021885,0.16021885 0 0 0 0,-0.3204377 A 2.6916763,2.6916763 0 0 1 5.6678247,1.3260805 0.1602288,0.1602288 0 0 0 5.5487821,1.6236068 Z"
     id="path2"
     style="stroke-width:0.160219;fill:#000000;stroke:none" /><path
     d="M 3.7887782,1.8278858 A 0.16021883,0.16021883 0 0 0 3.8033581,1.5082493 2.7076982,2.7076982 0 0 1 3.0471253,1.3260805 0.16021883,0.16021883 0 1 0 2.9282429,1.6236068 3.0210863,3.0210863 0 0 0 3.7740381,1.827245 c 0.00497,4.806e-4 0.010094,6.408e-4 0.01474,6.408e-4 z"
     id="path3"
     style="stroke-width:0.160219;fill:#000000;stroke:none" /><path
     d="M 8.6961208,1.6236068 A 3.0210863,3.0210863 0 0 0 9.541916,1.827245 c 0.00497,0 0.010094,0 0.0149,0 A 0.16021883,0.16021883 0 0 0 9.5713962,1.5076084 2.7076982,2.7076982 0 0 1 8.8150031,1.3254396 0.16021883,0.16021883 0 1 0 8.6961208,1.622966 Z"
     id="path4"
     style="stroke-width:0.160219;fill:#000000;stroke:none" /></svg>
