<?xml version="1.0" encoding="UTF-8" standalone="no"?>
<!-- Uploaded to: SVG Repo, www.svgrepo.com, Generator: SVG Repo Mixer Tools -->

<svg
   fill="#000000"
   width="800px"
   height="800px"
   viewBox="0 0 14 14"
   role="img"
   focusable="false"
   aria-hidden="true"
   version="1.1"
   id="svg1"
   sodipodi:docname="barn.svg"
   inkscape:version="1.4.3 (0d15f75042, 2025-12-25)"
   xml:space="preserve"
   xmlns:inkscape="http://www.inkscape.org/namespaces/inkscape"
   xmlns:sodipodi="http://sodipodi.sourceforge.net/DTD/sodipodi-0.dtd"
   xmlns="http://www.w3.org/2000/svg"
   xmlns:svg="http://www.w3.org/2000/svg"><defs
     id="defs1" /><sodipodi:namedview
     id="namedview1"
     pagecolor="#ffffff"
     bordercolor="#000000"
     borderopacity="0.25"
     inkscape:showpageshadow="2"
     inkscape:pageopacity="0.0"
     inkscape:pagecheckerboard="0"
     inkscape:deskcolor="#d1d1d1"
     inkscape:zoom="1"
     inkscape:cx="399.5"
     inkscape:cy="400"
     inkscape:window-width="1920"
     inkscape:window-height="1011"
     inkscape:window-x="0"
     inkscape:window-y="0"
     inkscape:window-maximized="1"
     inkscape:current-layer="svg1" /><g
     id="g9"
     transform="matrix(0.14952518,0,0,0.15674817,-0.38398684,-0.82837652)"><path
       d="m 95.9,45.3 c 1.3,2.1 -2,4 -3.3,2 C 92.3,46.8 92,46.4 91.7,45.9 86.8,38.1 81.8,30.3 76.8,22.5 L 75.7,22 49.3,9.3 c 0,0 -0.1,0 -0.1,0 0,0 0,0 0.1,0 -0.7,0.3 -1.3,0.6 -2,1 -8.5,4.1 -17.1,8.2 -25.6,12.2 -0.2,0.2 -0.3,0.5 -0.5,0.7 -5,8 -10,16 -15,24 -1.3,2.1 -4.7,0.2 -3.3,-2 4.3,-7 14.8,-23.7 15.6,-25.1 0.6,-0.9 1.6,-1.2 2.5,-1.7 C 26,16 43.8,7.5 47.7,5.6 c 1.5,-0.7 2.7,-0.1 4,0.5 2,1 25.5,12.1 27,12.9 0.9,0.4 1.4,1.4 1.9,2.2 5.2,8.2 10.3,16.1 15.3,24.1 z"
       id="path1-3" /><path
       d="m 89.3,49.2 c 0.1,0.3 0.2,0.7 0.1,1 0,-0.1 0,-0.2 0,-0.3 0,-0.3 -0.1,-0.5 -0.1,-0.7 z"
       id="path2" /><path
       d="m 89.3,49.2 v 0 c 0.1,0.2 0.1,0.4 0.1,0.7 0,0.1 0,0.2 0,0.3 0,4.9 0,33.2 0,42.5 0,1.1 -0.9,1.9 -1.9,1.9 -7.1,0 -14.2,0 -21.3,0 -0.1,0 -0.2,0 -0.3,0 C 65.5,94.5 65,94.4 64.7,94.1 61.3,91.4 51.5,83.5 50,82.3 44.9,86.1 40,90.1 35.1,94 c -0.5,0.4 -1,0.6 -1.5,0.5 -0.1,0 -0.2,0 -0.2,0 -7.1,0 -14.2,0 -21.3,0 -1.1,0 -1.9,-0.9 -1.9,-1.9 0,-7.3 0,-33.1 0,-38.7 0,-1.3 0,-2.6 0,-3.9 0,-1.1 0.7,-2 1.3,-2.9 2.9,-4.9 10.9,-18.3 12,-20 0.6,-1 1.4,-1.4 2.4,-1.9 5,-2.5 19.3,-9.6 21.4,-10.7 0.4,-0.2 0.8,-0.4 1.2,-0.6 0.9,-0.5 2,-0.3 2.8,0.1 4.4,2.2 18.3,9.1 20.8,10.3 0.8,0.4 1.5,0.8 2.3,1.1 0.6,0.3 1,0.5 1.4,1 4.5,7.3 8.9,14.7 13.4,22 0,0.1 0.1,0.1 0.1,0.2 -0.1,0.3 -0.1,0.4 0,0.6 z m -3.8,41.5 c 0,-4.4 0,-31.3 0,-40.4 C 81.2,43.2 76.9,36.1 72.6,29 64.9,25.2 57.3,21.4 49.6,17.6 c 0,0 0,0 0,0 -7.7,3.8 -15.3,7.6 -23,11.5 -4.2,7.1 -8.5,14.1 -12.7,21.2 0,-0.2 -0.1,0.1 0,0 0,4.8 0,31.7 0,40.4 5.8,0 11.6,0 17.5,0 0,-0.6 0,-13.6 0,-19.4 0,-1.6 -0.1,-4.1 0.4,-5.2 0,-0.1 0.1,-0.2 0.1,-0.3 1.2,-2 3.3,-1.9 5.4,-1.9 5.7,0 11.3,0 17,0 2.5,0 5.1,0 7.6,0 2,0 4.5,-0.2 5.5,1.9 0.1,0.2 0.2,0.4 0.2,0.6 0.2,1 0.3,3.1 0.3,4.7 0,2.9 0,15.9 0,19.6 6,0 11.8,0 17.6,0 z M 64.2,88.8 c 0,-4.6 0,-16.6 0,-18 -2.3,1.9 -4.7,3.7 -7,5.6 -1.4,1.1 -2.9,2.3 -4.3,3.4 3.8,3 7.5,6 11.3,9 z M 49.8,77.3 c 4,-3.2 7.9,-6.3 11.9,-9.5 -4.8,0 -20,0 -22.8,0 -0.3,0 -0.7,0 -1,0 2.5,2 4.9,3.9 7.4,5.9 1.5,1.2 3,2.4 4.5,3.6 z m -7.7,6.2 c 1.6,-1.2 3.1,-2.5 4.7,-3.7 -3.8,-3.1 -7.7,-6.2 -11.5,-9.2 0,3.4 0.1,15.4 0.1,18.4 2.1,-1.9 4.4,-3.7 6.7,-5.5 z"
       id="path3" /><path
       d="m 89.3,49.2 c 0,-0.1 -0.1,-0.2 -0.2,-0.3 0,-0.1 -0.1,-0.1 -0.1,-0.2 0.1,0.1 0.2,0.3 0.3,0.5 z"
       id="path4" /><path
       d="m 64.5,50.8 c 0,0.1 0,0.2 0,0.3 0,-0.1 0,-0.2 0,-0.3 z"
       id="path5" /><path
       d="m 64.5,50.8 c 0,0.1 0,0.2 0,0.3 0,0.1 0,0.3 0,0.4 v 0.1 c -0.3,1.9 -1.5,3.6 -3.6,3.8 -1.5,0.1 -3,0 -4.5,0 -3.1,0 -14.3,0 -16.9,0 -0.4,0 -0.9,0 -1.3,0 -2.3,0 -3.9,-2.2 -3.9,-4.4 0,-2.5 0,-4.9 0,-7.4 0,-1.3 0,-2.6 0,-3.9 0,-1.4 0.1,-2.7 1.1,-3.8 1.4,-1.7 3.8,-1.3 5.8,-1.3 2.9,0 5.8,0 8.7,0 2.8,0 5.6,0 8.4,0 0.7,0 1.4,0 2.1,0 1.8,0 3.4,1.1 3.9,2.9 0.2,0.9 0.2,1.9 0.2,2.9 0,1.4 0,2.8 0,4.3 0,1.9 0,4 0,6.1 z m -3.9,0.6 v -13 H 38.2 v 13 z"
       id="path6" /><path
       d="m 64.5,51.4 c 0,-0.1 0,-0.3 0,-0.4 0,0.2 0,0.3 0,0.4 z"
       id="path7" /><path
       d="M 49.9,9.3 76.3,21.9 Z"
       id="path8" /><path
       d="m 49.9,9.3 c 0,0 0,0 0,0 -0.1,0 -0.1,0 -0.1,0 z"
       id="path9" /></g></svg>
