<?xml version="1.0" encoding="UTF-8" standalone="no"?>
<!-- Uploaded to: SVG Repo, www.svgrepo.com, Generator: SVG Repo Mixer Tools -->

<svg
   fill="#000000"
   width="800px"
   height="800px"
   viewBox="0 0 14 14"
   role="img"
   focusable="false"
   aria-hidden="true"
   version="1.1"
   id="svg1"
   sodipodi:docname="barracks.svg"
   inkscape:version="1.4.3 (0d15f75042, 2025-12-25)"
   xml:space="preserve"
   xmlns:inkscape="http://www.inkscape.org/namespaces/inkscape"
   xmlns:sodipodi="http://sodipodi.sourceforge.net/DTD/sodipodi-0.dtd"
   xmlns="http://www.w3.org/2000/svg"
   xmlns:svg="http://www.w3.org/2000/svg"><defs
     id="defs1" /><sodipodi:namedview
     id="namedview1"
     pagecolor="#ffffff"
     bordercolor="#000000"
     borderopacity="0.25"
     inkscape:showpageshadow="2"
     inkscape:pageopacity="0.0"
     inkscape:pagecheckerboard="0"
     inkscape:deskcolor="#d1d1d1"
     inkscape:zoom="1"
     inkscape:cx="399.5"
     inkscape:cy="400"
     inkscape:window-width="1920"
     inkscape:window-height="1011"
     inkscape:window-x="0"
     inkscape:window-y="0"
     inkscape:window-maximized="1"
     inkscape:current-layer="svg1" /><path
     d="M 8.3656775,1.4060513 C 8.5464396,0.98498425 8.6954735,0.70565322 8.6994073,0.69864609 8.7563097,0.59258311 8.7241451,0.4561027 8.6275058,0.39351596 8.0259847,0.00461837 7.03747,0 6.9955541,0 6.9536392,0 5.9649781,0.00445971 5.3636026,0.3933567 c -0.096785,0.062587 -0.128949,0.19906715 -0.071897,0.30497097 0.00378,0.007165 0.1528179,0.28665658 0.3335801,0.70756433 -2.002936,0.6481626 -3.4685343,2.6791255 -3.4685343,5.0781237 0,0.068798 0.02154,7.0098713 0.073186,7.3315643 0.0099,0.06161 0.04308,0.115782 0.09125,0.149379 0.048153,0.03357 0.1072677,0.0435 0.1625735,0.02721 1.0464401,-0.307996 2.3497602,-0.497026 3.7689308,-0.547195 0.015133,-6.38e-4 0.029857,-0.0032 0.044079,-0.0069 C 6.3903571,13.417864 6.4608,13.327706 6.4608,13.219414 V 12.26885 c 0.1825083,-0.0053 0.3530825,-0.0075 0.5350087,-0.0075 0.1819264,0 0.352359,0.0022 0.5348592,0.0075 v 0.950586 c 0,0.108292 0.070441,0.198429 0.1640288,0.21866 0.014216,0.0037 0.028692,0.0062 0.044079,0.0069 1.4190252,0.04997 2.7223453,0.2392 3.7689313,0.547196 0.0173,0.005 0.03518,0.0078 0.05281,0.0078 0.03842,0 0.07643,-0.01211 0.109447,-0.03521 0.04832,-0.03357 0.08134,-0.08772 0.09125,-0.149379 0.05156,-0.321674 0.07318,-7.2627478 0.07318,-7.3315455 C 11.834212,4.0851767 10.368613,2.0542138 8.3656775,1.4060513 Z M 6.1659703,0.54544409 c 0.029273,0.20129669 0.1017373,0.51884861 0.2819171,0.85614811 0.038008,0.07089 0.1061038,0.1105214 0.1762544,0.1105214 0.034929,0 0.070108,-0.00982 0.1026018,-0.030577 0.09708,-0.062063 0.129973,-0.1985936 0.073103,-0.3049752 C 6.6508122,0.89723091 6.5918643,0.63430771 6.5687276,0.47616409 c 0.2430535,-0.0293027 0.4228009,-0.0301222 0.426876,-0.0301222 0.00364,0 0.1535505,7.963e-4 0.3638526,0.0231144 C 7.2771217,0.7218965 7.1623936,1.159999 7.1233886,1.7301272 c -0.0083,0.1227796 0.07593,0.2297988 0.1881887,0.2388807 0.00508,4.779e-4 0.010145,6.37e-4 0.015133,6.37e-4 0.1058043,0 0.1953161,-0.089182 0.2031753,-0.2063928 0.040585,-0.596401 0.1736347,-1.03514963 0.2427626,-1.22927982 0.158931,0.0342162 0.3223692,0.0815374 0.4687836,0.1474681 C 8.0010016,1.1693955 7.4341234,2.4209707 7.3272921,3.5746046 7.2329815,3.5382948 7.1210564,3.5117223 6.9955999,3.5117223 c -0.1254569,0 -0.2375229,0.026572 -0.3316922,0.062883 C 6.5569392,2.4209707 5.9901941,1.1693955 5.7497644,0.68144218 5.8800279,0.62265487 6.0239637,0.5785643 6.1660118,0.54543944 Z M 6.9955541,11.81583 c -0.1820676,0 -0.352941,0.0022 -0.5350087,0.0069 V 8.1520392 c 0,-0.1057447 -0.067697,-0.1968376 -0.1621328,-0.2183414 L 3.888253,7.3853827 V 6.2290504 H 6.9955541 10.102855 V 7.3853917 L 7.6928413,7.9337023 C 7.598239,7.955179 7.5305589,8.0462909 7.5305589,8.1520438 v 3.6706342 c -0.1819264,-0.0046 -0.3530825,-0.0069 -0.5350048,-0.0069 z m 4.3752549,1.677739 C 10.387243,13.229844 9.2095244,13.063101 7.9377869,13.007044 V 8.3334293 L 10.348092,7.7851186 c 0.0946,-0.0215 0.162278,-0.1125924 0.162278,-0.2183368 V 6.0062545 c 0,-0.123108 -0.09126,-0.2229553 -0.203757,-0.2229553 H 6.9955541 3.6844956 c -0.1125065,0 -0.2037575,0.099857 -0.2037575,0.2229553 v 1.5605273 c 0,0.1057447 0.067864,0.1968375 0.1622824,0.2183414 L 6.053176,8.3334293 v 4.6737787 c -1.2714465,0.05605 -2.449019,0.222636 -3.4325854,0.486201 -0.034202,-1.237401 -0.056324,-6.496437 -0.056324,-7.0092342 0,-2.2176082 1.3675036,-4.0918652 3.2283913,-4.6670898 0.2421803,0.6308087 0.4813083,1.4286652 0.4813083,2.1218968 0,0.087544 0.046157,0.1676897 0.1192023,0.2036809 0.027195,0.013379 0.055888,0.020112 0.084273,0.020112 0.048319,0 0.095766,-0.018928 0.1336065,-0.055239 0.0016,-0.0016 0.1638791,-0.1500167 0.3846691,-0.1500167 0.2180205,0 0.3788475,0.1449212 0.3842284,0.1498525 0.060296,0.056876 0.1449582,0.070527 0.2174383,0.034764 0.073019,-0.036127 0.1199252,-0.1156185 0.1199252,-0.2030439 0,-0.6933909 0.239128,-1.491252 0.4813083,-2.1218967 1.8607421,0.5750698 3.2283911,2.4494817 3.2283911,4.6670897 -1.45e-4,0.512797 -0.02196,5.7767704 -0.05622,7.0093934 z"
     id="path1"
     style="stroke-width:0.152243" /></svg>
