<?xml version="1.0" encoding="UTF-8" standalone="no"?>
<!-- Uploaded to: SVG Repo, www.svgrepo.com, Generator: SVG Repo Mixer Tools -->

<svg
   fill="#000000"
   width="800px"
   height="800px"
   viewBox="0 0 14 14"
   role="img"
   focusable="false"
   aria-hidden="true"
   version="1.1"
   id="svg1"
   sodipodi:docname="caravan.svg"
   inkscape:version="1.4.3 (0d15f75042, 2025-12-25)"
   xml:space="preserve"
   xmlns:inkscape="http://www.inkscape.org/namespaces/inkscape"
   xmlns:sodipodi="http://sodipodi.sourceforge.net/DTD/sodipodi-0.dtd"
   xmlns="http://www.w3.org/2000/svg"
   xmlns:svg="http://www.w3.org/2000/svg"><defs
     id="defs1" /><sodipodi:namedview
     id="namedview1"
     pagecolor="#ffffff"
     bordercolor="#000000"
     borderopacity="0.25"
     inkscape:showpageshadow="2"
     inkscape:pageopacity="0.0"
     inkscape:pagecheckerboard="0"
     inkscape:deskcolor="#d1d1d1"
     inkscape:zoom="1"
     inkscape:cx="399.5"
     inkscape:cy="414"
     inkscape:window-width="1920"
     inkscape:window-height="1011"
     inkscape:window-x="0"
     inkscape:window-y="0"
     inkscape:window-maximized="1"
     inkscape:current-layer="svg1" /><g
     id="g1"
     transform="matrix(0.23274256,0,0,0.24137347,-0.46443929,-0.72378188)"
     style="fill:#000000"><rect
       x="13"
       y="10"
       width="2"
       height="2"
       id="rect1"
       style="fill:#000000" /><path
       d="M 5.957,13.9 5,34.963 A 5.721,5.721 0 0 0 6.567,39.2 6.074,6.074 0 0 0 11,41 c 2.955,0 5.179,-1.377 5.948,-3.684 l 0.35,-1.049 0.7,0.351 v 1.094 l -4.846,7.758 a 1,1 0 0 0 -0.143,0.661 L 14.1,54.4 a 3.968,3.968 0 0 0 -2.369,4.653 l 0.3,1.185 A 1,1 0 0 0 13,61 0.981,0.981 0 0 0 13.274,60.961 l 7,-2 a 1,1 0 0 0 0.7,-1.2 L 19.989,53.822 19.057,46.365 22.7,42.714 24,46.181 V 55 a 3,3 0 0 0 -3,3 v 2 a 1,1 0 0 0 1,1 h 7 a 1,1 0 0 0 1,-1 V 56.051 L 31,46.1 A 1,1 0 0 0 30.942,45.649 L 28.443,39 h 9.17 l -2.561,7.684 a 0.977,0.977 0 0 0 0,0.632 L 37.613,55 H 37 a 3,3 0 0 0 -3,3 v 2 a 1,1 0 0 0 1,1 h 7 a 1,1 0 0 0 1,-1 1,1 0 0 0 1,1 h 7 a 1,1 0 0 0 1,-1 V 46 A 1.006,1.006 0 0 0 51.832,45.445 L 50,42.7 v -4.58 l 1.551,-6.72 a 16.593,16.593 0 0 1 3.783,2.35 18.559,18.559 0 0 1 1.766,2.331 c 1.53,2.209 2.532,3.655 3.618,3.655 a 1.32,1.32 0 0 0 0.487,-0.1 C 62.359,39.184 62.224,37.52 61.986,35.855 60.931,28.47 52.901,24.333 52.459,24.111 L 47,21.378 V 21 a 1,1 0 0 0 1,-1 V 16 A 1,1 0 0 0 47,15 H 46 V 12 A 1,1 0 0 0 45,11 H 44 V 8 A 1,1 0 0 0 43,7 H 27 a 1,1 0 0 0 -1,1 v 3 h -1 a 1,1 0 0 0 -1,1 v 3 h -1 a 1,1 0 0 0 -1,1 v 4 a 1,1 0 0 0 1,1 v 3 c 0,0.787 -0.249,1 -2,1 -0.554,0 -1,-1.094 -1,-2 V 9.7 a 3.679,3.679 0 0 0 1.85,0.5 4.616,4.616 0 0 0 1.466,-0.252 c 3.068,-1.023 3.078,-4.5 2.654,-6.192 A 1,1 0 0 0 24.553,3.104 L 18.764,6 H 6.187 a 4.158,4.158 0 0 0 -4.138,3.428 3.5,3.5 0 0 0 0.8,2.9 5.12,5.12 0 0 0 3.108,1.572 z M 52.67,26.546 c 2.135,1.347 6.644,4.726 7.339,9.6 0.037,0.257 0.064,0.483 0.085,0.679 -0.456,-0.593 -0.973,-1.338 -1.348,-1.88 A 17.483,17.483 0 0 0 56.664,32.257 19.246,19.246 0 0 0 52.01,29.412 Z M 24.168,5.534 A 2.425,2.425 0 0 1 22.684,8.051 1.921,1.921 0 0 1 20.354,7.44 Z M 13.72,58.754 13.674,58.572 a 1.992,1.992 0 0 1 1.39,-2.408 L 18.28,55.246 18.8,57.3 Z m 3.573,-13.461 a 1,1 0 0 0 -0.285,0.831 l 0.893,7.15 -1.86,0.531 -1,-7.58 L 19.553,39 h 1.754 l 0.621,1.658 z M 28,59 h -5 v -1 a 1,1 0 0 1 1,-1 h 4 z m 13,0 h -5 v -1 a 1,1 0 0 1 1,-1 h 4 z M 40.043,47.709 a 0.989,0.989 0 0 0 -0.035,0.415 L 40.867,55 H 39.72 l -2.666,-8 2.666,-8 h 0.5 l 1.115,4.457 z M 43,58 v -2 c 0,-0.043 -0.008,-0.124 -0.008,-0.124 L 42.019,48.087 42.408,46.805 46,49.5 V 55 a 3,3 0 0 0 -3,3 z m 7,1 h -5 v -1 a 1,1 0 0 1 1,-1 h 4 z M 46,17 v 2 h -2 v -2 z m -18,2 v -2 h 14 v 2 z m 12,2 v 5.919 a 11.315,11.315 0 0 1 -2,0.706 V 21 Z m -4,0 v 6.958 C 35.671,27.985 35.338,28 35,28 34.662,28 34.329,27.985 34,27.958 V 21 Z m -4,0 v 6.625 A 11.315,11.315 0 0 1 30,26.919 V 21 Z m 10,0 h 2.922 A 7.535,7.535 0 0 1 42,25.7 Z m 2,-8 v 2 H 42 V 13 Z M 40,9 h 2 v 2 h -2 z m 0,6 H 30 V 13 H 40 Z M 32,9 h 6 v 2 h -6 z m -4,0 h 2 v 2 h -2 z m -2,4 h 2 v 2 h -2 z m 2,8 v 4.7 A 7.535,7.535 0 0 1 25.078,21 Z m -4,-4 h 2 v 2 h -2 z m -3.587,9.92 A 2.438,2.438 0 0 0 21,27 c 1,0 3.126,-0.007 3.791,-1.77 A 12.659,12.659 0 0 0 35,30 c 5.238,0 9.691,-2.816 11.325,-6.723 l 4.523,2.262 -2.823,12.24 A 1.061,1.061 0 0 0 48,38 v 5 a 1.006,1.006 0 0 0 0.168,0.555 L 50,46.3 V 55 H 48 V 49 A 1,1 0 0 0 47.6,48.2 L 43.884,45.413 41.97,37.757 A 1,1 0 0 0 41,37 H 27 a 1,1 0 0 0 -0.937,1.351 L 28.981,46.133 28.1,55 H 26 v -9 a 1,1 0 0 0 -0.063,-0.351 l -3,-8 A 1,1 0 0 0 22,37 H 20 V 36 A 1,1 0 0 0 19.447,35.1 L 17.936,34.345 Z M 8.846,8 H 18 v 15 a 4.986,4.986 0 0 0 0.735,2.63 L 16.13,33.447 15.447,33.105 C 12.559,31.661 10.561,27.631 10.993,24.121 L 11.859,17 h 2.554 L 16.706,14.707 15.292,13.293 13.585,15 H 11.618 C 11.601,14.987 11.588,14.969 11.57,14.957 L 8.089,12.539 Z m -0.93,6.853 2.019,1.4 -0.927,7.623 c -0.537,4.354 1.9,9.193 5.545,11.017 l 0.938,0.469 -0.44,1.32 C 14.333,38.833 11.769,39 11,39 A 4.089,4.089 0 0 1 8.009,37.809 3.686,3.686 0 0 1 7,35.045 Z M 4.025,9.732 A 2.147,2.147 0 0 1 6.187,8 h 0.632 l -0.654,3.922 a 3.139,3.139 0 0 1 -1.8,-0.9 1.52,1.52 0 0 1 -0.34,-1.29 z"
       id="path1"
       style="fill:#000000" /></g></svg>
