<?xml version="1.0" encoding="UTF-8" standalone="no"?>
<!-- Uploaded to: SVG Repo, www.svgrepo.com, Generator: SVG Repo Mixer Tools -->

<svg
   fill="#000000"
   width="800px"
   height="800px"
   viewBox="0 0 14 14"
   role="img"
   focusable="false"
   aria-hidden="true"
   version="1.1"
   id="svg1"
   sodipodi:docname="cityhall.svg"
   inkscape:version="1.4.3 (0d15f75042, 2025-12-25)"
   xml:space="preserve"
   xmlns:inkscape="http://www.inkscape.org/namespaces/inkscape"
   xmlns:sodipodi="http://sodipodi.sourceforge.net/DTD/sodipodi-0.dtd"
   xmlns:xlink="http://www.w3.org/1999/xlink"
   xmlns="http://www.w3.org/2000/svg"
   xmlns:svg="http://www.w3.org/2000/svg"><defs
     id="defs1" /><sodipodi:namedview
     id="namedview1"
     pagecolor="#ffffff"
     bordercolor="#000000"
     borderopacity="0.25"
     inkscape:showpageshadow="2"
     inkscape:pageopacity="0.0"
     inkscape:pagecheckerboard="0"
     inkscape:deskcolor="#d1d1d1"
     inkscape:zoom="1"
     inkscape:cx="399.5"
     inkscape:cy="400"
     inkscape:window-width="1920"
     inkscape:window-height="1011"
     inkscape:window-x="0"
     inkscape:window-y="0"
     inkscape:window-maximized="1"
     inkscape:current-layer="svg1"
     showguides="true"><sodipodi:guide
       position="7,14"
       orientation="-1,0"
       id="guide6"
       inkscape:locked="false"
       inkscape:label=""
       inkscape:color="rgb(0,134,229)" /><sodipodi:guide
       position="0,7"
       orientation="0,1"
       id="guide7"
       inkscape:locked="false"
       inkscape:label=""
       inkscape:color="rgb(0,134,229)" /></sodipodi:namedview><g
     id="g1"
     transform="matrix(0.21380162,0,0,0.21380162,4.9792123,0.60012538)"><path
       fill="#000000"
       d="m 6.7434695,6.381375 -6.125,-6.125 C 0.44762575,0.08553125 0.22362575,0 -1.555e-4,0 -0.22393675,0 -0.44793675,0.08553125 -0.6187805,0.256375 l -6.125,6.125 c -0.3416875,0.3425625 -0.324625,0.8785 0.017062,1.2201875 0.342563,0.3434375 0.8432817,0.3939688 1.186063,0.051188 L -5.241843,7.3537187 V 13.125 c 0,0.483656 0.3913437,0.875 0.875,0.875 h 8.75 c 0.4836562,0 0.875,-0.391344 0.875,-0.875 V 7.3707812 L 5.5195632,7.6321875 C 5.8612507,7.973875 6.383407,7.94325 6.7261882,7.6013438 7.0680945,7.259875 7.086032,6.7230625 6.7434695,6.381375 Z M 3.5083758,12.25 H 0.88337575 V 9.625 h -1.75 V 12.25 H -3.491843 V 5.6037188 L -1.555e-4,2.113125 3.5083758,5.6207812 Z"
       id="path1"
       style="stroke-width:0.21875" /><polygon
       fill="#f9ebb2"
       points="28.001,44 28.001,56 16,56 16,25.617 31.962,9.66 48.001,25.695 48.001,56 36.001,56 36.001,44 "
       id="polygon1"
       style="fill:#80808000"
       transform="matrix(0.21875,0,0,0.21875,-6.991843,0)" /></g><rect
     style="fill:none;stroke:#000000;stroke-width:0.13125;stroke-dasharray:none"
     id="rect1"
     width="3.6830766"
     height="4.2382698"
     x="3.071285"
     y="0.10634841"
     ry="0.50951874" /><use
     x="0"
     y="0"
     xlink:href="#rect1"
     id="use1"
     transform="translate(4.2)" /><use
     x="0"
     y="0"
     xlink:href="#rect1"
     id="use2"
     transform="translate(-2.0825,4.7829105)" /><use
     x="0"
     y="0"
     xlink:href="#use1"
     id="use3"
     transform="translate(-2.0825,4.7829105)" /><use
     x="0"
     y="0"
     xlink:href="#use3"
     id="use4"
     transform="translate(4.1810827)" /><use
     x="0"
     y="0"
     xlink:href="#rect1"
     id="use5"
     transform="translate(0,9.5655014)" /><use
     x="0"
     y="0"
     xlink:href="#use1"
     id="use6"
     transform="translate(0,9.5655014)" /><use
     x="0"
     y="0"
     xlink:href="#g1"
     id="use7"
     transform="translate(4.1475,0.07)" /><use
     x="0"
     y="0"
     xlink:href="#g1"
     id="use8"
     transform="translate(-0.0525,9.6425)" /><use
     x="0"
     y="0"
     xlink:href="#use7"
     id="use9"
     transform="translate(-0.0525,9.6425)" /><use
     x="0"
     y="0"
     xlink:href="#use8"
     id="use10"
     transform="translate(-2.0825,-4.8148624)" /><use
     x="0"
     y="0"
     xlink:href="#use9"
     id="use11"
     transform="translate(-2.0825,-4.8148624)" /><use
     x="0"
     y="0"
     xlink:href="#use11"
     id="use12"
     transform="translate(4.2175,-0.07364794)" /></svg>
