<?xml version="1.0" encoding="UTF-8" standalone="no"?>
<!-- Uploaded to: SVG Repo, www.svgrepo.com, Generator: SVG Repo Mixer Tools -->

<svg
   fill="#000000"
   width="800px"
   height="800px"
   viewBox="0 0 14 14"
   role="img"
   focusable="false"
   aria-hidden="true"
   version="1.1"
   id="svg1"
   sodipodi:docname="crossroads.svg"
   inkscape:version="1.4.3 (0d15f75042, 2025-12-25)"
   xml:space="preserve"
   xmlns:inkscape="http://www.inkscape.org/namespaces/inkscape"
   xmlns:sodipodi="http://sodipodi.sourceforge.net/DTD/sodipodi-0.dtd"
   xmlns="http://www.w3.org/2000/svg"
   xmlns:svg="http://www.w3.org/2000/svg"><defs
     id="defs1" /><sodipodi:namedview
     id="namedview1"
     pagecolor="#ffffff"
     bordercolor="#000000"
     borderopacity="0.25"
     inkscape:showpageshadow="2"
     inkscape:pageopacity="0.0"
     inkscape:pagecheckerboard="0"
     inkscape:deskcolor="#d1d1d1"
     inkscape:zoom="1"
     inkscape:cx="399.5"
     inkscape:cy="400"
     inkscape:window-width="1920"
     inkscape:window-height="1011"
     inkscape:window-x="0"
     inkscape:window-y="0"
     inkscape:window-maximized="1"
     inkscape:current-layer="svg1"
     showguides="true"><sodipodi:guide
       position="7,14"
       orientation="-1,0"
       id="guide6"
       inkscape:locked="false"
       inkscape:label=""
       inkscape:color="rgb(0,134,229)" /><sodipodi:guide
       position="0,7"
       orientation="0,1"
       id="guide7"
       inkscape:locked="false"
       inkscape:label=""
       inkscape:color="rgb(0,134,229)" /></sodipodi:namedview><g
     id="g4"
     transform="matrix(0.15300951,0,0,0.15297694,-0.65047561,-0.64918372)"><path
       d="m 24.07,10.422 c 3.6094,3.8086 7.3008,7.5312 11.02,11.23 l 5.5898,5.5391 c 2.1914,2.1992 5.2383,3.6289 8.3711,3.8516 3.1289,0.26172 6.3594,-0.64844 8.9102,-2.5391 0.32812,-0.21875 0.62891,-0.48047 0.92969,-0.73828 l 0.44922,-0.39062 0.35938,-0.33984 1.4297,-1.3516 2.8984,-2.6719 c 3.8906,-3.5312 7.8906,-6.9414 12.078,-10.16 1.9492,-1.5 4.7305,-3.7383 1.1406,-7.2188 -2.9492,-2.8594 -4.9883,-0.16016 -6.6016,1.4297 -3.6602,3.6016 -7.1992,7.3086 -10.73,11.039 l -2.6484,2.7891 -1.3281,1.3906 -0.67188,0.69922 c -0.23828,0.25 -0.33984,0.32031 -0.51172,0.48828 -1.25,1.1602 -2.9414,1.8711 -4.6797,1.8711 -1.8203,0.01953 -3.6016,-0.64844 -4.9492,-1.8594 -0.28125,-0.21875 -0.83984,-0.80859 -1.2891,-1.2617 l -1.4219,-1.4219 -2.8398,-2.8516 -11.402,-11.355 c -1.25,-1.2383 -2.4102,-3.8008 -5.0898,-1.2695 -2.8984,2.7305 -0.17188,3.8789 0.98047,5.1016 z"
       id="path1" /><path
       d="m 77.77,43.828 1.4219,-1.4219 2.8516,-2.8398 11.359,-11.391 c 1.2383,-1.25 3.8008,-2.4102 1.2695,-5.0898 -2.7305,-2.8984 -3.8789,-0.17188 -5.1016,0.98047 -3.8086,3.6094 -7.5312,7.3008 -11.23,11.02 l -5.5391,5.5898 c -2.1992,2.1914 -3.6289,5.2383 -3.8516,8.3711 -0.26172,3.1289 0.64844,6.3594 2.5391,8.9102 0.21875,0.32812 0.48047,0.62891 0.73828,0.92969 l 0.39063,0.44922 0.33984,0.35937 1.3516,1.4297 2.6719,2.8984 c 3.5312,3.8906 6.9414,7.8906 10.16,12.078 1.5,1.9492 3.7383,4.7305 7.2188,1.1406 2.8594,-2.9492 0.16016,-4.9883 -1.4297,-6.6016 -3.6016,-3.6602 -7.3086,-7.1992 -11.039,-10.73 l -2.7891,-2.6484 -1.3906,-1.3281 -0.69922,-0.67188 c -0.25,-0.23828 -0.32031,-0.33984 -0.48828,-0.51172 -1.1602,-1.25 -1.8711,-2.9414 -1.8711,-4.6797 -0.01953,-1.8203 0.64844,-3.6016 1.8594,-4.9492 0.21875,-0.28125 0.80859,-0.83984 1.2617,-1.2891 z"
       id="path2" /><path
       d="m 76.91,94.68 c 2.8984,-2.7305 0.17188,-3.8789 -0.98047,-5.1016 -3.6094,-3.8086 -7.3008,-7.5312 -11.02,-11.23 l -5.5898,-5.5391 c -2.1914,-2.1992 -5.2383,-3.6289 -8.3711,-3.8516 -3.1289,-0.26172 -6.3594,0.64844 -8.9102,2.5391 -0.32812,0.21875 -0.62891,0.48047 -0.92969,0.73828 l -0.44922,0.39062 -0.35938,0.33984 -1.4297,1.3516 -2.8984,2.6719 c -3.8906,3.5312 -7.8906,6.9414 -12.078,10.16 -1.9492,1.5 -4.7305,3.7383 -1.1406,7.2188 2.9492,2.8594 4.9883,0.16016 6.6016,-1.4297 3.6602,-3.6016 7.1992,-7.3086 10.73,-11.039 l 2.6484,-2.7891 1.3281,-1.3906 0.67188,-0.69922 c 0.23828,-0.25 0.33984,-0.32031 0.51172,-0.48828 1.25,-1.1602 2.9414,-1.8711 4.6797,-1.8711 1.8203,-0.01953 3.6016,0.64844 4.9492,1.8594 0.28125,0.21875 0.83984,0.80859 1.2891,1.2617 l 1.4219,1.4219 2.8398,2.8516 11.391,11.359 c 1.25,1.2383 2.4102,3.8008 5.0898,1.2695 z"
       id="path3" /><path
       d="m 22.23,56.172 -1.4219,1.4219 -2.8516,2.8398 -11.359,11.391 c -1.2383,1.25 -3.8008,2.4102 -1.2695,5.0898 2.7305,2.8984 3.8789,0.17188 5.1016,-0.98047 3.8086,-3.6094 7.5312,-7.3008 11.23,-11.02 l 5.5391,-5.5898 c 2.1992,-2.1914 3.6289,-5.2383 3.8516,-8.3711 0.26172,-3.1289 -0.64844,-6.3594 -2.5391,-8.9102 -0.21875,-0.32812 -0.48047,-0.62891 -0.73828,-0.92969 l -0.39063,-0.44922 -0.33984,-0.35937 -1.3516,-1.4297 -2.6719,-2.8984 c -3.5312,-3.8906 -6.9414,-7.8906 -10.16,-12.078 -1.5,-1.9492 -3.7383,-4.7305 -7.2188,-1.1406 -2.8594,2.9492 -0.16016,4.9883 1.4297,6.6016 3.6016,3.6602 7.3086,7.1992 11.039,10.73 l 2.7891,2.6484 1.3906,1.3281 0.69922,0.66016 c 0.25,0.23828 0.32031,0.33984 0.48828,0.51172 1.1602,1.25 1.8711,2.9414 1.8711,4.6797 0.01953,1.8203 -0.64844,3.6016 -1.8594,4.9492 -0.21875,0.28125 -0.80859,0.83984 -1.2617,1.2891 z"
       id="path4" /></g></svg>
