<?xml version="1.0" encoding="UTF-8" standalone="no"?>
<!-- Uploaded to: SVG Repo, www.svgrepo.com, Generator: SVG Repo Mixer Tools -->

<svg
   fill="#000000"
   width="800px"
   height="800px"
   viewBox="0 0 14 14"
   role="img"
   focusable="false"
   aria-hidden="true"
   version="1.1"
   id="svg1"
   sodipodi:docname="farm.svg"
   xml:space="preserve"
   inkscape:version="1.4.3 (0d15f75042, 2025-12-25)"
   xmlns:inkscape="http://www.inkscape.org/namespaces/inkscape"
   xmlns:sodipodi="http://sodipodi.sourceforge.net/DTD/sodipodi-0.dtd"
   xmlns="http://www.w3.org/2000/svg"
   xmlns:svg="http://www.w3.org/2000/svg"><defs
     id="defs1" /><sodipodi:namedview
     id="namedview1"
     pagecolor="#ffffff"
     bordercolor="#000000"
     borderopacity="0.25"
     inkscape:showpageshadow="2"
     inkscape:pageopacity="0.0"
     inkscape:pagecheckerboard="0"
     inkscape:deskcolor="#d1d1d1"
     inkscape:zoom="1"
     inkscape:cx="399.5"
     inkscape:cy="400"
     inkscape:window-width="1920"
     inkscape:window-height="1011"
     inkscape:window-x="0"
     inkscape:window-y="0"
     inkscape:window-maximized="1"
     inkscape:current-layer="svg1" /><g
     id="g1"
     transform="matrix(9.4814847,0,0,13.469977,-60.011411,-82.12342)"><path
       d="m 7.4504277,6.3431592 h 0.191415 V 6.2295457 c 0,-0.00861 -0.0041,-0.016748 -0.011006,-0.021943 l -0.068358,-0.050722 c -0.00971,-0.00718 -0.022969,-0.00718 -0.032608,0 l -0.068359,0.050722 c -0.00697,0.0052 -0.011074,0.01333 -0.011074,0.021943 z m 0.246085,0 V 6.2295457 c 0,-0.025909 -0.012305,-0.050381 -0.033154,-0.06583 l -0.068359,-0.05079 c -0.028983,-0.021534 -0.068702,-0.021534 -0.097753,0 l -0.068359,0.05079 c -0.020849,0.015449 -0.033154,0.039921 -0.033154,0.06583 v 0.1136135 h -0.275765 l 0.062685,-0.062753 c 0.010664,-0.010664 0.010664,-0.02796 0,-0.038622 -0.010664,-0.010663 -0.02796,-0.010664 -0.038691,0 l -0.076358,0.076358 -0.076358,-0.076358 c -0.010664,-0.010664 -0.02796,-0.010664 -0.038691,0 -0.010664,0.010664 -0.010664,0.02796 0,0.038622 l 0.062685,0.062753 H 6.6004404 l 0.062685,-0.062753 c 0.010664,-0.010664 0.010664,-0.02796 0,-0.038622 -0.010664,-0.010663 -0.02796,-0.010664 -0.038691,0 l -0.076358,0.076358 -0.076358,-0.076358 c -0.010664,-0.010664 -0.02796,-0.010664 -0.038691,0 -0.010664,0.010664 -0.010664,0.02796 0,0.038622 l 0.062685,0.062753 h -0.084355 c -0.045321,0 -0.082031,0.03671 -0.082031,0.082031 v 0.3685325 0.00116 0.25921 c 0,0.045253 0.03671,0.082031 0.082031,0.082031 h 1.3125 c 0.045322,0 0.082031,-0.036778 0.082031,-0.082031 v -0.25921 -0.00116 -0.3685325 c 0,-0.045322 -0.03671,-0.082031 -0.082031,-0.082031 z m -1.3125,0.7109375 v -0.25354 l 0.191415,-0.4029725 c 0,0 0.2037875,2.735e-4 0.222775,2.735e-4 l -0.085176,0.2766575 -0.063574,-0.063574 c -0.010664,-0.010664 -0.02796,-0.010664 -0.038691,0 -0.010664,0.010664 -0.010664,0.02796 0,0.038622 l 0.084082,0.084082 -0.1045223,0.339745 c -8.202e-4,0.00267 -0.00123,0.0054 -0.00123,0.00807 h -0.17773 c -0.015107,0 -0.027344,-0.012236 -0.027344,-0.027344 z m 0.365925,-0.313635 -0.1048635,0.34097 h 0.395185 V 6.9286479 l -0.087705,-0.087705 c -0.010664,-0.010664 -0.010664,-0.02796 0,-0.038622 0.010732,-0.010664 0.028028,-0.010664 0.038691,0 l 0.049014,0.049014 v -0.453495 h -0.184835 l -0.071094,0.2309125 0.017841,-0.017841 c 0.010732,-0.010664 0.028028,-0.010664 0.038691,0 0.010663,0.010664 0.010664,0.02796 0,0.038622 z m -0.365925,-0.065693 0.1337105,-0.27692 H 6.4113564 c -0.015107,0 -0.027344,0.012236 -0.027344,0.027344 z m 0.7109375,0.25389 0.087705,-0.087705 c 0.010664,-0.010664 0.010664,-0.02796 0,-0.038622 -0.010664,-0.010663 -0.02796,-0.010664 -0.038691,0 l -0.049014,0.049014 v -0.453495 h 0.184905 l 0.046758,0.1518947 -0.020918,-0.02085 c -0.010664,-0.010664 -0.02796,-0.010664 -0.038691,0 -0.010664,0.010664 -0.010664,0.02796 0,0.038623 l 0.093994,0.093994 0.129199,0.41993 h -0.395255 z m 0.40215,-0.3611475 -0.082441,0.082509 0.1302245,0.4233425 c 8.887e-4,0.00267 0.00123,0.0054 0.00123,0.00807 h 0.17773 c 0.015107,0 0.027344,-0.012236 0.027344,-0.027344 v -0.25354 L 7.5597731,6.3975726 v 2.736e-4 H 7.3370506 l 0.059404,0.1930425 0.061934,-0.062003 c 0.010732,-0.010664 0.028028,-0.010664 0.038691,0 0.010663,0.010664 0.010664,0.02796 0,0.038623 z m 0.2541,-0.142324 v 0.249585 l -0.1337105,-0.27692 h 0.1063667 c 0.015107,0 0.027344,0.012236 0.027344,0.027344 z"
       fill-rule="evenodd"
       id="path1-5"
       style="stroke-width:0.0175" /></g></svg>
