<?xml version="1.0" encoding="UTF-8" standalone="no"?>
<!-- Uploaded to: SVG Repo, www.svgrepo.com, Generator: SVG Repo Mixer Tools -->

<svg
   fill="#000000"
   width="800px"
   height="800px"
   viewBox="0 0 14 14"
   role="img"
   focusable="false"
   aria-hidden="true"
   version="1.1"
   id="svg1"
   sodipodi:docname="foresterslodge.svg"
   inkscape:version="1.4.3 (0d15f75042, 2025-12-25)"
   xml:space="preserve"
   xmlns:inkscape="http://www.inkscape.org/namespaces/inkscape"
   xmlns:sodipodi="http://sodipodi.sourceforge.net/DTD/sodipodi-0.dtd"
   xmlns="http://www.w3.org/2000/svg"
   xmlns:svg="http://www.w3.org/2000/svg"><defs
     id="defs1" /><sodipodi:namedview
     id="namedview1"
     pagecolor="#ffffff"
     bordercolor="#000000"
     borderopacity="0.25"
     inkscape:showpageshadow="2"
     inkscape:pageopacity="0.0"
     inkscape:pagecheckerboard="0"
     inkscape:deskcolor="#d1d1d1"
     inkscape:zoom="1"
     inkscape:cx="399.5"
     inkscape:cy="400"
     inkscape:window-width="1920"
     inkscape:window-height="1011"
     inkscape:window-x="0"
     inkscape:window-y="0"
     inkscape:window-maximized="1"
     inkscape:current-layer="svg1"
     showguides="true"><sodipodi:guide
       position="7,14"
       orientation="-1,0"
       id="guide6"
       inkscape:locked="false"
       inkscape:label=""
       inkscape:color="rgb(0,134,229)" /><sodipodi:guide
       position="0,7"
       orientation="0,1"
       id="guide7"
       inkscape:locked="false"
       inkscape:label=""
       inkscape:color="rgb(0,134,229)" /></sodipodi:namedview><g
     id="g4"
     transform="matrix(0.1998569,0,0,0.20022883,-0.19842158,-0.20022883)"><g
       id="g3"><path
         d="m 17.91,34.29 h 2.85 c 0.34,0 0.65,-0.17 0.84,-0.45 0.18,-0.28 0.21,-0.64 0.08,-0.95 l -3.77,-8.57 h 2.85 c 0.34,0 0.65,-0.17 0.84,-0.45 0.18,-0.28 0.21,-0.64 0.08,-0.95 L 12.3,1.6 C 12.14,1.24 11.78,1 11.38,1 10.98,1 10.62,1.23 10.46,1.6 L 1.08,22.91 c -0.14,0.31 -0.11,0.67 0.08,0.95 0.18,0.28 0.5,0.45 0.84,0.45 h 2.85 l -3.77,8.57 c -0.14,0.31 -0.11,0.67 0.08,0.95 0.18,0.28 0.5,0.45 0.84,0.45 h 2.85 l -3.77,8.54 c -0.14,0.31 -0.11,0.67 0.08,0.95 0.19,0.28 0.5,0.45 0.84,0.45 h 8.38 v 25.69 c 0,0.55 0.45,1 1,1 0.55,0 1,-0.45 1,-1 V 44.22 h 8.38 c 0.34,0 0.65,-0.17 0.84,-0.45 0.18,-0.28 0.21,-0.64 0.08,-0.95 L 17.91,34.28 Z M 3.54,42.24 7.31,33.7 C 7.45,33.39 7.42,33.03 7.23,32.75 7.04,32.47 6.73,32.3 6.39,32.3 H 3.53 L 7.3,23.73 C 7.44,23.42 7.41,23.06 7.22,22.78 7.04,22.5 6.72,22.33 6.38,22.33 H 3.53 l 7.85,-17.85 7.85,17.83 h -2.85 c -0.34,0 -0.65,0.17 -0.84,0.45 -0.18,0.28 -0.21,0.64 -0.08,0.95 l 3.77,8.57 h -2.85 c -0.34,0 -0.65,0.17 -0.84,0.45 -0.18,0.28 -0.21,0.64 -0.08,0.95 l 3.77,8.54 H 3.53 Z"
         id="path1" /><path
         d="m 70.88,33.83 c 0.18,-0.28 0.21,-0.64 0.08,-0.95 l -3.77,-8.57 h 2.85 c 0.34,0 0.65,-0.17 0.84,-0.45 0.18,-0.28 0.21,-0.64 0.08,-0.95 L 61.58,1.6 C 61.42,1.24 61.06,1 60.66,1 60.26,1 59.9,1.23 59.74,1.6 l -9.38,21.32 c -0.14,0.31 -0.11,0.67 0.08,0.95 0.18,0.28 0.5,0.45 0.84,0.45 h 2.85 l -3.77,8.57 c -0.14,0.31 -0.11,0.67 0.08,0.95 0.19,0.28 0.5,0.45 0.84,0.45 h 2.85 l -3.77,8.54 c -0.14,0.31 -0.11,0.67 0.08,0.95 0.19,0.28 0.5,0.45 0.84,0.45 h 8.38 v 25.69 c 0,0.55 0.45,1 1,1 0.55,0 1,-0.45 1,-1 V 44.23 h 8.38 c 0.34,0 0.65,-0.17 0.84,-0.45 0.19,-0.28 0.21,-0.64 0.08,-0.95 l -3.77,-8.54 h 2.85 c 0.34,0 0.65,-0.17 0.84,-0.45 z m -5.22,-1.55 c -0.34,0 -0.65,0.17 -0.84,0.45 -0.18,0.28 -0.21,0.64 -0.08,0.95 l 3.77,8.54 H 52.82 l 3.77,-8.54 c 0.14,-0.31 0.11,-0.67 -0.08,-0.95 -0.18,-0.28 -0.5,-0.45 -0.84,-0.45 h -2.85 l 3.77,-8.57 c 0.14,-0.31 0.11,-0.67 -0.08,-0.95 -0.19,-0.28 -0.5,-0.45 -0.84,-0.45 h -2.85 l 7.85,-17.83 7.85,17.83 h -2.85 c -0.34,0 -0.65,0.17 -0.84,0.45 -0.18,0.28 -0.21,0.64 -0.08,0.95 l 3.77,8.57 h -2.85 z"
         id="path2" /><path
         d="m 43.74,36.29 c 0.18,-0.28 0.21,-0.64 0.08,-0.95 L 36.94,19.7 c -0.16,-0.36 -0.52,-0.6 -0.92,-0.6 -0.4,0 -0.76,0.23 -0.92,0.6 l -6.88,15.64 c -0.14,0.31 -0.11,0.67 0.08,0.95 0.18,0.28 0.5,0.45 0.84,0.45 h 1.68 l -2.6,5.91 c -0.14,0.31 -0.11,0.67 0.08,0.95 0.18,0.28 0.5,0.45 0.84,0.45 h 1.68 l -2.6,5.89 c -0.14,0.31 -0.11,0.67 0.08,0.95 0.19,0.28 0.5,0.45 0.84,0.45 h 5.88 v 18.58 c 0,0.55 0.45,1 1,1 0.55,0 1,-0.45 1,-1 V 51.34 h 5.88 c 0.34,0 0.65,-0.17 0.84,-0.45 0.19,-0.28 0.21,-0.64 0.08,-0.95 l -2.6,-5.89 h 1.68 c 0.34,0 0.65,-0.17 0.84,-0.45 0.18,-0.28 0.21,-0.64 0.08,-0.95 l -2.6,-5.91 h 1.68 c 0.34,0 0.65,-0.17 0.84,-0.45 z m -4.05,-1.55 c -0.34,0 -0.65,0.17 -0.84,0.45 -0.18,0.28 -0.21,0.64 -0.08,0.95 l 2.6,5.91 h -1.68 c -0.34,0 -0.65,0.17 -0.84,0.45 -0.19,0.28 -0.21,0.64 -0.08,0.95 l 2.6,5.89 H 30.68 l 2.6,-5.89 c 0.14,-0.31 0.11,-0.67 -0.08,-0.95 -0.19,-0.28 -0.5,-0.45 -0.84,-0.45 h -1.68 l 2.6,-5.91 c 0.14,-0.31 0.11,-0.67 -0.08,-0.95 -0.18,-0.28 -0.5,-0.45 -0.84,-0.45 h -1.68 l 5.35,-12.15 5.35,12.15 H 39.7 Z"
         id="path3" /></g></g></svg>
