<?xml version="1.0" encoding="UTF-8" standalone="no"?>
<!-- Uploaded to: SVG Repo, www.svgrepo.com, Generator: SVG Repo Mixer Tools -->

<svg
   fill="#000000"
   width="800px"
   height="800px"
   viewBox="0 0 14 14"
   role="img"
   focusable="false"
   aria-hidden="true"
   version="1.1"
   id="svg1"
   sodipodi:docname="fort.svg"
   inkscape:version="1.4.3 (0d15f75042, 2025-12-25)"
   xml:space="preserve"
   xmlns:inkscape="http://www.inkscape.org/namespaces/inkscape"
   xmlns:sodipodi="http://sodipodi.sourceforge.net/DTD/sodipodi-0.dtd"
   xmlns="http://www.w3.org/2000/svg"
   xmlns:svg="http://www.w3.org/2000/svg"><defs
     id="defs1" /><sodipodi:namedview
     id="namedview1"
     pagecolor="#ffffff"
     bordercolor="#000000"
     borderopacity="0.25"
     inkscape:showpageshadow="2"
     inkscape:pageopacity="0.0"
     inkscape:pagecheckerboard="0"
     inkscape:deskcolor="#d1d1d1"
     inkscape:zoom="1"
     inkscape:cx="399.5"
     inkscape:cy="422"
     inkscape:window-width="1920"
     inkscape:window-height="1011"
     inkscape:window-x="0"
     inkscape:window-y="0"
     inkscape:window-maximized="1"
     inkscape:current-layer="svg1"
     showguides="true"><sodipodi:guide
       position="7,14"
       orientation="-1,0"
       id="guide6"
       inkscape:locked="false"
       inkscape:label=""
       inkscape:color="rgb(0,134,229)" /><sodipodi:guide
       position="0,7"
       orientation="0,1"
       id="guide7"
       inkscape:locked="false"
       inkscape:label=""
       inkscape:color="rgb(0,134,229)" /></sodipodi:namedview><g
     data-name="Layer 41"
     id="g1"
     transform="matrix(0.2295082,0,0,0.2295082,-0.3442623,-0.34426226)"><path
       d="m 10.76465,41.04688 a 0.3751,0.3751 0 0 1 -0.375,0.375 h -2 a 0.375,0.375 0 0 1 0,-0.75 h 2 a 0.37509,0.37509 0 0 1 0.375,0.375 z m 4.625,-4.375 h -2 a 0.375,0.375 0 0 0 0,0.75 h 2 a 0.375,0.375 0 1 0 0,-0.75 z m -5,0 h -2 a 0.375,0.375 0 0 0 0,0.75 h 2 a 0.375,0.375 0 1 0 0,-0.75 z m 50.9082,-3.39655 V 56.62872 A 1.86885,1.86885 0 0 1 62.5,58.37012 v 2.25976 A 1.87216,1.87216 0 0 1 60.62988,62.5 H 3.37012 A 1.87216,1.87216 0 0 1 1.5,60.62988 v -2.25976 a 1.86882,1.86882 0 0 1 1.20215,-1.7414 V 33.27533 L 1.59863,30.98047 A 1.0096,1.0096 0 0 1 1.5,30.54688 V 26.94531 A 1.90049,1.90049 0 0 1 3.39844,25.04688 H 5.60156 A 1.90049,1.90049 0 0 1 7.5,26.94531 v 1.60157 h 2 v -1.60157 a 1.90049,1.90049 0 0 1 1.89844,-1.89843 h 2.20312 A 1.90049,1.90049 0 0 1 15.5,26.94531 v 1.60157 h 2 v -1.60157 a 1.90049,1.90049 0 0 1 1.89844,-1.89843 h 0.89941 v -3.082 H 20.09863 A 1.589,1.589 0 0 1 19.06836,19.166 L 31.0957,8.90649 V 2.5 a 0.99943,0.99943 0 0 1 1,-1 H 39.25 a 0.99943,0.99943 0 0 1 1,1 v 4 a 0.99943,0.99943 0 0 1 -1,1 H 33.0957 V 8.90643 L 45.124,19.166 a 1.59,1.59 0 0 1 -1.03222,2.79882 h -0.19922 v 3.082 h 0.709 A 1.90049,1.90049 0 0 1 46.5,26.94531 v 1.60157 h 2 v -1.60157 a 1.90049,1.90049 0 0 1 1.89844,-1.89843 h 2.20312 A 1.90049,1.90049 0 0 1 54.5,26.94531 v 1.60157 h 2 v -1.60157 a 1.90049,1.90049 0 0 1 1.89844,-1.89843 h 2.20312 A 1.90049,1.90049 0 0 1 62.5,26.94531 v 3.60157 a 1.0096,1.0096 0 0 1 -0.09863,0.43359 z m -2,23.22467 V 45.42188 H 58.0166 a 0.375,0.375 0 0 1 0,-0.75 h 1.28125 v -3.25 H 58.0166 a 0.375,0.375 0 0 1 0,-0.75 h 1.28125 v -3.25 H 58.0166 a 0.375,0.375 0 0 1 0,-0.75 h 1.28125 v -2.625 h -15.5957 v 2.625 h 1.31445 a 0.375,0.375 0 0 1 0,0.75 H 43.70215 V 56.5 Z M 25.75,58.5 v 2 h 12.69043 v -2 z m 9.083,-7.52148 a 2.73611,2.73611 0 0 0 -1.73731,-2.542 V 56.5 H 34.833 Z m -3.7373,-2.54206 a 2.7365,2.7365 0 0 0 -1.73828,2.54206 V 56.5 H 31.0957 Z M 41.70215,56.5 V 41.63477 H 22.29785 V 56.5 h 5.05957 v -5.52148 a 4.7378,4.7378 0 0 1 9.47559,0 V 56.5 Z m -37,0 h 15.5957 V 37.42188 h -1.9082 a 0.375,0.375 0 0 1 0,-0.75 h 1.9082 v -2.625 H 4.70215 v 2.625 h 0.6875 a 0.375,0.375 0 1 1 0,0.75 h -0.6875 v 3.25 h 0.6875 a 0.375,0.375 0 1 1 0,0.75 h -0.6875 v 3.25 h 0.6875 a 0.375,0.375 0 1 1 0,0.75 H 4.70215 Z M 25.0957,37.13477 v -2.5 h -2 v 2.5 a 1.0005,1.0005 0 0 1 -0.79785,0.97949 v 1.52051 h 19.4043 V 38.05469 A 1.002,1.002 0 0 1 41.0957,37.13477 v -2.5 h -2 v 2.5 a 0.99942,0.99942 0 0 1 -1,1 h -4 a 0.99943,0.99943 0 0 1 -1,-1 v -2.5 h -2 v 2.5 a 0.99942,0.99942 0 0 1 -1,1 h -4 a 0.99943,0.99943 0 0 1 -1,-1 z M 44.5,29.54688 v -2.5 h -2 v 3.27246 l 0.831,1.72754 H 59.669 L 60.5,30.31934 v -3.27246 h -2 v 2.5 a 0.99943,0.99943 0 0 1 -1,1 h -4 a 0.99943,0.99943 0 0 1 -1,-1 v -2.5 h -2 v 2.5 a 0.99943,0.99943 0 0 1 -1,1 h -4 a 0.99943,0.99943 0 0 1 -1,-1 z M 38.25,3.5 h -5.1543 v 2 H 38.25 Z M 21.21289,19.96484 H 42.97852 L 32.0957,10.68262 Z m 1.085,2 v 3.21839 A 1.8981,1.8981 0 0 1 23.5,26.94531 v 3.60157 a 1.0096,1.0096 0 0 1 -0.09863,0.43359 l -0.815,1.695 a 1.8731,1.8731 0 0 1 0.38532,-0.04065 h 2.248 a 1.87839,1.87839 0 0 1 1.876,1.876 v 1.624 h 2 v -1.624 a 1.8784,1.8784 0 0 1 1.876,-1.876 h 2.248 a 1.87839,1.87839 0 0 1 1.876,1.876 v 1.624 h 2 v -1.624 a 1.8784,1.8784 0 0 1 1.876,-1.876 h 2.248 a 1.837,1.837 0 0 1 0.18329,0.01855 L 40.59859,30.98052 A 1.0096,1.0096 0 0 1 40.5,30.54688 V 26.94531 A 1.89547,1.89547 0 0 1 41.89258,25.124 V 21.96484 Z M 3.5,30.31934 4.33105,32.04688 H 20.669 L 21.5,30.31934 v -3.27246 h -2 v 2.5 a 0.99943,0.99943 0 0 1 -1,1 h -4 a 0.99943,0.99943 0 0 1 -1,-1 v -2.5 h -2 v 2.5 a 0.99943,0.99943 0 0 1 -1,1 h -4 a 0.99943,0.99943 0 0 1 -1,-1 v -2.5 h -2 z M 3.5,60.5 h 20.25 v -2 H 3.5 Z m 57,-2 H 40.44043 v 2 H 60.5 Z M 29,29.54688 V 26.665 a 3,3 0 0 1 6,0 v 2.88184 a 0.99943,0.99943 0 0 1 -1,1 h -4 a 0.99943,0.99943 0 0 1 -1,-0.99996 z m 2,-1 h 2 V 26.665 a 1,1 0 0 0 -2,0 z m 24.0166,12.125 h -2 a 0.375,0.375 0 0 0 0,0.75 h 2 a 0.375,0.375 0 0 0 0,-0.75 z m -5,-4 h -2 a 0.375,0.375 0 0 0 0,0.75 h 2 a 0.375,0.375 0 0 0 0,-0.75 z m 5,0 h -2 a 0.375,0.375 0 0 0 0,0.75 h 2 a 0.375,0.375 0 0 0 0,-0.75 z"
       id="path1" /></g></svg>
