<?xml version="1.0" encoding="UTF-8" standalone="no"?>
<!-- Uploaded to: SVG Repo, www.svgrepo.com, Generator: SVG Repo Mixer Tools -->

<svg
   fill="#000000"
   width="800px"
   height="800px"
   viewBox="0 0 14 14"
   role="img"
   focusable="false"
   aria-hidden="true"
   version="1.1"
   id="svg1"
   sodipodi:docname="garden.svg"
   inkscape:version="1.4.3 (0d15f75042, 2025-12-25)"
   xml:space="preserve"
   xmlns:inkscape="http://www.inkscape.org/namespaces/inkscape"
   xmlns:sodipodi="http://sodipodi.sourceforge.net/DTD/sodipodi-0.dtd"
   xmlns="http://www.w3.org/2000/svg"
   xmlns:svg="http://www.w3.org/2000/svg"><defs
     id="defs1" /><sodipodi:namedview
     id="namedview1"
     pagecolor="#ffffff"
     bordercolor="#000000"
     borderopacity="0.25"
     inkscape:showpageshadow="2"
     inkscape:pageopacity="0.0"
     inkscape:pagecheckerboard="0"
     inkscape:deskcolor="#d1d1d1"
     inkscape:zoom="0.70710678"
     inkscape:cx="399.51533"
     inkscape:cy="400.22244"
     inkscape:window-width="1920"
     inkscape:window-height="1011"
     inkscape:window-x="0"
     inkscape:window-y="0"
     inkscape:window-maximized="1"
     inkscape:current-layer="svg1" /><g
     id="g1"><path
       d="m 8.4719304,4.1577028 c 0,-0.7693316 -0.6271628,-1.3964923 -1.3964923,-1.3964923 -0.7693295,0 -1.3964923,0.6271607 -1.3964923,1.3964923 0,0.7693326 0.6271628,1.3964923 1.3964923,1.3964923 0.7693295,0 1.3964923,-0.6271607 1.3964923,-1.3964923 z m -2.2524069,0 c 0,-0.4723022 0.3836145,-0.8559147 0.8559146,-0.8559147 0.4723001,0 0.8559146,0.3836114 0.8559146,0.8559147 0,0.4723032 -0.3836145,0.8559146 -0.8559146,0.8559146 -0.4723001,0 -0.8559146,-0.3836114 -0.8559146,-0.8559146 z"
       id="path1"
       style="fill:#000000;stroke-width:0.180193" /><path
       d="m 11.129771,9.4050902 c -1.6273554,0 -3.0448942,0.9030738 -3.7840441,2.2340268 V 8.3484411 C 7.8088733,8.2851162 8.2326141,8.0598447 8.5437191,7.7036915 9.1096267,7.739627 9.6502095,7.5375746 10.053534,7.1363733 c 0.401922,-0.4019221 0.605344,-0.946012 0.567318,-1.509816 0.425141,-0.3730531 0.665168,-0.898854 0.665168,-1.468281 0,-0.5694445 -0.239316,-1.0952284 -0.665168,-1.468281 0.038,-0.563802 -0.166117,-1.1064874 -0.567318,-1.5098124 C 9.651612,0.77826344 9.1096339,0.57624957 8.5437191,0.61286469 c -0.37305,-0.42514631 -0.8988519,-0.6651628 -1.468281,-0.6651628 -0.5694291,0 -1.0952279,0.23931425 -1.468281,0.6651628 C 5.0398388,0.57485951 4.5006667,0.77898061 4.0973422,1.1801829 3.6954201,1.5821019 3.4920084,2.1261939 3.5300239,2.6899984 3.1048828,3.0630515 2.8648663,3.5888524 2.8648663,4.1582794 c 0,0.5694445 0.2393163,1.0952284 0.6651576,1.468281 -0.037995,0.563804 0.166117,1.1064904 0.5673183,1.5098159 0.401922,0.4033225 0.9439001,0.6053441 1.5098149,0.5673183 0.3118258,0.3568739 0.7348458,0.5800038 1.1979922,0.6447495 V 11.639117 C 6.0660715,10.307386 4.6484246,9.4050902 3.0211056,9.4050902 c -0.1492201,0 -0.2702889,0.1210688 -0.2702889,0.2702888 0,2.383947 1.9406739,4.324621 4.3246214,4.324621 2.3839475,0 4.3246209,-1.940674 4.3246209,-4.324621 0,-0.14922 -0.121068,-0.2702888 -0.270288,-0.2702888 z M 5.9400448,7.2568346 C 5.8879434,7.1885673 5.8084219,7.148441 5.7239579,7.148441 c -0.012665,0 -0.02533,0 -0.037995,0.00352 C 5.2375924,7.2152852 4.7976652,7.0710282 4.4802225,6.7521492 4.1627747,6.4332979 4.0170762,5.9954846 4.0804113,5.5464084 4.0945178,5.4492692 4.0536398,5.3521433 3.9762394,5.2923009 3.6137434,5.0199043 3.4046892,4.607425 3.4046892,4.1569436 c 0,-0.4504814 0.2069331,-0.8629607 0.5715502,-1.1353574 C 4.055833,2.9624625 4.0951974,2.864622 4.0804113,2.7674787 4.0156449,2.319105 4.1613435,1.8791839 4.4802225,1.5617382 4.7990707,1.242887 5.2389979,1.0985898 5.685963,1.161927 5.783061,1.1760026 5.8802312,1.1351761 5.9400757,1.057754 6.2124568,0.69526016 6.6249361,0.48620076 7.0754175,0.48620076 c 0.4504814,0 0.8629576,0.20693313 1.1353583,0.57155324 0.059103,0.079542 0.1569632,0.1210678 0.2541127,0.104173 0.4483706,-0.063345 0.8882978,0.080943 1.2057405,0.3998112 0.3188481,0.3174457 0.463146,0.7566646 0.399811,1.2057405 -0.01411,0.097139 0.02677,0.1942661 0.104172,0.2541075 0.362496,0.2723976 0.57155,0.6848759 0.57155,1.1353574 0,0.4504814 -0.206933,0.8629596 -0.57155,1.1353573 C 10.095121,5.3514246 10.055654,5.449265 10.07044,5.5464084 10.135207,5.994782 9.989508,6.4347042 9.670629,6.7521492 9.3531812,7.0709973 8.9139644,7.2152955 8.4648885,7.1519604 8.3656281,7.1378539 8.2706203,7.1787319 8.2107758,7.2561323 7.9383761,7.6186283 7.5258999,7.8276825 7.0754185,7.8276825 c -0.4504814,0 -0.8629576,-0.2069331 -1.1353572,-0.5715502 z M 3.3018456,9.9561191 C 5.1650366,10.093374 6.6572112,11.584898 6.7937971,13.44807 4.9306061,13.310814 3.4384315,11.819292 3.3018456,9.9561191 Z M 7.3561781,13.448791 C 7.4934344,11.5856 8.9849561,10.093426 10.84813,9.9568398 10.710873,11.82003 9.2193506,13.312205 7.3561781,13.448791 Z"
       id="path2"
       style="fill:#000000;stroke-width:0.180193" /></g></svg>
