<?xml version="1.0" encoding="UTF-8" standalone="no"?>
<!-- Uploaded to: SVG Repo, www.svgrepo.com, Generator: SVG Repo Mixer Tools -->

<svg
   fill="#000000"
   width="800px"
   height="800px"
   viewBox="0 0 14 14"
   role="img"
   focusable="false"
   aria-hidden="true"
   version="1.1"
   id="svg1"
   sodipodi:docname="harbor.svg"
   inkscape:version="1.4.3 (0d15f75042, 2025-12-25)"
   xml:space="preserve"
   xmlns:inkscape="http://www.inkscape.org/namespaces/inkscape"
   xmlns:sodipodi="http://sodipodi.sourceforge.net/DTD/sodipodi-0.dtd"
   xmlns="http://www.w3.org/2000/svg"
   xmlns:svg="http://www.w3.org/2000/svg"><defs
     id="defs1" /><sodipodi:namedview
     id="namedview1"
     pagecolor="#ffffff"
     bordercolor="#000000"
     borderopacity="0.25"
     inkscape:showpageshadow="2"
     inkscape:pageopacity="0.0"
     inkscape:pagecheckerboard="0"
     inkscape:deskcolor="#d1d1d1"
     inkscape:zoom="1"
     inkscape:cx="399.5"
     inkscape:cy="400"
     inkscape:window-width="1920"
     inkscape:window-height="1011"
     inkscape:window-x="0"
     inkscape:window-y="0"
     inkscape:window-maximized="1"
     inkscape:current-layer="svg1" /><path
     d="M 3.7976505,12.9463 C 3.4062344,12.945804 3.0281761,12.815289 2.7307451,12.57817 2.4354411,12.341546 2.0002421,12.341546 1.7049598,12.577673 1.5255395,12.720146 1.2558721,12.700215 1.1026272,12.532859 0.94990583,12.365485 0.97126281,12.113908 1.150667,11.971448 c 0.61355,-0.492676 1.5207909,-0.492676 2.1337552,0 0.2952961,0.235633 0.7315653,0.235633 1.0263188,-4.97e-4 0.6140888,-0.491678 1.5207909,-0.491182 2.1343017,4.97e-4 0.2952964,0.235633 0.7310344,0.235131 1.0263187,-4.97e-4 0.6140891,-0.491182 1.5202442,-0.491182 2.1343019,0 0.2947495,0.236625 0.7310347,0.236625 1.0263187,0 0.61355,-0.491678 1.520244,-0.491182 2.133755,4.97e-4 0.174078,0.143961 0.192778,0.391048 0.04164,0.556441 -0.151119,0.165395 -0.415982,0.187311 -0.595927,0.04985 -0.295296,-0.23613 -0.730504,-0.23613 -1.025786,0 -0.614088,0.490688 -1.5196975,0.490688 -2.1343022,0 -0.2947491,-0.23613 -0.7304952,-0.23613 -1.0263186,0 -0.6140812,0.490688 -1.5196971,0.490688 -2.1337551,0 -0.295296,-0.236625 -0.7315654,-0.236625 -1.0263187,0 -0.2974285,0.237623 -0.6760259,0.368131 -1.067438,0.368633 z m 0,-1.630942 v -4.97e-4 c -0.3914161,0 -0.7694744,-0.130521 -1.0669054,-0.36813 C 2.4359878,10.710107 1.9997109,10.710107 1.7049598,10.946234 1.5244759,11.084227 1.2596137,11.061812 1.1084936,10.896382 0.957905,10.730986 0.97659654,10.483413 1.1506748,10.339446 1.4053905,10.136198 1.7204419,10.010171 2.0541821,9.9787864 L 1.7359282,8.53161 v 4.97e-4 c -0.024528,-0.1110809 0.00266,-0.2261528 0.074755,-0.3173234 0.0721,-0.09066 0.1820848,-0.1489472 0.3027639,-0.1594113 L 6.5295515,7.663334 V 7.11636 L 3.0287932,7.4466329 v 4.977e-4 C 2.8381626,7.4610493 2.6608818,7.3564625 2.5930628,7.1900874 2.5247126,7.0237049 2.582361,6.8359049 2.734575,6.7283014 4.5063477,5.5347255 5.8332977,3.8539712 6.5296492,1.9211727 V 1.513684 c 0.00321,-0.2176922 0.193841,-0.3925426 0.4271846,-0.3925426 0.2333434,0 0.4234583,0.1748504 0.4271846,0.3925426 v 0.2460905 c 0.8132573,0.461786 3.5270046,2.1844093 3.5270046,4.5925008 v 4.977e-4 c 0,0.2047427 -0.166611,0.3765981 -0.385003,0.396536 L 7.3841001,7.0367402 V 7.5871976 L 11.722148,7.2026272 v 4.977e-4 c 0.119609,-0.00999 0.238156,0.027401 0.326791,0.1026183 0.08917,0.07522 0.139904,0.1818316 0.140966,0.2939096 -5.33e-4,0.8807258 -0.322527,1.7355138 -0.912584,2.4235222 0.514758,-0.1868025 2.019063,0.154424 1.536785,0.87824 h 5.32e-4 c -0.07367,0.08019 -0.178351,0.13052 -0.291554,0.13899 -0.112673,0.0084 -0.224806,-0.02544 -0.311311,-0.09416 -0.29473,-0.236109 -0.730476,-0.236109 -1.025763,2.1e-5 -0.614084,0.490686 -1.5196971,0.491183 -2.1343018,4.97e-4 -0.2947532,-0.236128 -0.730499,-0.236627 -1.0263186,-4.97e-4 -0.6140851,0.491183 -1.5196974,0.491183 -2.1337551,4.97e-4 -0.2952994,-0.236127 -0.7310311,-0.236625 -1.026318,-4.95e-4 -0.2974324,0.237621 -0.6760237,0.368629 -1.067438,0.368629 z M 2.9608938,10.138221 c 0.1158747,0.05531 0.2248056,0.12305 0.323597,0.201748 0.2958349,0.236128 0.7310341,0.235633 1.0263186,0 0.6140812,-0.4916787 1.5207909,-0.4916787 2.1343018,0 0.2952964,0.236128 0.7310344,0.235633 1.0263187,0 C 8.0769733,9.8552634 8.9687085,9.8477865 9.5833131,10.322041 10.510852,9.858761 11.148396,9.0123391 11.30109,8.0409661 9.1368498,8.2327534 4.8324304,8.6143433 2.6681909,8.8066258 Z M 6.5294552,3.8864665 C 5.9607508,4.8698145 5.2227918,5.7599652 4.3459412,6.5216837 L 6.5294552,6.3154469 Z M 7.3838323,2.7153101 V 6.2362017 L 10.030214,5.9936091 C 9.8102082,4.4966961 8.2729313,3.2946271 7.3838323,2.7152721 Z"
     id="path1"
     style="stroke-width:0.132034" /></svg>
