<?xml version="1.0" encoding="UTF-8" standalone="no"?>
<!-- Uploaded to: SVG Repo, www.svgrepo.com, Generator: SVG Repo Mixer Tools -->

<svg
   fill="#000000"
   width="800px"
   height="800px"
   viewBox="0 0 14 14"
   role="img"
   focusable="false"
   aria-hidden="true"
   version="1.1"
   id="svg1"
   sodipodi:docname="harbor.svg"
   inkscape:version="1.4.4 (dcaf3e7d9e, 2026-05-05)"
   xml:space="preserve"
   xmlns:inkscape="http://www.inkscape.org/namespaces/inkscape"
   xmlns:sodipodi="http://sodipodi.sourceforge.net/DTD/sodipodi-0.dtd"
   xmlns="http://www.w3.org/2000/svg"
   xmlns:svg="http://www.w3.org/2000/svg"><defs
     id="defs1" /><sodipodi:namedview
     id="namedview1"
     pagecolor="#ffffff"
     bordercolor="#000000"
     borderopacity="0.25"
     inkscape:showpageshadow="2"
     inkscape:pageopacity="0.0"
     inkscape:pagecheckerboard="0"
     inkscape:deskcolor="#d1d1d1"
     inkscape:zoom="1"
     inkscape:cx="399.5"
     inkscape:cy="400"
     inkscape:window-width="1920"
     inkscape:window-height="1011"
     inkscape:window-x="0"
     inkscape:window-y="0"
     inkscape:window-maximized="1"
     inkscape:current-layer="svg1" /><path
     d="m 11.177853,8.6332567 c -6.71e-4,-0.00197 -6.71e-4,-0.00395 -0.0013,-0.0061 0,-0.00134 -6.71e-4,-0.00197 -0.0013,-0.00341 -6.71e-4,-0.00197 -0.0013,-0.00341 -0.002,-0.00538 -6.71e-4,-0.00134 -0.0013,-0.00197 -0.0013,-0.00341 -6.71e-4,-0.00134 -0.0013,-0.00341 -0.0027,-0.00466 -6.71e-4,-0.00134 -0.0013,-0.00197 -0.002,-0.00341 -6.71e-4,-0.00134 -0.002,-0.00269 -0.0027,-0.00395 -6.69e-4,-0.00134 -0.0013,-0.00197 -0.0027,-0.00341 -0.0013,-0.00134 -0.002,-0.00269 -0.0034,-0.00395 l -0.0027,-0.00269 c -0.0013,-0.00134 -0.0027,-0.00197 -0.0039,-0.00341 -0.0013,-6.709e-4 -0.002,-0.00134 -0.0034,-0.00269 l -0.0013,-0.00134 c -6.71e-4,-6.691e-4 -0.002,-0.00134 -0.0034,-0.00134 -6.71e-4,-6.691e-4 -0.0013,-6.691e-4 -0.002,-0.00134 L 10.618419,8.3209721 c -0.01944,-0.0094 -0.04235,-0.0094 -0.06179,0 l -0.523182,0.2619205 c -6.71e-4,6.708e-4 -0.0013,6.708e-4 -0.002,0.00134 -0.0013,6.726e-4 -0.002,0.00134 -0.0034,0.00134 -6.69e-4,0 -6.69e-4,6.708e-4 -0.0013,0.00134 -0.0013,6.708e-4 -0.002,0.00134 -0.0034,0.00269 -0.0013,0.00134 -0.0027,0.00197 -0.0039,0.00341 -0.0013,6.709e-4 -0.002,0.00197 -0.0027,0.00269 -0.0013,0.00134 -0.0027,0.00269 -0.0034,0.00395 -6.71e-4,6.709e-4 -0.002,0.00197 -0.0027,0.00341 -0.0013,0.00134 -0.002,0.00269 -0.0027,0.00395 -6.71e-4,0.00134 -0.0013,0.00197 -0.002,0.00341 -6.69e-4,0.00134 -0.002,0.00341 -0.0027,0.00466 -6.71e-4,0.00134 -0.0013,0.00197 -0.0013,0.00341 -6.71e-4,0.00197 -0.0013,0.00341 -0.00197,0.00538 -6.708e-4,0.00134 -6.708e-4,0.00197 -0.00134,0.00341 -6.708e-4,0.00197 -6.708e-4,0.00395 -0.00134,0.0061 0,0.00134 -6.708e-4,0.00197 -6.708e-4,0.00269 -6.709e-4,0.00341 -6.709e-4,0.0061 -6.709e-4,0.00933 v 0.5231805 c 0,0.026224 0.014708,0.049722 0.038314,0.061794 l 0.523182,0.2619194 c 6.71e-4,0 6.71e-4,0 0.0013,6.69e-4 0.0039,0.00197 0.0088,0.00341 0.01273,0.00466 6.71e-4,0 0.002,6.709e-4 0.0027,6.709e-4 0.0047,6.708e-4 0.0093,0.00134 0.01417,0.00134 0.0047,0 0.0093,-6.691e-4 0.01417,-0.00134 6.71e-4,0 0.0013,0 0.0027,-6.709e-4 0.0047,-0.00134 0.0088,-0.00269 0.01274,-0.00466 6.72e-4,0 6.72e-4,0 0.0013,-6.69e-4 l 0.523172,-0.2619194 c 0.02348,-0.01148 0.03831,-0.035569 0.03831,-0.061794 V 8.6453912 c 0,-0.00341 0,-0.0061 -6.69e-4,-0.00933 0,-0.00134 -6.71e-4,-0.00197 -6.71e-4,-0.00269 z M 10.586851,8.4606611 10.956889,8.645341 10.586851,8.8300209 10.216814,8.645341 Z m -0.454665,0.2961777 0.38617,0.1927463 v 0.3693706 l -0.38617,-0.1927463 z m 0.909342,0.3693706 -0.386171,0.1927463 V 8.9495851 l 0.386171,-0.1927463 z"
     id="path1"
     style="stroke-width:0.171928" /><path
     d="m 7.3041415,10.241817 v -6.71e-4 c 0,-0.0013 -6.727e-4,-0.002 -6.727e-4,-0.0027 -6.69e-4,-0.0034 -0.00134,-0.0066 -0.00269,-0.01004 -6.69e-4,-0.002 -0.00197,-0.0034 -0.00269,-0.0054 -0.00134,-0.002 -0.00197,-0.0047 -0.00341,-0.0066 -0.00134,-0.002 -0.00269,-0.0034 -0.00395,-0.0047 -0.00134,-0.002 -0.00269,-0.0039 -0.00395,-0.0054 -0.00134,-0.0013 -0.00269,-0.002 -0.00395,-0.0034 -0.00197,-0.002 -0.00395,-0.0039 -0.0061,-0.0054 -6.69e-4,-6.71e-4 -0.00134,-6.71e-4 -0.00269,-0.0013 -0.00269,-0.002 -0.0061,-0.0039 -0.00933,-0.0054 -0.00807,-0.0034 -0.016144,-0.0061 -0.025543,-0.0061 -0.048341,-0.002 -1.1860278,-0.04569 -1.9106358,0.316996 -0.7501763,0.375422 -0.6615302,0.979184 -0.6561463,1.011417 v 6.71e-4 c 0,0.0013 6.71e-4,0.002 6.71e-4,0.0027 6.7e-4,0.002 6.7e-4,0.0039 0.00134,0.0054 6.701e-4,0.0013 6.701e-4,0.0027 0.00134,0.0034 6.701e-4,6.71e-4 6.701e-4,0.002 0.00134,0.0027 0,0 0,6.7e-4 6.699e-4,6.7e-4 6.71e-4,6.71e-4 6.71e-4,0.002 0.00134,0.0027 l 0.1356664,0.274014 c 0.01139,0.0228 0.0336,0.03693 0.058456,0.03831 0.0094,6.71e-4 0.062484,0.0027 0.1464036,0.0027 0.320356,0 1.0933594,-0.03026 1.6265937,-0.296856 0.400936,-0.200812 0.5433217,-0.475483 0.5916679,-0.670244 0,-0.0013 0,-0.002 6.709e-4,-0.0034 0,-0.0013 6.708e-4,-0.0027 6.708e-4,-0.0039 l 0.043623,-0.327724 c 0.04235,-0.16522 0.024861,-0.287444 0.022206,-0.302221 z m -1.914076,0.382144 c 0.6010802,-0.300207 1.5366067,-0.307595 1.782379,-0.303557 6.691e-4,0.04097 -0.00269,0.101417 -0.019444,0.172592 -0.00269,0.0054 -0.00395,0.01148 -0.00538,0.0174 l -6.69e-4,0.0054 c -0.049022,0.181998 -0.1873634,0.427806 -0.5607806,0.613833 -0.6004121,0.300207 -1.5366065,0.307593 -1.7823781,0.303556 -0.00201,-0.14574 0.045684,-0.539285 0.5863041,-0.809938 z m 1.1940914,0.803227 c -0.5695141,0.284743 -1.4654115,0.284743 -1.6648825,0.280725 l -0.0672,-0.13566 h 0.042933 c 0.345202,0 1.1786524,-0.03223 1.7528065,-0.319688 0.1940927,-0.09668 0.3317717,-0.208857 0.4291529,-0.323036 -0.059731,0.156484 -0.1947607,0.347205 -0.4929529,0.496979 z"
     id="path2"
     style="stroke-width:0.171928" /><path
     d="m 5.6465822,10.822074 0.6655482,0.333108 c 0.010117,0.0047 0.02014,0.0074 0.030849,0.0074 0.025543,0 0.049711,-0.01417 0.061795,-0.03831 0.016807,-0.0343 0.00335,-0.07525 -0.030848,-0.09205 L 5.7083777,10.69906 c -0.034287,-0.01686 -0.075256,-0.0034 -0.092056,0.03085 -0.016807,0.0343 -0.00335,0.07526 0.030848,0.09205 z"
     id="path3"
     style="stroke-width:0.171928" /><path
     d="m 6.2973299,10.626592 0.40632,0.203493 c 0.010117,0.0047 0.02014,0.0074 0.030848,0.0074 0.025544,0 0.049711,-0.01417 0.061796,-0.03831 0.016807,-0.03428 0.00335,-0.07525 -0.030849,-0.09205 L 6.3591258,10.503609 c -0.034287,-0.01686 -0.075256,-0.0034 -0.092056,0.03085 -0.016807,0.0343 -0.00335,0.07526 0.030848,0.09205 z"
     id="path4"
     style="stroke-width:0.171928" /><path
     d="m 5.2557897,11.147704 0.40632,0.203495 c 0.010117,0.0047 0.02014,0.0074 0.030848,0.0074 0.025544,0 0.049711,-0.01417 0.061796,-0.03831 0.016807,-0.03428 0.00335,-0.07525 -0.030848,-0.09205 L 5.3175854,11.024723 c -0.034287,-0.01686 -0.075256,-0.0034 -0.092056,0.03085 -0.016807,0.0343 -0.00335,0.07526 0.030848,0.09205 z"
     id="path5"
     style="stroke-width:0.171928" /><path
     d="m 5.4418158,10.008682 c 0,-0.0013 0,-0.002 6.701e-4,-0.0034 0,-0.0013 6.709e-4,-0.0027 6.709e-4,-0.0039 l 0.043621,-0.3277667 c 0.042343,-0.1652019 0.024169,-0.2881131 0.022203,-0.30221 v -6.709e-4 c 0,-0.00134 -6.699e-4,-0.00269 -0.00134,-0.00395 -6.7e-4,-0.00341 -0.00134,-0.0061 -0.00269,-0.00879 -6.7e-4,-0.00197 -0.00201,-0.00395 -0.00269,-0.00538 -0.00134,-0.00197 -0.00201,-0.00395 -0.00335,-0.0061 -0.00134,-0.00197 -0.00269,-0.00341 -0.00404,-0.00538 -0.00134,-0.00197 -0.00269,-0.00395 -0.00404,-0.00538 -0.00134,-0.00134 -0.00269,-0.00197 -0.00335,-0.00341 -0.00201,-0.00197 -0.00404,-0.00395 -0.00671,-0.00538 -6.71e-4,-6.69e-4 -0.00134,-6.69e-4 -0.00201,-0.00134 -0.010117,-0.00664 -0.022203,-0.01148 -0.034877,-0.01148 C 5.3955476,9.3121198 4.2578546,9.2684068 3.5332466,9.6310885 2.7830703,10.006511 2.8717164,10.610275 2.8771003,10.642508 v 6.71e-4 c 0,0.0013 6.699e-4,0.002 6.699e-4,0.0027 6.71e-4,0.002 6.71e-4,0.0039 0.00134,0.0054 6.708e-4,0.0013 6.708e-4,0.0027 0.00134,0.0034 6.71e-4,6.71e-4 6.71e-4,0.002 0.00134,0.0027 0,6.71e-4 6.71e-4,6.71e-4 6.71e-4,0.0013 6.699e-4,6.71e-4 6.699e-4,0.002 0.00134,0.0027 l 0.1356556,0.274024 c 0.01139,0.0228 0.0336,0.03693 0.058456,0.03831 0.0094,6.71e-4 0.062483,0.0027 0.1464036,0.0027 0.320356,0 1.0933594,-0.03026 1.6265948,-0.296845 0.4009361,-0.200812 0.543322,-0.475485 0.5916781,-0.670244 z M 3.5949646,9.7534724 C 4.1953767,9.453266 5.1315712,9.4458777 5.3773428,9.4492481 c 6.701e-4,0.040969 -0.00269,0.1014171 -0.019453,0.1732736 -0.00269,0.00538 -0.00404,0.01148 -0.00538,0.017399 l -6.7e-4,0.00538 C 5.3028145,9.8273003 5.1644765,10.072441 4.7910586,10.259135 4.1906465,10.55934 3.255793,10.566728 3.0093679,10.563358 3.008027,10.4183 3.0583922,10.022061 3.5949845,9.7534204 Z m -0.4714563,1.0839556 -0.0672,-0.135659 h 0.042933 c 0.3452021,0 1.1786534,-0.03223 1.7528067,-0.319688 0.1940921,-0.09666 0.3317719,-0.208859 0.4291521,-0.323039 -0.059733,0.156484 -0.1947601,0.347207 -0.4929522,0.49698 -0.5695141,0.284742 -1.4654117,0.284742 -1.6648827,0.280724 z"
     id="path6"
     style="stroke-width:0.171928" /><path
     d="M 3.8514813,9.9516017 4.5170296,10.28471 c 0.010117,0.0047 0.02014,0.0074 0.030848,0.0074 0.025543,0 0.049711,-0.01417 0.061796,-0.03831 0.016807,-0.03428 0.00335,-0.07525 -0.030848,-0.09205 L 3.9132769,9.8285882 c -0.034287,-0.016861 -0.075256,-0.00341 -0.092056,0.030852 -0.016807,0.034296 -0.00335,0.075247 0.030848,0.092054 z"
     id="path7"
     style="stroke-width:0.171928" /><path
     d="m 4.5015413,9.7562922 0.40632,0.2034942 c 0.010117,0.00466 0.02014,0.00735 0.030848,0.00735 0.025543,0 0.049711,-0.01417 0.061796,-0.038314 0.016807,-0.034278 0.00335,-0.075247 -0.030848,-0.092054 L 4.563337,9.6333092 c -0.034287,-0.016861 -0.075256,-0.00341 -0.092056,0.030852 -0.016807,0.034296 -0.00335,0.075247 0.030848,0.092054 z"
     id="path8"
     style="stroke-width:0.171928" /><path
     d="m 3.460001,10.277406 0.4063201,0.203493 c 0.010117,0.0047 0.02014,0.0074 0.030848,0.0074 0.025544,0 0.049711,-0.01417 0.061796,-0.03831 0.016807,-0.03428 0.00335,-0.07525 -0.030848,-0.09205 L 3.5217969,10.154423 c -0.034287,-0.01686 -0.075256,-0.0034 -0.092056,0.03085 -0.016807,0.0343 -0.00335,0.07525 0.030848,0.09205 z"
     id="path9"
     style="stroke-width:0.171928" /><path
     d="m 13.962914,6.8261214 -0.553401,-0.237742 v -0.078595 c 0,-0.038316 -0.03085,-0.068477 -0.06849,-0.068477 -0.03831,0 -0.06848,0.030848 -0.06848,0.068477 v 0.1229041 6.701e-4 1.844788 L 12.445821,8.0644574 v -0.24849 -6.71e-4 c 0,-0.044309 -0.01876,-0.1276001 -0.144395,-0.1900642 -0.161865,-0.080561 -0.414386,-0.080561 -0.576235,0 -0.0282,0.014152 -0.0504,0.028884 -0.06848,0.044309 L 11.503576,7.593008 V 7.1128178 c 0,-0.044309 -0.01876,-0.1276 -0.144394,-0.1900639 -0.161866,-0.080561 -0.414386,-0.080561 -0.576235,0 -0.125579,0.063171 -0.144395,0.1464037 -0.144395,0.1900639 v 0.00335 0.044308 L 10.391407,7.0369093 v -0.069851 c 0,-0.00134 0,-0.00335 -6.7e-4,-0.0047 0,-0.00201 0,-0.00335 -6.7e-4,-0.00536 -6.72e-4,-0.00269 -0.0013,-0.00538 -0.002,-0.00805 -6.69e-4,-0.00134 -6.69e-4,-0.00269 -0.0013,-0.00404 -0.0013,-0.00335 -0.0027,-0.00671 -0.0039,-0.0094 0,-6.7e-4 -6.71e-4,-0.00134 -6.71e-4,-0.00201 -0.002,-0.00335 -0.0047,-0.00671 -0.0066,-0.010117 -6.69e-4,-0.00134 -0.002,-0.00201 -0.0027,-0.00269 l -0.0061,-0.00604 c -0.0013,-6.711e-4 -0.0027,-0.00201 -0.0039,-0.00269 -0.002,-0.00134 -0.0047,-0.00335 -0.0074,-0.0047 -6.71e-4,-6.699e-4 -0.0013,-6.699e-4 -0.002,-0.00134 L 8.8628058,6.1517665 V 4.4949469 l 0.1161794,0.1047678 c 0.013453,0.01209 0.029578,0.017489 0.046368,0.017489 0.018762,0 0.037632,-0.00739 0.051085,-0.022793 0.025543,-0.028196 0.02348,-0.071817 -0.00466,-0.09736 L 8.9052274,4.3466097 9.0570122,4.2096069 c 0.028197,-0.025544 0.03026,-0.069164 0.00466,-0.09736 -0.025543,-0.028195 -0.069166,-0.03026 -0.097363,-0.0047 L 8.8017834,4.2539513 8.6392541,4.1075477 c -0.028197,-0.025543 -0.071821,-0.02348 -0.097363,0.0047 -0.025543,0.028196 -0.02348,0.071817 0.00466,0.09736 L 8.6983394,4.3466097 8.5317922,4.497051 c -0.028197,0.025544 -0.03026,0.069164 -0.00466,0.09736 0.013453,0.014744 0.032233,0.022793 0.051085,0.022793 0.016144,0 0.032915,-0.00604 0.046368,-0.017489 L 8.725317,4.5083478 V 6.0819166 L 7.8728807,5.6507553 V 5.2652594 l 0.1417041,-0.071227 c 0.00341,-0.00134 0.00664,-0.00335 0.00933,-0.00604 6.708e-4,0 6.708e-4,-6.7e-4 0.00134,-6.7e-4 0.00197,-0.00134 0.00395,-0.00335 0.00538,-0.0047 0.00134,-0.00134 0.00341,-0.00269 0.00466,-0.00404 0.00134,-0.00201 0.00269,-0.00335 0.00395,-0.00538 0.00134,-0.00201 0.00269,-0.00335 0.00395,-0.00536 0.00134,-0.00201 0.00197,-0.00404 0.00269,-0.00604 6.69e-4,-0.00201 0.00197,-0.00404 0.00269,-0.00604 6.708e-4,-0.00201 0.00134,-0.00404 0.00134,-0.00604 6.708e-4,-0.00201 0.00134,-0.00404 0.00134,-0.00671 0,-0.00201 0,-0.0047 6.708e-4,-0.00671 v -0.00671 c 0,-0.00201 -6.708e-4,-0.0047 -6.708e-4,-0.00671 0,-0.00201 -6.709e-4,-0.0047 -0.00134,-0.00671 -6.691e-4,-0.00201 -0.00134,-0.00404 -0.00197,-0.00604 -6.709e-4,-0.00201 -0.00134,-0.0047 -0.00269,-0.00671 0,-6.701e-4 0,-6.701e-4 -6.708e-4,-0.00134 -6.709e-4,-0.00201 -0.00197,-0.00335 -0.00341,-0.0047 -6.709e-4,-0.00134 -0.00134,-0.00335 -0.00269,-0.0047 L 6.8648175,3.4647108 c 0,-6.701e-4 -6.709e-4,-6.701e-4 -6.709e-4,-0.00134 -0.00134,-0.00201 -0.00341,-0.00404 -0.00466,-0.00536 -0.00134,-0.00134 -0.00269,-0.00335 -0.00395,-0.0047 -0.00197,-0.00134 -0.00341,-0.00269 -0.00538,-0.00404 -0.00197,-0.00134 -0.00341,-0.00269 -0.00538,-0.00404 -0.00197,-0.00134 -0.00395,-0.00201 -0.0061,-0.00269 -0.00197,-6.71e-4 -0.00395,-0.00201 -0.0061,-0.00269 -0.00197,-6.71e-4 -0.00395,-0.00134 -0.00664,-0.00201 -0.00201,-6.702e-4 -0.00404,-0.00134 -0.00604,-0.00134 -0.00201,-6.7e-4 -0.0047,-6.7e-4 -0.00671,-6.7e-4 h -0.00604 c -0.00201,0 -0.0047,6.7e-4 -0.00671,6.7e-4 -0.00201,0 -0.0047,6.71e-4 -0.00671,0.00134 -0.00201,6.71e-4 -0.00404,0.00134 -0.00604,0.00201 -0.00201,6.7e-4 -0.0047,0.00134 -0.00671,0.00269 -6.699e-4,0 -6.699e-4,0 -0.00134,6.7e-4 L 4.7755357,4.4452361 4.6694235,3.8643079 c -0.00604,-0.032911 -0.034287,-0.056393 -0.067788,-0.056393 H 4.3746406 c -0.034877,0 -0.064448,0.026231 -0.068477,0.06042 L 4.2047561,4.7205883 3.3786958,5.0671264 c -0.034877,0.014744 -0.051677,0.055116 -0.03694,0.089993 0.010709,0.026231 0.036253,0.042343 0.063171,0.042343 0.00874,0 0.018176,-0.00201 0.026822,-0.00538 L 3.5331569,5.1517381 V 5.7393955 L 1.7017781,6.655448 V 4.695812 c 0,-0.038316 -0.030848,-0.068477 -0.068477,-0.068477 -0.038316,0 -0.068477,0.030848 -0.068477,0.068477 V 4.774407 L 1.0114232,5.0121497 c -0.0241686,0.010708 -0.0402798,0.034287 -0.0416556,0.06042 -6.6995e-4,0.026822 0.0134529,0.051087 0.0369399,0.063762 L 1.5648057,5.423775 v 1.809199 c 0,0.038316 0.030848,0.068477 0.068477,0.068477 0.038316,0 0.068477,-0.030848 0.068477,-0.068477 V 6.8669539 L 2.7440719,7.389458 1.8891276,7.8172642 V 7.62385 c 0,-0.038316 -0.030848,-0.068477 -0.068477,-0.068477 -0.038316,0 -0.068477,0.030849 -0.068477,0.068477 V 7.8864383 L 0.87238441,8.3263382 v -0.219606 c 0,-0.038316 -0.0308484,-0.068477 -0.0684772,-0.068477 -0.0383157,0 -0.0684772,0.030849 -0.0684772,0.068477 V 8.3955221 L 0.03831571,8.7440747 C 0.01483588,8.7555545 0,8.7796442 0,8.8058684 c 0,0.026224 0.0147444,0.049704 0.03831571,0.061794 L 1.8482024,9.7729666 c 0.0094,0.00466 0.02014,0.00735 0.030849,0.00735 0.010709,0 0.020829,-0.00269 0.030848,-0.00735 l 0.4103404,-0.205505 v 0.3418423 c 0,0.038314 0.030848,0.068484 0.068477,0.068484 0.038316,0 0.068477,-0.030852 0.068477,-0.068484 V 9.4982885 L 3.3369844,9.0583887 v 0.3680235 c 0,0.038314 0.030848,0.068484 0.068477,0.068484 0.038316,0 0.068477,-0.030852 0.068477,-0.068484 V 8.9891941 L 4.7083285,8.3720024 5.8352648,8.9354649 v 0.4452648 c 0,0.038314 0.030848,0.068484 0.068477,0.068484 0.038316,0 0.068477,-0.030852 0.068477,-0.068484 V 9.004638 l 1.5325843,0.7669564 v 0.4533206 c 0,0.03831 0.030852,0.06848 0.068484,0.06848 0.038314,0 0.068484,-0.03085 0.068484,-0.06848 V 9.8407586 l 1.6024204,0.8018924 v 0.385502 c 0,0.03831 0.030852,0.06848 0.068466,0.06848 0.038314,0 0.068484,-0.03085 0.068484,-0.06848 V 10.64668 L 11.189826,9.7420428 v 0.3458712 c 0,0.03831 0.03085,0.06847 0.06848,0.06847 0.03831,0 0.06848,-0.03085 0.06848,-0.06847 V 9.672893 l 1.941138,-0.970447 v 0.3465382 c 0,0.038314 0.03085,0.068484 0.06849,0.068484 0.03831,0 0.06848,-0.030852 0.06848,-0.068484 V 7.2397844 L 13.963,6.9523403 c 0.02348,-0.01209 0.03831,-0.03694 0.03693,-0.063762 -6.71e-4,-0.026822 -0.01686,-0.0504 -0.04165,-0.06042 z M 1.2006943,5.0807077 1.5660366,4.9235557 V 5.2694258 Z M 11.717878,8.5770361 V 8.2560128 c 0.0027,0.00134 0.0047,0.00269 0.0066,0.00404 0.02221,0.01139 0.04705,0.020829 0.07318,0.029571 0.0066,0.00201 0.01417,0.00335 0.02083,0.00335 0.02888,0 0.05639,-0.018764 0.06583,-0.048337 0.01148,-0.036253 -0.0088,-0.074567 -0.045,-0.086651 -0.01944,-0.00604 -0.03763,-0.013453 -0.05306,-0.021516 -0.04972,-0.024856 -0.06778,-0.051087 -0.06848,-0.065824 v -0.069166 c 0.0027,0.00134 0.0047,0.00269 0.0066,0.00404 0.08056,0.04028 0.184682,0.06042 0.288113,0.06042 0.04235,0 0.08459,-0.00335 0.125579,-0.010117 0.0061,0 0.01148,-0.00134 0.01686,-0.00269 0.05236,-0.010117 0.102762,-0.025544 0.14574,-0.04706 0.0027,-0.00134 0.0047,-0.00269 0.0066,-0.00404 v 0.5755644 c 0,0.016144 -0.01817,0.04235 -0.06848,0.067193 -0.122906,0.061112 -0.330425,0.061112 -0.45332,0 C 11.73507,8.6192472 11.717,8.5931132 11.717,8.5775972 Z M 12.0127,7.7019524 c 0.08262,0 0.165201,0.015426 0.226326,0.046371 0.0504,0.025544 0.06848,0.051677 0.06848,0.0672 0,0.015426 -0.01817,0.041656 -0.06848,0.0672 -0.122906,0.061109 -0.330425,0.061109 -0.45332,0 -0.0497,-0.024856 -0.06778,-0.051087 -0.06848,-0.066511 v -6.71e-4 -6.7e-4 c 0,-0.00538 0.0027,-0.01209 0.0074,-0.019453 6.71e-4,-0.00134 0.002,-0.00201 0.0027,-0.00335 0.01004,-0.013453 0.0282,-0.028884 0.05846,-0.04362 0.06111,-0.030849 0.143731,-0.046371 0.226326,-0.046371 z M 10.775626,7.874548 V 7.5535246 c 0.0027,0.00134 0.0047,0.00269 0.0066,0.00404 0.02221,0.01139 0.04705,0.020829 0.07318,0.029571 0.0066,0.00201 0.01417,0.00335 0.02083,0.00335 0.02888,0 0.0564,-0.018764 0.06583,-0.048337 0.01148,-0.036253 -0.0088,-0.074567 -0.045,-0.085964 -0.01944,-0.00604 -0.03693,-0.013453 -0.05306,-0.021516 -0.0497,-0.024856 -0.06779,-0.051087 -0.06848,-0.065824 v -0.069164 c 0.0027,0.00134 0.0047,0.00269 0.0066,0.00404 0.08056,0.04028 0.18468,0.06042 0.288112,0.06042 0.103426,0 0.207523,-0.02014 0.288122,-0.06042 0.0027,-0.00134 0.0047,-0.00269 0.0066,-0.00404 v 0.3317722 0.00134 0.242448 c 0,0.016108 -0.01817,0.042343 -0.06847,0.067788 -0.122906,0.061109 -0.330427,0.061109 -0.45332,0 -0.0504,-0.025544 -0.06849,-0.051677 -0.06849,-0.0672 z m 0.06847,-0.8287422 c 0.06111,-0.030848 0.143731,-0.046371 0.226326,-0.046371 0.08262,0 0.16522,0.015426 0.226327,0.046371 0.0504,0.025543 0.06848,0.051677 0.06848,0.0672 0,0.015426 -0.01817,0.041656 -0.06848,0.0672 -0.122906,0.061109 -0.330427,0.061109 -0.453321,0 -0.04972,-0.024856 -0.06778,-0.051087 -0.06848,-0.066511 v -6.71e-4 -6.702e-4 c 0,-0.015426 0.01817,-0.041656 0.06848,-0.066511 z M 8.1738871,8.8483007 7.2135172,8.3681099 V 7.7992639 L 8.1738871,8.2794637 Z M 8.2733132,8.1753638 7.1752607,7.6266774 c -0.021525,-0.010708 -0.046368,-0.0094 -0.067193,0.00269 -0.020143,0.012771 -0.032915,0.034877 -0.032915,0.058456 v 0.611828 L 6.8078925,8.1659618 V 7.4856376 c 0,-0.026231 -0.014744,-0.049711 -0.038316,-0.061796 L 5.671558,6.8751663 c -0.021516,-0.010709 -0.046371,-0.0094 -0.0672,0.00269 -0.02014,0.012771 -0.032911,0.034877 -0.032911,0.058456 V 7.5481271 L 5.3538986,7.4393064 V 6.3432649 L 8.4694065,7.9013635 V 8.9974057 L 8.3089042,8.9175313 V 8.2372077 c 0,-0.026231 -0.014709,-0.049711 -0.038314,-0.061796 z M 6.6715584,8.0974577 5.7111858,7.6172616 V 7.0484255 l 0.9603726,0.4801911 z m 0.117529,-4.5043442 1.0926884,1.5151166 -0.54802,0.2740189 c -0.00134,6.711e-4 -0.00197,0.00134 -0.00341,0.00201 L 6.1960673,5.0894417 c -0.00404,-6.71e-4 -0.00739,-0.00134 -0.01139,-0.00201 h -0.00405 -0.00874 c -0.00134,0 -0.00201,0 -0.00335,6.71e-4 -0.00404,6.701e-4 -0.00805,0.00134 -0.01139,0.00269 -6.711e-4,0 -6.711e-4,0 -0.00134,6.701e-4 -0.00335,0.00134 -0.00671,0.00269 -0.010117,0.00404 -6.699e-4,6.71e-4 -0.00201,0.00134 -0.00269,0.00201 -0.00269,0.00134 -0.00538,0.00335 -0.00739,0.00538 -6.7e-4,6.71e-4 -0.00134,0.00134 -0.00201,0.00201 -0.00269,0.00269 -0.00536,0.0047 -0.00739,0.00805 L 5.2961357,6.1156301 4.4485826,4.7643788 6.7911023,3.5931193 Z M 8.5224666,7.7730285 5.3954386,6.2088792 6.1959749,5.2411108 9.3230033,6.8052602 Z M 8.6091214,7.8838393 9.4580132,6.8583228 10.253187,7.0235409 V 8.1746475 L 8.6091017,8.9966703 V 7.8831608 Z M 9.4539738,6.7172753 6.7930428,5.3868449 7.3121773,5.5218329 9.8280008,6.7951666 Z M 7.736034,5.581605 7.4902258,5.4573551 7.736034,5.334451 Z M 4.437078,3.9462764 H 4.5452054 L 4.6479588,4.5097387 4.3524489,4.6574894 Z m -0.1155158,0.87644 0.8972582,1.4291517 V 7.3700714 L 4.935414,7.2283634 V 6.3163391 c 0,-0.00201 -6.7e-4,-0.00404 -6.7e-4,-0.00604 0.00269,-0.027509 -0.01139,-0.055704 -0.037629,-0.068477 L 3.963596,5.7804314 c -6.7e-4,0 -0.00134,-6.71e-4 -0.00201,-6.71e-4 -0.00201,-0.00134 -0.0047,-0.00201 -0.00671,-0.00269 -0.00201,-6.699e-4 -0.00404,-0.00134 -0.00604,-0.00201 -0.00201,-6.7e-4 -0.00404,-6.7e-4 -0.00604,-6.7e-4 -0.00269,-6.71e-4 -0.0047,-6.71e-4 -0.00739,-6.71e-4 h -0.00201 c -0.00134,0 -0.00269,0 -0.00404,6.71e-4 -0.00269,0 -0.0047,0 -0.00739,6.7e-4 -0.00201,6.71e-4 -0.00404,6.71e-4 -0.00671,0.00134 -0.00201,6.711e-4 -0.00404,0.00134 -0.00604,0.00201 -0.00201,6.71e-4 -0.00404,0.00201 -0.00604,0.00269 -0.00201,6.71e-4 -0.00404,0.00201 -0.00538,0.00335 -0.00201,0.00134 -0.00335,0.00269 -0.00538,0.00404 -0.00201,0.00134 -0.00335,0.00269 -0.00538,0.00404 -0.00134,0.00134 -0.00335,0.00335 -0.0047,0.0047 -0.00134,0.00134 -0.00269,0.00335 -0.00404,0.00536 -0.00134,0.00201 -0.00269,0.00404 -0.00404,0.00604 -6.71e-4,0.00134 -0.00134,0.00201 -0.00201,0.00335 0,6.71e-4 -6.711e-4,0.00134 -6.711e-4,0.00201 -0.00134,0.00201 -0.00201,0.0047 -0.00269,0.00671 -6.711e-4,0.00201 -0.00134,0.00404 -0.00201,0.00604 -6.701e-4,0.00201 -6.701e-4,0.00404 -6.701e-4,0.00604 -6.711e-4,0.00269 -6.711e-4,0.0047 -6.711e-4,0.00739 v 0.00201 0.8502384 L 3.6748021,6.5970612 V 5.0946988 L 4.3235603,4.8227085 Z M 4.001206,5.952335 4.7977144,6.345893 V 7.1591992 L 4.00121,6.760945 Z m 7.330501,3.5654423 V 9.3230166 c 0,-0.038314 -0.03085,-0.068484 -0.06848,-0.068484 -0.03831,0 -0.06848,0.030852 -0.06848,0.068484 V 9.5862742 L 9.3860563,10.49091 v -0.227672 c 0,-0.03831 -0.030852,-0.06848 -0.068484,-0.06848 -0.038314,0 -0.068466,0.03085 -0.068466,0.06848 v 0.223643 L 7.6465775,9.6849953 V 9.4600086 c 0,-0.038314 -0.030852,-0.068466 -0.068484,-0.068466 -0.038314,0 -0.068484,0.030852 -0.068484,0.068466 V 9.616493 L 5.9770004,8.8495384 V 8.6164926 c 0,-0.038314 -0.030848,-0.068484 -0.068477,-0.068484 -0.038316,0 -0.068477,0.030852 -0.068477,0.068484 V 8.7810308 L 4.7439529,8.2323358 c -0.021516,-0.010708 -0.046371,-0.00874 -0.065824,0.00269 L 3.4793263,8.8347599 v -0.172592 c 0,-0.038314 -0.030848,-0.068484 -0.068477,-0.068484 -0.038316,0 -0.068477,0.030852 -0.068477,0.068484 V 8.9032604 L 2.4625817,9.3431602 V 9.1443816 c 0,-0.038314 -0.030848,-0.068484 -0.068477,-0.068484 -0.038316,0 -0.068477,0.030852 -0.068477,0.068484 V 9.4116768 L 1.8843913,9.6319513 0.22824261,8.8038756 1.8534953,7.991236 c 6.711e-4,0 6.711e-4,-6.71e-4 0.00134,-6.71e-4 L 2.9307308,7.4526097 c 0.014744,-0.00604 0.027508,-0.017489 0.035564,-0.032911 0.00335,-0.00739 0.00536,-0.014744 0.00671,-0.022203 6.7e-4,-0.00404 6.7e-4,-0.00805 6.7e-4,-0.012771 v -0.00134 c 0,-0.00404 -6.7e-4,-0.00805 -0.00201,-0.01209 0,-6.702e-4 0,-0.00134 -6.699e-4,-0.00201 -0.00134,-0.00404 -0.00269,-0.00739 -0.00404,-0.01139 0,-6.699e-4 0,-6.699e-4 -6.71e-4,-0.00134 V 7.355875 c -0.00201,-0.00335 -0.00404,-0.00671 -0.00604,-0.0094 -6.699e-4,-6.71e-4 -6.699e-4,-0.00134 -0.00134,-0.00201 -0.00201,-0.00201 -0.00404,-0.0047 -0.00604,-0.00671 -0.00134,-0.00134 -0.00201,-0.00269 -0.00335,-0.00335 -0.00134,-0.00134 -0.00335,-0.00269 -0.00538,-0.00335 -0.00201,-0.00134 -0.00404,-0.00269 -0.00671,-0.00404 -6.701e-4,0 -6.701e-4,-6.71e-4 -0.00134,-6.71e-4 L 1.805049,6.7595303 3.5404909,5.8918261 v 0.7454604 c 0,0.00134 0,0.00269 6.701e-4,0.00404 0,0.00269 0,0.0047 6.708e-4,0.00739 6.702e-4,0.00201 6.702e-4,0.00404 0.00134,0.00604 6.7e-4,0.00201 0.00134,0.00404 0.00201,0.00671 6.701e-4,0.00201 0.00201,0.00404 0.00269,0.00604 6.71e-4,0.00201 0.00201,0.00404 0.00335,0.00604 0.00134,0.00201 0.00269,0.00335 0.00404,0.00538 0.00134,0.00201 0.00269,0.00335 0.00404,0.00538 l 0.0047,0.0047 c 0.00134,0.00134 0.00335,0.00269 0.00538,0.00404 0.00201,0.00134 0.00404,0.00269 0.00604,0.00404 0.00134,6.711e-4 0.00201,0.00134 0.00335,0.00201 l 1.6783003,0.8394676 c 0.00201,0.00134 0.00335,0.00201 0.00538,0.00335 L 8.515675,9.1691792 c 6.708e-4,0 6.708e-4,0 0.00134,6.69e-4 0.00395,0.00197 0.00879,0.00341 0.012735,0.00466 6.709e-4,0 0.00197,6.709e-4 0.00269,6.709e-4 0.00466,6.708e-4 0.00933,0.00134 0.01417,0.00134 0.00466,0 0.00933,-6.691e-4 0.01417,-0.00134 6.709e-4,0 0.00134,0 0.00269,-6.709e-4 0.00466,-0.00134 0.00879,-0.00269 0.012735,-0.00466 6.709e-4,0 6.709e-4,0 0.00134,-6.69e-4 L 10.35925,8.2779785 c 0.02348,-0.01139 0.03831,-0.035564 0.03831,-0.061796 V 7.1899822 l 0.247145,0.1235713 v 0.055116 6.71e-4 0.00134 0.5030223 c 0,0.044309 0.01876,0.1276 0.144395,0.1900639 0.08056,0.04028 0.18468,0.06042 0.288111,0.06042 0.103426,0 0.207512,-0.02014 0.288113,-0.06042 0.125579,-0.062484 0.144395,-0.1457364 0.144395,-0.1907319 V 7.7454355 l 0.07928,0.039593 c -0.002,0.010708 -0.0027,0.02014 -0.0027,0.028884 v 0.00335 0.253196 6.702e-4 0.00134 0.503032 c 0,0.044305 0.01876,0.1276054 0.144394,0.1900647 0.08056,0.040287 0.18468,0.060412 0.288114,0.060412 0.103426,0 0.207512,-0.020143 0.288111,-0.060412 0.125578,-0.062475 0.144395,-0.14574 0.144395,-0.1907427 V 8.2155399 l 0.74144,0.3714047 -1.855619,0.9281349 z M 13.410316,7.0832758 V 6.7374057 l 0.365344,0.1571516 z"
     id="path10"
     style="stroke-width:0.171928" /><path
     d="M 1.9468622,9.0718452 1.0106598,8.6037392 c -0.034287,-0.016861 -0.0752556,-0.00341 -0.0920556,0.030852 -0.0168072,0.034278 -0.003354,0.075247 0.0308485,0.092054 L 1.885655,9.1947511 c 0.010117,0.00466 0.02014,0.00735 0.030848,0.00735 0.025544,0 0.049711,-0.01417 0.061796,-0.038314 0.016807,-0.034296 0.00335,-0.075247 -0.030849,-0.092054 z"
     id="path11"
     style="stroke-width:0.171928" /><path
     d="M 1.9750584,8.6036854 1.5069522,8.3699619 c -0.034287,-0.016807 -0.075256,-0.00335 -0.092056,0.030848 -0.016807,0.034287 -0.00335,0.075256 0.030848,0.092056 l 0.4681061,0.2337145 c 0.010116,0.00466 0.02014,0.00735 0.030848,0.00735 0.025544,0 0.049711,-0.01417 0.061796,-0.038314 0.016807,-0.034296 0.00335,-0.075265 -0.030848,-0.092054 z"
     id="path12"
     style="stroke-width:0.171928" /><path
     d="M 3.6714726,7.8341356 3.2033664,7.6004118 c -0.034287,-0.016807 -0.075256,-0.00335 -0.092056,0.030848 -0.016807,0.034287 -0.00335,0.075256 0.030848,0.092056 l 0.468106,0.233714 c 0.010117,0.0047 0.02014,0.00739 0.030848,0.00739 0.025544,0 0.049711,-0.014152 0.061796,-0.038316 0.016807,-0.034287 0.00335,-0.075256 -0.030848,-0.092056 z"
     id="path13"
     style="stroke-width:0.171928" /><path
     d="M 4.3760338,7.8012974 3.5049775,7.3654255 c -0.034287,-0.016807 -0.075256,-0.00335 -0.092056,0.030848 -0.016807,0.034287 -0.00335,0.075256 0.030849,0.092056 l 0.8710563,0.4358721 c 0.010117,0.0047 0.02014,0.00739 0.030849,0.00739 0.025544,0 0.049711,-0.014152 0.061795,-0.038316 0.016807,-0.034287 0.00335,-0.075256 -0.030848,-0.092056 z"
     id="path14"
     style="stroke-width:0.171928" /><path
     d="m 4.2893819,5.6312215 c 0.038316,0 0.068477,-0.030848 0.068477,-0.068477 V 5.2934368 c 0,-0.038316 -0.030848,-0.068477 -0.068477,-0.068477 -0.038316,0 -0.068477,0.030849 -0.068477,0.068477 v 0.2693081 c 0,0.038316 0.030848,0.068477 0.068477,0.068477 z"
     id="path15"
     style="stroke-width:0.171928" /><path
     d="m 9.0146534,8.0060638 c -0.038314,0 -0.068484,0.030848 -0.068484,0.068477 V 8.427799 c 0,0.038316 0.030852,0.068477 0.068484,0.068477 0.038314,0 0.068484,-0.030848 0.068484,-0.068477 V 8.07454 c 0,-0.038316 -0.030852,-0.068477 -0.068484,-0.068476 z"
     id="path16"
     style="stroke-width:0.171928" /><path
     d="m 9.9260439,7.6132082 c -0.038314,0 -0.068484,0.030848 -0.068484,0.068477 v 0.353258 c 0,0.038316 0.030852,0.068477 0.068484,0.068477 0.038314,0 0.068466,-0.030848 0.068466,-0.068477 V 7.6816846 c 0,-0.038316 -0.030852,-0.068477 -0.068466,-0.068476 z"
     id="path17"
     style="stroke-width:0.171928" /></svg>
