<?xml version="1.0" encoding="UTF-8" standalone="no"?>
<!-- Uploaded to: SVG Repo, www.svgrepo.com, Generator: SVG Repo Mixer Tools -->

<svg
   fill="#000000"
   width="800px"
   height="800px"
   viewBox="0 0 14 14"
   role="img"
   focusable="false"
   aria-hidden="true"
   version="1.1"
   id="svg1"
   sodipodi:docname="harbor.svg"
   inkscape:version="1.4.3 (0d15f75042, 2025-12-25)"
   xml:space="preserve"
   xmlns:inkscape="http://www.inkscape.org/namespaces/inkscape"
   xmlns:sodipodi="http://sodipodi.sourceforge.net/DTD/sodipodi-0.dtd"
   xmlns="http://www.w3.org/2000/svg"
   xmlns:svg="http://www.w3.org/2000/svg"><defs
     id="defs1" /><sodipodi:namedview
     id="namedview1"
     pagecolor="#ffffff"
     bordercolor="#000000"
     borderopacity="0.25"
     inkscape:showpageshadow="2"
     inkscape:pageopacity="0.0"
     inkscape:pagecheckerboard="0"
     inkscape:deskcolor="#d1d1d1"
     inkscape:zoom="1"
     inkscape:cx="399.5"
     inkscape:cy="400"
     inkscape:window-width="1920"
     inkscape:window-height="1011"
     inkscape:window-x="0"
     inkscape:window-y="0"
     inkscape:window-maximized="1"
     inkscape:current-layer="svg1" /><path
     d="M 3.288043,13.99991 C 2.8278945,13.999323 2.3834493,13.844805 2.0337896,13.564078 1.6866304,13.283936 1.1750107,13.283936 0.82787701,13.563489 0.6169506,13.732164 0.29992976,13.708568 0.11977514,13.510438 c -0.17953916,-0.198155 -0.15443191,-0.495999 0.0564756,-0.664659 0.72128904,-0.583284 1.78784086,-0.583284 2.50844136,0 0.34715,0.278968 0.8600278,0.278968 1.2065398,-5.89e-4 0.7219225,-0.582101 1.787841,-0.581514 2.5090839,5.89e-4 0.3471503,0.278968 0.8594037,0.278374 1.2065397,-5.89e-4 0.7219228,-0.581514 1.7871983,-0.581514 2.5090845,0 0.346507,0.280143 0.859404,0.280143 1.206539,0 0.721289,-0.582101 1.787198,-0.581514 2.508441,5.89e-4 0.204646,0.170437 0.22663,0.462965 0.04895,0.658775 -0.177655,0.195813 -0.489028,0.221759 -0.700571,0.05902 -0.34715,-0.279556 -0.85878,-0.279556 -1.205914,0 -0.721921,0.58093 -1.786555,0.58093 -2.5090839,0 -0.3465069,-0.279556 -0.8587697,-0.279556 -1.2065396,0 -0.7219135,0.58093 -1.786555,0.58093 -2.5084413,0 -0.3471498,-0.280142 -0.8600278,-0.280142 -1.2065397,0 C 4.1931238,13.844896 3.7480449,13.999406 3.287901,14 Z m 0,-1.930887 v -5.88e-4 c -0.4601485,0 -0.9045937,-0.154525 -1.2542534,-0.435833 C 1.6872731,11.352461 1.1743862,11.352461 0.82787701,11.632014 0.61570024,11.795385 0.30432838,11.768848 0.12667167,11.572996 -0.0503602,11.377182 -0.02838644,11.084078 0.17625987,10.913634 0.47570351,10.673007 0.84607776,10.523803 1.2384225,10.486646 L 0.86428344,8.7733191 v 5.884e-4 C 0.83544834,8.6423979 0.86741054,8.5061632 0.95216538,8.3982256 1.0369261,8.2908924 1.1662242,8.2218857 1.3080944,8.2094971 L 6.4996643,7.7453595 V 7.0977922 l -4.1154895,0.391013 v 5.892e-4 C 2.1600696,7.5058729 1.9516584,7.3820516 1.8719304,7.1850787 1.7915779,6.988097 1.8593494,6.7657589 2.0382921,6.6383662 4.1211871,5.2252811 5.6811487,3.2354213 6.4997792,0.94716411 V 0.46473465 C 6.5035529,0.20700693 6.7276586,0 7.0019772,0 7.2762955,0 7.4997945,0.20700693 7.5041751,0.46473465 V 0.75608336 C 8.46024,1.3027959 11.65052,3.3422248 11.65052,6.1931856 v 5.892e-4 c 0,0.2423967 -0.195868,0.4458578 -0.45261,0.4694625 L 7.5042712,7.0035296 V 7.655221 L 12.604078,7.1999247 v 5.892e-4 c 0.140612,-0.011827 0.279976,0.03244 0.384175,0.1214907 0.104828,0.089054 0.164471,0.215272 0.16572,0.3479622 -6.27e-4,1.042699 -0.379163,2.0546901 -1.072834,2.8692292 0.60515,-0.221157 2.37361,0.182824 1.806644,1.039756 h 6.25e-4 c -0.08661,0.09494 -0.209669,0.154524 -0.34275,0.164552 -0.132459,0.0099 -0.264282,-0.03012 -0.365977,-0.111477 -0.346485,-0.279532 -0.858748,-0.279532 -1.205887,2.5e-5 -0.721916,0.580928 -1.786555,0.581516 -2.5090836,5.88e-4 C 9.1181987,11.353086 8.6059361,11.352495 8.2581708,11.632052 7.5362527,12.213568 6.4716154,12.213568 5.7497295,11.63264 5.4025756,11.353087 4.8903297,11.352498 4.5431906,11.632054 4.1935292,11.913376 3.7484575,12.068478 3.2883111,12.068478 Z M 2.3043523,10.6754 c 0.1362222,0.06548 0.2642814,0.14568 0.3804205,0.238851 0.3477833,0.279554 0.8594033,0.278968 1.2065395,0 0.7219136,-0.582102 1.787841,-0.582102 2.5090841,0 0.3471502,0.279554 0.8594036,0.278968 1.2065397,0 0.7118764,-0.573847 1.7601998,-0.582699 2.4827289,-0.02122 1.090414,-0.548481 1.83991,-1.5505675 2.019417,-2.7005845 C 9.5648028,8.4195002 4.5045297,8.8712678 1.9602509,9.0989128 Z M 6.4995511,3.2738928 C 5.8309825,4.4380871 4.9634384,5.4919444 3.9326133,6.3937497 L 6.4995511,6.1495841 Z M 7.5039564,1.8873504 V 6.055765 L 10.615041,5.7685575 C 10.356403,3.996349 8.5491807,2.5732089 7.5039564,1.8873054 Z"
     id="path1"
     style="stroke-width:0.155767" /></svg>
