<?xml version="1.0" encoding="UTF-8" standalone="no"?>
<!-- Uploaded to: SVG Repo, www.svgrepo.com, Generator: SVG Repo Mixer Tools -->

<svg
   fill="#000000"
   width="800px"
   height="800px"
   viewBox="0 0 14 14"
   role="img"
   focusable="false"
   aria-hidden="true"
   version="1.1"
   id="svg1"
   sodipodi:docname="lighthouse.svg"
   inkscape:version="1.4.3 (0d15f75042, 2025-12-25)"
   xml:space="preserve"
   xmlns:inkscape="http://www.inkscape.org/namespaces/inkscape"
   xmlns:sodipodi="http://sodipodi.sourceforge.net/DTD/sodipodi-0.dtd"
   xmlns="http://www.w3.org/2000/svg"
   xmlns:svg="http://www.w3.org/2000/svg"><defs
     id="defs1" /><sodipodi:namedview
     id="namedview1"
     pagecolor="#ffffff"
     bordercolor="#000000"
     borderopacity="0.25"
     inkscape:showpageshadow="2"
     inkscape:pageopacity="0.0"
     inkscape:pagecheckerboard="0"
     inkscape:deskcolor="#d1d1d1"
     inkscape:zoom="1"
     inkscape:cx="399.5"
     inkscape:cy="665"
     inkscape:window-width="1920"
     inkscape:window-height="1011"
     inkscape:window-x="0"
     inkscape:window-y="0"
     inkscape:window-maximized="1"
     inkscape:current-layer="svg1"
     showguides="true"><sodipodi:guide
       position="7,14"
       orientation="-1,0"
       id="guide6"
       inkscape:locked="false"
       inkscape:label=""
       inkscape:color="rgb(0,134,229)" /><sodipodi:guide
       position="0,7"
       orientation="0,1"
       id="guide7"
       inkscape:locked="false"
       inkscape:label=""
       inkscape:color="rgb(0,134,229)" /></sodipodi:namedview><path
     d="m 1.8764211e-4,3.6052009 c 0,-0.1231218 0.10000197789,-0.2217353 0.22215833789,-0.2217353 H 4.1691344 c 0.1233571,0 0.2221583,0.099811 0.2221583,0.2217353 0,0.1231219 -0.1000022,0.2217355 -0.2221583,0.2217355 H 0.22357223 C 0.10021559,3.8281297 2.1837495e-4,3.7283197 2.1837495e-4,3.6052009 Z M 1.9823198,2.4821722 4.1111574,3.0517653 c 0.018554,0.00478 0.038923,0.00777 0.058085,0.00777 0.098806,0 0.1874359,-0.065745 0.2143709,-0.1655519 0.031137,-0.118933 -0.038924,-0.2402608 -0.1580795,-0.271933 L 2.0966964,2.0524537 c -0.119164,-0.031078 -0.2407225,0.03885 -0.2724551,0.1577785 -0.031138,0.1189362 0.038923,0.240861 0.1580794,0.2719364 z M 4.1111574,4.1592639 1.9823198,4.728857 C 1.8631571,4.759935 1.7930895,4.8818629 1.8242404,5.0007934 c 0.026348,0.099811 0.1173666,0.1655519 0.2143707,0.1655519 0.018554,0 0.038925,-0.00299 0.058085,-0.00777 L 4.2255338,4.5889825 C 4.3446971,4.5579042 4.4147642,4.4359766 4.3836133,4.3170461 4.3518763,4.1969133 4.2297181,4.1263861 4.1111581,4.1592677 Z M 13.855031,3.3834809 H 9.9094687 c -0.1233571,0 -0.222158,0.099811 -0.222158,0.2217354 0,0.1231219 0.1000021,0.2217353 0.222158,0.2217353 h 3.9467883 c 0.123355,0 0.222159,-0.099811 0.222159,-0.2217353 0,-0.1219245 -0.100007,-0.2217354 -0.223355,-0.2217354 z M 9.9094687,3.0601346 c 0.018555,0 0.038925,-0.00299 0.058085,-0.00777 L 12.096392,2.482772 C 12.215555,2.451694 12.285622,2.3297661 12.254472,2.2108356 12.223321,2.0919049 12.101174,2.0219655 11.982017,2.0530571 L 9.8519533,2.6226494 C 9.7327907,2.6537278 9.6627231,2.7756553 9.693874,2.8945861 9.7202216,2.9943974 9.8112405,3.0601378 9.9094403,3.0601378 Z M 11.98082,5.1567671 c 0.01856,0.00478 0.03892,0.00777 0.05809,0.00777 0.09881,0 0.187436,-0.065745 0.214371,-0.1655519 0.03114,-0.1189361 -0.03892,-0.2402644 -0.15808,-0.2719365 L 9.9663589,4.1574555 C 9.8471957,4.1263772 9.7256364,4.1963051 9.6939038,4.3152339 9.6627663,4.4341703 9.7328277,4.5554982 9.8519833,4.5871703 Z M 7.2459309,3.5209869 c -0.006,-0.014347 -0.012576,-0.026298 -0.02036,-0.038851 -0.00779,-0.012551 -0.017371,-0.023309 -0.028145,-0.034068 -0.010785,-0.01076 -0.022156,-0.018518 -0.034133,-0.028091 -0.012575,-0.00777 -0.02515,-0.015547 -0.038923,-0.020321 -0.014374,-0.00598 -0.028145,-0.00956 -0.042517,-0.012552 -0.071857,-0.014347 -0.1485066,0.00956 -0.200007,0.060964 -0.010785,0.01076 -0.018554,0.022115 -0.028144,0.034068 -0.00779,0.012552 -0.015576,0.025102 -0.02036,0.038851 -0.006,0.014347 -0.00958,0.028091 -0.012576,0.042434 -0.003,0.014347 -0.00479,0.028091 -0.00479,0.043631 0,0.059171 0.023354,0.1153526 0.065872,0.1577786 0.010785,0.00956 0.022156,0.018518 0.034133,0.028091 0.012575,0.00777 0.02515,0.015547 0.038924,0.020321 0.014374,0.00598 0.028144,0.00956 0.042517,0.012551 0.014374,0.00299 0.028145,0.00478 0.043715,0.00478 0.014374,0 0.028144,-0.00179 0.043715,-0.00478 0.014374,-0.00299 0.028144,-0.00777 0.042514,-0.012551 0.014374,-0.00598 0.026348,-0.012552 0.038923,-0.020321 0.012575,-0.00777 0.023354,-0.017338 0.034133,-0.028091 0.040718,-0.04064 0.065869,-0.098617 0.065869,-0.1577786 0,-0.014347 -0.00179,-0.028091 -0.00479,-0.043631 -0.00658,-0.016138 -0.010785,-0.030482 -0.015576,-0.042434 z M 14.078386,13.826662 v 0.003 0.006 0.01255 c 0,0.003 -0.0018,0.0078 -0.0018,0.01076 0,0.003 -0.0018,0.006 -0.0018,0.01076 0,0.0048 -0.0018,0.0078 -0.0031,0.01076 0,0.003 -0.0018,0.006 -0.0031,0.0096 -0.0018,0.0048 -0.0031,0.0078 -0.0031,0.01076 -0.0018,0.003 -0.0018,0.006 -0.0031,0.0096 -0.0018,0.003 -0.0031,0.0078 -0.0048,0.01076 -0.0018,0.003 -0.0031,0.006 -0.0048,0.0096 -0.0018,0.003 -0.0031,0.006 -0.0048,0.0096 -0.0018,0.003 -0.0048,0.006 -0.006,0.0096 -0.0018,0.003 -0.0031,0.0048 -0.0048,0.0078 -0.0031,0.003 -0.0048,0.006 -0.0078,0.0096 -0.0018,0.003 -0.0048,0.0048 -0.006,0.0078 -0.0031,0.003 -0.0048,0.006 -0.0078,0.0096 l -0.0078,0.0078 c -0.0031,0.003 -0.0048,0.0048 -0.0078,0.0078 -0.0031,0.003 -0.006,0.0048 -0.0096,0.0078 -0.0018,0.0018 -0.0031,0.003 -0.0048,0.0048 0,0 -0.0018,0 -0.0018,0.0018 -0.0078,0.006 -0.01736,0.01076 -0.02634,0.01555 -0.0018,0.0018 -0.0031,0.0018 -0.0048,0.003 -0.0096,0.0048 -0.01852,0.0078 -0.02814,0.01076 h -0.0018 c -0.0096,0.003 -0.01852,0.0048 -0.02993,0.006 -0.0031,0 -0.0048,0.0018 -0.0078,0.0018 -0.01012,-0.0018 -0.01975,0 -0.02934,0 h -0.0018 -13.63087634 -0.001796 c -0.009583,0 -0.0185542,-0.0018 -0.0281444,-0.0018 -0.002997,0 -0.004791,0 -0.007788,-0.0018 -0.0107846,-0.0012 -0.0197606,-0.0042 -0.0293432,-0.006 h -0.001797 c -0.009583,-0.003 -0.0185542,-0.006 -0.0281444,-0.01076 -0.001796,-0.0018 -0.002997,-0.0018 -0.005994,-0.003 -0.009583,-0.0048 -0.0185542,-0.0096 -0.02634816,-0.01555 0,0 -0.0017963,0 -0.0017963,-0.0018 l -0.0047913,-0.0048 c -0.002997,-0.003 -0.0059938,-0.0048 -0.0095826,-0.0078 -0.002997,-0.003 -0.0047913,-0.0048 -0.0077883,-0.0078 l -0.0077881,-0.0078 c -0.002997,-0.003 -0.0059938,-0.006 -0.0077881,-0.0096 -0.0017964,-0.0018 -0.0047913,-0.0048 -0.0059938,-0.0078 -0.002997,-0.003 -0.0047913,-0.006 -0.0077881,-0.0096 -0.0017964,-0.003 -0.002997,-0.0048 -0.0047913,-0.0078 -0.0017964,-0.003 -0.0047913,-0.006 -0.0059938,-0.0096 -0.0017964,-0.003 -0.002997,-0.006 -0.0047913,-0.0096 -0.0017967,-0.003 -0.002997,-0.006 -0.0047913,-0.0096 -0.0017967,-0.003 -0.002997,-0.006 -0.0047913,-0.01076 -0.0017964,-0.003 -0.0017964,-0.006 -0.0029969,-0.0096 -0.0017964,-0.003 -0.00299694,-0.0078 -0.00299694,-0.01076 -0.00179663,-0.003 -0.00179663,-0.006 -0.00299693,-0.0096 -0.00179644,-0.003 -0.00179644,-0.0078 -0.00299692,-0.01076 0,-0.003 -0.00179645,-0.006 -0.00179645,-0.01076 C 0.00179663,13.854171 0,13.849389 0,13.846398 v -0.01255 -0.006 -0.003 -0.01435 -0.0078 c 0,-0.0048 0.00179663,-0.0096 0.00179663,-0.01255 0,-0.003 0.00179645,-0.006 0.00179645,-0.0096 0.00179643,-0.003 0.00179643,-0.0078 0.00299692,-0.01076 0.00179643,-0.003 0.00179643,-0.006 0.00299692,-0.0096 0.00179645,-0.003 0.00179645,-0.006 0.00299694,-0.0096 0.0017964,-0.003 0.0029969,-0.0078 0.0047913,-0.01076 0.0017964,-0.003 0.002997,-0.0048 0.002997,-0.0078 0.0017963,-0.0048 0.002997,-0.0078 0.0059938,-0.01255 0.0017967,-0.0018 0.002997,-0.0048 0.0047913,-0.006 0.002997,-0.0048 0.0047913,-0.0078 0.0077882,-0.01255 l 0.0019661,-0.0017 1.39045124,-1.95143 c 0.0515,-0.07172 0.140722,-0.107581 0.2269565,-0.08905 l 1.2778696,0.270105 0.2844429,-0.568384 c 0.031138,-0.06216 0.089224,-0.106387 0.1580795,-0.118937 l 1.7814668,-0.338878 0.06108,-0.744707 v -0.006 l 0.284443,-3.494033 c 0,-0.00478 0,-0.00777 0.00179,-0.012551 L 5.6308539,5.1328401 C 5.3631818,5.0874157 5.1583921,4.8567112 5.1583921,4.5752121 V 4.2315467 c 0,-0.1231218 0.1000022,-0.2217352 0.2221583,-0.2217352 H 5.5009123 V 3.1509463 C 5.2991128,3.0648808 5.1565925,2.8634647 5.1565925,2.630973 V 2.2873077 c 0,-0.1231219 0.1000021,-0.2217353 0.2221583,-0.2217353 H 5.5524066 L 6.8147157,0.6885242 V 0.21994529 C 6.8171209,0.09981239 6.9171133,0 7.0392655,0 7.1614181,0 7.2614236,0.09981162 7.2614236,0.22173546 V 0.69031437 L 8.5219401,2.0673626 H 8.695596 c 0.1233571,0 0.222158,0.099811 0.222158,0.2217352 v 0.3436654 c 0,0.2324917 -0.1425182,0.4327144 -0.3443205,0.5199733 v 0.858865 h 0.1203618 c 0.1233571,0 0.2221582,0.099811 0.2221582,0.2217353 v 0.3436653 c 0,0.2797091 -0.2047895,0.512216 -0.4724618,0.5576282 l 0.1233571,1.5145081 v 0.00478 l 0.3473099,4.2512536 1.7814663,0.338876 c 0.06886,0.01255 0.126949,0.05618 0.158079,0.118936 l 0.284444,0.568386 1.277869,-0.270146 c 0.08623,-0.01852 0.176644,0.01734 0.226956,0.08906 l 1.390451,1.95143 0.0018,0.0018 c 0.0031,0.003 0.0048,0.0078 0.0078,0.01255 0.0018,0.0018 0.0031,0.0048 0.0048,0.006 0.0018,0.003 0.0048,0.0078 0.006,0.01255 0.0018,0.003 0.0031,0.0048 0.0031,0.0078 0.0018,0.003 0.0031,0.0078 0.0048,0.01076 0.0018,0.003 0.0031,0.006 0.0031,0.0096 0.0018,0.003 0.0018,0.006 0.0031,0.0096 0.0018,0.003 0.0018,0.0078 0.0031,0.01076 0,0.003 0.0018,0.006 0.0018,0.0096 0,0.0048 0.0018,0.0096 0.0018,0.01255 v 0.0078 c 0.0025,0.0042 0.0042,0.009 0.0042,0.01374 z M 8.9555007,11.36297 9.042927,12.436991 h 0.963503 c 0.100002,0 0.189231,0.06694 0.214371,0.165552 l 0.268868,1.004098 h 2.933034 l -1.055711,-1.481643 -1.021587,0.215156 0.344321,0.686734 c 0.05449,0.109374 0.01078,0.24386 -0.100003,0.298238 -0.03114,0.01555 -0.06587,0.02331 -0.100002,0.02331 -0.08144,0 -0.159291,-0.04542 -0.198811,-0.123122 L 10.505861,11.65762 Z m -1.55336,1.075811 v -0.854075 c 0,-0.199627 -0.1628783,-0.362195 -0.3628852,-0.362195 -0.2000066,0 -0.362885,0.162568 -0.362885,0.362195 v 0.854075 z M 7.8464572,11.5829 v 0.854076 H 8.5955743 L 8.4877879,11.114321 v -0.003 l -0.058086,-0.71363 H 5.6487386 l -0.058085,0.705859 c 0,0.0048 0,0.0078 -0.00179,0.01255 L 5.4810698,12.436976 H 6.230187 V 11.5829 c 0,-0.444664 0.362885,-0.807455 0.8089951,-0.807455 0.4455122,0.0018 0.8072014,0.362791 0.8072014,0.807455 z M 8.1434703,6.8946631 H 5.9350716 L 5.8284826,8.202981 H 8.2501177 Z M 5.7925052,8.6476453 5.6859161,9.9559635 h 2.707841 L 8.2871679,8.6476453 Z M 7.9996775,5.1429047 H 6.0787111 L 5.9721219,6.4512229 H 8.1075513 Z M 5.725361,2.7540321 h 2.6276664 c 0.067068,0 0.1203619,-0.054389 0.1203619,-0.1201334 V 2.5137649 h -2.868342 v 0.1201335 c 0,0.06694 0.054493,0.1201335 0.1203619,0.1201335 z M 6.158303,2.0684915 H 7.9193807 L 7.0391177,1.1068225 Z M 5.9487149,4.0121187 H 8.1307466 V 3.2004711 H 5.9487149 Z M 5.6049922,4.5775193 c 0,0.066941 0.054493,0.1201335 0.1203618,0.1201335 h 2.6270533 c 0.067068,0 0.1203619,-0.054389 0.1203619,-0.1201335 V 4.4573857 H 5.6050412 Z M 0.65395394,13.606671 H 3.5869885 l 0.2688678,-1.004097 c 0.026348,-0.09682 0.1143739,-0.165552 0.2143708,-0.165552 h 0.9635032 l 0.087426,-1.074021 -1.5533596,0.296448 -0.7850499,1.567692 c -0.038924,0.0783 -0.1173665,0.123122 -0.1988111,0.123122 -0.032934,0 -0.067068,-0.0078 -0.1000022,-0.02331 -0.1095823,-0.05439 -0.15509,-0.188868 -0.1000012,-0.298237 L 2.7282531,12.341983 1.7066654,12.126826 Z m 9.37626706,0 -0.1940128,-0.724388 H 4.2439281 l -0.194013,0.724388 z"
     id="path1"
     style="stroke-width:0.153151" /></svg>
