<?xml version="1.0" encoding="UTF-8" standalone="no"?>
<!-- Uploaded to: SVG Repo, www.svgrepo.com, Generator: SVG Repo Mixer Tools -->

<svg
   fill="#000000"
   width="800px"
   height="800px"
   viewBox="0 0 50 50"
   version="1.1"
   id="svg1"
   sodipodi:docname="castle.svg"
   inkscape:version="1.4.3 (0d15f75042, 2025-12-25)"
   xml:space="preserve"
   xmlns:inkscape="http://www.inkscape.org/namespaces/inkscape"
   xmlns:sodipodi="http://sodipodi.sourceforge.net/DTD/sodipodi-0.dtd"
   xmlns="http://www.w3.org/2000/svg"
   xmlns:svg="http://www.w3.org/2000/svg"><defs
     id="defs1" /><sodipodi:namedview
     id="namedview1"
     pagecolor="#ffffff"
     bordercolor="#000000"
     borderopacity="0.25"
     inkscape:showpageshadow="2"
     inkscape:pageopacity="0.0"
     inkscape:pagecheckerboard="0"
     inkscape:deskcolor="#d1d1d1"
     inkscape:zoom="1"
     inkscape:cx="399.5"
     inkscape:cy="400"
     inkscape:window-width="1920"
     inkscape:window-height="1011"
     inkscape:window-x="0"
     inkscape:window-y="0"
     inkscape:window-maximized="1"
     inkscape:current-layer="svg1" /><path
     d="M 17.783423,12.239399 C 19.158336,9.6390719 20.677245,7.097766 22.124141,4.5298911 L 23.675575,1.7342387 C 23.991402,1.1604403 24.242256,0.28557491 24.943639,7.0926395e-4 25.849358,-0.04012755 26.453273,1.6935603 26.810899,2.330439 l 4.656536,8.301742 c 0.304221,0.539212 0.636315,1.064148 0.931309,1.607377 h 1.551433 l 0.0023,-5.7233994 c 0,-0.5574637 -0.476119,-3.6522413 1.04279,-3.1822517 l 0.0023,0.00204 c 0.267122,0.1098426 0.466796,0.3153599 0.545753,0.5615473 l 4.663566,1.5748161 c 0.608442,0.2075175 2.719603,0.5900498 2.178502,1.4914341 -0.290333,0.4842075 -5.984778,2.1079361 -6.842125,2.3520733 v 2.9238383 c 1.451548,-0.0125 1.093865,1.117019 1.096243,2.044856 v 4.087694 c 0,1.711186 -0.425034,2.07335 -2.12738,3.214796 0.148686,1.198435 0.420373,2.376509 0.527203,3.579002 l 2.821819,-0.0061 c 2.884537,-0.0081 2.243484,0.293024 2.231888,2.695952 h 1.978741 c -0.0046,-0.533045 -0.132419,-2.040797 0.185787,-2.443639 0.346078,-0.439454 4.405757,-0.305193 4.921297,-0.229937 0.582948,0.08342 0.701383,0.486291 0.74324,0.950189 l 0.0023,-0.002 c 0.08086,1.607378 0.06278,3.216838 -0.05993,4.822182 -0.485346,0.610385 -1.026552,1.186192 -1.621105,1.717278 0.08561,0.439454 0.241531,0.881008 0.343699,1.320528 l 3.139958,13.902731 c 0.167236,0.740645 0.750184,1.987876 -0.568965,2.083509 -0.743239,0.0525 -1.530505,0 -2.280651,0 h -4.805669 l -39.6864644,0.002 c -3.03780834,0.0125 -2.52453245,-0.103759 -1.94157485,-2.708145 L 2.4828375,37.973936 C 2.8846607,36.150866 3.3096002,34.325762 3.6580372,32.492749 1.6073023,30.698164 2.1600566,30.7226 2.1600566,28.213846 c 0,-1.214685 -0.5434697,-2.850607 1.1357214,-3.003169 0.8036464,-0.07334 4.0155496,-0.181099 4.51956,0.242103 0.3182051,0.264523 0.1927305,1.941106 0.1904474,2.400936 h 2.0182106 c 0.0046,-0.461872 -0.1393632,-2.067258 0.164858,-2.358174 0.594554,-0.573798 3.857646,-0.333695 4.75643,-0.331694 0.425035,-0.988834 0.380895,-2.492502 0.629371,-3.578994 -0.580665,-0.453705 -1.837057,-1.416161 -2.15062,-1.983817 h -0.0023 c -0.171897,-2.252373 -0.190447,-4.510897 -0.05803,-6.765154 0.13004,-0.803734 1.333113,-0.596133 2.004302,-0.596133 z m 7.32729,-9.7685315 c -0.738578,1.182133 -1.381866,2.4192123 -2.062397,3.6278059 l -3.592884,6.3744956 c 0.304221,0.482208 0.134702,2.531147 0.134702,3.192403 h 2.461805 c 0,-0.555464 -0.164858,-2.913679 0.188164,-3.21683 0.397162,-0.341862 2.264422,-0.211601 2.870563,-0.207517 0.824479,-0.045 1.64894,-0.03667 2.473467,0.01834 0.963834,0.175014 0.594554,2.592193 0.594554,3.406062 h 2.392123 l 0.0046,-2.297169 v 0.002 C 30.698507,12.609506 30.49645,11.836341 30.006446,11.19947 L 26.334596,4.682254 C 25.928207,3.951859 25.565862,3.176602 25.110652,2.4705508 Z M 35.543344,5.4048649 V 7.8281442 C 36.418907,7.5941245 37.264277,7.2625132 38.132925,7.0041581 38.490609,6.8902318 38.852858,6.7763055 39.205919,6.6501282 37.984287,6.2452607 36.774308,5.7752128 35.543344,5.4049232 Z m -20.6001,8.2361111 v 5.473378 c 0.627088,0.374365 1.191429,0.823986 1.672181,1.33678 h 16.986401 c 0.452907,-0.467957 0.952237,-0.893201 1.43531,-1.334746 v -4.173119 h 0.0023 c 0.04376,-0.43137 0.04376,-0.868823 0,-1.302193 h -2.879895 l 0.007,1.80271 c 0.0046,1.922762 -0.332094,1.623679 -2.178503,1.625704 -4.129352,0.0041 -3.416363,0.378449 -3.407088,-3.428414 -0.970787,-0.0125 -1.941574,0 -2.912362,0 l 0.0046,1.762024 c 0.0093,2.022462 -0.373951,1.662331 -2.443255,1.66639 -4.029476,0.0061 -3.133003,0.250271 -3.202685,-3.428414 z m 2.155263,8.181415 c -0.26246,3.039789 -0.80593,6.374496 -1.261111,9.42892 -0.443584,2.824146 -0.638693,5.672878 -0.587609,8.521035 v 8.808034 h 4.340718 v -3.34299 h -0.0023 c -0.09037,-1.131295 -0.01427,-2.266649 0.225265,-3.381643 1.300589,-4.301296 8.026476,-4.696021 10.142498,-0.734562 0.562019,1.226928 0.487724,2.404994 0.487724,3.70312 v 3.756 h 4.482403 V 36.691803 h 0.0023 C 34.879888,34.667307 34.659,32.650937 34.268782,30.656919 l -0.826763,-5.583287 c -0.157913,-1.070249 -0.406484,-2.17305 -0.471457,-3.249391 z m 18.194525,4.812022 c 0.11149,0.931904 0.276348,1.857657 0.415712,2.787527 l 0.441301,3.131356 v 0.002 c 0.241532,1.405952 0.364628,2.828205 0.371573,4.250467 v 11.7729 H 48.25692 C 47.992177,47.380229 47.680916,46.192004 47.437102,44.99357 46.786803,41.872365 46.011124,38.771687 45.319006,35.658407 l -0.478401,-2.091634 c -0.466796,-1.963449 -0.05993,-1.597218 1.405116,-3.086619 v -3.843499 l -0.0023,-0.002 c -0.847691,-0.03834 -1.697751,-0.03834 -2.547782,0 -0.04852,2.571833 0.687399,2.665433 -2.512946,2.665433 -3.209639,0 -2.73821,0.124093 -2.724245,-2.665433 -1.054377,-0.04667 -2.111142,-0.045 -3.16784,0.002 z m -31.4834019,0 v 3.843499 l 0.022831,0.02667 c 0.580665,0.636887 1.5862695,1.064157 1.4701555,1.981784 -0.1045463,0.83627 -0.3135438,1.678633 -0.4970469,2.504686 L 4.066991,38.356393 C 3.3237512,41.764489 2.6108099,45.180927 1.8141649,48.576522 l 11.8286521,0.002 V 36.63484 c 0.01903,-1.438505 0.153253,-2.874984 0.40639,-4.297238 l 0.773395,-5.701005 -3.160885,0.002 c 0,0.581966 0.357683,2.433489 -0.589893,2.622721 C 10.563172,29.36311 6.9865925,29.48112 6.5592843,29.037583 6.2318517,28.697804 6.3688369,27.133147 6.3711199,26.640714 Z M 24.690949,39.786564 c -3.502274,0.380449 -3.49532,2.874984 -3.49532,5.306697 0,1.161815 -0.01617,2.325613 0,3.489461 h 7.642994 v -3.489461 c 0.08562,-0.944088 0.0371,-1.894276 -0.144025,-2.826171 -0.469174,-1.568733 -2.157574,-2.616579 -4.003963,-2.480268 z"
     id="path1"
     style="stroke-width:0.556497" /></svg>
