<?xml version="1.0" encoding="UTF-8" standalone="no"?>
<!-- Uploaded to: SVG Repo, www.svgrepo.com, Generator: SVG Repo Mixer Tools -->

<svg
   fill="#000000"
   width="800px"
   height="800px"
   viewBox="0 0 14 14"
   role="img"
   focusable="false"
   aria-hidden="true"
   version="1.1"
   id="svg1"
   sodipodi:docname="monastery.svg"
   inkscape:version="1.4.3 (0d15f75042, 2025-12-25)"
   xml:space="preserve"
   xmlns:inkscape="http://www.inkscape.org/namespaces/inkscape"
   xmlns:sodipodi="http://sodipodi.sourceforge.net/DTD/sodipodi-0.dtd"
   xmlns="http://www.w3.org/2000/svg"
   xmlns:svg="http://www.w3.org/2000/svg"><defs
     id="defs1" /><sodipodi:namedview
     id="namedview1"
     pagecolor="#ffffff"
     bordercolor="#000000"
     borderopacity="0.25"
     inkscape:showpageshadow="2"
     inkscape:pageopacity="0.0"
     inkscape:pagecheckerboard="0"
     inkscape:deskcolor="#d1d1d1"
     inkscape:zoom="1"
     inkscape:cx="399.5"
     inkscape:cy="400"
     inkscape:window-width="1920"
     inkscape:window-height="1011"
     inkscape:window-x="0"
     inkscape:window-y="0"
     inkscape:window-maximized="1"
     inkscape:current-layer="svg1"
     showguides="true"><sodipodi:guide
       position="7,14"
       orientation="-1,0"
       id="guide6"
       inkscape:locked="false"
       inkscape:label=""
       inkscape:color="rgb(0,134,229)" /><sodipodi:guide
       position="0,7"
       orientation="0,1"
       id="guide7"
       inkscape:locked="false"
       inkscape:label=""
       inkscape:color="rgb(0,134,229)" /></sodipodi:namedview><g
     id="g25"
     transform="scale(0.02822581)"><rect
       x="208"
       y="256"
       width="16"
       height="32"
       id="rect1" /><rect
       x="240"
       y="256"
       width="16"
       height="32"
       id="rect2" /><rect
       x="288"
       y="256"
       width="16"
       height="32"
       id="rect3" /><rect
       x="320"
       y="256"
       width="16"
       height="32"
       id="rect4" /><rect
       x="352"
       y="256"
       width="16"
       height="32"
       id="rect5" /><rect
       x="384"
       y="256"
       width="16"
       height="32"
       id="rect6" /><rect
       x="416"
       y="256"
       width="16"
       height="32"
       id="rect7" /><rect
       x="448"
       y="256"
       width="16"
       height="32"
       id="rect8" /><rect
       x="320"
       y="336"
       width="16"
       height="32"
       id="rect9" /><rect
       x="352"
       y="336"
       width="16"
       height="32"
       id="rect10" /><rect
       x="384"
       y="336"
       width="16"
       height="32"
       id="rect11" /><rect
       x="416"
       y="336"
       width="16"
       height="32"
       id="rect12" /><rect
       x="448"
       y="336"
       width="16"
       height="32"
       id="rect13" /><path
       d="M 480,208 H 221.766 c -5.747,0 -10.932,3.059 -13.766,7.862 V 160 c 0,-8.822 -7.178,-16 -16,-16 h -32 l 6.524,-8.699 c 3.429,-4.571 8.887,-7.301 14.602,-7.301 4.875,0 9.459,1.898 12.906,5.346 l 0.311,0.311 11.313,-11.313 -0.311,-0.311 c -6.469,-6.469 -15.071,-10.032 -24.22,-10.032 -10.724,0 -20.967,5.122 -27.401,13.701 L 140,144 h -28 c -8.822,0 -16,7.178 -16,16 v 48 H 44.643 c -5.728,0 -11.05,3.089 -13.892,8.062 L 2.108,266.186 C 0.729,268.6 0,271.345 0,274.125 V 496 H 496 V 224 c 0,-8.822 -7.178,-16 -16,-16 z M 221.128,225.915 221.766,224 H 480 v 80 h -208 -8 -56 c -8.822,0 -16,7.178 -16,16 v 9.061 l -16,2.286 v -49.781 c 0,-12.241 7.344,-23.088 18.709,-27.634 12.524,-5.009 22.153,-15.222 26.419,-28.017 z M 64,352 v 32 H 48 V 352 H 32 v 32 H 16 v -64 h 112 v 41.025 L 118.153,384 H 112 V 352 H 96 v 32 H 80 V 352 Z M 192,237.547 c -1.041,0.569 -2.117,1.084 -3.233,1.531 -0.723,0.289 -1.431,0.601 -2.133,0.923 H 176 v -32 h -16 v 32 h -16 v -32 h -16 v 32 h -1.072 L 112,213.876 V 192 h 80 z M 167.756,256 C 162.797,263.373 160,272.204 160,281.566 v 52.089 c -5.788,0.93 -11.241,3.123 -16,6.335 v -65.866 c 0,-2.78 -0.729,-5.525 -2.108,-7.938 L 136.071,256 Z m -35.021,134.592 11.534,-26.911 c 3.277,-7.646 10.429,-13.128 18.666,-14.304 L 192,345.224 v 47.726 c -5.033,2.747 -9.368,6.679 -12.607,11.538 l -4.098,6.148 c -2.731,4.097 -6.866,7.01 -11.642,8.204 l -11.185,2.796 c -8.646,2.161 -16.13,7.436 -21.075,14.852 l -1.811,2.718 C 125.911,444.713 119.768,448 113.15,448 94.587,448 77.9,458.313 69.598,474.916 L 67.056,480 H 64 v -33.824 c 0,-9.948 6.258,-18.979 15.573,-22.472 l 30.441,-11.416 c 10.164,-3.81 18.445,-11.719 22.721,-21.696 z M 256,352 c -5.721,0 -11.184,1.413 -16,3.986 V 336 h -16 v 38.111 l -1.448,2.896 c -2.582,5.163 -7.274,8.928 -12.874,10.328 L 208,387.754 V 320 h 48 z M 113.149,464 c 11.98,0 23.1,-5.951 29.745,-15.919 l 1.811,-2.718 c 2.731,-4.097 6.866,-7.01 11.642,-8.204 l 11.185,-2.796 c 8.646,-2.161 16.13,-7.436 21.075,-14.852 l 4.098,-6.148 c 2.731,-4.097 6.866,-7.01 11.642,-8.204 l 9.212,-2.303 c 10.137,-2.534 18.631,-9.348 23.304,-18.693 L 240,377.889 c 3.05,-6.1 9.181,-9.889 16,-9.889 6.819,0 12.95,3.789 16,9.889 l 3.137,6.274 c 4.673,9.346 13.167,16.159 23.304,18.693 l 9.212,2.303 c 4.776,1.194 8.91,4.107 11.641,8.204 l 4.099,6.148 c 4.944,7.416 12.429,12.69 21.074,14.851 l 11.186,2.797 c 4.776,1.194 8.91,4.107 11.641,8.204 l 1.812,2.718 c 6.645,9.968 17.765,15.919 29.745,15.919 11.671,0 22.237,6.074 28.111,16 H 85.039 c 5.873,-9.926 16.439,-16 28.11,-16 z m 182.186,-80 c -2.451,-1.824 -4.487,-4.192 -5.888,-6.993 l -3.137,-6.274 c -3.219,-6.437 -8.252,-11.511 -14.311,-14.747 V 320 h 208 v 64 z M 192,160 v 16 H 112 V 160 Z M 44.643,224 H 99.358 L 128,274.125 V 304 H 112 V 272 H 96 v 32 H 80 V 272 H 64 v 32 H 48 V 272 H 32 v 32 H 16 V 274.124 Z M 16,400 h 81.217 l -23.262,8.724 C 58.431,414.545 48,429.596 48,446.176 V 480 H 16 Z m 428.944,80 -2.542,-5.084 C 434.101,458.313 417.413,448 398.851,448 c -6.618,0 -12.761,-3.287 -16.432,-8.794 l -1.812,-2.718 c -4.944,-7.416 -12.429,-12.69 -21.074,-14.851 l -11.186,-2.797 c -4.776,-1.194 -8.91,-4.107 -11.641,-8.204 l -4.099,-6.148 c -1.068,-1.602 -2.26,-3.096 -3.551,-4.488 H 480 v 80 z"
       id="path13" /><path
       d="m 192,448 c -7.295,0 -14.154,2.841 -19.313,8 l -2.343,2.343 11.313,11.314 2.344,-2.343 c 2.137,-2.138 4.979,-3.314 8,-3.314 3.021,0 5.863,1.177 8,3.314 l 2.343,2.343 11.313,-11.314 -2.344,-2.343 c -5.159,-5.159 -12.018,-8 -19.313,-8 z"
       id="path14" /><path
       d="m 256,416 c -7.295,0 -14.154,2.841 -19.313,8 l -2.343,2.343 11.313,11.314 2.344,-2.343 c 2.137,-2.138 4.979,-3.314 8,-3.314 3.021,0 5.863,1.177 8,3.314 l 2.343,2.343 11.313,-11.314 -2.344,-2.343 c -5.159,-5.159 -12.018,-8 -19.313,-8 z"
       id="path15" /><path
       d="m 320,448 c -7.295,0 -14.154,2.841 -19.313,8 l -2.343,2.343 11.313,11.314 2.344,-2.343 c 2.137,-2.138 4.979,-3.314 8,-3.314 3.021,0 5.863,1.177 8,3.314 l 2.343,2.343 11.313,-11.314 -2.344,-2.343 c -5.159,-5.159 -12.018,-8 -19.313,-8 z"
       id="path16" /><path
       d="m 25.473,150.25 c 3.032,-13.644 14.421,-23.662 28.34,-24.927 l 47.61,-4.328 c 8.872,-0.807 17.328,-4.059 24.454,-9.403 l 12.256,-9.191 c 5.503,-4.127 12.322,-6.4 19.2,-6.4 H 204 c 10.019,0 19.589,4.785 25.6,12.8 9.017,12.022 23.372,19.2 38.4,19.2 h 20 v 32 h 16 v -32 h 40.297 c 6.133,0 12.131,-1.155 17.827,-3.433 l 25.695,-10.278 c 3.797,-1.519 7.796,-2.289 11.885,-2.289 h 17.649 c 11.176,0 21.69,5.953 27.439,15.536 l 36.348,60.58 13.72,-8.232 -36.348,-60.58 C 449.887,104.93 434.116,96 417.353,96 h -17.649 c -6.133,0 -12.131,1.155 -17.827,3.433 l -25.695,10.278 C 352.385,111.23 348.386,112 344.297,112 H 268 C 257.981,112 248.411,107.215 242.4,99.2 233.383,87.178 219.028,80 204,80 h -46.667 c -10.318,0 -20.546,3.409 -28.8,9.6 l -12.256,9.191 c -4.75,3.563 -10.388,5.731 -16.302,6.269 l -47.61,4.328 c -20.879,1.898 -37.963,16.924 -42.511,37.391 l -9.664,43.486 15.619,3.471 z"
       id="path17" /><path
       d="m 46.621,158.104 -6.465,32.327 15.689,3.138 6.465,-32.327 c 0.488,-2.438 2.043,-4.474 4.267,-5.586 l 9.001,-4.5 -7.155,-14.311 -9.001,4.5 c -6.672,3.336 -11.339,9.445 -12.801,16.759 z"
       id="path18" /><path
       d="m 250.343,197.657 11.313,-11.313 c -3.648,-3.648 -5.657,-8.498 -5.657,-13.657 v -9.373 c 0,-9.433 -3.673,-18.3 -10.343,-24.97 l -11.313,11.313 c 3.648,3.648 5.657,8.498 5.657,13.657 v 9.373 c 0,9.432 3.673,18.3 10.343,24.97 z"
       id="path19" /><path
       d="m 346.343,197.657 11.313,-11.313 c -3.648,-3.648 -5.657,-8.498 -5.657,-13.657 v -9.373 c 0,-9.433 -3.673,-18.3 -10.343,-24.97 l -11.313,11.313 c 3.648,3.648 5.657,8.498 5.657,13.657 v 9.373 c 0,9.432 3.673,18.3 10.343,24.97 z"
       id="path20" /><path
       d="m 410.343,122.343 -0.169,0.169 c -6.244,6.244 -10.459,14.12 -12.19,22.778 l -2.32,11.6 c -1.742,8.709 -7.297,15.982 -15.241,19.955 l 7.155,14.311 c 12.393,-6.196 21.059,-17.542 23.775,-31.127 l 2.32,-11.6 c 1.11,-5.55 3.812,-10.6 7.814,-14.602 l 0.169,-0.169 z"
       id="path21" /><path
       d="m 434.506,176.817 5.904,17.713 15.179,-5.06 -5.904,-17.713 c -2.027,-6.081 -6.301,-11.009 -12.035,-13.876 l -10.072,-5.036 -7.155,14.311 10.072,5.036 c 1.911,0.955 3.336,2.598 4.011,4.625 z"
       id="path22" /><path
       d="M 17.343,96.407 C 24.192,86.133 35.653,80 48,80 h 4.944 l 2.211,-4.422 C 63.661,58.567 80.758,48 99.777,48 h 7.537 l 4.724,-4.724 C 119.309,36.005 128.978,32 139.261,32 c 14.677,0 27.872,8.155 34.436,21.282 l 3.147,6.295 14.312,-7.155 -3.148,-6.295 C 178.716,27.544 160.038,16 139.261,16 124.703,16 111.017,21.669 100.723,31.963 L 99.777,32 C 76.264,32 54.973,44.231 43.134,64.223 27.314,65.675 12.948,74.157 4.03,87.532 l -2.687,4.031 13.313,8.875 z"
       id="path23" /><path
       d="M 232,49.298 C 235.449,38.952 245.094,32 256,32 h 3.313 l 7.03,-7.03 C 272.128,19.186 279.819,16 288,16 c 8.181,0 15.872,3.186 21.657,8.97 l 7.03,7.03 H 320 c 16.688,0 31.692,9.272 39.155,24.199 l 6.653,13.307 10.229,-10.229 C 383.309,52.005 392.978,48 403.261,48 c 14.677,0 27.872,8.155 34.436,21.282 L 443.056,80 H 448 c 15.163,0 28.322,10.274 32,24.984 l 0.239,0.956 15.522,-3.879 -0.239,-0.957 C 490.475,80.916 473.406,66.355 453.074,64.26 l -1.067,-2.133 C 442.716,43.544 424.038,32 403.261,32 391.127,32 379.599,35.938 370.136,43.21 359.795,27.217 342.579,17.164 323.408,16.095 L 320.97,13.657 C 312.164,4.85 300.455,0 288,0 275.545,0 263.836,4.85 255.03,13.657 l -2.487,2.487 c -16.359,1.361 -30.459,12.307 -35.722,28.094 l -0.411,1.231 15.179,5.062 z"
       id="path24" /><path
       d="m 288,48 c -12.919,0 -24.534,7.178 -30.31,18.732 l -0.845,1.689 14.31,7.157 0.845,-1.69 c 3.05,-6.1 9.181,-9.889 16,-9.889 6.819,0 12.95,3.789 16,9.89 l 0.845,1.689 14.31,-7.157 -0.844,-1.688 C 312.534,55.178 300.919,48 288,48 Z"
       id="path25" /></g></svg>
