<?xml version="1.0" encoding="UTF-8" standalone="no"?>
<!-- Uploaded to: SVG Repo, www.svgrepo.com, Generator: SVG Repo Mixer Tools -->

<svg
   width="800px"
   height="800px"
   viewBox="0 0 512 512"
   version="1.1"
   id="svg1"
   sodipodi:docname="oasis.svg"
   xml:space="preserve"
   inkscape:version="1.4.3 (0d15f75042, 2025-12-25)"
   xmlns:inkscape="http://www.inkscape.org/namespaces/inkscape"
   xmlns:sodipodi="http://sodipodi.sourceforge.net/DTD/sodipodi-0.dtd"
   xmlns="http://www.w3.org/2000/svg"
   xmlns:svg="http://www.w3.org/2000/svg"><defs
     id="defs1" /><sodipodi:namedview
     id="namedview1"
     pagecolor="#ffffff"
     bordercolor="#000000"
     borderopacity="0.25"
     inkscape:showpageshadow="2"
     inkscape:pageopacity="0.0"
     inkscape:pagecheckerboard="0"
     inkscape:deskcolor="#d1d1d1"
     inkscape:zoom="1"
     inkscape:cx="399.5"
     inkscape:cy="400"
     inkscape:window-width="1920"
     inkscape:window-height="1011"
     inkscape:window-x="0"
     inkscape:window-y="0"
     inkscape:window-maximized="1"
     inkscape:current-layer="svg1" /><path
     d="m 276.42149,497.35962 h -30.49717 c -4.72601,-9.32803 -9.15653,-19.11638 -13.24295,-29.25723 -0.19691,-0.78634 -0.46767,-1.54558 -0.88612,-2.19635 -9.91958,-25.02776 -17.82086,-52.11586 -23.16242,-80.12631 -10.48611,-54.71894 -10.87995,-110.4956 -1.27996,-157.37884 l 58.50916,146.3973 c 0.71382,1.78951 2.04301,3.1724 3.69219,3.8774 0.76305,0.32539 1.57533,0.48808 2.38761,0.48808 0.93536,0 1.87071,-0.21692 2.73222,-0.65077 12.11048,-6.01963 19.98714,-16.02522 23.35905,-29.71819 7.97492,-32.34892 -11.88875,-79.01567 -27.322,-108.57279 l 83.00117,55.66776 c 1.05843,0.70501 2.23993,1.05751 3.44614,1.05751 0.54152,0 1.08304,-0.0759 1.59995,-0.21693 1.72302,-0.46096 3.19989,-1.68115 4.11063,-3.36231 6.81805,-12.58156 8.07319,-25.73233 3.71671,-39.10034 -8.71347,-26.79027 -39.30959,-49.40443 -65.47716,-64.50783 l 83.54308,0.78634 h 0.0492 c 1.74764,0 3.42153,-0.75923 4.67687,-2.11511 1.25534,-1.38288 1.96917,-3.25385 1.96917,-5.20616 0,-14.64244 -5.04599,-26.65414 -15.0149,-35.65658 -20.01176,-18.14044 -56.93373,-20.25544 -86.4732,-18.41116 l 72.24479,-46.692984 c 1.5262,-1.003271 2.63386,-2.603081 3.07682,-4.501161 0.44306,-1.898081 0.1723,-3.904623 -0.73844,-5.558664 C 358.3129,61.124282 349.64827,53.966133 338.69537,51.09168 324.5665,47.376758 306.86852,51.037449 285.92171,61.856615 l 28.82348,-42.191503 c 1.05842,-1.54558 1.5262,-3.524898 1.25534,-5.450202 -0.24615,-1.925195 -1.20611,-3.660583 -2.63376,-4.8265465 C 302.68414,0.68441844 290.91827,-1.9727854 278.41396,1.4708744 241.07354,11.801962 207.35382,76.148075 195.68375,100.71422 184.21345,76.581271 150.39292,11.827668 112.92834,1.4708744 100.42393,-1.9999008 88.658061,0.6845269 77.97543,9.3883635 c -1.427646,1.1659635 -2.363,2.9013515 -2.633761,4.8265465 -0.246146,1.925196 0.196917,3.904622 1.255344,5.450202 L 105.42059,61.8295 C 84.522811,51.037449 66.824924,47.377192 52.720669,51.064565 41.742466,53.938801 33.053517,61.097166 26.924289,72.377186 c -0.91074,1.681156 -1.1815,3.687698 -0.738438,5.558663 0.443063,1.89808 1.550719,3.497891 3.076823,4.501162 L 101.50746,129.15711 C 70.739333,127.2048 33.572787,129.61808 13.93153,148.57198 4.7013857,157.49328 0,169.15227 0,183.22561 c 0,1.95231 0.71382295,3.82327 1.9691668,5.17905 1.2553438,1.35566 2.9291355,2.115 4.6767711,2.115 h 0.049229 l 83.4422601,-0.73212 c -26.140393,15.10341 -56.662872,37.69045 -65.376336,64.48072 -4.356782,13.36801 -3.101438,26.51878 3.716802,39.10034 0.91074,1.68116 2.387615,2.87424 4.110636,3.36242 0.516906,0.13558 1.058427,0.21693 1.599948,0.21693 1.206114,0 2.412229,-0.3525 3.446041,-1.05751 l 83.001172,-55.66776 c -15.40864,29.5286 -35.297516,76.21822 -27.321898,108.57279 3.372198,13.72063 11.223858,23.72622 23.359048,29.71819 0.86151,0.43385 1.79686,0.65077 2.73212,0.65077 0.81228,0 1.62456,-0.16269 2.38771,-0.48808 1.64918,-0.705 2.97836,-2.08789 3.69219,-3.87751 l 19.19947,-48.02164 c -0.81228,11.38826 -1.32919,22.88564 -1.32919,34.49115 0,48.37426 7.13814,95.14784 20.50395,136.0891 h -40.09725 c -3.66758,0 -6.64604,3.28097 -6.64604,7.32128 0,4.0403 2.97836,7.32127 6.64604,7.32127 h 118.20041 0.0197 0.0197 34.38637 c 3.66758,0 6.64604,-3.28097 6.64604,-7.32127 0,-4.04031 -2.97846,-7.32128 -6.64604,-7.32128 z M 192.3869,369.56567 h -35.56787 c -0.0492,-2.76577 -0.17231,-5.50443 -0.17231,-8.29721 0,-8.02584 0.24615,-15.9711 0.63998,-23.88869 h 31.31005 c 0.88613,10.65669 2.14147,21.39385 3.76613,32.1859 z m 2.43685,14.64255 c 0.27076,1.54558 0.54152,3.06405 0.83689,4.60952 1.77225,9.30038 3.88911,18.49305 6.17826,27.57672 h -41.84459 -0.0985 c -1.25534,-10.57469 -2.09224,-21.31262 -2.60915,-32.18591 h 37.56166 z m -32.91,46.80124 h 43.863 c 3.10143,10.81917 6.57229,21.39386 10.36254,31.67082 h -48.0968 c -2.41223,-10.30397 -4.47986,-20.85165 -6.15365,-31.67082 z m 32.91,-208.05909 c -2.55992,12.06658 -4.47986,24.5669 -5.75981,37.39207 h -17.79625 l 24.44228,-61.1453 3.49527,8.70395 c -2.83067,8.02584 -4.28293,14.69667 -4.35678,15.04928 z m 90.41153,122.01857 c -1.72302,7.02279 -5.0706,12.47332 -10.1414,16.54041 L 205.70359,187.88729 c 8.19686,1.59981 22.15303,8.9212 38.3002,33.02649 0.22153,0.3525 0.49229,0.75923 0.73843,1.13885 0.0197,0.0217 0.0492,0.0759 0.0788,0.10846 14.91654,23.50897 49.05716,87.74814 40.44196,122.78215 z m 68.84838,-85.74203 c 2.21531,6.8332 2.31377,13.42225 0.27076,19.95696 l -99.56738,-66.7582 c 0,-0.0217 -0.0197,-0.0542 -0.0492,-0.0759 -12.94737,-19.33363 -25.25446,-29.85431 -35.71596,-35.08748 8.59059,-0.94904 20.62683,0.18981 36.79851,6.23655 0.8369,0.32539 84.65212,33.86707 98.263,75.73232 z m 13.80878,-100.354 c 5.09512,4.60963 8.24588,10.22285 9.50113,16.97426 l -104.43831,-0.97615 h -0.0492 c -0.19692,0 -0.39384,0.0542 -0.56614,0.0542 -6.79343,-3.11827 -11.34742,-4.93501 -12.1597,-5.26039 -18.14085,-6.75175 -32.36808,-8.24309 -43.22331,-6.94155 l 0.44306,-0.65077 c 6.91699,-4.7451 16.81196,-9.40928 30.86649,-12.74393 0.88613,-0.18981 88.43922,-18.70965 119.59932,9.54463 z M 267.80835,89.565766 c 28.67609,-19.984073 52.1334,-28.389531 67.78975,-24.268419 5.34137,1.410002 9.77209,4.230115 13.43947,8.622815 l -90.92825,58.786578 c -7.06448,1.13885 -11.69212,2.11511 -12.5044,2.2777 -4.35679,1.03038 -8.31963,2.22346 -12.08596,3.49789 L 266.158,90.732164 Z m 13.85782,-73.913629 c 6.37508,-1.762503 12.33171,-1.220195 18.04269,1.681156 L 210.01567,148.57024 c -0.76305,-8.75817 -2.90452,-18.9539 -7.11361,-30.77601 l 0.66459,-1.87097 c 0.39384,-0.89481 38.91576,-89.455754 78.07983,-100.270689 z m -171.9571,0 c 39.16161,10.819057 77.70805,99.375233 78.02942,100.166573 8.93529,21.77358 10.11679,36.95822 8.86095,46.63886 -1.08304,1.43712 -2.04301,2.84712 -2.85519,4.25713 L 91.668947,17.332534 c 5.685871,-2.901351 11.667513,-3.44366 18.042593,-1.681157 z m -53.905936,49.64803 c 15.753334,-4.094431 39.358721,4.392699 68.230846,24.593913 0.31998,0.216923 0.66459,0.379616 0.98458,0.542309 l 45.21709,66.189091 -33.05749,-21.36674 h -0.0197 -0.0197 L 42.322612,73.950965 c 3.667573,-4.3927 8.098494,-7.240037 13.46408,-8.649931 z M 13.958439,175.8513 c 1.206213,-6.42636 4.086021,-11.79511 8.738079,-16.26959 22.91608,-22.09918 80.215982,-16.56742 104.293372,-13.04252 1.40303,0.40673 2.97837,1.03039 3.47066,1.32866 0,0 0.0197,0 0.0197,0.0217 l 23.9746,15.48313 c -6.9415,1.11173 -14.69471,3.11827 -23.35904,6.34501 -0.78767,0.29827 -5.29204,2.115 -12.03673,5.20616 L 13.978042,175.84576 Z M 37.0226,279.16239 c -2.067625,-6.53482 -1.969167,-13.12365 0.27076,-19.95696 10.362543,-31.88807 61.413487,-58.92194 85.48389,-70.14436 0.27076,-0.10846 0.51691,-0.21693 0.76305,-0.3525 7.11362,-3.28097 11.71674,-5.15194 11.88875,-5.20617 16.24543,-6.04674 28.30687,-7.18591 36.92198,-6.26366 -10.4614,5.23339 -22.79311,15.78096 -35.76509,35.1416 z m 79.25817,82.31985 c -5.0706,-4.06732 -8.41799,-9.51752 -10.1414,-16.54031 -10.584272,-42.92383 40.71233,-123.24028 41.18049,-123.94138 16.1963,-24.18718 30.17778,-31.53546 38.37385,-33.13484 l -69.39029,173.62206 z m 49.1063,-86.52643 h 22.4485 c -0.98458,15.56437 -1.05843,31.53547 -0.24615,47.77728 h -29.34029 c 1.23073,-15.18464 3.15067,-30.0978 5.85837,-44.6321 l 1.25535,-3.17251 z m 6.39959,202.36008 h 50.06607 c 2.83068,6.86021 5.80904,13.5575 8.91067,20.0382 h -52.79828 c -2.23993,-6.50771 -4.28294,-13.20489 -6.20287,-20.0382 z M 489.51251,437.7817 c 0,-0.21692 0.0197,-0.40673 0.0197,-0.59654 0,-25.73233 -75.76093,-27.06098 -90.95345,-27.06098 -35.7897,0 -67.76454,5.23328 -81.52665,13.34101 -0.68921,0.40673 -1.55072,0.705 -2.51069,0.84058 -46.27572,6.61616 -46.27572,19.79459 -46.27572,24.10594 0,20.28256 46.76781,25.4346 74.633,26.68191 4.726,0.21692 9.15643,0.86769 13.16851,1.95231 16.51638,4.3927 40.19561,6.94155 64.97935,6.94155 15.18749,0 90.95345,-1.30154 90.95345,-27.06087 0,-8.35145 -7.18726,-14.50643 -22.49763,-19.11638 z m -68.45139,31.53547 c -23.77739,0 -46.32484,-2.38616 -61.83183,-6.53482 -4.87369,-1.30154 -10.16593,-2.08789 -15.75334,-2.33204 -36.82371,-1.65404 -55.62876,-8.21598 -60.84686,-12.03936 3.29836,-2.38616 12.75006,-6.64328 33.64784,-9.62587 2.55992,-0.37962 4.94753,-1.19308 7.089,-2.44039 9.79671,-5.77558 36.84833,-11.5785 75.24423,-11.5785 44.13385,0 70.17795,7.53787 76.62422,12.36431 -1.8461,1.73538 -2.70761,4.47404 -2.1907,7.13103 0.56613,2.82001 2.58453,5.01636 5.16896,5.61289 12.13519,2.73866 17.35328,5.55867 19.49515,7.10403 -6.47344,4.82644 -32.51616,12.3642 -76.59901,12.3642 z"
     id="path1"
     style="stroke-width:6.61371" /></svg>
