<?xml version="1.0" encoding="UTF-8" standalone="no"?>
<!-- Uploaded to: SVG Repo, www.svgrepo.com, Generator: SVG Repo Mixer Tools -->

<svg
   fill="#000000"
   width="800px"
   height="800px"
   viewBox="0 0 14 14"
   role="img"
   focusable="false"
   aria-hidden="true"
   version="1.1"
   id="svg1"
   sodipodi:docname="oracle.svg"
   inkscape:version="1.4.3 (0d15f75042, 2025-12-25)"
   xml:space="preserve"
   xmlns:inkscape="http://www.inkscape.org/namespaces/inkscape"
   xmlns:sodipodi="http://sodipodi.sourceforge.net/DTD/sodipodi-0.dtd"
   xmlns="http://www.w3.org/2000/svg"
   xmlns:svg="http://www.w3.org/2000/svg"><defs
     id="defs1" /><sodipodi:namedview
     id="namedview1"
     pagecolor="#ffffff"
     bordercolor="#000000"
     borderopacity="0.25"
     inkscape:showpageshadow="2"
     inkscape:pageopacity="0.0"
     inkscape:pagecheckerboard="0"
     inkscape:deskcolor="#d1d1d1"
     inkscape:zoom="1"
     inkscape:cx="399.5"
     inkscape:cy="400"
     inkscape:window-width="1920"
     inkscape:window-height="1011"
     inkscape:window-x="0"
     inkscape:window-y="0"
     inkscape:window-maximized="1"
     inkscape:current-layer="svg1" /><path
     d="M 12.271211,1.498318 1.7065938,1.1314283 c -0.184264,0 -0.3480489,0.061124 -0.4709138,0.183442 C 1.0923585,1.4371644 1.0309374,1.6002269 1.0309374,1.7836836 v 2.1401549 c 0,0.3464963 0.2866351,0.6522475 0.6346989,0.6522475 -0.020442,0.061124 -0.040958,0.1426817 -0.040958,0.2242168 L 1.2561432,12.23997 c 0,0.183441 0.061397,0.346496 0.1842639,0.489185 0.1228349,0.142682 0.2866352,0.203829 0.4709138,0.203829 h 2.3339778 c 0.1842641,0 0.3480488,-0.06112 0.470914,-0.203829 0.1228419,-0.122294 0.1842639,-0.305744 0.1842639,-0.468813 L 4.7162131,4.8001945 c 0,-0.081536 -0.020442,-0.1630619 -0.040958,-0.2242167 H 8.667731 C 8.626768,4.6575138 8.606329,4.7390397 8.626768,4.8409469 l 0.1842709,7.4601471 c 0,0.366891 0.3071143,0.631868 0.6551695,0.631868 h 1.9859526 c 0.368535,0 0.65517,-0.285356 0.65517,-0.631868 l 0.184271,-7.4601471 c 0,-0.101914 -0.02044,-0.1834347 -0.04096,-0.2649691 h 0.02044 c 0.368536,0 0.65517,-0.2853565 0.65517,-0.6522476 V 2.1503994 C 12.905807,1.803903 12.619126,1.5185243 12.271076,1.4981517 Z m -7.9439369,3.322419 0.1842566,7.460148 c 0,0.06113 -0.020442,0.122294 -0.061397,0.183434 -0.040958,0.04077 -0.1023704,0.08153 -0.1842641,0.08153 H 1.9113025 c -0.061397,0 -0.1228415,-0.02035 -0.1842565,-0.08153 C 1.686088,12.423549 1.645145,12.342025 1.665648,12.280885 L 2.0341817,4.820737 c 0,-0.1222941 0.1228417,-0.2445967 0.2456925,-0.2445967 h 1.7812764 c 0.1433214,0 0.2456852,0.101914 0.2661564,0.2445967 z M 11.800275,4.6576751 c 0.04097,0.040775 0.08189,0.101914 0.0614,0.1834347 l -0.184264,7.4601482 c 0,0.142681 -0.102365,0.244596 -0.245685,0.244596 H 9.4457708 c -0.1433281,0 -0.2456866,-0.101917 -0.2456866,-0.244596 L 9.0158166,4.8411098 c 0,-0.061124 0.02044,-0.1222941 0.061402,-0.1834347 0.040962,-0.040775 0.1023653,-0.081536 0.184271,-0.081536 H 11.61604 c 0.08191,0 0.143328,0.020351 0.18427,0.081536 z m 0.69612,-0.7337824 c 0,0.1426816 -0.102365,0.2445892 -0.245692,0.2445892 H 1.6860866 c -0.1433215,0 -0.2456926,-0.101914 -0.2456926,-0.2445892 v -2.140155 c 0,-0.061124 0.020442,-0.122294 0.081892,-0.183442 0.040958,-0.040775 0.1023703,-0.061124 0.1637928,-0.061124 L 12.250699,1.9060625 c 0.143329,0 0.245692,0.1222941 0.245692,0.2445892 z"
     id="path1-6"
     style="stroke-width:0.130741" /></svg>
