<?xml version="1.0" encoding="UTF-8" standalone="no"?>
<!-- Uploaded to: SVG Repo, www.svgrepo.com, Generator: SVG Repo Mixer Tools -->

<svg
   fill="#000000"
   width="800px"
   height="800px"
   viewBox="0 0 14 14"
   role="img"
   focusable="false"
   aria-hidden="true"
   version="1.1"
   id="svg1"
   sodipodi:docname="oracle.svg"
   inkscape:version="1.4.3 (0d15f75042, 2025-12-25)"
   xml:space="preserve"
   xmlns:inkscape="http://www.inkscape.org/namespaces/inkscape"
   xmlns:sodipodi="http://sodipodi.sourceforge.net/DTD/sodipodi-0.dtd"
   xmlns="http://www.w3.org/2000/svg"
   xmlns:svg="http://www.w3.org/2000/svg"><defs
     id="defs1" /><sodipodi:namedview
     id="namedview1"
     pagecolor="#ffffff"
     bordercolor="#000000"
     borderopacity="0.25"
     inkscape:showpageshadow="2"
     inkscape:pageopacity="0.0"
     inkscape:pagecheckerboard="0"
     inkscape:deskcolor="#d1d1d1"
     inkscape:zoom="1"
     inkscape:cx="399.5"
     inkscape:cy="400"
     inkscape:window-width="1920"
     inkscape:window-height="1011"
     inkscape:window-x="0"
     inkscape:window-y="0"
     inkscape:window-maximized="1"
     inkscape:current-layer="svg1" /><path
     d="M 13.22906,0.43523547 0.79520295,0 C 0.5783364,0 0.38557239,0.07251044 0.24096852,0.21761436 0.07228858,0.36268992 0,0.5561284 0,0.77376019 V 3.3125922 c 0,0.4110431 0.33735058,0.773751 0.74699868,0.773751 -0.0240589,0.07251 -0.0482049,0.169261 -0.0482049,0.2659848 l -0.43374147,8.82556 c 0,0.217614 0.0722602,0.411043 0.21686644,0.580313 C 0.62648735,13.927462 0.81926949,14 1.0361532,14 H 3.7830909 C 3.9999576,14 4.1927214,13.927494 4.3373256,13.758201 4.4819024,13.613125 4.554192,13.395502 4.554192,13.202055 L 4.3373261,4.3521996 c 0,-0.096725 -0.024059,-0.1934378 -0.048205,-0.2659848 h 4.6988804 c -0.048211,0.096725 -0.072266,0.1934378 -0.048211,0.3143287 l 0.2168746,8.8498555 c 0,0.435237 0.3614533,0.749575 0.7710913,0.749575 h 2.3373356 c 0.433742,0 0.771092,-0.338513 0.771092,-0.749575 l 0.216875,-8.8498555 c 0,-0.120899 -0.02406,-0.2176057 -0.04821,-0.3143287 h 0.02406 C 13.662651,4.0862148 14,3.7477009 14,3.3124638 V 1.2087894 C 13.975938,0.79774614 13.638533,0.45920589 13.228901,0.43503819 Z M 3.8795706,4.3765688 4.0964284,13.226425 c 0,0.07252 -0.024059,0.145076 -0.07226,0.217605 -0.048205,0.04837 -0.1204832,0.09672 -0.2168667,0.09672 H 1.0361316 c -0.0722602,0 -0.14457636,-0.02414 -0.21685776,-0.09672 -0.0482049,-0.04837 -0.0963921,-0.145075 -0.0722614,-0.217605 L 1.1807523,4.3765688 c 0,-0.1450756 0.1445765,-0.2901612 0.2891638,-0.2901612 h 2.0964447 c 0.1686798,0 0.2891552,0.120899 0.3132485,0.2901612 z M 12.674799,4.183131 c 0.04822,0.048371 0.09638,0.120899 0.07226,0.2176057 l -0.216862,8.8498563 c 0,0.169261 -0.120477,0.290161 -0.289155,0.290161 H 9.9037031 c -0.1686877,0 -0.2891569,-0.120903 -0.2891569,-0.290161 L 9.3976754,4.4007367 c 0,-0.07251 0.024056,-0.1450755 0.072266,-0.2176057 0.04821,-0.048371 0.1204772,-0.096725 0.2168748,-0.096725 h 2.7711508 c 0.0964,0 0.168688,0.024142 0.216874,0.096725 z m 0.819288,-0.8704745 c 0,0.169261 -0.120477,0.2901523 -0.289164,0.2901523 H 0.77106733 c -0.16867994,0 -0.28916396,-0.1208989 -0.28916396,-0.2901523 V 0.77382437 c 0,-0.0725104 0.0240589,-0.14507545 0.0963815,-0.21761436 0.0482049,-0.0483707 0.12048308,-0.0725104 0.1927733,-0.0725104 L 13.204919,0.91893635 c 0.168689,0 0.289163,0.14507555 0.289163,0.29015235 z"
     id="path1-6"
     style="stroke-width:0.154483" /></svg>
