<?xml version="1.0" encoding="UTF-8" standalone="no"?>
<!-- Uploaded to: SVG Repo, www.svgrepo.com, Generator: SVG Repo Mixer Tools -->

<svg
   fill="#000000"
   version="1.1"
   id="Capa_1"
   width="800px"
   height="800px"
   viewBox="0 0 585.07 585.07"
   xml:space="preserve"
   sodipodi:docname="paddock.svg"
   inkscape:version="1.4.3 (0d15f75042, 2025-12-25)"
   xmlns:inkscape="http://www.inkscape.org/namespaces/inkscape"
   xmlns:sodipodi="http://sodipodi.sourceforge.net/DTD/sodipodi-0.dtd"
   xmlns="http://www.w3.org/2000/svg"
   xmlns:svg="http://www.w3.org/2000/svg"><defs
   id="defs2" /><sodipodi:namedview
   id="namedview2"
   pagecolor="#ffffff"
   bordercolor="#000000"
   borderopacity="0.25"
   inkscape:showpageshadow="2"
   inkscape:pageopacity="0.0"
   inkscape:pagecheckerboard="0"
   inkscape:deskcolor="#d1d1d1"
   inkscape:zoom="1"
   inkscape:cx="399.5"
   inkscape:cy="400"
   inkscape:window-width="1920"
   inkscape:window-height="1011"
   inkscape:window-x="0"
   inkscape:window-y="0"
   inkscape:window-maximized="1"
   inkscape:current-layer="Capa_1" />

<g
   id="g3"
   transform="matrix(1.2664832,0,0,1.4859406,-83.885591,-104.04198)"><path
     d="M 484.65573,433.4455 H 106.5778 a 5.8507,5.8507 0 0 1 -5.8507,-5.8507 v -21.07035 a 5.8507,5.8507 0 0 1 5.8507,-5.8507 h 378.07793 a 5.8507,5.8507 0 0 1 5.8507,5.8507 v 21.07035 a 5.8507,5.8507 0 0 1 -5.8507,5.8507 z M 112.4285,421.7441 h 366.37653 v -9.36895 H 112.4285 Z"
     id="path1-7"
     style="stroke-width:0.731337" /><path
     d="m 178.84235,412.37515 h -41.60923 c -2.30261,0 -4.62015,-1.05554 -5.56467,-3.15528 a 5.3302802,5.3302802 0 0 1 0.60101,-5.83929 c 0.46886,-1.33835 2.87036,-11.28856 -19.67824,-30.88044 a 5.8507,5.8507 0 0 1 3.70985,-10.26585 c 0.99521,-0.0257 21.71341,-0.30139 34.04684,12.5556 l 25.2454,-26.24463 a 5.8507,5.8507 0 0 1 9.50454,6.5601 c -3.7974,8.02189 -8.60053,19.99396 -10.62297,28.215 l 9.30934,-2.07773 a 5.8507,5.8507 0 0 1 6.85058,7.48121 l -6.21637,19.57184 a 5.8507,5.8507 0 0 1 -5.57608,4.07947 z m -34.57925,-11.7014 h 30.29873 l 1.84049,-5.79424 -7.41372,1.65407 a 5.8507,5.8507 0 0 1 -7.10129,-5.18007 c -0.30569,-3.36532 0.35178,-7.91307 2.00014,-13.7604 l -9.85843,10.24867 a 5.8502612,5.8502612 0 0 1 -9.30744,-1.17263 c -2.50117,-4.41516 -6.59198,-7.3005 -10.89144,-9.18523 8.00895,9.95153 10.27543,17.73698 10.43296,23.18983 z"
     id="path2"
     style="stroke-width:0.731337" /><path
     d="m 350.7338,412.37515 h -41.60909 c -2.30261,0 -4.62015,-1.05554 -5.56467,-3.15528 a 5.3302802,5.3302802 0 0 1 0.60101,-5.83929 c 0.46886,-1.33835 2.87036,-11.28856 -19.67861,-30.88044 a 5.8507,5.8507 0 0 1 3.70986,-10.26585 c 0.99462,-0.0257 21.71341,-0.30139 34.0472,12.5556 l 25.2454,-26.24463 a 5.8507,5.8507 0 0 1 9.50454,6.5601 c -3.7974,8.02189 -8.60053,19.99396 -10.62297,28.215 l 9.30985,-2.07773 a 5.8507,5.8507 0 0 1 6.85059,7.48121 l -6.21637,19.57184 a 5.8507,5.8507 0 0 1 -5.57674,4.07947 z m -34.57888,-11.7014 h 30.29836 l 1.84085,-5.79424 -7.41372,1.65407 a 5.8507,5.8507 0 0 1 -7.10128,-5.18007 c -0.3057,-3.36532 0.35177,-7.91307 2.00013,-13.7604 l -9.85843,10.24867 a 5.8502612,5.8502612 0 0 1 -9.30744,-1.17263 c -2.52428,-4.45655 -6.6295,-7.35477 -10.93466,-9.23884 8.04325,9.97654 10.31836,17.7813 10.47611,23.24344 z"
     id="path3"
     style="stroke-width:0.731337" /><path
     d="m 414.29485,412.38086 h -19.93721 a 5.8507,5.8507 0 0 1 -5.8507,-5.81926 H 369.1069 a 10.02203,10.02203 0 0 1 -10.01092,-10.01018 v -2.14472 a 15.718564,15.718564 0 0 1 9.73557,-14.56678 l 1.70804,-0.70771 a 5.5079221,5.5079221 0 0 0 3.37146,-4.49773 l 5.14079,-47.45481 a 5.2298676,5.2298676 0 0 0 -0.86773,-3.4917 l -14.42139,-21.30166 a 10.806901,10.806901 0 0 0 -10.54369,-4.67727 c -11.02184,1.55621 -27.30624,3.50384 -42.29325,3.94381 -13.62116,0.3985 -22.24685,-0.59568 -27.86798,-2.13192 l -2.46863,49.75669 a 5.8428747,5.8428747 0 0 1 -0.5417,2.18399 l -3.80618,8.15537 3.65918,28.05293 a 5.8433866,5.8433866 0 0 1 0.0493,0.75701 v 6.92628 a 10.7903,10.7903 0 0 1 -10.77794,10.77794 h -11.16021 a 9.6138702,9.6138702 0 0 1 -8.99494,6.24994 H 231.4672 a 9.5658945,9.5658945 0 0 1 -9.55521,-9.55522 v -1.49698 a 20.611577,20.611577 0 0 1 8.41469,-16.61364 l 3.02043,-3.00675 -5.68001,-46.31707 c -0.006,-0.0443 -0.0107,-0.0893 -0.0146,-0.13427 l -3.73377,-37.62 a 63.111281,63.111281 0 0 0 -7.65264,-18.83341 c -0.85844,-1.43481 -1.65231,-3.01603 -2.49254,-4.69014 a 85.380362,85.380362 0 0 0 -4.21624,-7.67473 84.462826,84.462826 0 0 1 -12.28742,-34.38646 c -1.86688,-14.10896 -13.96123,-26.02318 -17.62392,-29.33848 a 3.1617914,3.1617914 0 0 0 -0.87131,-0.55494 l -6.0478,-2.60254 a 23.334127,23.334127 0 0 0 -18.92262,0.22569 l -20.59922,9.44888 a 19.894355,19.894355 0 0 1 -12.6411,1.31012 l -1.8633,-0.42352 a 23.528663,23.528663 0 0 1 -16.98363,-15.00821 5.8449224,5.8449224 0 0 1 -0.20923,-0.71993 c -3.135322,-14.1097 3.71307,-22.61435 10.33584,-30.83904 q 0.85918,-1.06695 1.73868,-2.17046 a 5.8648148,5.8648148 0 0 1 0.82386,-0.84631 l 4.35262,-3.65025 a 16.518135,16.518135 0 0 0 5.73647,-10.2859 l 0.57885,-3.97657 a 28.169804,28.169804 0 0 1 13.0791,-19.9397 l 12.84521,-7.95183 1.01019,-4.82873 a 10.905924,10.905924 0 0 1 19.53578,-4.12233 l 6.07464,8.46757 18.16774,2.64898 c 33.06903,4.13374 56.46079,43.62172 62.32005,54.51324 12.32494,2.03114 62.72184,9.39308 93.43304,-0.30643 0.10532,-0.0328 0.21173,-0.0636 0.3185,-0.0907 a 112.79082,112.79082 0 0 1 32.00742,-2.47192 c 22.10051,1.43123 40.2518,9.56165 52.78414,23.58637 5.45724,-1.49837 15.02636,-2.619 23.73424,3.94308 17.2132,12.97334 20.6676,49.09958 10.26798,107.3795 a 138.57383,138.57383 0 0 0 0.86093,22.57215 c 1.92445,15.77158 6.44674,27.79726 13.07771,34.7778 a 5.8507,5.8507 0 0 1 -5.66107,9.70522 40.81068,40.81068 0 0 1 -15.12669,-8.15836 l 0.0867,2.25756 a 5.8507,5.8507 0 0 1 -10.91434,3.14885 169.44563,169.44563 0 0 1 -15.62736,-39.51863 l -12.57052,63.99576 v 9.66953 a 10.494693,10.494693 0 0 1 -10.48263,10.48292 z m -13.49874,-11.7014 h 12.27997 v -9.02025 a 5.854503,5.854503 0 0 1 0.1097,-1.12772 l 13.14301,-66.91007 a 8.3174283,8.3174283 0 0 0 -1.11163,-6.03134 l -13.19128,-21.10545 a 5.8507,5.8507 0 0 1 1.57515,-7.87263 c 14.42073,-10.23368 17.57857,-43.43025 17.57857,-55.35808 a 5.8507,5.8507 0 0 1 10.48044,-3.57741 c 12.39814,16.04511 7.81331,45.60577 7.61227,46.8568 a 5.8530403,5.8530403 0 0 1 -0.29817,1.12414 c -7.20301,19.20762 -2.68357,41.92406 3.09356,58.92481 a 5.8526746,5.8526746 0 0 1 9.05747,-1.19208 143.90192,143.90192 0 0 1 -2.13009,-33.02947 5.7783707,5.7783707 0 0 1 0.0782,-0.63348 c 5.42147,-30.27123 11.88599,-83.03606 -5.73179,-96.31372 -7.05594,-5.31931 -15.90842,-1.2184 -15.99589,-1.17482 a 5.8515045,5.8515045 0 0 1 -7.18305,-1.64339 c -10.59254,-13.51402 -26.42322,-21.04379 -47.05301,-22.37936 a 102.45512,102.45512 0 0 0 -28.2308,2.10186 c -15.97658,5.00367 -37.95883,6.53853 -65.34295,4.5623 a 357.13938,357.13938 0 0 1 -36.3594,-4.44872 5.8507,5.8507 0 0 1 -4.17806,-3.17678 c -0.2289,-0.46492 -23.3821,-46.88605 -54.71135,-50.75483 -0.0425,-0.005 -0.0847,-0.0108 -0.12718,-0.0172 l -20.68954,-3.01677 a 5.8501881,5.8501881 0 0 1 -3.90988,-2.37897 l -6.46919,-9.01739 -1.15347,5.51216 a 5.8490911,5.8490911 0 0 1 -2.64744,3.77597 L 144.31247,132.63 a 16.498974,16.498974 0 0 0 -7.65908,11.67639 l -0.57885,3.97665 a 28.202714,28.202714 0 0 1 -9.79634,17.56607 l -3.90132,3.27171 q -0.71554,0.89779 -1.4188,1.76837 c -6.60917,8.20758 -9.76094,12.57484 -8.10972,20.57742 a 11.875751,11.875751 0 0 0 8.44694,7.24127 l 1.86301,0.42352 a 8.1328387,8.1328387 0 0 0 5.1672,-0.53637 l 20.59994,-9.44888 a 35.053518,35.053518 0 0 1 28.4257,-0.33853 l 6.04751,2.6018 a 14.819092,14.819092 0 0 1 4.09914,2.62894 c 4.40997,3.99237 18.9826,18.41918 21.37195,36.47912 a 72.856646,72.856646 0 0 0 10.57441,29.66305 96.393939,96.393939 0 0 1 4.78653,8.68317 c 0.77281,1.5391 1.44022,2.86823 2.077,3.9324 a 74.614635,74.614635 0 0 1 9.12278,22.71359 5.884049,5.884049 0 0 1 0.0996,0.64065 l 3.76024,37.88599 6.02001,49.08817 a 5.8507,5.8507 0 0 1 -1.67945,4.85864 l -5.38652,5.36224 a 5.8592566,5.8592566 0 0 1 -0.79664,0.66347 8.9057161,8.9057161 0 0 0 -3.81027,6.67126 h 13.27436 v -8.64813 a 11.794353,11.794353 0 0 1 2.45649,-7.18481 l 1.85365,-2.3933 v -75.27701 a 5.8507,5.8507 0 0 1 11.7014,0 v 77.27751 a 5.8507,5.8507 0 0 1 -1.22514,3.58238 l -3.0782,3.97453 -10e-4,2.41824 h 9.62988 v -5.62282 l -3.83023,-29.36422 a 5.8491642,5.8491642 0 0 1 0.49958,-3.23105 l 4.04093,-8.65962 2.85287,-57.49637 a 5.8507,5.8507 0 0 1 10.06767,-3.75812 c 3.03066,3.16172 21.12198,6.68347 69.70378,-0.17552 a 22.747595,22.747595 0 0 1 21.86947,9.70485 l 14.42139,21.30159 a 16.948161,16.948161 0 0 1 2.81156,11.31182 l -5.14131,47.45393 a 17.205153,17.205153 0 0 1 -10.52862,14.04972 l -1.70804,0.70772 a 4.0516097,4.0516097 0 0 0 -2.51039,3.75527 v 0.45343 h 11.89067 v -4.4937 a 5.8553074,5.8553074 0 0 1 0.19746,-1.50766 l 14.56247,-54.60962 a 6.2199523,6.2199523 0 0 0 -0.13391,-3.6553 l -9.77696,-28.18078 a 5.8507,5.8507 0 0 1 10.07227,-5.60204 l 17.04748,21.02522 a 15.109433,15.109433 0 0 1 3.33921,10.76719 l -4.50196,56.27306 a 14.968943,14.968943 0 0 1 -7.20587,11.61992 l -3.5788,2.14758 a 5.1572458,5.1572458 0 0 0 -1.91304,2.03546 z m 3.40072,-46.32351 -9.51126,35.66733 a 16.668937,16.668937 0 0 1 2.00328,-1.41345 l 3.57887,-2.14684 a 3.2436281,3.2436281 0 0 0 1.56192,-2.51895 z m 20.41536,-59.81112 9.43426,15.09532 c -1.1474,-11.74718 -0.42498,-24.01844 3.75454,-35.50644 0.25385,-1.73831 0.50279,-4.12371 0.64562,-6.88919 -3.15367,12.06429 -7.78626,21.20469 -13.83442,27.30031 z"
     id="path4"
     style="stroke-width:0.731337" /></g></svg>
