<?xml version="1.0" encoding="UTF-8" standalone="no"?>
<!-- Uploaded to: SVG Repo, www.svgrepo.com, Generator: SVG Repo Mixer Tools -->

<svg
   fill="#000000"
   version="1.1"
   id="Capa_1"
   width="800px"
   height="800px"
   viewBox="0 0 585.07 585.07"
   xml:space="preserve"
   sodipodi:docname="quarry.svg"
   inkscape:version="1.4.3 (0d15f75042, 2025-12-25)"
   xmlns:inkscape="http://www.inkscape.org/namespaces/inkscape"
   xmlns:sodipodi="http://sodipodi.sourceforge.net/DTD/sodipodi-0.dtd"
   xmlns="http://www.w3.org/2000/svg"
   xmlns:svg="http://www.w3.org/2000/svg"><defs
   id="defs2" /><sodipodi:namedview
   id="namedview2"
   pagecolor="#ffffff"
   bordercolor="#000000"
   borderopacity="0.25"
   inkscape:showpageshadow="2"
   inkscape:pageopacity="0.0"
   inkscape:pagecheckerboard="0"
   inkscape:deskcolor="#d1d1d1"
   inkscape:zoom="1"
   inkscape:cx="399.5"
   inkscape:cy="400"
   inkscape:window-width="1920"
   inkscape:window-height="1011"
   inkscape:window-x="0"
   inkscape:window-y="0"
   inkscape:window-maximized="1"
   inkscape:current-layer="Capa_1" />

<g
   id="g1"
   style="fill:#000000"
   transform="matrix(8.9421576,0,0,8.942047,-3976.1589,-1137.8957)"><path
     d="m 446.08268,191.25298 h 62.56958 v -62.56666 h -62.56958 z m 63.28337,1.42837 h -63.99789 c -0.39423,0 -0.71419,-0.31996 -0.71419,-0.71419 V 127.9722 c 0,-0.39423 0.3171,-0.71419 0.71134,-0.71419 h 63.99788 c 0.39424,0 0.7142,0.31996 0.7142,0.71419 v 63.99496 c 0,0.39423 -0.31996,0.71419 -0.7142,0.71419 z"
     fill-rule="evenodd"
     id="path1"
     style="fill:#000000;stroke-width:0.731337" /><path
     d="m 476.67036,165.32487 c -0.13141,0 -0.26283,0.0571 -0.35996,0.16569 l -5.49644,6.21637 c -0.0657,0.0714 -0.0943,0.13427 -0.11427,0.22854 l -1.45982,7.53936 c -0.04,0.20569 0.04,0.38853 0.21712,0.49994 l 10.89839,6.87055 c 0.13427,0.0828 0.26568,0.1 0.41424,0.0486 0.15141,-0.0514 0.24282,-0.1457 0.2971,-0.29425 l 5.06225,-14.22671 c 0.0743,-0.2114 0.009,-0.42566 -0.17712,-0.55707 l -9.00204,-6.39921 c -0.0886,-0.0628 -0.18569,-0.0914 -0.28282,-0.0914 z m 3.93379,23.02543 c -0.35138,0 -0.69705,-0.1 -1.01129,-0.29711 l -10.89839,-6.87055 c -0.67135,-0.4228 -1.00844,-1.19983 -0.85706,-1.97973 l 1.45983,-7.53935 c 0.0657,-0.34568 0.2114,-0.63992 0.44566,-0.90277 l 5.49929,-6.21637 c 0.64849,-0.73419 1.73978,-0.8599 2.53972,-0.29139 l 9.00422,6.39635 c 0.70563,0.49994 0.98563,1.38552 0.6942,2.19972 l -5.06509,14.22671 c -0.19712,0.55707 -0.61707,0.97129 -1.17702,1.1656 -0.20855,0.0714 -0.4228,0.10856 -0.63421,0.10856 z"
     fill-rule="evenodd"
     id="path2"
     style="fill:#000000;stroke-width:0.731337" /><path
     d="m 485.65192,153.38359 c -0.16856,0 -0.32854,0.0914 -0.41138,0.25426 l -3.59387,6.92489 c -0.11713,0.22283 -0.0314,0.50565 0.19141,0.62563 l 11.1156,6.04495 c 0.19711,0.10856 0.41995,0.0686 0.5685,-0.0971 l 5.33079,-5.93356 c 0.17141,-0.18855 0.15712,-0.4828 -0.0314,-0.65706 l -4.94223,-4.51375 c -0.0543,-0.0514 -0.1,-0.0771 -0.17426,-0.1 l -7.91015,-2.52539 c -0.0486,-0.0143 -0.0971,-0.0229 -0.1457,-0.0229 z m 8.40453,14.22671 z m -0.87702,1.10842 c -0.30854,0 -0.61993,-0.0743 -0.90847,-0.23141 l -11.11267,-6.04494 c -0.90277,-0.48851 -1.25125,-1.6284 -0.77705,-2.53686 l 3.59387,-6.92489 c 0.42852,-0.8199 1.37696,-1.21417 2.25968,-0.93129 l 7.91015,2.52253 c 0.26854,0.0857 0.49137,0.21426 0.70277,0.40567 l 4.93938,4.51374 c 0.76564,0.69705 0.82561,1.89402 0.13141,2.66536 l -5.33079,5.93071 h -0.003 c -0.37138,0.41137 -0.88272,0.62849 -1.40841,0.62849 z"
     fill-rule="evenodd"
     id="path3"
     style="fill:#000000;stroke-width:0.731337" /><path
     d="m 473.86202,143.27358 c -0.0486,0 -0.1,0.0114 -0.14569,0.0314 l -3.41674,1.53127 c -0.13712,0.0629 -0.21426,0.17998 -0.2114,0.32853 l 0.0943,9.94985 c 0,0.11998 0.0428,0.20569 0.13712,0.27711 0.0943,0.0743 0.1857,0.0943 0.30282,0.0657 l 6.19355,-1.49128 c 0.17141,-0.0428 0.27997,-0.18569 0.27425,-0.3628 l -0.21997,-4.85082 c -0.003,-0.06 -0.0114,-0.0943 -0.04,-0.14855 l -2.65396,-5.13933 c -0.0628,-0.12284 -0.18854,-0.19425 -0.3171,-0.19425 z m -3.33387,13.62701 c -0.39138,0 -0.76564,-0.12855 -1.0856,-0.37995 -0.43994,-0.34281 -0.68277,-0.83416 -0.68849,-1.39122 l -0.0943,-9.94985 c -0.009,-0.71991 0.39709,-1.35129 1.05415,-1.64551 l 3.41673,-1.53127 c 0.86561,-0.38852 1.88261,-0.0314 2.31688,0.81134 l 2.65395,5.13648 c 0.12284,0.23711 0.18569,0.47137 0.19712,0.73989 l 0.21997,4.85082 c 0.0371,0.85135 -0.53708,1.61691 -1.36555,1.81693 l -6.19356,1.49127 c -0.14569,0.0343 -0.28853,0.0514 -0.43137,0.0514 z"
     fill-rule="evenodd"
     id="path4"
     style="fill:#000000;stroke-width:0.731337" /><path
     d="m 450.03066,166.79925 c 0.0143,0.19426 0.12284,0.33995 0.30282,0.41137 l 13.49244,5.39647 c 0.13713,0.0543 0.2514,0.0514 0.38282,-0.0114 0.13426,-0.0628 0.20854,-0.14855 0.25425,-0.28853 l 3.21957,-9.87891 c 0.0514,-0.15998 0.0314,-0.29711 -0.0657,-0.43137 l -4.69658,-6.52492 c -0.11427,-0.15712 -0.27425,-0.22569 -0.46566,-0.19426 l -12.70991,1.95406 c -0.2514,0.04 -0.42852,0.25997 -0.40852,0.51422 l 0.69705,9.05031 z m 13.97513,7.27622 c -0.23712,0 -0.47708,-0.0457 -0.7142,-0.13999 l -13.49244,-5.39646 c -0.69134,-0.27711 -1.13986,-0.88558 -1.19698,-1.6284 l -0.69705,-9.0503 c -0.0771,-0.99133 0.6342,-1.88546 1.61691,-2.03692 l 12.71284,-1.95691 c 0.72563,-0.11141 1.41411,0.17712 1.8426,0.77419 l 4.69658,6.52492 c 0.36567,0.50851 0.45995,1.11697 0.26568,1.71118 l -3.21671,9.87599 c -0.16856,0.51421 -0.51708,0.90846 -1.00844,1.13986 -0.26283,0.12284 -0.53423,0.18283 -0.8085,0.18283 z"
     fill-rule="evenodd"
     id="path5"
     style="fill:#000000;stroke-width:0.731337" /><path
     d="m 482.62637,148.73009 c -0.23711,0 -0.47423,-0.0486 -0.70277,-0.1457 -0.55993,-0.23711 -0.94562,-0.71419 -1.057,-1.31128 l -1.42552,-7.53936 c -0.009,-0.0343 -0.0143,-0.0543 -0.0286,-0.0857 l -5.31361,-11.37595 c -0.16569,-0.3571 -0.0114,-0.78275 0.34568,-0.94847 0.3571,-0.1657 0.78275,-0.0114 0.94847,0.34567 l 5.31646,11.37596 c 0.0657,0.13998 0.10856,0.27425 0.13712,0.42566 l 1.42838,7.53643 c 0.0229,0.12855 0.0914,0.2114 0.2114,0.26283 0.11998,0.0514 0.22568,0.04 0.33424,-0.0314 l 7.65052,-5.03365 c 0.11428,-0.0743 0.1657,-0.17712 0.15998,-0.31139 l -0.20282,-5.08791 c -0.0229,-0.5885 0.2314,-1.13131 0.70277,-1.49127 l 10.37036,-7.91307 c 0.31425,-0.23997 0.76279,-0.17713 0.99989,0.13426 0.23711,0.31425 0.17997,0.76279 -0.13427,0.99989 l -10.37036,7.91014 c -0.10285,0.0771 -0.1457,0.17141 -0.13999,0.29711 l 0.20283,5.08791 c 0.0257,0.63992 -0.26568,1.21124 -0.80279,1.56265 l -7.65052,5.03365 c -0.29997,0.19712 -0.63706,0.29711 -0.977,0.29711 z"
     fill-rule="evenodd"
     id="path6"
     style="fill:#000000;stroke-width:0.731337" /><path
     d="m 509.36334,158.35449 c -0.0943,0 -0.19141,-0.02 -0.28282,-0.06 l -12.9359,-5.60219 c -0.52851,-0.22854 -0.89421,-0.66277 -1.02555,-1.22558 -0.13427,-0.55992 -0.006,-1.11411 0.36566,-1.55694 l 4.97939,-5.97356 c 0.0828,-0.0971 0.10284,-0.19712 0.0686,-0.31996 l -1.55979,-5.84785 c -0.13142,-0.49137 -0.0571,-0.97985 0.21425,-1.41126 0.2714,-0.43138 0.67992,-0.70849 1.17987,-0.80279 l 8.86747,-1.67411 c 0.38566,-0.0743 0.75993,0.18284 0.83416,0.5685 0.0743,0.38852 -0.18283,0.75993 -0.5685,0.83416 l -8.86746,1.67126 c -0.10856,0.02 -0.17713,0.0686 -0.23426,0.15998 -0.06,0.0943 -0.0714,0.17426 -0.0428,0.28282 l 1.5598,5.84785 c 0.15141,0.56849 0.0229,1.15127 -0.35424,1.60265 l -4.97939,5.97356 c -0.08,0.0943 -0.1,0.19141 -0.0743,0.31139 0.0286,0.11999 0.0914,0.19712 0.20568,0.24569 l 12.9359,5.60219 c 0.36281,0.15712 0.52851,0.57707 0.37138,0.93991 -0.11713,0.26854 -0.37995,0.43138 -0.65706,0.43138 z"
     fill-rule="evenodd"
     id="path7"
     style="fill:#000000;stroke-width:0.731337" /><path
     d="m 491.29126,192.67909 c -0.21711,0 -0.43137,-0.0971 -0.57422,-0.28568 l -3.99091,-5.32216 c -0.4428,-0.5885 -0.4828,-1.34844 -0.10856,-1.97973 l 7.44209,-12.57023 c 0.28283,-0.47994 0.7456,-0.7856 1.29981,-0.85991 0.55422,-0.0743 1.07989,0.1 1.47979,0.48566 l 6.21637,6.01927 c 0.0743,0.0743 0.15141,0.1057 0.25711,0.1 l 6.03638,-0.16284 c 0.39424,-0.006 0.72277,0.29996 0.73134,0.6942 0.0114,0.39423 -0.29996,0.72276 -0.6942,0.73419 l -6.03353,0.16284 c -0.48566,0.0114 -0.93699,-0.15998 -1.29125,-0.5028 l -6.21637,-6.02212 c -0.0857,-0.0829 -0.17712,-0.11427 -0.29711,-0.0971 -0.11998,0.0171 -0.19997,0.0686 -0.25997,0.17141 l -7.44209,12.57023 c -0.08,0.13141 -0.0714,0.27425 0.0229,0.39709 l 3.99091,5.32216 c 0.23711,0.31425 0.17141,0.76279 -0.14284,0.99989 -0.12856,0.0971 -0.27711,0.14284 -0.42566,0.14284 z"
     fill-rule="evenodd"
     id="path8"
     style="fill:#000000;stroke-width:0.731337" /><path
     d="m 463.68912,192.67909 c -0.17712,0 -0.35996,-0.0657 -0.49708,-0.20283 -0.28283,-0.27425 -0.28854,-0.72848 -0.0143,-1.0113 l 4.57086,-4.69657 c 0.08,-0.08 0.10856,-0.16284 0.1,-0.27711 -0.0114,-0.11427 -0.0514,-0.19141 -0.1457,-0.25711 l -12.41591,-9.15854 c -0.0857,-0.0628 -0.16284,-0.08 -0.26568,-0.0657 l -9.54469,1.46837 c -0.39138,0.06 -0.75415,-0.20854 -0.8142,-0.59707 -0.06,-0.39138 0.20569,-0.75415 0.59708,-0.81419 l 9.54468,-1.46838 c 0.47994,-0.0743 0.93992,0.04 1.33125,0.32853 l 12.41592,9.15854 c 0.41995,0.31139 0.67706,0.76849 0.71992,1.29125 0.0428,0.52279 -0.13427,1.01699 -0.49994,1.39122 l -4.57086,4.69658 c -0.13998,0.14283 -0.32567,0.21712 -0.51136,0.21426 z"
     fill-rule="evenodd"
     id="path9"
     style="fill:#000000;stroke-width:0.731337" /><path
     d="m 455.72997,148.91293 c -0.0628,0 -0.12569,-0.003 -0.18854,-0.009 l -10.24458,-1.03988 c -0.39423,-0.04 -0.67992,-0.39139 -0.63992,-0.78275 0.04,-0.39139 0.38852,-0.67992 0.78275,-0.63992 l 10.24458,1.03988 c 0.0629,0.006 0.1057,0 0.16569,-0.0229 l 8.82432,-3.39385 c 0.14569,-0.0571 0.22854,-0.17712 0.22854,-0.33424 v -8.55007 c 0,-0.10855 -0.0343,-0.18569 -0.11427,-0.25996 l -6.84773,-6.43351 c -0.28854,-0.26854 -0.29997,-0.72276 -0.0314,-1.00844 0.26854,-0.28853 0.72277,-0.30282 1.01129,-0.0314 l 6.84774,6.4335 c 0.36853,0.34567 0.56278,0.79701 0.56278,1.30266 v 8.55007 c 0,0.74559 -0.44851,1.39985 -1.14556,1.66547 l -8.82432,3.39385 c -0.20569,0.08 -0.41709,0.11998 -0.63135,0.11998 z"
     fill-rule="evenodd"
     id="path10"
     style="fill:#000000;stroke-width:0.731337" /></g></svg>
