<?xml version="1.0" encoding="UTF-8" standalone="no"?>
<!-- Uploaded to: SVG Repo, www.svgrepo.com, Generator: SVG Repo Mixer Tools -->

<svg
   width="800px"
   height="800px"
   viewBox="0 0 512 512"
   version="1.1"
   id="svg1"
   sodipodi:docname="tavern.svg"
   xml:space="preserve"
   inkscape:version="1.4.3 (0d15f75042, 2025-12-25)"
   xmlns:inkscape="http://www.inkscape.org/namespaces/inkscape"
   xmlns:sodipodi="http://sodipodi.sourceforge.net/DTD/sodipodi-0.dtd"
   xmlns="http://www.w3.org/2000/svg"
   xmlns:svg="http://www.w3.org/2000/svg"><defs
     id="defs1" /><sodipodi:namedview
     id="namedview1"
     pagecolor="#ffffff"
     bordercolor="#000000"
     borderopacity="0.25"
     inkscape:showpageshadow="2"
     inkscape:pageopacity="0.0"
     inkscape:pagecheckerboard="0"
     inkscape:deskcolor="#d1d1d1"
     inkscape:zoom="1"
     inkscape:cx="399.5"
     inkscape:cy="400"
     inkscape:window-width="1920"
     inkscape:window-height="1011"
     inkscape:window-x="0"
     inkscape:window-y="0"
     inkscape:window-maximized="1"
     inkscape:current-layer="svg1" /><path
     d="m 320,219.42857 h -54.85714 c -3.01715,0 -5.94286,1.52686 -7.58857,4.06857 l -10.69715,16.01829 c 0,0 -10.69714,-16.01829 -10.69714,-16.01829 -1.64571,-2.54171 -4.57143,-4.06857 -7.58857,-4.06857 0,0 -120.22857,0 -182.674287,0 -5.12,0 -9.142857,4.096 -9.142857,9.14286 0,15.232 -12.342857,27.57486 -27.6114289,27.57486 C 4.1142857,256.14629 0,260.24229 0,265.28914 v 82.13943 c 0,3.46514 1.92,6.62857 5.0285714,8.17372 l 20.2057146,10.112 c 0,0 -20.2057146,10.112 -20.2057146,10.112 C 1.92,377.37143 0,380.53486 0,384 c 0,0 0,47.22286 0,82.13943 0,2.42286 1.0057143,4.74514 2.6514286,6.464 1.7371428,1.70971 4.1142857,2.67886 6.4914285,2.67886 7.3142859,0 14.3542859,2.90742 19.4742859,8.07314 5.211428,5.17486 8.137143,12.18743 8.137143,19.50171 0,5.04686 4.022857,9.14286 9.142857,9.14286 H 356.38857 c 2.46857,0 4.75429,-0.96 6.49143,-2.67886 1.73714,-1.70971 2.65143,-4.04114 2.65143,-6.464 0,-7.31428 2.92571,-14.32685 8.13714,-19.50171 5.12,-5.16572 12.16,-8.07314 19.47429,-8.07314 2.37714,0 4.75428,-0.96858 6.49143,-2.67886 1.64571,-1.71886 2.65142,-4.04114 2.65142,-6.464 v -45.568 c 0,-3.46514 -1.92,-6.62857 -5.02857,-8.17372 l -20.20571,-10.112 c 0,0 20.20571,-10.112 20.20571,-10.112 3.10857,-1.54514 5.02857,-4.70857 5.02857,-8.17371 V 265.28914 c 0,-2.42285 -1.00571,-4.74514 -2.65142,-6.464 -1.73715,-1.70971 -4.11429,-2.67885 -6.49143,-2.67885 -7.31429,0 -14.35429,-2.90743 -19.47429,-8.07315 -5.21143,-5.17485 -8.13714,-12.18743 -8.13714,-19.50171 0,-2.42286 -0.91429,-4.75429 -2.65143,-6.464 -1.73714,-1.71886 -4.02286,-2.67886 -6.49143,-2.67886 h -18.10286 v -73.14286 h 33.46286 c -1.28,2.432 -2.46857,5.02858 -3.38286,7.75315 -4.29714,12.62628 -4.38857,28.08685 -2.56,39.46057 5.30286,31.73486 25.78286,40.32914 48.27429,48.26514 16.73143,5.888 34.83429,11.2 43.06286,34.05714 v 25.95658 c 0,7.25942 2.92571,14.21714 8.04571,19.34628 5.12,5.13829 12.06857,8.01829 19.29143,8.01829 9.14286,0 18.37714,0 18.37714,0 5.02857,0 9.14286,-4.096 9.14286,-9.14286 V 73.142857 C 512,68.096 507.88571,64 502.85714,64 H 484.48 c -7.22286,0 -14.17143,2.88 -19.29143,8.018286 -5.12,5.129143 -8.04571,12.086857 -8.04571,19.346285 V 128 H 64 c -5.028571,0 -9.142857,4.096 -9.142857,9.14286 0,5.04685 4.114286,9.14285 9.142857,9.14285 0,0 0,54.85715 0,54.85715 0,5.04685 4.114286,9.14285 9.142857,9.14285 5.028572,0 9.142857,-4.096 9.142857,-9.14285 V 146.28571 H 320 Z M 384,320 v -46.48229 c -8.77714,-1.78285 -16.91429,-6.10742 -23.31429,-12.51657 -6.4,-6.40914 -10.69714,-14.528 -12.52571,-23.28685 0,0 -78.17143,0 -78.17143,0 l -15.54286,23.36 c -1.64571,2.54171 -4.57142,4.06857 -7.58857,4.06857 -3.01714,0 -5.94285,-1.52686 -7.58857,-4.06857 0,0 -15.54286,-23.36 -15.54286,-23.36 0,0 -169.599996,0 -169.599996,0 -3.657143,17.99314 -17.828571,32.16457 -35.84,35.80342 v 28.19658 h 18.285715 c 5.028571,0 9.142857,4.096 9.142857,9.14285 C 45.714286,315.904 41.6,320 36.571429,320 H 18.285714 v 21.77829 l 29.622857,14.79314 h 25.234286 c 5.028572,0 9.142857,4.096 9.142857,9.14286 0,5.04685 -4.114285,9.14285 -9.142857,9.14285 H 47.908571 l -29.622857,14.79315 v 68.26057 C 27.062857,459.69371 35.2,464.01829 41.6,470.42743 c 6.4,6.40914 10.697143,14.528 12.525714,23.28686 0,0 294.125716,0 294.034286,0 1.82857,-8.75886 6.12571,-16.87772 12.52571,-23.28686 6.4,-6.40914 14.53715,-10.73372 23.31429,-12.50743 0,0 0,-31.69829 0,-31.69829 l -31.54286,-15.76228 c -3.10857,-1.54514 -5.02857,-4.70857 -5.02857,-8.17372 0,-3.46514 1.92,-6.62857 5.02857,-8.17371 0,0 31.54286,-15.76229 31.54286,-15.76229 v -40.064 h -18.28571 c -5.02858,0 -9.14286,-4.096 -9.14286,-9.14285 0,-5.04686 4.11428,-9.14286 9.14286,-9.14286 z M 82.285714,475.42857 h 27.428576 c 5.02857,0 9.14285,-4.096 9.14285,-9.14286 0,-5.04685 -4.11428,-9.14285 -9.14285,-9.14285 H 82.285714 c -5.028571,0 -9.142857,4.096 -9.142857,9.14285 0,5.04686 4.114286,9.14286 9.142857,9.14286 z M 265.14286,429.71429 h 27.42857 c 5.02857,0 9.14286,-4.096 9.14286,-9.14286 0,-5.04686 -4.11429,-9.14286 -9.14286,-9.14286 h -27.42857 c -5.02857,0 -9.14286,4.096 -9.14286,9.14286 0,5.04686 4.11429,9.14286 9.14286,9.14286 z m -155.42857,0 h 109.71428 c 5.02857,0 9.14286,-4.096 9.14286,-9.14286 0,-5.04686 -4.11429,-9.14286 -9.14286,-9.14286 H 109.71429 c -5.02858,0 -9.14286,4.096 -9.14286,9.14286 0,5.04686 4.11428,9.14286 9.14286,9.14286 z m 45.71428,-73.14286 h 27.42857 c 5.02857,0 9.14286,-4.096 9.14286,-9.14286 0,-5.04686 -4.11429,-9.14286 -9.14286,-9.14286 h -27.42857 c -5.02857,0 -9.14286,4.096 -9.14286,9.14286 0,5.04686 4.11429,9.14286 9.14286,9.14286 z M 256,320 h 45.71429 c 5.02857,0 9.14285,-4.096 9.14285,-9.14286 0,-5.04685 -4.11428,-9.14285 -9.14285,-9.14285 H 256 c -5.02857,0 -9.14286,4.096 -9.14286,9.14285 C 246.85714,315.904 250.97143,320 256,320 Z M 475.42857,91.364571 V 301.77829 c 0,2.41371 1.00572,4.71771 2.65143,6.41828 1.73714,1.70057 4.02286,2.66057 6.4,2.66057 0,0 9.23429,0 9.23429,0 V 82.285714 H 484.48 c -2.37714,0 -4.66286,0.96 -6.4,2.660572 -1.64571,1.700571 -2.65143,4.004571 -2.65143,6.418285 z M 100.57143,274.28571 h 45.71428 c 5.02858,0 9.14286,-4.096 9.14286,-9.14285 0,-5.04686 -4.11428,-9.14286 -9.14286,-9.14286 h -45.71428 c -5.028573,0 -9.142859,4.096 -9.142859,9.14286 0,5.04685 4.114286,9.14285 9.142859,9.14285 z M 457.14286,164.57143 c 0,0 0,-18.28572 0,-18.28572 H 433.28 c 2.83429,5.29372 4.11429,11.21829 3.84,17.01486 -0.64,11.63886 -7.49714,23.12229 -22.76571,28.23314 -4.84572,1.59086 -9.96572,-0.99714 -11.61143,-5.78742 -1.55429,-4.78172 1.00571,-9.96572 5.76,-11.56572 6.67428,-2.20343 10.05714,-6.81143 10.33143,-11.84914 0.45714,-7.936 -6.12572,-16.04572 -16.54858,-16.04572 -9.23428,0 -13.98857,6.19886 -16.64,13.696 -3.29142,9.76458 -3.2,21.72343 -1.73714,30.51886 3.84,23.13143 19.93143,28.23314 36.29714,34.02057 12.98286,4.57143 26.14858,9.35315 36.93715,18.91657 v -39.39657 c -7.49715,7.63429 -16.54857,13.27543 -25.50857,15.18629 -4.93715,1.05143 -9.78286,-2.10286 -10.88,-7.03086 -1.00572,-4.93714 2.10285,-9.80114 7.04,-10.85257 7.31428,-1.55429 14.44571,-7.28686 19.93142,-14.19886 5.48572,-6.94857 9.41715,-15.232 9.41715,-22.57371 z M 99.657143,91.428571 h -54.4 C 44.342857,87.067429 42.24,83.026286 39.04,79.835429 c -4.297143,-4.288 -10.148571,-6.692572 -16.182857,-6.692572 0,0 -1.645714,0 0,0 -6.034286,0 -11.885714,2.404572 -16.1828573,6.692572 C 2.3771429,84.123429 0,89.938286 0,96 c 0,13.07429 0,32.64 0,45.71429 0,6.06171 2.3771429,11.87657 6.6742857,16.16457 4.2971433,4.288 10.1485713,6.69257 16.1828573,6.69257 6.034286,0 11.885714,-2.40457 16.182857,-6.69257 4.297143,-4.288 6.674286,-10.10286 6.674286,-16.16457 v -32 H 438.85714 c 5.02857,0 9.14286,-4.096 9.14286,-9.14286 0,-5.046859 -4.11429,-9.142859 -9.14286,-9.142859 H 278.49143 C 284.16,86.061714 288.82286,79.990857 293.12,73.883429 c 4.38857,-6.098286 8.41143,-12.224 12.98286,-17.353143 5.66857,-6.244572 12.43428,-10.816 23.04,-10.816 23.31428,0 51.47428,18.477714 72.50285,34.660571 3.93143,3.090286 9.69143,2.349714 12.8,-1.645714 3.10858,-3.995429 2.37715,-9.737143 -1.64571,-12.818286 -24.04571,-18.56 -56.86857,-38.482286 -83.65714,-38.482286 -21.76,0 -33.46286,11.648 -44.06857,26.294858 -11.97715,16.438857 -22.30858,37.705142 -56.50286,37.705142 H 202.88 C 207.81714,82.944 210.28571,72.667429 210.28571,64 210.28571,42.413714 198.58286,0 155.42857,0 134.21714,0 118.4,6.9302857 107.79429,17.536 97.005714,28.361143 91.428571,43.190857 91.428571,59.428571 c 0,13.494858 3.84,24.155429 8.228572,32 z M 27.428571,96 v 45.71429 c 0,1.21571 -0.457142,2.37714 -1.371428,3.23657 -0.822857,0.85 -2.011429,1.33428 -3.2,1.33428 -1.188572,0 -2.377143,-0.48428 -3.2,-1.33428 -0.914286,-0.86 -1.371429,-2.02057 -1.371429,-3.23657 V 96 c 0,-1.215714 0.457143,-2.377143 1.371429,-3.236571 0.822857,-0.85 2.011428,-1.334286 3.2,-1.334286 1.188571,0 2.377143,0.484286 3.2,1.334286 0.914286,0.86 1.371428,2.020571 1.371428,3.236571 z M 143.08571,91.428571 c -3.93142,-6.482285 -5.94285,-13.376 -5.94285,-18.285714 0,-27.428571 27.42857,-27.428571 27.42857,-27.428571 5.02857,0 9.14286,4.096 9.14286,9.142857 C 173.71429,59.904 169.6,64 164.57143,64 c 0,0 -9.14286,0 -9.14286,9.142857 0,6.098286 6.12572,18.285714 18.28572,18.285714 5.76,0 9.96571,-3.721142 12.89142,-8.310857 C 190.17143,77.357714 192,70.070857 192,64 c 0,-14.994286 -6.58286,-45.714286 -36.57143,-45.714286 -15.36,0 -26.97143,4.498286 -34.65143,12.178286 -7.49714,7.460571 -11.06285,17.773714 -11.06285,28.964571 0,17.252572 8.59428,27.958858 12.61714,32 z"
     id="path1"
     style="clip-rule:evenodd;fill-rule:evenodd;stroke-width:9.14285;stroke-linejoin:round;stroke-miterlimit:2" /></svg>
