<?xml version="1.0" encoding="UTF-8" standalone="no"?>
<!-- Uploaded to: SVG Repo, www.svgrepo.com, Generator: SVG Repo Mixer Tools -->

<svg
   fill="#000000"
   width="800px"
   height="800px"
   viewBox="0 0 14 14"
   role="img"
   focusable="false"
   aria-hidden="true"
   version="1.1"
   id="svg1"
   sodipodi:docname="tower.svg"
   inkscape:version="1.4.3 (0d15f75042, 2025-12-25)"
   xml:space="preserve"
   xmlns:inkscape="http://www.inkscape.org/namespaces/inkscape"
   xmlns:sodipodi="http://sodipodi.sourceforge.net/DTD/sodipodi-0.dtd"
   xmlns="http://www.w3.org/2000/svg"
   xmlns:svg="http://www.w3.org/2000/svg"><defs
     id="defs1" /><sodipodi:namedview
     id="namedview1"
     pagecolor="#ffffff"
     bordercolor="#000000"
     borderopacity="0.25"
     inkscape:showpageshadow="2"
     inkscape:pageopacity="0.0"
     inkscape:pagecheckerboard="0"
     inkscape:deskcolor="#d1d1d1"
     inkscape:zoom="1"
     inkscape:cx="399.5"
     inkscape:cy="400"
     inkscape:window-width="1920"
     inkscape:window-height="1011"
     inkscape:window-x="0"
     inkscape:window-y="0"
     inkscape:window-maximized="1"
     inkscape:current-layer="svg1" /><g
     id="g1"
     transform="matrix(10.898579,0,0,8.5277644,-70.352077,-50.709367)"><path
       d="m 7.7342975,6.8291828 c 0.010185,-0.028028 0.00841,-0.058994 -0.00485,-0.085654 -0.01333,-0.02666 -0.036983,-0.04669 -0.065488,-0.05544 -0.01668,-0.046622 -0.052022,-0.084219 -0.09748,-0.1037698 -0.033154,-0.014492 -0.055097,0.035546 -0.021943,0.050108 l -6.82e-5,6.83e-5 c 0.035684,0.015312 0.062207,0.046347 0.071778,0.083946 0.00287,0.010664 0.011895,0.018594 0.0229,0.020029 0.017705,0.00232 0.033086,0.013193 0.041153,0.029122 0.00807,0.015859 0.00772,0.034727 -8.202e-4,0.050381 -0.00513,0.00937 -0.00438,0.020849 0.00198,0.029395 0.02502,0.03377 0.00588,0.092832 -0.046758,0.092832 H 7.4125367 l -0.00485,-0.105546 v 6.82e-5 C 7.451092,6.8191357 7.479939,6.777983 7.4798708,6.731909 V 6.6054436 c 0,-0.090508 -0.1043158,-0.1179203 -0.1578413,-0.067403 v -6.82e-5 C 7.2987195,6.5167815 7.2665213,6.5083045 7.2357598,6.51514 V 6.431126 c 0,-0.1446479 -0.21875,-0.1446479 -0.21875,0 v 0.084082 -6.83e-5 c -0.030762,-0.0069 -0.063028,0.00157 -0.086406,0.022832 -0.00362,-0.00342 -0.00752,-0.00649 -0.011621,-0.00923 V 6.2673288 H 7.333785 v 0.148204 c 0,0.036162 0.054687,0.036162 0.054687,0 V 6.2672606 c 0.071572,-0.00109 0.1025395,-0.091397 0.046347,-0.135898 -0.00239,0 -0.1013775,-0.087227 -0.2731575,-0.176365 h 6.82e-5 c -0.022148,-0.011484 -0.048534,-0.011484 -0.070616,0 -0.096523,0.049971 -0.187985,0.1090337 -0.2731575,0.176435 -0.056054,0.044434 -0.025156,0.1348725 0.046347,0.135898 V 6.5129431 C 6.8186392,6.5134216 6.77277,6.5451396 6.77277,6.6053641 v 0.1264655 c -6.83e-5,0.046074 0.028779,0.087227 0.072187,0.1028125 l -0.00643,0.1401365 c -0.00164,0.036094 0.052978,0.038623 0.054687,0.00246 l 0.0026,-0.055986 h 0.052364 v 6.83e-5 c 0.015039,0 0.027344,-0.012236 0.027344,-0.027344 0,-0.015107 -0.012305,-0.027344 -0.027344,-0.027344 H 6.898275 l 0.00232,-0.050244 c 0.00198,-0.04375 -0.073076,-0.018321 -0.073076,-0.084696 v -0.126465 c 0,-0.050654 0.07581,-0.050654 0.07581,0 0,0.036162 0.054687,0.036162 0.054687,0 0,-0.050654 0.075878,-0.050654 0.075878,0 0,0.036162 0.054687,0.036162 0.054687,0 0,-0.050654 0.07581,-0.050654 0.07581,0 0,0.036162 0.054687,0.036162 0.054687,0 0,-0.050654 0.075878,-0.050654 0.075878,0 0,0.036162 0.054687,0.036162 0.054687,0 0,-0.050654 0.07581,-0.050654 0.07581,0 v 0.1264655 c 0,0.065352 -0.075196,0.041016 -0.073076,0.084696 l 0.00909,0.1977675 H 7.20842 c -0.036162,0 -0.036162,0.054687 0,0.054687 H 7.363869 L 7.376857,7.3511014 H 7.2532636 c -0.03623,0 -0.03623,0.054687 0,0.054687 h 0.1260543 l 0.00711,0.156065 c 0.00164,0.036162 0.056329,0.033633 0.054687,-0.00246 L 7.415206,6.9948091 h 0.2195725 c 0.089756,2.051e-4 0.1367188,-0.094199 0.099531,-0.165634 z M 6.8519125,6.1742278 C 6.9344215,6.1090123 7.022947,6.0518643 7.11625,6.0035345 c 0.00636,-0.00328 0.013877,-0.00328 0.020233,0 0.09331,0.04833 0.1818425,0.1054778 0.2643375,0.1706933 0.00718,0.00574 0.00984,0.015381 0.00677,0.024063 -0.00308,0.00861 -0.011279,0.014424 -0.02044,0.014355 H 6.8654911 c -0.00923,0 -0.017363,-0.00574 -0.02044,-0.014424 -0.00301,-0.00861 -2.735e-4,-0.018253 0.00684,-0.023994 z M 7.071695,6.5294253 v -0.098301 c 0,-0.07246 0.109375,-0.07246 0.109375,0 v 0.098301 c -0.033154,-0.022011 -0.076221,-0.022011 -0.109375,0 z"
       id="path1"
       style="stroke-width:0.0175" /><path
       d="m 6.943385,7.1455478 c -0.068359,-0.1901725 -0.37303,-0.1730855 -0.4165875,0.07123 -0.1214063,0.061728 -0.080596,0.2545726 0.06296,0.2545726 h 0.225925 l -0.00403,0.088321 c -0.00164,0.036162 0.052978,0.038691 0.054687,0.00246 l 0.0041,-0.090781 h 0.043066 c 0.095156,0 0.144648,-0.1004885 0.1046588,-0.1758225 h 6.82e-5 c 0.011074,-0.029736 0.00937,-0.062822 -0.00485,-0.091259 -0.014219,-0.028437 -0.039511,-0.049697 -0.07,-0.058721 z m -0.029804,0.27111 H 6.5897607 c -0.088867,0 -0.1115625,-0.1238668 -0.028574,-0.155449 0.00943,-0.00362 0.016133,-0.0121 0.017363,-0.022148 0.026318,-0.20671 0.2760275,-0.21588 0.3169775,-0.063165 l 6.82e-5,6.82e-5 c 0.0028,0.010664 0.011826,0.018594 0.022832,0.020029 0.019687,0.00253 0.036778,0.014697 0.045801,0.032403 0.00896,0.017637 0.00854,0.038622 -9.571e-4,0.055986 -0.0052,0.00937 -0.00437,0.020849 0.00191,0.029463 0.027891,0.037324 0.00656,0.1028125 -0.051679,0.1028125 z"
       id="path2"
       style="stroke-width:0.0175" /><path
       d="m 7.1324025,7.3513828 h -0.027344 c -0.036162,0 -0.036162,0.054687 0,0.054687 h 0.027344 c 0.03623,0 0.03623,-0.054687 0,-0.054687 z"
       id="path3"
       style="stroke-width:0.0175" /><path
       d="m 7.0693675,7.0601128 h -0.040332 c -0.03623,0 -0.03623,0.054687 0,0.054687 h 0.040332 c 0.03623,0 0.03623,-0.054687 0,-0.054687 z"
       id="path4"
       style="stroke-width:0.0175" /><path
       d="m 7.20767,6.8356228 c 0.036162,9.571e-4 0.037597,-0.053662 0.0015,-0.054687 l -0.1191504,-0.00342 c -0.036299,-8.204e-4 -0.037597,0.053662 -0.0015,0.054687 z"
       id="path5"
       style="stroke-width:0.0175" /><path
       d="m 6.7532825,7.2118728 c -0.029463,-0.00157 -0.058173,0.00937 -0.079228,0.030079 -0.020986,0.020713 -0.032335,0.049287 -0.031241,0.07875 0.00116,0.036162 0.055781,0.034454 0.054687,-0.00178 v 6.82e-5 c -6.152e-4,-0.014287 0.00485,-0.028164 0.015107,-0.038213 0.010254,-0.00998 0.024267,-0.015176 0.038554,-0.014287 0.036094,0.00137 0.038213,-0.053184 0.00212,-0.054619 z"
       id="path6"
       style="stroke-width:0.0175" /></g></svg>
