<?xml version="1.0" encoding="UTF-8" standalone="no"?>
<!-- Uploaded to: SVG Repo, www.svgrepo.com, Generator: SVG Repo Mixer Tools -->

<svg
   fill="#000000"
   version="1.1"
   id="Capa_1"
   width="800px"
   height="800px"
   viewBox="0 0 585.07 585.07"
   xml:space="preserve"
   sodipodi:docname="village.svg"
   inkscape:version="1.4.3 (0d15f75042, 2025-12-25)"
   xmlns:inkscape="http://www.inkscape.org/namespaces/inkscape"
   xmlns:sodipodi="http://sodipodi.sourceforge.net/DTD/sodipodi-0.dtd"
   xmlns="http://www.w3.org/2000/svg"
   xmlns:svg="http://www.w3.org/2000/svg"><defs
   id="defs2" /><sodipodi:namedview
   id="namedview2"
   pagecolor="#ffffff"
   bordercolor="#000000"
   borderopacity="0.25"
   inkscape:showpageshadow="2"
   inkscape:pageopacity="0.0"
   inkscape:pagecheckerboard="0"
   inkscape:deskcolor="#d1d1d1"
   inkscape:zoom="1"
   inkscape:cx="399.5"
   inkscape:cy="400"
   inkscape:window-width="1920"
   inkscape:window-height="1011"
   inkscape:window-x="0"
   inkscape:window-y="0"
   inkscape:window-maximized="1"
   inkscape:current-layer="Capa_1" />

<g
   id="g1"
   style="fill:#000000"
   transform="matrix(8.150445,0,0,8.150445,-1961.0777,-1776.2963)"><path
     d="m 289.43348,284.76155 h 11.95591 c 0.39424,0 0.7142,-0.31996 0.7142,-0.7142 v -6.3935 c 0,-0.39423 -0.31996,-0.71419 -0.7142,-0.71419 h -11.95591 c -0.39423,0 -0.71419,0.31996 -0.71419,0.71419 v 6.3935 c 0,0.39424 0.31996,0.7142 0.71419,0.7142 z m 11.23847,-1.42838 h -4.54804 v -4.96512 h 4.54804 z m -10.52468,-4.96227 h 4.54804 v 4.96512 h -4.54804 z"
     id="path1"
     style="fill:#000000;stroke-width:0.731337" /><path
     d="m 277.65529,270.6716 c 0,-2.08834 -1.69692,-3.78526 -3.78525,-3.78526 -2.08834,0 -3.78526,1.69692 -3.78526,3.78526 0,2.08833 1.69692,3.78525 3.78526,3.78525 2.08833,0 3.78525,-1.69692 3.78525,-3.78525 z m -6.14491,0 c 0,-1.29981 1.057,-2.35688 2.35688,-2.35688 1.2998,0 2.35688,1.057 2.35688,2.35688 0,1.2998 -1.057,2.35688 -2.35688,2.35688 -1.29981,0 -2.35688,-1.057 -2.35688,-2.35688 z"
     id="path2"
     style="fill:#000000;stroke-width:0.731337" /><path
     d="m 297.39848,241.48392 h 8.50765 c 0.39424,0 0.7142,-0.31996 0.7142,-0.7142 v -4.42232 c 0,-0.39424 -0.31996,-0.7142 -0.7142,-0.7142 h -8.50765 c -0.39423,0 -0.71419,0.31996 -0.71419,0.7142 v 4.42232 c 0,0.39424 0.31996,0.7142 0.71419,0.7142 z m 7.79313,-1.42838 h -2.65965 v -2.99395 h 2.65965 z m -7.07912,-2.99102 h 2.99395 v 2.99395 h -2.99395 z"
     id="path3"
     style="fill:#000000;stroke-width:0.731337" /><path
     d="m 286.17976,233.80195 c 1.48842,0 2.69681,-1.20839 2.69681,-2.69681 0,-1.48842 -1.20839,-2.69681 -2.69681,-2.69681 -1.48841,0 -2.6968,1.20839 -2.6968,2.69681 0,1.48842 1.20839,2.69681 2.6968,2.69681 z m 0,-3.96524 c 0.69992,0 1.26844,0.5685 1.26844,1.26843 0,0.69994 -0.5685,1.26843 -1.26844,1.26843 -0.69993,0 -1.26843,-0.56849 -1.26843,-1.26843 0,-0.69993 0.5685,-1.26843 1.26843,-1.26843 z"
     id="path4"
     style="fill:#000000;stroke-width:0.731337" /><path
     d="m 280.61209,253.95688 c 0.39424,0 0.7142,-0.31996 0.7142,-0.7142 v -4.59082 h 1.3341 c 0.20569,0 0.39996,-0.0886 0.53708,-0.24283 l 1.75404,-1.99406 h 24.87425 c 0.39424,0 0.7142,-0.31996 0.7142,-0.7142 v -12.11241 h 1.14271 c 0.57993,0.0143 0.93129,-0.69991 0.56565,-1.15127 l -7.08198,-9.18487 -0.003,-4.59945 c 0,-0.39424 -0.31996,-0.7142 -0.7142,-0.7142 h -9.36989 c -0.39424,0 -0.7142,0.31996 -0.7142,0.7142 v 2.62828 h -8.1822 c -0.21997,0 -0.43138,0.1057 -0.56565,0.27711 l -7.30196,9.47009 -1.08845,1.41126 c -0.47709,0.62849 0.26854,1.45412 0.93991,1.04559 v 2.08834 c 0.0286,0.94277 1.39985,0.94277 1.42838,0 v -3.86527 l 6.58774,-8.54494 6.58774,8.54494 v 13.27817 h -3.23961 v -8.63856 c 0,-0.39424 -0.31996,-0.7142 -0.71419,-0.7142 h -5.2679 c -0.39423,0 -0.71419,0.31996 -0.71419,0.7142 v 6.54774 c 0,0 -3.44526,-3.49097 -3.44526,-3.49097 l -4.04517,-4.09951 v -7.06772 c 0,-0.39424 -0.31997,-0.7142 -0.7142,-0.7142 h -9.3187 c -0.39424,0 -0.7142,0.31996 -0.7142,0.7142 v 3.96524 h -10.47568 c -0.13998,0.003 -0.27711,0.0428 -0.39709,0.11998 -0.13141,0.0543 -12.78963,12.80426 -12.90664,12.8869 -0.27712,0.26568 -0.27712,0.7456 0,1.01129 l 2.21975,2.21976 c 0.27996,0.27996 0.73134,0.27996 1.01129,0 l 2.16542,-2.16542 c 0.009,-0.009 0.0171,-0.0171 0.0257,-0.0257 l 7.88163,-7.88163 7.69879,7.69587 v 13.06388 h -3.30528 v -8.48498 c 0,-0.39423 -0.31996,-0.71419 -0.7142,-0.71419 h -7.35652 c -0.39424,0 -0.7142,0.31996 -0.7142,0.71419 v 8.48498 h -3.30528 v -9.37867 c -0.0286,-0.93992 -1.39407,-0.94848 -1.42837,0 V 259.842 c 0,0.39423 0.31996,0.71419 0.71419,0.71419 h 22.44329 l -10.5298,10.5298 c -0.27996,0.27996 -0.27996,0.73134 0,1.00844 l 2.72826,2.73111 c 0.13426,0.13426 0.31424,0.20854 0.50565,0.20854 0.18855,0 0.37138,-0.0743 0.50565,-0.20854 l 12.50953,-12.50953 9.63611,9.6361 v 16.30371 h -4.39659 v -10.6044 c 0,-0.39423 -0.31996,-0.71419 -0.71419,-0.71419 h -9.04738 c -0.39423,0 -0.71419,0.31996 -0.71419,0.71419 v 10.6044 h -4.39658 v -12.16726 c 0,-0.39424 -0.31996,-0.7142 -0.7142,-0.7142 -0.39423,0 -0.71419,0.31996 -0.71419,0.7142 v 12.88104 c 0,0.39424 0.31996,0.7142 0.71419,0.7142 11.9325,0.003 30.76444,-0.003 42.94341,0 0.39423,0 0.71419,-0.31996 0.71419,-0.7142 v -13.93563 h 1.8026 c 0.20569,0 0.39996,-0.0886 0.53708,-0.24283 l 2.40259,-2.73111 c 0.24854,-0.28282 0.23426,-0.70562 -0.0286,-0.97414 l -9.56443,-9.69022 c -0.67992,-0.64849 -1.65978,0.30568 -1.017,1.00274 l 9.09637,9.21851 -1.74833,1.98836 H 288.6154 l 1.57984,-1.57984 h 15.70108 c 0.39424,0 0.7142,-0.31996 0.7142,-0.71419 0,-0.39424 -0.31996,-0.7142 -0.7142,-0.7142 H 289.64088 L 275.59993,256.5561 h 11.32988 v 2.66822 c 0,0.18854 0.0743,0.37138 0.20855,0.50565 l 4.49085,4.49085 c 0.13142,0.13141 0.31996,0.20855 0.50566,0.2114 h 6.97345 c 0.39423,0 0.71419,-0.31996 0.71419,-0.71419 v -13.62994 c 0,-0.39424 -0.31996,-0.7142 -0.71419,-0.7142 h -11.46445 c -0.39423,0 -0.71419,0.31996 -0.71419,0.7142 v 5.03935 h -9.71875 v -4.49085 c 0,-0.39423 -0.31996,-0.71419 -0.71419,-0.71419 h -9.71582 c -0.39424,0 -0.7142,0.31996 -0.7142,0.71419 v 5.19652 c 0,0.39424 0.31996,0.7142 0.7142,0.7142 h 5.3822 l -2.57679,2.57679 h -6.33353 v -11.63558 c 0.0371,0.0314 1.0513,1.06841 1.057,1.03704 0.11713,0.0743 0.25426,0.11713 0.39424,0.11998 h 15.20085 v 4.59082 c 0,0.39424 0.31996,0.7142 0.71419,0.7142 z m 28.49657,-8.96766 h -14.91271 v -11.50175 c 0.11428,0.0657 0.24283,0.1057 0.37424,0.1057 h 14.54119 v 11.39863 z m -10.34989,-25.62241 h 4.97653 v 7.02201 h -4.97653 z m -2.96821,2.62828 v -2.62828 h 1.53983 v 5.73932 l -1.53983,-1.87406 z m -8.1588,0.71419 h 6.73057 v 0.7799 c 0,0.16569 0.0571,0.32567 0.16284,0.45423 l 2.96821,3.61383 c 0.0457,0.0571 0.10284,0.1057 0.16284,0.14284 0.11427,0.0743 0.2514,0.11713 0.38852,0.11713 h 6.40491 c 0.39423,0 0.7142,-0.31996 0.7142,-0.7142 v -1.50553 l 5.06509,6.56778 h -15.30689 l -0.85135,-1.10556 c -0.009,-0.0143 -6.42202,-8.32774 -6.4335,-8.34749 z m -30.55016,36.42134 h -5.92786 v -7.77046 h 5.92786 z m 20.59739,29.13064 h -7.61907 v -9.88988 h 7.61907 z m 15.16355,-37.45253 h 5.545 v 12.20164 h -5.545 z m -4.4937,5.04221 v -5.03935 h 3.06533 v 11.19019 l -3.06533,-3.06247 z m -17.43216,-0.72563 h -3.431 v -3.76807 h 3.431 z m 34.82995,19.91432 v 13.22112 h -20.8146 v -14.8754 l 1.44556,1.44556 c 0.13427,0.13142 0.3171,0.20855 0.50566,0.20855 z m -33.40165,-23.67997 h 3.431 v 3.76807 h -3.431 z m -1.96832,8.99033 3.49096,-3.49097 14.73499,14.73499 -1.71981,1.71981 c -1.27699,-1.27698 -10.98688,-10.9898 -12.50953,-12.50952 -0.13998,-0.13999 -0.32282,-0.20855 -0.50565,-0.20855 -0.18855,0 -0.36567,0.0714 -0.50566,0.20855 l -12.50952,12.50952 -1.71982,-1.71981 z m 13.88371,-23.28579 h 3.83952 v 7.92478 h -3.20531 l -0.6342,-0.64278 z m -14.58653,-8.11053 h 4.23949 v 9.64707 h -4.23949 z m -3.65098,3.96524 v -3.96524 h 2.22546 v 8.63856 l -2.22546,-2.22261 z m -1.32555,14.00658 -10.07564,-10.07564 c -0.27996,-0.27996 -0.73133,-0.27996 -1.01129,0 -0.0343,0.0486 -8.41038,8.39868 -8.4389,8.4389 l -1.6341,1.6341 -1.20839,-1.20839 11.78696,-11.78696 11.7899,11.78989 z m 1.72552,0.2971 1.41696,-1.41697 h 11.04174 c 0.39423,0 0.71419,-0.31996 0.71419,-0.71419 0,-0.39423 -0.31996,-0.7142 -0.71419,-0.7142 h -12.29305 l -10.74189,-10.74407 h 8.75045 v 2.03399 c 0,0.18855 0.0743,0.37138 0.20855,0.50566 l 3.65099,3.65098 c 0.0428,0.0428 0.0943,0.0828 0.14854,0.11141 0.1057,0.0657 0.23141,0.0971 0.3571,0.1 h 5.66787 c 0.39423,0 0.71419,-0.31996 0.71419,-0.7142 v -1.97687 l 8.29337,8.40453 -1.29981,1.47693 h -15.91536 z"
     id="path5"
     style="fill:#000000;stroke-width:0.731337" /><path
     d="m 257.32923,244.96947 c 0,-1.77122 -1.43986,-3.21101 -3.21101,-3.21101 -1.77115,0 -3.21101,1.43986 -3.21101,3.21101 0,1.77116 1.43986,3.21101 3.21101,3.21101 1.77115,0 3.21101,-1.43985 3.21101,-3.21101 z m -4.99364,0 c 0,-0.98277 0.79993,-1.78263 1.78263,-1.78263 0.9827,0 1.78264,0.79993 1.78264,1.78263 0,0.9827 -0.79994,1.78264 -1.78264,1.78264 -0.9827,0 -1.78263,-0.79994 -1.78263,-1.78264 z"
     id="path6"
     style="fill:#000000;stroke-width:0.731337" /></g></svg>
