<?xml version="1.0" encoding="UTF-8" standalone="no"?>
<!-- Uploaded to: SVG Repo, www.svgrepo.com, Generator: SVG Repo Mixer Tools -->

<svg
   fill="#000000"
   width="800px"
   height="800px"
   viewBox="0 0 14 14"
   role="img"
   focusable="false"
   aria-hidden="true"
   version="1.1"
   id="svg1"
   sodipodi:docname="wagon.svg"
   inkscape:version="1.4.3 (0d15f75042, 2025-12-25)"
   xml:space="preserve"
   xmlns:inkscape="http://www.inkscape.org/namespaces/inkscape"
   xmlns:sodipodi="http://sodipodi.sourceforge.net/DTD/sodipodi-0.dtd"
   xmlns="http://www.w3.org/2000/svg"
   xmlns:svg="http://www.w3.org/2000/svg"><defs
     id="defs1" /><sodipodi:namedview
     id="namedview1"
     pagecolor="#ffffff"
     bordercolor="#000000"
     borderopacity="0.25"
     inkscape:showpageshadow="2"
     inkscape:pageopacity="0.0"
     inkscape:pagecheckerboard="0"
     inkscape:deskcolor="#d1d1d1"
     inkscape:zoom="1"
     inkscape:cx="399.5"
     inkscape:cy="400"
     inkscape:window-width="1920"
     inkscape:window-height="1011"
     inkscape:window-x="0"
     inkscape:window-y="0"
     inkscape:window-maximized="1"
     inkscape:current-layer="svg1"
     showguides="true"><sodipodi:guide
       position="7,14"
       orientation="-1,0"
       id="guide6"
       inkscape:locked="false"
       inkscape:label=""
       inkscape:color="rgb(0,134,229)" /><sodipodi:guide
       position="0,7"
       orientation="0,1"
       id="guide7"
       inkscape:locked="false"
       inkscape:label=""
       inkscape:color="rgb(0,134,229)" /></sodipodi:namedview><path
     d="M 13.766667,10.895605 H 12.600001 V 0.23986644 a 0.23333315,0.23880012 0 0 0 -0.337634,-0.21372612 3.9577969,4.0505276 0 0 1 -3.5247301,0 c -0.0021,0 -0.00466,0 -0.00677,-0.0016723 A 0.96529924,0.98791609 0 0 0 8.6375309,0.00202077 c -0.00186,0 -0.00326,0 -0.00513,0 a 0.22399983,0.22924812 0 0 0 -0.062534,0.01289548 c -0.00794,0.0023877 -0.016333,0 -0.023333,0.0042985 l -0.00373,0.0014328 v 0 L 7.763471,0.33872968 a 3.9234969,4.0154239 0 0 1 -2.926931,0 L 4.0579072,0.02017032 v 0 l -0.00373,-0.0014328 c -0.0077,-0.0031046 -0.0161,-0.0019108 -0.023333,-0.0042985 A 0.22399983,0.22924812 0 0 0 3.9666791,0.00106661 c -0.00186,0 -0.00326,0 -0.00513,0 a 0.23333315,0.23880012 0 0 0 -0.035,0.00740312 0.22306649,0.22829291 0 0 0 -0.0574,0.01504443 c -0.0021,0 -0.00466,0 -0.00677,0.0016723 a 3.9577969,4.0505276 0 0 1 -3.5247307,0 A 0.23333315,0.23880012 0 0 0 1.6712005e-5,0.23986777 V 11.134405 A 0.23169982,0.23712852 0 0 0 0.07118369,11.305147 2.0801651,2.1289031 0 0 0 0.61134994,13.364798 c 0.001631,0.0017 0.002097,0.0041 0.003728,0.0057 0.001631,0.0017 0.003728,0.0021 0.005359,0.0036 a 2.095565,2.1446638 0 0 0 2.95913096,0 c 0.00163,-0.0014 0.00373,-0.0019 0.00537,-0.0036 0.00163,-0.0017 0.0021,-0.0041 0.00373,-0.0057 A 2.082965,2.1317687 0 0 0 4.145871,11.373205 h 4.3082633 a 2.082965,2.1317687 0 0 0 0.5571996,1.991593 c 0.00163,0.0017 0.0021,0.0041 0.00373,0.0057 0.00163,0.0017 0.00373,0.0021 0.00536,0.0036 a 2.095565,2.1446638 0 0 0 2.9591311,0 c 0.0016,-0.0014 0.0038,-0.0019 0.0054,-0.0036 0.0016,-0.0017 0.002,-0.0041 0.0038,-0.0057 a 2.0999984,2.1492011 0 0 0 0.557137,-1.036392 h 1.2208 A 0.23333315,0.23880012 0 0 0 14,12.089606 v -0.955201 a 0.23333315,0.23880012 0 0 0 -0.233333,-0.2388 z m -1.959999,1.95434 -0.676666,-0.69252 a 0.64073283,0.65574513 0 0 0 0.02707,-0.06782 h 0.956667 a 1.6230654,1.6610936 0 0 1 -0.307067,0.760339 z M 8.8853367,12.089606 h 0.9566659 a 0.64073283,0.65574513 0 0 0 0.027301,0.06806 L 9.1926365,12.850184 A 1.6230654,1.6610936 0 0 1 8.8853367,12.089606 Z m -5.4786623,0.760339 -0.6766661,-0.69252 a 0.64073283,0.65574513 0 0 0 0.027066,-0.06782 h 0.9566666 a 1.6230654,1.6610936 0 0 1 -0.3070665,0.76034 z M 0.4853433,12.089606 h 0.9566659 a 0.64073283,0.65574513 0 0 0 0.027301,0.06806 L 0.79264305,12.850184 A 1.6230654,1.6610936 0 0 1 0.4853433,12.089606 Z M 3.7333408,6.8360033 V 7.5524037 H 1.4000092 V 6.8360033 Z M 1.4000092,8.0300038 H 3.7333408 V 8.7464042 H 1.4000092 Z m 0,1.1940007 h 2.3333316 v 1.2790135 a 2.076665,2.1253211 0 0 0 -0.1446665,-0.16716 c -0.00163,-0.0017 -0.0021,-0.0041 -0.00373,-0.0057 -0.00163,-0.0017 -0.00373,-0.0021 -0.00537,-0.0036 A 2.0852984,2.1341567 0 0 0 1.4000092,9.8269747 Z m 0.4666664,0.9743045 v 0.97908 a 0.64073283,0.65574513 0 0 0 -0.066499,0.02794 l -0.6766671,-0.69252 a 1.6228321,1.6608549 0 0 1 0.7431661,-0.3145 z m 0.2333331,1.891297 a 0.23333315,0.23880012 0 1 1 0.2333333,-0.2388 0.23333315,0.23880012 0 0 1 -0.2333333,0.2388 z m 0.2998331,-0.883561 a 0.64073283,0.65574513 0 0 0 -0.0665,-0.0277 v -0.979081 a 1.6228321,1.6608549 0 0 1 0.7431659,0.314261 z m -1.60649868,-0.354379 0.67666618,0.69252 a 0.64073283,0.65574513 0 0 0 -0.027067,0.06782 h -0.957599 a 1.6230654,1.6610936 0 0 1 0.30799982,-0.76034 z m 1.00683248,1.6439 a 0.64073283,0.65574513 0 0 0 0.066499,0.02794 v 0.97908 a 1.6228321,1.6608549 0 0 1 -0.7431655,-0.3145 z m 0.5331664,0.0277 a 0.64073283,0.65574513 0 0 0 0.066499,-0.02794 l 0.6766665,0.692522 A 1.6228321,1.6608549 0 0 1 2.333342,13.503303 Z m 0.423733,-0.91126 a 0.64073283,0.65574513 0 0 0 -0.0273,-0.06806 l 0.6766661,-0.692521 a 1.6230654,1.6610936 0 0 1 0.308233,0.760579 z M 4.2000071,6.8360033 H 4.6666735 V 10.895605 H 4.2000071 Z m 3.2666641,0 V 7.5524037 H 5.1333397 V 6.8360033 Z m 0,1.9104009 H 5.1333397 V 8.0300038 H 7.4666712 Z M 5.1333397,9.2240045 H 7.4666712 V 9.9404048 H 5.1333397 Z m 0,1.1940005 h 2.3333315 v 0.4776 H 5.1333397 Z M 7.9333375,6.8360033 H 8.4000037 V 10.895605 H 7.9333375 Z m 4.1999965,0 v 3.6670147 a 2.076665,2.1253211 0 0 0 -0.144673,-0.16716 c -0.0016,-0.0017 -0.002,-0.0041 -0.0038,-0.0057 -0.0016,-0.0017 -0.0038,-0.0021 -0.0054,-0.0036 a 2.103965,2.1532607 0 0 0 -0.312794,-0.2615 V 6.8360033 Z m -0.976266,4.7760027 a 0.64073283,0.65574513 0 0 0 -0.0273,-0.06806 l 0.676666,-0.692521 a 1.6230654,1.6610936 0 0 1 0.308233,0.760579 z m -0.657066,0.4776 a 0.23333315,0.23880012 0 1 1 0.233333,-0.2388 0.23333315,0.23880012 0 0 1 -0.233333,0.2388 z m 0.299833,-0.883561 a 0.64073283,0.65574513 0 0 0 -0.0665,-0.0277 v -0.979081 a 1.6228321,1.6608549 0 0 1 0.743166,0.314261 z M 11.200002,8.7464042 H 8.8666701 V 8.0300038 H 11.200002 Z M 8.8666701,9.2240045 H 11.200002 V 9.8269747 A 2.0852984,2.1341567 0 0 0 9.0204366,10.328455 c -0.00163,0.0014 -0.00373,0.0019 -0.00536,0.0036 -0.00163,0.0017 -0.0021,0.0041 -0.00373,0.0057 A 2.076665,2.1253211 0 0 0 8.866682,10.504931 Z m 1.3999989,0.9743045 v 0.97908 a 0.64073283,0.65574513 0 0 0 -0.0665,0.02794 l -0.6766661,-0.69252 a 1.6228321,1.6608549 0 0 1 0.7431661,-0.3145 z M 11.200002,7.5524037 H 8.8666701 V 6.8360033 h 2.3333319 z m -2.0066655,3.2992623 0.6766662,0.69252 a 0.64073283,0.65574513 0 0 0 -0.027301,0.06806 H 8.8860368 a 1.6230654,1.6610936 0 0 1 0.3072997,-0.760578 z m 1.0068325,1.6439 a 0.64073283,0.65574513 0 0 0 0.0665,0.02794 v 0.97908 a 1.6228321,1.6608549 0 0 1 -0.7431651,-0.3145 z m 0.533166,0.0277 a 0.64073283,0.65574513 0 0 0 0.0665,-0.02794 l 0.676666,0.692522 a 1.6228321,1.6608549 0 0 1 -0.743166,0.315455 z M 12.133334,0.60714102 V 6.358403 H 8.8666701 V 0.60164862 a 4.4309965,4.5348143 0 0 0 3.2666639,0.006448 z M 7.9368375,0.78122631 8.4000037,0.59257421 V 6.358403 H 4.2000071 V 0.59257421 L 4.6631734,0.7821815 a 4.3899299,4.4927855 0 0 0 3.2736641,0 z M 0.46667665,0.60809621 A 4.4333299,4.5372023 0 0 0 3.7333408,0.60188741 V 6.358403 H 0.46667665 Z m 0,6.22790709 h 0.46666636 v 3.2290547 a 2.103965,2.1532607 0 0 0 -0.31289982,0.262681 c -0.001631,0.0014 -0.003728,0.0019 -0.005359,0.0036 -0.001631,0.0017 -0.002097,0.0041 -0.003728,0.0057 A 2.076665,2.1253211 0 0 0 0.4666886,10.504214 Z M 13.533333,11.850806 h -0.933332 a 2.0932316,2.1422758 0 0 0 -0.05413,-0.477601 h 0.987466 z"
     id="path1"
     style="stroke-width:0.236051" /><path
     d="m 5.5487821,1.6236068 a 3.0148377,3.0148377 0 0 0 1.1239351,0.2164557 0.16021885,0.16021885 0 0 0 0,-0.3204377 A 2.6916763,2.6916763 0 0 1 5.6678247,1.3260805 0.1602288,0.1602288 0 0 0 5.5487821,1.6236068 Z"
     id="path2"
     style="stroke-width:0.160219" /><path
     d="M 3.7887782,1.8278858 A 0.16021883,0.16021883 0 0 0 3.8033581,1.5082493 2.7076982,2.7076982 0 0 1 3.0471253,1.3260805 0.16021883,0.16021883 0 1 0 2.9282429,1.6236068 3.0210863,3.0210863 0 0 0 3.7740381,1.827245 c 0.00497,4.806e-4 0.010094,6.408e-4 0.01474,6.408e-4 z"
     id="path3"
     style="stroke-width:0.160219" /><path
     d="M 8.6961208,1.6236068 A 3.0210863,3.0210863 0 0 0 9.541916,1.827245 c 0.00497,0 0.010094,0 0.0149,0 A 0.16021883,0.16021883 0 0 0 9.5713962,1.5076084 2.7076982,2.7076982 0 0 1 8.8150031,1.3254396 0.16021883,0.16021883 0 1 0 8.6961208,1.622966 Z"
     id="path4"
     style="stroke-width:0.160219" /></svg>
