<?xml version="1.0" encoding="UTF-8" standalone="no"?>
<!-- Uploaded to: SVG Repo, www.svgrepo.com, Generator: SVG Repo Mixer Tools -->

<svg
   fill="#000000"
   version="1.1"
   id="Capa_1"
   width="800px"
   height="800px"
   viewBox="0 0 585.07 585.07"
   xml:space="preserve"
   sodipodi:docname="nomad.svg"
   inkscape:version="1.4.3 (0d15f75042, 2025-12-25)"
   xmlns:inkscape="http://www.inkscape.org/namespaces/inkscape"
   xmlns:sodipodi="http://sodipodi.sourceforge.net/DTD/sodipodi-0.dtd"
   xmlns="http://www.w3.org/2000/svg"
   xmlns:svg="http://www.w3.org/2000/svg"><defs
   id="defs2"><rect
     x="0"
     y="549"
     width="541"
     height="162"
     id="rect3" /></defs><sodipodi:namedview
   id="namedview2"
   pagecolor="#ffffff"
   bordercolor="#000000"
   borderopacity="0.25"
   inkscape:showpageshadow="2"
   inkscape:pageopacity="0.0"
   inkscape:pagecheckerboard="0"
   inkscape:deskcolor="#d1d1d1"
   inkscape:zoom="1"
   inkscape:cx="399.5"
   inkscape:cy="400"
   inkscape:window-width="1920"
   inkscape:window-height="1011"
   inkscape:window-x="0"
   inkscape:window-y="0"
   inkscape:window-maximized="1"
   inkscape:current-layer="Capa_1" />

<path
   d="M 545.842,155.72889 414.94439,97.552161 C 412.86715,73.281194 398.78655,51.495597 377.15547,39.697468 L 314.77474,5.6714032 C 307.97211,1.961629 300.28245,0 292.535,0 284.78755,0 277.09789,1.961629 270.29526,5.6714032 L 207.91453,39.69629 C 186.28345,51.494419 172.20285,73.280016 170.12561,97.550984 L 39.228,155.72771 C 15.398194,166.32031 0,190.01327 0,216.09135 V 556.76016 C 0,572.37068 12.699323,585.07 28.309839,585.07 H 556.76016 c 15.61052,0 28.30984,-12.69932 28.30984,-28.30984 V 216.09135 c 0,-26.07808 -15.39819,-49.77104 -39.228,-60.36246 z m -11.55985,316.10176 h 31.91462 v 63.82924 z m -307.80344,56.61967 v 37.74645 h -31.91463 l 41.35124,-82.70246 41.35124,82.70246 h -31.91462 v -37.74645 z m -113.23936,0 v 37.74645 H 81.324726 l 41.351244,-82.70246 41.35124,82.70246 h -31.91463 v -37.74645 z m 28.30984,-361.23943 -29.17329,-23.33912 16.97647,-7.54456 25.401,20.32056 z m 97.67602,-53.97154 H 265.6324 L 100.49168,245.35194 H 74.084484 Z m 106.61958,0 54.26052,43.40842 -13.20418,10.56312 -67.46471,-53.97154 z m 125.98586,160.42242 v 37.74646 c 0,5.20311 -4.2335,9.43661 -9.43662,9.43661 H 319.22174 c 1.04747,-2.95366 1.6231,-6.12908 1.6231,-9.43661 v -37.74646 c 0,-3.30753 -0.57563,-6.48295 -1.6231,-9.43661 h 143.17229 c 5.20312,0 9.43662,4.2335 9.43662,9.43661 z m -169.85904,0 v 37.74646 c 0,5.20311 -4.2335,9.43661 -9.43661,9.43661 -5.20311,0 -9.43661,-4.2335 -9.43661,-9.43661 v -37.74646 c 0,-5.20311 4.2335,-9.43661 9.43661,-9.43661 5.20311,0 9.43661,4.2335 9.43661,9.43661 z m -37.74645,28.30984 h -10.67753 l 10.67753,-16.01629 z m -8.19569,-37.74645 -20.11415,30.17121 -20.11414,-30.17121 z m -113.23936,37.74645 h -40.22829 l 20.11415,-30.17121 z m -2.48184,-37.74645 h 40.22829 l -20.11414,30.17121 z m 57.8606,7.57524 20.11415,30.17121 h -40.22829 z m 0,-80.42 67.46471,53.97154 h -26.40719 l -54.26052,-43.40842 z m 15.10566,-12.08475 79.26047,-63.40815 79.26047,63.40815 -79.26047,63.40814 z m -43.4155,34.73262 39.15487,31.32367 H 130.70534 Z M 105.04366,264.22516 84.929516,294.39637 64.815371,264.22516 Z M 67.29721,301.97161 H 27.068919 L 47.183065,271.8004 Z m 198.55105,18.87323 c 2.8475,8.02937 9.22076,14.40145 17.25013,17.25013 v 31.17385 L 235.91532,337.81305 179.29565,375.5595 122.67597,337.81305 66.05629,375.5595 18.873226,344.10373 v -23.25889 z m 9.67489,66.05629 -39.60783,26.40482 -39.60782,-26.40482 39.60782,-26.40482 z m -113.23936,0 -39.60782,26.40482 -39.607825,-26.40482 39.607825,-26.40482 z M 18.873226,366.78698 49.044435,386.90113 18.873226,407.01527 Z m 0,62.91037 47.183064,-31.45577 56.61968,37.74645 56.61968,-37.74645 56.61967,37.74645 47.18307,-31.45577 v 48.42516 H 18.873226 Z m 201.773664,42.1333 -41.35124,82.70246 -41.35125,-82.70246 z m 62.4515,0 v 63.82924 L 251.18376,471.83065 Z M 301.97161,339.71806 H 415.21097 V 528.45032 H 301.97161 Z m 132.11258,0 h 18.87323 v 188.73226 h -18.87323 z m -18.87322,-125.68979 39.15487,31.32367 h -78.30857 z m 73.8698,50.19689 h 21.73725 l -20.11415,30.17121 v -20.7346 c 0,-3.30753 -0.57563,-6.48295 -1.6231,-9.43661 z m 39.36955,7.57524 20.11415,30.17121 h -40.22829 z m 37.74645,22.59597 -20.11414,-30.17121 h 20.11414 z m -81.61962,-49.04443 -54.26052,-43.40842 13.20418,-10.56312 67.46471,53.97154 z m -138.73236,0 H 319.4376 l 136.28121,-109.02473 16.97646,7.54456 z M 18.873226,280.24145 v -16.01629 h 10.677532 z m 88.534304,191.5892 -41.35124,82.70246 -41.351242,-82.70246 z m 194.56408,75.4929 h 150.98581 v 18.87322 H 301.97161 Z m 169.85904,-75.4929 h 31.91462 l -31.91462,63.82924 z m 94.36612,-18.87323 h -94.36612 v -48.42398 l 47.18306,31.45577 47.18306,-31.45577 z m -86.79088,-66.05629 39.60782,-26.40482 39.60782,26.40482 -39.60782,26.40482 z m 39.60782,-49.08808 -47.18306,31.45577 v -31.17385 c 8.02937,-2.8475 14.40145,-9.22076 17.25012,-17.25013 h 77.116 v 48.42398 z m 47.18306,-121.7217 v 29.26059 h -24.99995 l -82.57035,-66.05629 33.48935,-26.79173 46.06012,20.47155 c 17.02246,7.56463 28.02083,24.48919 28.02083,43.11588 z M 436.2959,127.69506 415.21097,144.56302 376.0561,113.23935 h 27.71416 z M 216.95127,56.265806 279.332,22.240919 c 4.03887,-2.203451 8.60502,-3.367693 13.203,-3.367693 4.59798,0 9.16413,1.164242 13.20182,3.366516 l 62.38191,34.026064 c 14.59725,7.960968 24.52811,22.063984 27.36382,38.100323 H 189.58863 c 2.83453,-16.035161 12.76656,-30.139355 27.36264,-38.100323 z m -35.65271,56.973544 h 27.71417 l -39.1537,31.32367 -21.08493,-16.86796 z M 46.892887,172.97547 92.953,152.50392 126.44353,179.29565 43.873177,245.35194 H 18.873226 v -29.26059 c 0,-18.62669 10.998371,-35.55125 28.019661,-43.11588 z M 18.873226,556.76016 v -54.39263 l 31.914629,63.82924 H 28.309839 c -5.203113,0 -9.436613,-4.2335 -9.436613,-9.43661 z m 509.577094,9.43661 V 528.45032 H 509.5771 v 37.74645 h -31.91463 l 41.35124,-82.70246 41.0469,82.09498 c -1.02858,0.38573 -2.13856,0.60748 -3.30045,0.60748 z"
   id="path1"
   style="fill:#000000;stroke-width:1.17958" /></svg>
