<?xml version="1.0" encoding="UTF-8" standalone="no"?>
<!-- Uploaded to: SVG Repo, www.svgrepo.com, Generator: SVG Repo Mixer Tools -->

<svg
   fill="#000000"
   version="1.1"
   id="Capa_1"
   width="800px"
   height="800px"
   viewBox="0 0 585.07 585.07"
   xml:space="preserve"
   sodipodi:docname="donationgrass.svg"
   inkscape:version="1.4.3 (0d15f75042, 2025-12-25)"
   xmlns:inkscape="http://www.inkscape.org/namespaces/inkscape"
   xmlns:sodipodi="http://sodipodi.sourceforge.net/DTD/sodipodi-0.dtd"
   xmlns="http://www.w3.org/2000/svg"
   xmlns:svg="http://www.w3.org/2000/svg"><defs
   id="defs2" /><sodipodi:namedview
   id="namedview2"
   pagecolor="#ffffff"
   bordercolor="#000000"
   borderopacity="0.25"
   inkscape:showpageshadow="2"
   inkscape:pageopacity="0.0"
   inkscape:pagecheckerboard="0"
   inkscape:deskcolor="#d1d1d1"
   inkscape:zoom="1"
   inkscape:cx="399.5"
   inkscape:cy="400"
   inkscape:window-width="1920"
   inkscape:window-height="1011"
   inkscape:window-x="0"
   inkscape:window-y="0"
   inkscape:window-maximized="1"
   inkscape:current-layer="Capa_1" />

<g
   data-name="Layer 122"
   id="g1"
   transform="matrix(6.714159,0,0,6.714159,-10.079957,-44.481303)"
   style="fill:#000000"><path
     d="m 30.875,21.0127 v 0 a 1.9413,1.9413 0 0 0 0,-2.74 l -4.3315,-4.3311 a 1.9828,1.9828 0 0 0 -2.74,0 l -2.331,2.3311 v -7.71 A 1.94,1.94 0 0 0 19.5352,6.625 H 13.41 a 1.94,1.94 0 0 0 -1.9375,1.9375 v 7.71 L 9.139,13.9385 a 1.9835,1.9835 0 0 0 -2.74,0 L 2.0669,18.27 a 1.9414,1.9414 0 0 0 5e-4,2.74 l 13.6982,13.697 a 1,1 0 0 0 1.4141,0 z M 16.47,32.5879 3.4814,19.6836 l 4.2432,-4.3311 4.041,4.0411 a 1,1 0 0 0 1.7071,-0.7071 L 13.41,8.625 19.4725,8.5625 v 10.124 a 1,1 0 0 0 1.707,0.7071 l 3.95,-4.0381 4.2876,4.2871 z m 25.6021,3.7285 a 1.9828,1.9828 0 0 0 -2.74,0 l -2.331,2.3311 v -7.71 A 1.94,1.94 0 0 0 35.064,29 h -6.125 a 1.94,1.94 0 0 0 -1.9375,1.9375 v 7.71 l -2.3335,-2.334 a 1.9835,1.9835 0 0 0 -2.74,0 l -4.332,4.331 a 1.9414,1.9414 0 0 0 0,2.74 L 31.2944,57.082 a 1,1 0 0 0 1.4141,0 L 46.4038,43.3877 h 5e-4 a 1.9413,1.9413 0 0 0 -5e-4,-2.74 z M 31.999,54.9629 19.01,42.0586 l 4.2431,-4.3311 4.041,4.0411 a 1,1 0 0 0 1.7071,-0.7071 L 28.939,31 35.0015,30.9375 v 10.124 a 1,1 0 0 0 1.707,0.7071 l 3.95,-4.0381 4.2876,4.2871 z m 29.9336,-36.69 -4.3315,-4.3311 a 1.9828,1.9828 0 0 0 -2.74,0 L 52.53,16.2725 v -7.71 A 1.94,1.94 0 0 0 50.5928,6.625 h -6.125 A 1.94,1.94 0 0 0 42.53,8.5625 v 7.71 l -2.3335,-2.334 a 1.9835,1.9835 0 0 0 -2.74,0 l -4.332,4.331 a 1.9414,1.9414 0 0 0 5e-4,2.74 L 46.8232,34.707 a 1,1 0 0 0 1.4141,0 L 61.9326,21.0127 h 5e-4 a 1.9413,1.9413 0 0 0 -5e-4,-2.7402 z m -14.4048,14.315 -12.9887,-12.9043 4.2431,-4.3311 4.041,4.0411 a 1,1 0 0 0 1.7071,-0.7071 L 44.4678,8.625 50.53,8.5625 v 10.124 a 1,1 0 0 0 1.707,0.7071 l 3.95,-4.0381 4.2876,4.2871 z"
     id="path1"
     style="fill:#000000" /></g><g
   id="g3"
   transform="matrix(0.71419678,0,0,0.71571628,219.40125,219.0119)"><g
     id="g2">
	<path
   style="fill:#d9f7ff"
   d="M 435.907,128.272 H 403.296 V 73.919 h 32.611 c 15.012,0 27.176,12.164 27.176,27.176 0,15.012 -12.164,27.177 -27.176,27.177 z"
   id="path1-0" />
	<path
   style="fill:#d9f7ff"
   d="M 297.308,128.272 237.52,106.531 v 48.917 h 32.611 c 15.013,0 27.177,-12.164 27.177,-27.176 z"
   id="path2" />
</g><path
     style="fill:#ffffff"
     d="m 403.295,128.272 c 15.012,0 27.176,-12.164 27.176,-27.176 0,-15.012 -12.164,-27.176 -27.176,-27.176 H 213.062 c -15.012,0 -27.176,12.164 -27.176,27.176 H 77.18 c -15.012,0 -27.176,12.164 -27.176,27.176 0,15.012 12.164,27.176 27.176,27.176 h 160.34 c 15.012,0 27.176,-12.164 27.176,-27.176 h 32.611 z"
     id="path3" /><path
     style="fill:#d9f7ff"
     d="M 476.671,166.318 H 444.06 v 54.352 h 32.611 c 15.012,0 27.176,-12.164 27.176,-27.176 0,-15.012 -12.164,-27.176 -27.176,-27.176 z"
     id="path4" /><path
     style="fill:#ffffff"
     d="m 444.059,166.318 c 15.012,0 27.176,12.164 27.176,27.176 0,15.012 -12.164,27.176 -27.176,27.176 H 362.53 c -15.012,0 -27.176,-12.164 -27.176,-27.176 0,-15.012 12.164,-27.176 27.176,-27.176 z"
     id="path5" /><path
     style="fill:#d9f7ff"
     d="m 150.556,8.696 h -32.611 v 54.352 h 32.611 c 15.012,0 27.176,-12.164 27.176,-27.176 0,-15.012 -12.164,-27.176 -27.176,-27.176 z"
     id="path6" /><path
     style="fill:#ffffff"
     d="m 117.945,8.696 c 15.012,0 27.176,12.164 27.176,27.176 0,15.012 -12.164,27.176 -27.176,27.176 H 36.416 C 21.404,63.048 9.24,50.884 9.24,35.872 9.24,20.86 21.404,8.696 36.416,8.696 Z"
     id="path7" /><polygon
     style="fill:#a3dc93"
     points="471.236,256 449.495,379.652 471.236,503.304 503.847,503.304 503.847,256 "
     id="polygon7" /><rect
     x="9.2399998"
     y="256"
     style="fill:#caed73"
     width="461.996"
     height="247.304"
     id="rect7" /><path
     d="m 77.18,92.943 c -19.48,0 -35.329,15.848 -35.329,35.329 0,19.481 15.849,35.329 35.329,35.329 h 192.951 c 16.675,0 30.69,-11.613 34.38,-27.176 h 131.395 c 19.481,0 35.329,-15.848 35.329,-35.329 0,-19.481 -15.848,-35.329 -35.329,-35.329 H 267.414 c -4.504,0 -8.153,3.649 -8.153,8.153 0,4.504 3.649,8.153 8.153,8.153 h 168.493 c 10.489,0 19.023,8.534 19.023,19.023 0,10.489 -8.534,19.023 -19.023,19.023 H 297.308 c -4.504,0 -8.153,3.649 -8.153,8.153 0,10.489 -8.534,19.023 -19.023,19.023 H 77.18 c -10.489,0 -19.023,-8.534 -19.023,-19.023 0,-10.489 8.534,-19.023 19.023,-19.023 h 108.705 c 4.503,0 8.153,-3.649 8.153,-8.153 0,-10.489 8.534,-19.023 19.023,-19.023 h 21.741 c 4.503,0 8.153,-3.649 8.153,-8.153 0,-4.504 -3.65,-8.153 -8.153,-8.153 h -21.741 c -16.675,0 -30.69,11.613 -34.379,27.176 z"
     id="path8" /><path
     d="m 327.202,193.495 c 0,19.481 15.848,35.329 35.329,35.329 h 114.14 c 19.481,0 35.329,-15.848 35.329,-35.329 0,-19.481 -15.848,-35.329 -35.329,-35.329 h -114.14 c -19.481,0 -35.329,15.848 -35.329,35.329 z m 168.492,0 c 0,10.489 -8.534,19.023 -19.023,19.023 h -114.14 c -10.489,0 -19.023,-8.534 -19.023,-19.023 0,-10.489 8.534,-19.023 19.023,-19.023 h 114.14 c 10.489,-0.001 19.023,8.534 19.023,19.023 z"
     id="path9" /><path
     d="m 36.416,71.202 h 114.14 c 19.48,0 35.329,-15.848 35.329,-35.329 0,-19.481 -15.849,-35.329 -35.329,-35.329 H 36.416 c -19.48,0 -35.329,15.848 -35.329,35.329 0,19.481 15.849,35.329 35.329,35.329 z m 0,-54.353 h 114.14 c 10.489,0 19.023,8.534 19.023,19.023 0,10.489 -8.534,19.023 -19.023,19.023 H 36.416 c -10.489,0 -19.023,-8.534 -19.023,-19.023 0,-10.489 8.534,-19.023 19.023,-19.023 z"
     id="path10" /><path
     d="M 502.76,247.847 H 336.985 v -2.718 c 0,-4.504 -3.649,-8.153 -8.153,-8.153 -4.504,0 -8.153,3.649 -8.153,8.153 v 2.718 h -38.047 v -2.718 c 0,-4.504 -3.649,-8.153 -8.153,-8.153 -4.504,0 -8.153,3.649 -8.153,8.153 v 2.718 H 81.529 v -2.718 c 0,-4.504 -3.65,-8.153 -8.153,-8.153 -4.503,0 -8.153,3.649 -8.153,8.153 v 2.718 H 48.917 v -2.718 c 0,-4.504 -3.65,-8.153 -8.153,-8.153 -4.503,0 -8.153,3.649 -8.153,8.153 v 2.718 H 8.153 C 3.65,247.847 0,251.496 0,256 c 0,4.504 3.65,8.153 8.153,8.153 H 502.76 c 4.504,0 8.153,-3.649 8.153,-8.153 0,-4.504 -3.649,-8.153 -8.153,-8.153 z"
     id="path11" /><path
     d="m 40.764,356.552 c -4.503,0 -8.153,3.649 -8.153,8.153 v 10.87 c 0,4.504 3.65,8.153 8.153,8.153 4.503,0 8.153,-3.649 8.153,-8.153 v -10.87 c 0,-4.504 -3.65,-8.153 -8.153,-8.153 z"
     id="path12" /><path
     d="m 339.703,386.446 c -4.504,0 -8.153,3.649 -8.153,8.153 v 10.87 c 0,4.504 3.649,8.153 8.153,8.153 4.504,0 8.153,-3.649 8.153,-8.153 v -10.87 c 0,-4.504 -3.65,-8.153 -8.153,-8.153 z"
     id="path13" /><path
     d="m 307.091,419.057 c -4.504,0 -8.153,3.649 -8.153,8.153 v 10.87 c 0,4.504 3.649,8.153 8.153,8.153 4.504,0 8.153,-3.649 8.153,-8.153 v -10.87 c 0,-4.503 -3.649,-8.153 -8.153,-8.153 z"
     id="path14" /><path
     d="m 372.314,313.07 c -4.504,0 -8.153,3.649 -8.153,8.153 v 10.87 c 0,4.504 3.649,8.153 8.153,8.153 4.504,0 8.153,-3.649 8.153,-8.153 v -10.87 c 0,-4.504 -3.649,-8.153 -8.153,-8.153 z"
     id="path15" /><path
     d="m 470.149,345.682 c -4.504,0 -8.153,3.649 -8.153,8.153 v 10.87 c 0,4.504 3.649,8.153 8.153,8.153 4.504,0 8.153,-3.649 8.153,-8.153 v -10.87 c 0,-4.504 -3.65,-8.153 -8.153,-8.153 z"
     id="path16" /><path
     d="m 171.21,313.07 c -4.503,0 -8.153,3.649 -8.153,8.153 v 10.87 c 0,4.504 3.65,8.153 8.153,8.153 4.503,0 8.153,-3.649 8.153,-8.153 v -10.87 c 0,-4.504 -3.65,-8.153 -8.153,-8.153 z"
     id="path17" /><path
     d="m 236.433,345.682 c -4.503,0 -8.153,3.649 -8.153,8.153 v 10.87 c 0,4.504 3.65,8.153 8.153,8.153 4.503,0 8.153,-3.649 8.153,-8.153 v -10.87 c 0,-4.504 -3.65,-8.153 -8.153,-8.153 z"
     id="path18" /><path
     d="m 236.433,484.28 c -4.503,0 -8.153,3.649 -8.153,8.153 v 10.871 c 0,4.504 3.65,8.153 8.153,8.153 4.503,0 8.153,-3.649 8.153,-8.153 v -10.871 c 0,-4.503 -3.65,-8.153 -8.153,-8.153 z"
     id="path19" /><path
     d="m 203.822,280.459 c -4.503,0 -8.153,3.649 -8.153,8.153 v 10.87 c 0,4.504 3.65,8.153 8.153,8.153 4.503,0 8.153,-3.649 8.153,-8.153 v -10.87 c 0,-4.504 -3.651,-8.153 -8.153,-8.153 z"
     id="path20" /><path
     d="m 404.926,451.669 c -4.504,0 -8.153,3.649 -8.153,8.153 v 10.87 c 0,4.504 3.649,8.153 8.153,8.153 4.504,0 8.153,-3.649 8.153,-8.153 v -10.87 c 0,-4.504 -3.65,-8.153 -8.153,-8.153 z"
     id="path21" /></g></svg>
