<?xml version="1.0" encoding="UTF-8" standalone="no"?>
<!-- Uploaded to: SVG Repo, www.svgrepo.com, Generator: SVG Repo Mixer Tools -->

<svg
   fill="#000000"
   version="1.1"
   id="Capa_1"
   width="800px"
   height="800px"
   viewBox="0 0 585.07 585.07"
   xml:space="preserve"
   sodipodi:docname="donationtimber.svg"
   inkscape:version="1.4.3 (0d15f75042, 2025-12-25)"
   xmlns:inkscape="http://www.inkscape.org/namespaces/inkscape"
   xmlns:sodipodi="http://sodipodi.sourceforge.net/DTD/sodipodi-0.dtd"
   xmlns="http://www.w3.org/2000/svg"
   xmlns:svg="http://www.w3.org/2000/svg"><defs
   id="defs2" /><sodipodi:namedview
   id="namedview2"
   pagecolor="#ffffff"
   bordercolor="#000000"
   borderopacity="0.25"
   inkscape:showpageshadow="2"
   inkscape:pageopacity="0.0"
   inkscape:pagecheckerboard="0"
   inkscape:deskcolor="#d1d1d1"
   inkscape:zoom="1"
   inkscape:cx="399.5"
   inkscape:cy="400"
   inkscape:window-width="1920"
   inkscape:window-height="1011"
   inkscape:window-x="0"
   inkscape:window-y="0"
   inkscape:window-maximized="1"
   inkscape:current-layer="Capa_1" />

<g
   data-name="Layer 122"
   id="g1"
   transform="matrix(6.714159,0,0,6.714159,-10.079957,-44.481303)"
   style="fill:#000000"><path
     d="m 30.875,21.0127 v 0 a 1.9413,1.9413 0 0 0 0,-2.74 l -4.3315,-4.3311 a 1.9828,1.9828 0 0 0 -2.74,0 l -2.331,2.3311 v -7.71 A 1.94,1.94 0 0 0 19.5352,6.625 H 13.41 a 1.94,1.94 0 0 0 -1.9375,1.9375 v 7.71 L 9.139,13.9385 a 1.9835,1.9835 0 0 0 -2.74,0 L 2.0669,18.27 a 1.9414,1.9414 0 0 0 5e-4,2.74 l 13.6982,13.697 a 1,1 0 0 0 1.4141,0 z M 16.47,32.5879 3.4814,19.6836 l 4.2432,-4.3311 4.041,4.0411 a 1,1 0 0 0 1.7071,-0.7071 L 13.41,8.625 19.4725,8.5625 v 10.124 a 1,1 0 0 0 1.707,0.7071 l 3.95,-4.0381 4.2876,4.2871 z m 25.6021,3.7285 a 1.9828,1.9828 0 0 0 -2.74,0 l -2.331,2.3311 v -7.71 A 1.94,1.94 0 0 0 35.064,29 h -6.125 a 1.94,1.94 0 0 0 -1.9375,1.9375 v 7.71 l -2.3335,-2.334 a 1.9835,1.9835 0 0 0 -2.74,0 l -4.332,4.331 a 1.9414,1.9414 0 0 0 0,2.74 L 31.2944,57.082 a 1,1 0 0 0 1.4141,0 L 46.4038,43.3877 h 5e-4 a 1.9413,1.9413 0 0 0 -5e-4,-2.74 z M 31.999,54.9629 19.01,42.0586 l 4.2431,-4.3311 4.041,4.0411 a 1,1 0 0 0 1.7071,-0.7071 L 28.939,31 35.0015,30.9375 v 10.124 a 1,1 0 0 0 1.707,0.7071 l 3.95,-4.0381 4.2876,4.2871 z m 29.9336,-36.69 -4.3315,-4.3311 a 1.9828,1.9828 0 0 0 -2.74,0 L 52.53,16.2725 v -7.71 A 1.94,1.94 0 0 0 50.5928,6.625 h -6.125 A 1.94,1.94 0 0 0 42.53,8.5625 v 7.71 l -2.3335,-2.334 a 1.9835,1.9835 0 0 0 -2.74,0 l -4.332,4.331 a 1.9414,1.9414 0 0 0 5e-4,2.74 L 46.8232,34.707 a 1,1 0 0 0 1.4141,0 L 61.9326,21.0127 h 5e-4 a 1.9413,1.9413 0 0 0 -5e-4,-2.7402 z m -14.4048,14.315 -12.9887,-12.9043 4.2431,-4.3311 4.041,4.0411 a 1,1 0 0 0 1.7071,-0.7071 L 44.4678,8.625 50.53,8.5625 v 10.124 a 1,1 0 0 0 1.707,0.7071 l 3.95,-4.0381 4.2876,4.2871 z"
     id="path1"
     style="fill:#000000" /></g><g
   id="g3"
   transform="matrix(0.71419642,0,0,0.71419678,219.40134,219.40125)"><polygon
     style="fill:#aac36d"
     points="503.83,416.681 503.83,503.83 471.149,503.83 438.468,460.255 471.149,416.681 "
     id="polygon1" /><rect
     x="8.1700001"
     y="416.681"
     style="fill:#caed73"
     width="462.979"
     height="87.149002"
     id="rect1" /><polygon
     style="fill:#aac36d"
     points="318.638,208.569 362.213,351.319 503.83,351.319 440.473,241.25 468.426,241.25 410.733,141.022 433.021,131.181 362.213,8.17 "
     id="polygon2" /><polygon
     style="fill:#caed73"
     points="291.404,131.181 362.213,8.17 362.213,351.319 220.596,351.319 283.953,241.25 256,241.25 319.357,131.181 "
     id="polygon3" /><polygon
     style="fill:#7f9058"
     points="117.106,208.569 149.787,351.319 291.404,351.319 228.047,241.25 256,241.25 198.307,141.022 220.596,131.181 149.787,8.17 "
     id="polygon4" /><polygon
     style="fill:#95ac66"
     points="78.979,131.181 149.787,8.17 149.787,351.319 8.17,351.319 71.527,241.25 43.574,241.25 106.932,131.181 "
     id="polygon5" /><path
     d="M 503.83,408.511 H 370.383 V 359.49 H 503.83 c 2.917,0 5.612,-1.556 7.073,-4.081 1.46,-2.525 1.463,-5.637 0.008,-8.166 l -56.306,-97.82 h 13.821 c 2.917,0 5.612,-1.556 7.073,-4.081 1.46,-2.525 1.463,-5.637 0.008,-8.166 l -56.306,-97.82 h 13.821 c 2.917,0 5.612,-1.556 7.073,-4.081 1.46,-2.525 1.463,-5.637 0.008,-8.166 L 369.294,4.094 C 367.836,1.561 365.136,0 362.213,0 359.29,0 356.59,1.561 355.132,4.094 l -70.809,123.015 c -1.455,2.528 -1.452,5.641 0.008,8.166 1.46,2.525 4.156,4.081 7.073,4.081 h 13.821 l -38.171,66.316 c -2.251,3.911 -0.906,8.906 3.004,11.156 3.909,2.25 8.906,0.905 11.157,-3.004 l 45.221,-78.563 c 1.455,-2.527 1.452,-5.64 -0.008,-8.166 -1.46,-2.525 -4.156,-4.081 -7.073,-4.081 h -13.821 l 56.678,-98.467 56.678,98.467 h -13.82 c -2.917,0 -5.612,1.556 -7.073,4.081 -1.46,2.525 -1.463,5.637 -0.008,8.166 l 56.306,97.821 h -13.821 c -2.917,0 -5.612,1.556 -7.073,4.081 -1.46,2.525 -1.463,5.637 -0.008,8.166 l 56.306,97.82 H 327.673 c -4.512,0 -8.17,3.658 -8.17,8.17 0,4.512 3.658,8.17 8.17,8.17 h 26.369 V 408.51 H 157.957 v -49.021 h 133.447 c 2.917,0 5.612,-1.556 7.073,-4.081 1.46,-2.525 1.463,-5.637 0.008,-8.166 l -56.306,-97.82 H 256 c 4.534,0 8.192,-3.658 8.192,-8.17 0,-1.687 -0.512,-3.256 -1.388,-4.558 l -56.029,-97.339 h 13.821 c 4.534,0 8.192,-3.658 8.192,-8.17 0,-1.687 -0.512,-3.256 -1.388,-4.558 L 156.868,4.094 C 155.411,1.561 152.71,0 149.787,0 c -2.923,0 -5.623,1.561 -7.081,4.094 L 71.898,127.11 c -1.455,2.528 -1.452,5.641 0.008,8.166 1.46,2.525 4.156,4.081 7.073,4.081 H 92.8 l -56.306,97.82 c -1.455,2.528 -1.452,5.641 0.008,8.166 1.46,2.525 4.156,4.081 7.073,4.081 H 57.396 L 1.089,347.243 c -1.455,2.528 -1.452,5.641 0.008,8.166 1.461,2.525 4.156,4.081 7.073,4.081 h 133.447 v 49.021 H 8.17 c -4.512,0 -8.17,3.658 -8.17,8.17 0,4.512 3.658,8.17 8.17,8.17 h 495.66 c 4.512,0 8.17,-3.658 8.17,-8.17 0,-4.512 -3.658,-8.17 -8.17,-8.17 z M 78.606,245.329 c 1.455,-2.528 1.452,-5.641 -0.008,-8.166 -1.46,-2.525 -4.156,-4.081 -7.073,-4.081 h -13.82 l 56.306,-97.821 c 1.455,-2.527 1.452,-5.64 -0.008,-8.166 -1.46,-2.525 -4.156,-4.081 -7.073,-4.081 H 93.109 l 56.678,-98.467 56.678,98.467 h -13.821 c -2.917,0 -5.612,1.556 -7.073,4.081 -1.46,2.525 -1.463,5.637 -0.008,8.166 l 56.306,97.821 h -13.821 c -2.917,0 -5.612,1.556 -7.073,4.081 -1.46,2.525 -1.463,5.637 -0.008,8.166 l 56.306,97.82 H 22.3 Z"
     id="path5" /><path
     d="m 40.851,441.191 c -4.512,0 -8.17,3.658 -8.17,8.17 v 10.894 c 0,4.512 3.658,8.17 8.17,8.17 4.512,0 8.17,-3.658 8.17,-8.17 v -10.894 c 0,-4.511 -3.658,-8.17 -8.17,-8.17 z"
     id="path6" /><path
     d="m 73.532,484.766 c -4.512,0 -8.17,3.658 -8.17,8.17 v 10.894 c 0,4.512 3.658,8.17 8.17,8.17 4.512,0 8.17,-3.658 8.17,-8.17 v -10.894 c 0,-4.512 -3.658,-8.17 -8.17,-8.17 z"
     id="path7" /><path
     d="m 106.213,462.979 c -4.512,0 -8.17,3.658 -8.17,8.17 v 10.894 c 0,4.512 3.658,8.17 8.17,8.17 4.512,0 8.17,-3.658 8.17,-8.17 v -10.894 c 0,-4.512 -3.658,-8.17 -8.17,-8.17 z"
     id="path8" /><path
     d="m 471.149,441.191 c -4.512,0 -8.17,3.658 -8.17,8.17 v 10.894 c 0,4.512 3.658,8.17 8.17,8.17 4.512,0 8.17,-3.658 8.17,-8.17 v -10.894 c 0,-4.511 -3.658,-8.17 -8.17,-8.17 z"
     id="path9" /><path
     d="m 318.638,484.766 c -4.512,0 -8.17,3.658 -8.17,8.17 v 10.894 c 0,4.512 3.658,8.17 8.17,8.17 4.512,0 8.17,-3.658 8.17,-8.17 v -10.894 c 0.001,-4.512 -3.658,-8.17 -8.17,-8.17 z"
     id="path10" /><path
     d="m 351.319,462.979 c -4.512,0 -8.17,3.658 -8.17,8.17 v 10.894 c 0,4.512 3.658,8.17 8.17,8.17 4.512,0 8.17,-3.658 8.17,-8.17 v -10.894 c 0,-4.512 -3.658,-8.17 -8.17,-8.17 z"
     id="path11" /><path
     d="m 198.809,462.979 c -4.512,0 -8.17,3.658 -8.17,8.17 v 10.894 c 0,4.512 3.658,8.17 8.17,8.17 4.512,0 8.17,-3.658 8.17,-8.17 v -10.894 c 0,-4.512 -3.658,-8.17 -8.17,-8.17 z"
     id="path12" /><path
     d="m 117.106,254.869 c -4.512,0 -8.17,3.658 -8.17,8.17 v 10.894 c 0,4.512 3.658,8.17 8.17,8.17 4.512,0 8.17,-3.658 8.17,-8.17 v -10.894 c 0.001,-4.512 -3.657,-8.17 -8.17,-8.17 z"
     id="path13" /><path
     d="m 157.957,241.252 v -10.894 c 0,-4.512 -3.658,-8.17 -8.17,-8.17 -4.512,0 -8.17,3.658 -8.17,8.17 v 10.894 c 0,4.512 3.658,8.17 8.17,8.17 4.512,0 8.17,-3.658 8.17,-8.17 z"
     id="path14" /><path
     d="m 370.383,182.468 v -10.894 c 0,-4.512 -3.658,-8.17 -8.17,-8.17 -4.512,0 -8.17,3.658 -8.17,8.17 v 10.894 c 0,4.512 3.658,8.17 8.17,8.17 4.512,0 8.17,-3.658 8.17,-8.17 z"
     id="path15" /><path
     d="M 403.064,291.404 V 280.51 c 0,-4.512 -3.658,-8.17 -8.17,-8.17 -4.512,0 -8.17,3.658 -8.17,8.17 v 10.894 c 0,4.512 3.658,8.17 8.17,8.17 4.512,0 8.17,-3.658 8.17,-8.17 z"
     id="path16" /></g></svg>
