<?xml version="1.0" encoding="UTF-8" standalone="no"?>
<!-- Uploaded to: SVG Repo, www.svgrepo.com, Generator: SVG Repo Mixer Tools -->

<svg
   fill="#000000"
   version="1.1"
   id="Capa_1"
   width="800px"
   height="800px"
   viewBox="0 0 585.07 585.07"
   xml:space="preserve"
   sodipodi:docname="donation.svg"
   inkscape:version="1.4.3 (0d15f75042, 2025-12-25)"
   xmlns:inkscape="http://www.inkscape.org/namespaces/inkscape"
   xmlns:sodipodi="http://sodipodi.sourceforge.net/DTD/sodipodi-0.dtd"
   xmlns="http://www.w3.org/2000/svg"
   xmlns:svg="http://www.w3.org/2000/svg"><defs
   id="defs2" /><sodipodi:namedview
   id="namedview2"
   pagecolor="#ffffff"
   bordercolor="#000000"
   borderopacity="0.25"
   inkscape:showpageshadow="2"
   inkscape:pageopacity="0.0"
   inkscape:pagecheckerboard="0"
   inkscape:deskcolor="#d1d1d1"
   inkscape:zoom="1"
   inkscape:cx="399.5"
   inkscape:cy="320"
   inkscape:window-width="1920"
   inkscape:window-height="1011"
   inkscape:window-x="0"
   inkscape:window-y="0"
   inkscape:window-maximized="1"
   inkscape:current-layer="Capa_1" />

<g
   data-name="Layer 122"
   id="g1"
   transform="matrix(6.714159,0,0,6.714159,-10.079957,-44.481303)"
   style="fill:#000000"><path
     d="m 30.875,21.0127 v 0 a 1.9413,1.9413 0 0 0 0,-2.74 l -4.3315,-4.3311 a 1.9828,1.9828 0 0 0 -2.74,0 l -2.331,2.3311 v -7.71 A 1.94,1.94 0 0 0 19.5352,6.625 H 13.41 a 1.94,1.94 0 0 0 -1.9375,1.9375 v 7.71 L 9.139,13.9385 a 1.9835,1.9835 0 0 0 -2.74,0 L 2.0669,18.27 a 1.9414,1.9414 0 0 0 5e-4,2.74 l 13.6982,13.697 a 1,1 0 0 0 1.4141,0 z M 16.47,32.5879 3.4814,19.6836 l 4.2432,-4.3311 4.041,4.0411 a 1,1 0 0 0 1.7071,-0.7071 L 13.41,8.625 19.4725,8.5625 v 10.124 a 1,1 0 0 0 1.707,0.7071 l 3.95,-4.0381 4.2876,4.2871 z m 25.6021,3.7285 a 1.9828,1.9828 0 0 0 -2.74,0 l -2.331,2.3311 v -7.71 A 1.94,1.94 0 0 0 35.064,29 h -6.125 a 1.94,1.94 0 0 0 -1.9375,1.9375 v 7.71 l -2.3335,-2.334 a 1.9835,1.9835 0 0 0 -2.74,0 l -4.332,4.331 a 1.9414,1.9414 0 0 0 0,2.74 L 31.2944,57.082 a 1,1 0 0 0 1.4141,0 L 46.4038,43.3877 h 5e-4 a 1.9413,1.9413 0 0 0 -5e-4,-2.74 z M 31.999,54.9629 19.01,42.0586 l 4.2431,-4.3311 4.041,4.0411 a 1,1 0 0 0 1.7071,-0.7071 L 28.939,31 35.0015,30.9375 v 10.124 a 1,1 0 0 0 1.707,0.7071 l 3.95,-4.0381 4.2876,4.2871 z m 29.9336,-36.69 -4.3315,-4.3311 a 1.9828,1.9828 0 0 0 -2.74,0 L 52.53,16.2725 v -7.71 A 1.94,1.94 0 0 0 50.5928,6.625 h -6.125 A 1.94,1.94 0 0 0 42.53,8.5625 v 7.71 l -2.3335,-2.334 a 1.9835,1.9835 0 0 0 -2.74,0 l -4.332,4.331 a 1.9414,1.9414 0 0 0 5e-4,2.74 L 46.8232,34.707 a 1,1 0 0 0 1.4141,0 L 61.9326,21.0127 h 5e-4 a 1.9413,1.9413 0 0 0 -5e-4,-2.7402 z m -14.4048,14.315 -12.9887,-12.9043 4.2431,-4.3311 4.041,4.0411 a 1,1 0 0 0 1.7071,-0.7071 L 44.4678,8.625 50.53,8.5625 v 10.124 a 1,1 0 0 0 1.707,0.7071 l 3.95,-4.0381 4.2876,4.2871 z"
     id="path1"
     style="fill:#000000" /></g></svg>
