<?xml version="1.0" encoding="UTF-8" standalone="no"?>
<!-- Uploaded to: SVG Repo, www.svgrepo.com, Generator: SVG Repo Mixer Tools -->

<svg
   fill="#000000"
   version="1.1"
   id="Capa_1"
   width="800px"
   height="800px"
   viewBox="0 0 585.07 585.07"
   xml:space="preserve"
   sodipodi:docname="donationcanyon.svg"
   inkscape:version="1.4.3 (0d15f75042, 2025-12-25)"
   xmlns:inkscape="http://www.inkscape.org/namespaces/inkscape"
   xmlns:sodipodi="http://sodipodi.sourceforge.net/DTD/sodipodi-0.dtd"
   xmlns="http://www.w3.org/2000/svg"
   xmlns:svg="http://www.w3.org/2000/svg"><defs
   id="defs2" /><sodipodi:namedview
   id="namedview2"
   pagecolor="#ffffff"
   bordercolor="#000000"
   borderopacity="0.25"
   inkscape:showpageshadow="2"
   inkscape:pageopacity="0.0"
   inkscape:pagecheckerboard="0"
   inkscape:deskcolor="#d1d1d1"
   inkscape:zoom="1"
   inkscape:cx="399.5"
   inkscape:cy="480"
   inkscape:window-width="1920"
   inkscape:window-height="1011"
   inkscape:window-x="0"
   inkscape:window-y="0"
   inkscape:window-maximized="1"
   inkscape:current-layer="Capa_1" />

<g
   data-name="Layer 122"
   id="g1"
   transform="matrix(6.714159,0,0,6.714159,-10.079957,-44.481303)"
   style="fill:#000000"><path
     d="m 30.875,21.0127 v 0 a 1.9413,1.9413 0 0 0 0,-2.74 l -4.3315,-4.3311 a 1.9828,1.9828 0 0 0 -2.74,0 l -2.331,2.3311 v -7.71 A 1.94,1.94 0 0 0 19.5352,6.625 H 13.41 a 1.94,1.94 0 0 0 -1.9375,1.9375 v 7.71 L 9.139,13.9385 a 1.9835,1.9835 0 0 0 -2.74,0 L 2.0669,18.27 a 1.9414,1.9414 0 0 0 5e-4,2.74 l 13.6982,13.697 a 1,1 0 0 0 1.4141,0 z M 16.47,32.5879 3.4814,19.6836 l 4.2432,-4.3311 4.041,4.0411 a 1,1 0 0 0 1.7071,-0.7071 L 13.41,8.625 19.4725,8.5625 v 10.124 a 1,1 0 0 0 1.707,0.7071 l 3.95,-4.0381 4.2876,4.2871 z m 25.6021,3.7285 a 1.9828,1.9828 0 0 0 -2.74,0 l -2.331,2.3311 v -7.71 A 1.94,1.94 0 0 0 35.064,29 h -6.125 a 1.94,1.94 0 0 0 -1.9375,1.9375 v 7.71 l -2.3335,-2.334 a 1.9835,1.9835 0 0 0 -2.74,0 l -4.332,4.331 a 1.9414,1.9414 0 0 0 0,2.74 L 31.2944,57.082 a 1,1 0 0 0 1.4141,0 L 46.4038,43.3877 h 5e-4 a 1.9413,1.9413 0 0 0 -5e-4,-2.74 z M 31.999,54.9629 19.01,42.0586 l 4.2431,-4.3311 4.041,4.0411 a 1,1 0 0 0 1.7071,-0.7071 L 28.939,31 35.0015,30.9375 v 10.124 a 1,1 0 0 0 1.707,0.7071 l 3.95,-4.0381 4.2876,4.2871 z m 29.9336,-36.69 -4.3315,-4.3311 a 1.9828,1.9828 0 0 0 -2.74,0 L 52.53,16.2725 v -7.71 A 1.94,1.94 0 0 0 50.5928,6.625 h -6.125 A 1.94,1.94 0 0 0 42.53,8.5625 v 7.71 l -2.3335,-2.334 a 1.9835,1.9835 0 0 0 -2.74,0 l -4.332,4.331 a 1.9414,1.9414 0 0 0 5e-4,2.74 L 46.8232,34.707 a 1,1 0 0 0 1.4141,0 L 61.9326,21.0127 h 5e-4 a 1.9413,1.9413 0 0 0 -5e-4,-2.7402 z m -14.4048,14.315 -12.9887,-12.9043 4.2431,-4.3311 4.041,4.0411 a 1,1 0 0 0 1.7071,-0.7071 L 44.4678,8.625 50.53,8.5625 v 10.124 a 1,1 0 0 0 1.707,0.7071 l 3.95,-4.0381 4.2876,4.2871 z"
     id="path1"
     style="fill:#000000" /></g><g
   id="g2"
   transform="matrix(0.71419678,0,0,0.72577803,219.40125,216.43645)"><path
     style="fill:#d3552b"
     d="m 471.149,219.234 v 65.362 l -21.787,98.043 54.468,-21.787 V 186.553 c -18.02,0 -32.681,14.661 -32.681,32.681 z"
     id="path1-9" /><g
     id="g3">
	<path
   style="fill:#e86c16"
   d="M 438.468,284.596 V 159.319 c 0,-9.024 -7.316,-16.34 -16.34,-16.34 -9.024,0 -16.34,7.316 -16.34,16.34 v 201.532 h 65.362 v -76.255 z"
   id="path2" />
	<path
   style="fill:#e86c16"
   d="m 351.319,295.489 h -27.234 v -65.362 c 0,-18.02 -14.661,-32.681 -32.681,-32.681 v -38.128 c 0,-9.024 -7.316,-16.34 -16.34,-16.34 -9.024,0 -16.34,7.316 -16.34,16.34 v 70.809 h -38.128 v -65.362 c 0,-18.02 -14.661,-32.681 -32.681,-32.681 v -21.787 c 0,-17.974 -14.706,-32.681 -32.681,-32.681 H 122.553 V 404.424 L 373.106,360.85 Z"
   id="path3" />
</g><path
     style="fill:#fe9528"
     d="m 35.404,186.553 v 65.362 H 8.17 V 360.851 L 89.872,382.638 68.085,153.872 c -18.02,0 -32.681,14.661 -32.681,32.681 z"
     id="path4" /><path
     style="fill:#fd8300"
     d="m 291.404,159.319 c 0,-9.024 -7.316,-16.34 -16.34,-16.34 -9.024,0 -16.34,7.316 -16.34,16.34 v 70.809 h -70.809 v -65.362 c 0,-18.02 -14.661,-32.681 -32.681,-32.681 v -21.787 c 0,-17.974 -14.706,-32.681 -32.681,-32.681 h -21.787 c -17.974,0 -32.681,14.706 -32.681,32.681 v 272.34 h 223.319 z"
     id="path5" /><polygon
     style="fill:#ffa850"
     points="471.149,507.915 503.83,507.915 503.83,360.851 471.149,360.851 449.362,434.383 "
     id="polygon5" /><rect
     x="8.1700001"
     y="360.85101"
     style="fill:#fec14d"
     width="462.979"
     height="147.064"
     id="rect5" /><path
     style="fill:#e86c16"
     d="m 348.596,12.255 -21.787,38.128 21.787,38.128 c 21.057,0 38.128,-17.07 38.128,-38.128 0,-21.058 -17.071,-38.128 -38.128,-38.128 z"
     id="path6" /><path
     style="fill:#fe9528"
     d="m 310.468,50.383 c 0,21.057 17.07,38.128 38.128,38.128 V 12.255 c -21.058,0 -38.128,17.071 -38.128,38.128 z"
     id="path7" /><path
     d="M 503.83,352.681 H 413.958 V 159.319 c 0,-4.506 3.665,-8.17 8.17,-8.17 4.505,0 8.17,3.665 8.17,8.17 V 328.17 c 0,4.513 3.657,8.17 8.17,8.17 4.513,0 8.17,-3.657 8.17,-8.17 v -33.848 h 24.511 c 4.513,0 8.17,-3.657 8.17,-8.17 v -66.918 c 0,-13.515 10.996,-24.511 24.511,-24.511 4.513,0 8.17,-3.657 8.17,-8.17 0,-4.513 -3.657,-8.17 -8.17,-8.17 -22.526,0 -40.851,18.325 -40.851,40.851 v 58.748 h -16.34 V 159.319 c 0,-13.515 -10.996,-24.511 -24.511,-24.511 -13.515,0 -24.511,10.996 -24.511,24.511 v 193.362 h -18.622 l -19.926,-59.775 c -1.112,-3.337 -4.234,-5.586 -7.751,-5.586 h -19.064 v -57.191 c 0,-19.728 -14.057,-36.233 -32.681,-40.029 v -30.78 c 0,-13.515 -10.996,-24.511 -24.511,-24.511 -13.515,0 -24.511,10.996 -24.511,24.511 v 62.638 h -21.787 v -57.191 c 0,-19.727 -14.058,-36.234 -32.681,-40.031 v -14.437 c 0,-22.526 -18.325,-40.851 -40.851,-40.851 h -54.468 c -22.526,0 -40.851,18.325 -40.851,40.851 v 36.227 c -18.624,3.795 -32.681,20.3 -32.681,40.029 v 57.191 H 8.17 c -4.512,0 -8.17,3.657 -8.17,8.17 0,4.513 3.658,8.17 8.17,8.17 h 27.234 c 4.512,0 8.17,-3.657 8.17,-8.17 v -65.362 c 0,-10.651 6.831,-19.733 16.34,-23.105 v 66.68 c 0,4.513 3.658,8.17 8.17,8.17 4.512,0 8.17,-3.657 8.17,-8.17 v -119.83 c 0,-13.515 10.995,-24.511 24.511,-24.511 h 54.468 c 13.516,0 24.511,10.996 24.511,24.511 v 21.787 c 0,4.513 3.658,8.17 8.17,8.17 13.516,0 24.511,10.996 24.511,24.511 v 65.362 c 0,4.513 3.658,8.17 8.17,8.17 h 29.957 v 89.872 c 0,4.513 3.658,8.17 8.17,8.17 4.513,0 8.17,-3.657 8.17,-8.17 V 159.319 c 0,-4.506 3.665,-8.17 8.17,-8.17 4.505,0 8.17,3.665 8.17,8.17 v 70.809 c 0,4.513 3.657,8.17 8.17,8.17 4.513,0 8.17,-3.657 8.17,-8.17 v -23.105 c 9.509,3.373 16.34,12.455 16.34,23.105 v 65.362 c 0,4.513 3.657,8.17 8.17,8.17 h 21.346 l 16.34,49.021 H 8.17 c -4.512,0 -8.17,3.657 -8.17,8.17 0,4.513 3.658,8.17 8.17,8.17 h 364.908 c 0.053,0 130.752,0 130.752,0 4.513,0 8.17,-3.657 8.17,-8.17 0,-4.513 -3.657,-8.17 -8.17,-8.17 z"
     id="path8" /><path
     d="m 76.255,328.17 v -65.362 c 0,-4.513 -3.658,-8.17 -8.17,-8.17 -4.512,0 -8.17,3.657 -8.17,8.17 v 65.362 c 0,4.513 3.658,8.17 8.17,8.17 4.512,0 8.17,-3.657 8.17,-8.17 z"
     id="path9" /><path
     d="m 348.596,96.681 c 25.529,0 46.298,-20.769 46.298,-46.298 0,-25.529 -20.769,-46.298 -46.298,-46.298 -25.529,0 -46.298,20.769 -46.298,46.298 0,25.529 20.769,46.298 46.298,46.298 z m 0,-76.255 c 16.518,0 29.957,13.439 29.957,29.957 0,16.518 -13.439,29.957 -29.957,29.957 -16.518,0 -29.957,-13.439 -29.957,-29.957 0,-16.518 13.439,-29.957 29.957,-29.957 z"
     id="path10" /><circle
     cx="81.702003"
     cy="434.383"
     r="8.1700001"
     id="circle10" /><circle
     cx="49.021"
     cy="467.064"
     r="8.1700001"
     id="circle11" /><circle
     cx="430.298"
     cy="445.27701"
     r="8.1700001"
     id="circle12" /></g></svg>
