<?xml version="1.0" encoding="UTF-8" standalone="no"?>
<!-- Uploaded to: SVG Repo, www.svgrepo.com, Generator: SVG Repo Mixer Tools -->

<svg
   fill="#000000"
   version="1.1"
   id="Capa_1"
   width="800px"
   height="800px"
   viewBox="0 0 585.07 585.07"
   xml:space="preserve"
   sodipodi:docname="outpost.svg"
   inkscape:version="1.4.3 (0d15f75042, 2025-12-25)"
   xmlns:inkscape="http://www.inkscape.org/namespaces/inkscape"
   xmlns:sodipodi="http://sodipodi.sourceforge.net/DTD/sodipodi-0.dtd"
   xmlns="http://www.w3.org/2000/svg"
   xmlns:svg="http://www.w3.org/2000/svg"><defs
   id="defs2" /><sodipodi:namedview
   id="namedview2"
   pagecolor="#ffffff"
   bordercolor="#000000"
   borderopacity="0.25"
   inkscape:showpageshadow="2"
   inkscape:pageopacity="0.0"
   inkscape:pagecheckerboard="0"
   inkscape:deskcolor="#d1d1d1"
   inkscape:zoom="1"
   inkscape:cx="399.5"
   inkscape:cy="400"
   inkscape:window-width="1920"
   inkscape:window-height="1011"
   inkscape:window-x="0"
   inkscape:window-y="0"
   inkscape:window-maximized="1"
   inkscape:current-layer="Capa_1" />

<g
   id="g3"
   style="fill:#000000"
   transform="matrix(9.1428788,0,0,9.1973123,-2402.6861,-2296.0564)"><path
     d="m 294.78918,283.74166 c -7.13624,0.0571 -14.27278,-0.32853 -21.36017,-1.15412 -9.37282,-1.23414 -10.63584,-2.99966 -10.63584,-4.56516 0,-18.19787 17.74078,-23.26823 23.57101,-24.93715 2.05118,-0.53422 3.99954,-1.40555 5.76213,-2.57964 1.58839,-1.14842 3.73385,-1.14842 5.32216,0 1.76553,1.17416 3.71381,2.04833 5.76499,2.57964 5.83074,1.66833 23.57101,6.73913 23.57101,24.93715 0,5.16222 -22.37454,5.71928 -31.99602,5.71928 z m 0,-31.80733 c -0.47994,0 -0.94847,0.15141 -1.33695,0.43137 -1.97688,1.32555 -4.15949,2.31117 -6.45918,2.91679 -9.40719,2.69111 -21.91452,7.97597 -21.91452,22.74021 0.69134,1.33696 10.62706,3.42815 29.71058,3.42815 19.08352,0 29.02532,-2.09119 29.72521,-3.50816 -0.0143,-14.68379 -12.52122,-19.96917 -21.92842,-22.65976 -2.29969,-0.60278 -4.48515,-1.58839 -6.45917,-2.91394 -0.38852,-0.27996 -0.85706,-0.43137 -1.33696,-0.43423 z"
     id="path1"
     style="fill:#000000;stroke-width:0.731337" /><path
     d="m 322.21434,313.64093 h -54.85031 c -2.52538,0 -4.57086,-2.04548 -4.57086,-4.57086 0,-2.52538 2.04548,-4.57086 4.57086,-4.57086 h 18.9804 c 0.63135,0 1.14272,0.51137 1.14272,1.14272 0,0.63135 -0.51137,1.14271 -1.14272,1.14271 h -18.9804 c -1.26273,0 -2.28543,1.0227 -2.28543,2.28543 0,1.26273 1.0227,2.28543 2.28543,2.28543 h 54.85031 c 1.26273,0 2.28543,-1.0227 2.28543,-2.28543 0,-1.26273 -1.0227,-2.28543 -2.28543,-2.28543 h -18.9804 c -0.63135,0 -1.14272,-0.51136 -1.14272,-1.14271 0,-0.63135 0.51137,-1.14272 1.14272,-1.14272 h 18.9804 c 2.52538,0 4.57086,2.04548 4.57086,4.57086 0,2.52538 -2.04548,4.57086 -4.57086,4.57086 z"
     id="path2"
     style="fill:#000000;stroke-width:0.731337" /><path
     d="m 268.24675,306.78464 c -0.0314,0.003 -0.0657,0.003 -0.1,0 -0.29996,-0.0257 -0.57992,-0.17141 -0.77419,-0.4028 -0.19712,-0.23141 -0.29139,-0.53137 -0.26568,-0.83417 l 1.66548,-19.18298 c 0.02,-0.30568 0.16283,-0.59135 0.39423,-0.79131 0.23425,-0.19997 0.53708,-0.29996 0.84557,-0.27139 0.30568,0.0257 0.5885,0.17426 0.78275,0.41138 0.19425,0.23711 0.28568,0.54564 0.25426,0.85135 l -1.66547,19.17786 c -0.0514,0.5885 -0.54565,1.04274 -1.13702,1.04274 z"
     id="path3"
     style="fill:#000000;stroke-width:0.731337" /><path
     d="m 321.33162,306.78464 c -0.59136,0 -1.0856,-0.45422 -1.13701,-1.04274 l -1.66548,-19.18298 c -0.0314,-0.30568 0.06,-0.61136 0.25426,-0.8485 0.19426,-0.23997 0.47708,-0.38852 0.78275,-0.41424 0.30854,-0.0257 0.61135,0.0714 0.84557,0.2714 0.2314,0.19997 0.37424,0.48565 0.39424,0.79415 l 1.66262,19.17787 h 0.003 c 0.0286,0.30282 -0.0657,0.60563 -0.26282,0.83987 -0.19426,0.23425 -0.47423,0.37995 -0.77705,0.40566 -0.0343,0.003 -0.0686,0.003 -0.1,0 z"
     id="path4"
     style="fill:#000000;stroke-width:0.731337" /><path
     d="m 294.78918,279.16495 c -0.63134,0 -1.14271,-0.51137 -1.14271,-1.14272 v -22.41988 c 0,-0.63135 0.51137,-1.14271 1.14271,-1.14271 0.63135,0 1.14272,0.51136 1.14272,1.14271 v 22.41988 c 0,0.30282 -0.11998,0.59422 -0.33424,0.8085 -0.21426,0.21426 -0.50566,0.33424 -0.8085,0.33424 z"
     id="path5"
     style="fill:#000000;stroke-width:0.731337" /><path
     d="m 277.39725,278.43361 c -0.13142,0 -0.25997,-0.0229 -0.38281,-0.0657 -0.28568,-0.10284 -0.51994,-0.31425 -0.64849,-0.5885 -0.13142,-0.27139 -0.1457,-0.58564 -0.0457,-0.87132 0.90276,-2.53971 1.89979,-5.07936 2.96535,-7.55325 1.57691,-3.6738 3.31384,-7.22766 5.17078,-10.57002 h -0.003 c 0.14855,-0.26568 0.39424,-0.4628 0.68563,-0.5485 0.2914,-0.0857 0.60564,-0.0486 0.87132,0.0971 0.26568,0.14855 0.4628,0.3971 0.54564,0.68849 0.0829,0.2914 0.0457,0.60564 -0.10285,0.87132 -1.81408,3.2739 -3.51956,6.76202 -5.06795,10.36451 -1.04559,2.42826 -2.02258,4.92227 -2.91108,7.4165 -0.16284,0.45422 -0.59422,0.75993 -1.07705,0.75993 z"
     id="path6"
     style="fill:#000000;stroke-width:0.731337" /><path
     d="m 312.18112,278.43361 c -0.4828,0 -0.91417,-0.30568 -1.07704,-0.75993 -0.88843,-2.49401 -1.86549,-4.98794 -2.91109,-7.41649 -1.54839,-3.60243 -3.25386,-7.08484 -5.06795,-10.36452 -0.16569,-0.26568 -0.2114,-0.5885 -0.13426,-0.89135 0.08,-0.30282 0.27996,-0.55993 0.55421,-0.71135 0.27425,-0.14855 0.59707,-0.18283 0.89706,-0.0885 0.29711,0.0943 0.54279,0.30853 0.68277,0.5885 1.85116,3.34243 3.59101,6.89629 5.17078,10.57002 1.0627,2.47111 2.05688,5.01368 2.96535,7.55325 h -0.003 c 0.1,0.28568 0.0857,0.59992 -0.0457,0.87132 -0.12856,0.27425 -0.36281,0.48565 -0.64849,0.5885 -0.12285,0.04 -0.2514,0.0628 -0.38281,0.06 z"
     id="path7"
     style="fill:#000000;stroke-width:0.731337" /><path
     d="m 294.78918,271.42886 c -5.09654,0 -10.12463,-0.16569 -14.53533,-0.4828 -3.63672,-0.26283 -6.79917,-0.61992 -9.40134,-1.06556 -0.62278,-0.1057 -1.03989,-0.69705 -0.93414,-1.31699 0.1057,-0.62278 0.69705,-1.04274 1.31985,-0.93414 2.53108,0.43423 5.61645,0.78275 9.17901,1.03989 v -0.003 c 9.57321,0.62278 19.17494,0.62278 28.74815,0 3.55956,-0.25711 6.64771,-0.60564 9.17902,-1.03989 l -0.003,0.003 c 0.62278,-0.10856 1.21417,0.31139 1.31985,0.93414 0.1057,0.61993 -0.31139,1.21124 -0.93414,1.31699 -2.60254,0.44567 -5.76499,0.79994 -9.39915,1.06556 -4.41377,0.3171 -9.44157,0.4828 -14.53826,0.4828 z"
     id="path8"
     style="fill:#000000;stroke-width:0.731337" /><path
     d="m 303.23394,306.78464 h -16.88951 c -0.63135,0 -1.14271,-0.51136 -1.14271,-1.14271 v -8.12443 c 0,-5.29364 4.29375,-9.5871 9.5871,-9.5871 5.29335,0 9.5871,4.29375 9.5871,9.5871 v 8.12443 c 0,0.30281 -0.11998,0.59421 -0.33424,0.80849 -0.21426,0.21426 -0.50565,0.33424 -0.80849,0.33424 z m -15.74643,-2.28543 h 14.60408 v -6.982 c 0,-4.03377 -3.2682,-7.30197 -7.30197,-7.30197 -4.03376,0 -7.30196,3.2682 -7.30196,7.30197 z"
     id="path9"
     style="fill:#000000;stroke-width:0.731337" /><path
     d="m 303.23394,299.27673 c -0.63135,0.009 -1.14842,-0.49708 -1.15698,-1.12845 -0.006,-0.63135 0.49709,-1.14842 1.12846,-1.15698 5.66786,-0.13712 11.49297,-0.41995 17.31222,-0.84557 h 0.003 c 0.63135,-0.0457 1.17987,0.42852 1.22558,1.05985 0.0457,0.63135 -0.42852,1.17987 -1.05986,1.22558 -5.85926,0.42852 -11.72114,0.71419 -17.42631,0.8485 z"
     id="path10"
     style="fill:#000000;stroke-width:0.731337" /><path
     d="m 286.34443,299.27673 h -0.0286 c -5.70501,-0.13427 -11.56683,-0.41995 -17.42631,-0.8485 h 0.003 c -0.63135,-0.0457 -1.10557,-0.59421 -1.05986,-1.22557 0.0457,-0.63135 0.59421,-1.10557 1.22558,-1.05986 5.8221,0.42566 11.64435,0.70849 17.31222,0.84558 h 0.003 c 0.63135,0.006 1.13416,0.52564 1.12846,1.15697 -0.009,0.63135 -0.52565,1.13416 -1.15698,1.12846 z"
     id="path11"
     style="fill:#000000;stroke-width:0.731337" /></g></svg>
