<?xml version="1.0" encoding="UTF-8" standalone="no"?>
<!-- Uploaded to: SVG Repo, www.svgrepo.com, Generator: SVG Repo Mixer Tools -->

<svg
   fill="#000000"
   version="1.1"
   id="Capa_1"
   width="800px"
   height="800px"
   viewBox="0 0 585.07 585.07"
   xml:space="preserve"
   sodipodi:docname="resettlement.svg"
   inkscape:version="1.4.3 (0d15f75042, 2025-12-25)"
   xmlns:inkscape="http://www.inkscape.org/namespaces/inkscape"
   xmlns:sodipodi="http://sodipodi.sourceforge.net/DTD/sodipodi-0.dtd"
   xmlns="http://www.w3.org/2000/svg"
   xmlns:svg="http://www.w3.org/2000/svg"><defs
   id="defs2" /><sodipodi:namedview
   id="namedview2"
   pagecolor="#ffffff"
   bordercolor="#000000"
   borderopacity="0.25"
   inkscape:showpageshadow="2"
   inkscape:pageopacity="0.0"
   inkscape:pagecheckerboard="0"
   inkscape:deskcolor="#d1d1d1"
   inkscape:zoom="1"
   inkscape:cx="399.5"
   inkscape:cy="400"
   inkscape:window-width="1920"
   inkscape:window-height="1011"
   inkscape:window-x="0"
   inkscape:window-y="0"
   inkscape:window-maximized="1"
   inkscape:current-layer="Capa_1" />

<g
   id="g3"
   style="fill:#000000"
   transform="matrix(9.1420703,0,0,9.1426216,-2402.425,-2282.417)"><path
     d="m 305.73638,266.33067 c -3.37388,0 -6.41632,-2.03114 -7.70757,-5.15081 -1.29125,-3.11674 -0.57707,-6.7049 1.80838,-9.09052 2.3854,-2.38541 5.97356,-3.09963 9.09052,-1.80838 3.1196,1.29125 5.15081,4.33376 5.15081,7.70756 0,4.60801 -3.73384,8.34164 -8.34163,8.34164 z m 0,-14.39857 c -2.4483,0 -4.65658,1.47693 -5.59642,3.73955 -0.93699,2.26261 -0.41709,4.86792 1.31414,6.59915 1.73122,1.73122 4.33661,2.25113 6.59915,1.31414 2.26262,-0.93992 3.73955,-3.14819 3.73955,-5.59642 0,-3.34528 -2.71107,-6.05635 -6.05635,-6.05635 z"
     id="path1"
     style="fill:#000000;stroke-width:0.731337" /><path
     d="m 318.59183,286.91124 c -1.79405,0.02 -3.44241,-0.97414 -4.26231,-2.57109 -2.15401,-4.33661 -3.69099,-8.95011 -4.57086,-13.71258 -0.3571,-2.34255 1.0513,-4.5966 3.31384,-5.3022 l 2.95965,-0.98277 c 2.25113,-0.80849 4.75369,0.16569 5.8621,2.28543 2.08834,4.32235 3.62524,8.89014 4.57086,13.59849 0.4228,2.374 -0.98277,4.69087 -3.27961,5.41643 l -2.90253,0.95988 c -0.53993,0.20283 -1.11412,0.30854 -1.69122,0.30854 z m -1.017,-20.56887 c -0.29711,0.003 -0.59421,0.0486 -0.87987,0.13713 l -2.95965,0.99418 c -1.20554,0.33138 -1.97688,1.50553 -1.80553,2.74251 0.85991,4.56231 2.35973,8.97863 4.45663,13.11874 0.59992,1.08845 1.90835,1.57405 3.07388,1.14271 l 2.90253,-0.97129 c 1.20839,-0.3571 1.95977,-1.55694 1.75975,-2.79963 -0.88843,-4.5166 -2.34826,-8.90184 -4.34232,-13.04999 -0.42852,-0.81705 -1.28269,-1.31699 -2.20542,-1.29125 z m 5.14218,18.28344 z"
     id="path2"
     style="fill:#000000;stroke-width:0.731337" /><path
     d="m 301.51948,306.78314 c -2.67684,0 -4.84511,-2.16827 -4.84511,-4.84511 v -9.32455 c 0,-1.45127 0.6285,-2.83108 1.72552,-3.78241 l 4.87941,-4.22801 c 0.63135,-0.5485 0.91132,-1.39985 0.73134,-2.21683 l -0.58279,-2.6625 -0.84557,-0.97129 0.68563,0.91417 -2.37685,1.77123 c -1.37696,1.03703 -3.05107,1.60265 -4.77651,1.61121 h -6.04494 c -2.61395,-0.0114 -4.73088,-2.12834 -4.74229,-4.74229 0.0486,-2.56824 2.12834,-4.63083 4.69658,-4.66228 h 4.37661 c 1.17702,-0.009 2.27402,-0.59707 2.92535,-1.57691 0.86847,-1.29125 1.96547,-2.91394 2.73111,-3.99953 1.42267,-1.67126 3.20816,-2.99103 5.22219,-3.86234 0.27996,-0.13999 0.60563,-0.15998 0.89991,-0.0543 0.29711,0.10856 0.53422,0.33138 0.65991,0.61706 0.12571,0.28854 0.12571,0.61421 0.006,0.90277 -0.12284,0.28853 -0.3571,0.51421 -0.65135,0.62563 -1.63124,0.70563 -3.08536,1.76267 -4.2623,3.09678 -0.76564,1.07419 -1.85116,2.67391 -2.70822,3.95375 -1.07704,1.60266 -2.87964,2.5711 -4.81081,2.5825 h -4.38803 c -0.99418,0.006 -1.88831,0.6085 -2.26261,1.52835 -0.37709,0.92273 -0.15998,1.97688 0.54851,2.67684 0.45708,0.45709 1.07989,0.71135 1.72551,0.70849 h 6.03354 c 1.23413,-0.009 2.43396,-0.40852 3.42814,-1.14272 l 2.36544,-1.77122 c 0.64849,-0.49137 1.49983,-0.61707 2.26261,-0.33425 0.76279,0.28283 1.32555,0.93414 1.49698,1.72837 l 0.59421,2.55968 c 0.36567,1.63696 -0.19712,3.34529 -1.46268,4.44515 l -4.87941,4.22801 c -0.59707,0.51707 -0.93699,1.26843 -0.93699,2.05688 v 9.32456 c 0,1.41411 1.14557,2.55968 2.55968,2.55968 1.41412,0 2.55969,-1.14557 2.55969,-2.55968 v -6.71917 c 0,-1.25987 0.67705,-2.42541 1.77122,-3.05106 l 8.38771,-4.7194 c 0.54565,-0.31139 1.23984,-0.11998 1.55409,0.4228 0.15427,0.26283 0.19712,0.57422 0.11999,0.86847 -0.0771,0.29424 -0.26854,0.54564 -0.53136,0.69705 l -8.37601,4.77651 c -0.38281,0.21712 -0.61993,0.62278 -0.61707,1.06271 v 6.71916 c -0.0314,2.65395 -2.19116,4.78799 -4.84511,4.78799 z"
     id="path3"
     style="fill:#000000;stroke-width:0.731337" /><path
     d="m 321.12884,306.78314 c -0.99989,-0.003 -1.97118,-0.33138 -2.76534,-0.93699 l -6.50203,-5.47362 c -0.53708,-0.43137 -0.97129,-0.97414 -1.27984,-1.58839 l -3.14248,-6.28497 c -0.27996,-0.56565 -0.0514,-1.25125 0.51422,-1.53128 0.56564,-0.28002 1.25124,-0.0514 1.53127,0.51422 l 3.14249,6.28497 c 0.15998,0.33138 0.39423,0.61993 0.68562,0.84557 l 6.47922,5.46222 c 0.49422,0.35709 1.11126,0.49993 1.7141,0.39995 0.61993,-0.0971 1.17417,-0.4428 1.53128,-0.95988 0.70562,-0.97414 0.53422,-2.32829 -0.38852,-3.09677 l -5.08507,-4.57086 c -0.37138,-0.3171 -0.6742,-0.70563 -0.89135,-1.14272 l -2.93676,-5.74787 c -0.14855,-0.2714 -0.18283,-0.59136 -0.0914,-0.88558 0.0914,-0.29425 0.29711,-0.53993 0.57422,-0.68277 0.27425,-0.13998 0.59421,-0.16284 0.88558,-0.0629 0.29424,0.1 0.53422,0.31139 0.66563,0.59135 l 2.93676,5.71358 c 0.0886,0.17712 0.21426,0.33138 0.36567,0.45708 l 5.08506,4.57086 c 1.79975,1.53698 2.12834,4.19664 0.75416,6.12495 -0.6942,1.05986 -1.79975,1.78549 -3.05107,1.99977 -0.24283,0.0171 -0.48851,0.0171 -0.73134,0 z"
     id="path4"
     style="fill:#000000;stroke-width:0.731337" /><path
     d="m 290.74396,275.93021 c -0.63135,0 -1.14272,-0.51137 -1.14272,-1.14272 V 261.875 c 0,-0.63135 0.51137,-1.14272 1.14272,-1.14272 0.63135,0 1.14271,0.51137 1.14271,1.14272 v 12.91249 c 0,0.30282 -0.11998,0.59421 -0.33424,0.8085 -0.21426,0.21428 -0.50566,0.33424 -0.80849,0.33424 z"
     id="path5"
     style="fill:#000000;stroke-width:0.731337" /><path
     d="m 290.74396,306.78314 c -0.63135,0 -1.14272,-0.51136 -1.14272,-1.14271 V 281.9407 c 0,-0.63135 0.51137,-1.14271 1.14272,-1.14271 0.63135,0 1.14271,0.51136 1.14271,1.14271 v 23.69973 c 0,0.30281 -0.11998,0.59421 -0.33424,0.80849 -0.21426,0.21428 -0.50566,0.33424 -0.80849,0.33424 z"
     id="path6"
     style="fill:#000000;stroke-width:0.731337" /><path
     d="m 325.64265,313.63943 h -61.7066 c -0.63135,0 -1.14271,-0.51137 -1.14271,-1.14271 v -6.85629 c 0,-0.63135 0.51136,-1.14272 1.14271,-1.14272 h 61.7066 c 0.30282,0 0.59421,0.11999 0.8085,0.33425 0.21428,0.21425 0.33424,0.50565 0.33424,0.80849 v 6.85629 c 0,0.30282 -0.11998,0.59421 -0.33424,0.80849 -0.21426,0.21428 -0.50566,0.33424 -0.8085,0.33424 z M 265.07913,311.354 h 59.42117 v -4.57086 h -59.42117 z"
     id="path7"
     style="fill:#000000;stroke-width:0.731337" /><path
     d="m 263.93568,306.78314 c -0.63134,0 -1.14271,-0.51136 -1.14271,-1.14271 v -28.07678 c 0.003,-0.42566 0.24283,-0.81705 0.62278,-1.01129 0.3771,-0.19426 0.83416,-0.16284 1.18272,0.0857 l 8.10175,5.79358 c 0.20569,0.15141 0.35425,0.36853 0.4228,0.61707 1.78264,6.19355 4.17089,13.36958 5.02795,14.48926 0.49137,0.11141 0.99418,0.14855 1.49697,0.11427 1.52265,-0.13713 3.04822,0.21426 4.35373,1.00559 2.36544,1.58839 3.62239,6.17066 3.75951,6.69627 0.1,0.29997 0.0714,0.62564 -0.08,0.90276 -0.15141,0.27713 -0.40852,0.47994 -0.7142,0.55993 -0.30281,0.0828 -0.62849,0.0314 -0.8942,-0.13427 -0.26854,-0.16569 -0.45423,-0.43709 -0.51708,-0.74559 -0.43423,-1.6341 -1.58839,-4.57086 -2.83393,-5.38221 -0.93129,-0.52565 -1.99977,-0.7456 -3.06248,-0.6285 -0.90276,0.0857 -1.81408,-0.0571 -2.6511,-0.41137 -0.44566,-0.22855 -1.77122,-0.91418 -5.96493,-15.47218 l -5.96494,-4.2509 v 25.84839 c 0,0.30282 -0.11998,0.59422 -0.33424,0.8085 -0.21426,0.21428 -0.50565,0.33424 -0.80849,0.33424 z"
     id="path8"
     style="fill:#000000;stroke-width:0.731337" /><path
     d="m 273.55753,267.85112 c -2.4083,0 -4.57942,-1.45127 -5.4993,-3.6738 -0.92272,-2.22546 -0.41423,-4.78799 1.2884,-6.49062 1.70263,-1.70263 4.26516,-2.21113 6.49062,-1.2884 2.22261,0.91988 3.6738,3.09107 3.6738,5.4993 0,1.57983 -0.62849,3.09392 -1.74263,4.21089 -1.11697,1.11412 -2.63113,1.74263 -4.21089,1.74263 z m 0,-9.62148 c -1.48264,0 -2.82253,0.89421 -3.38814,2.26547 -0.5685,1.3684 -0.25426,2.94817 0.79416,3.99661 1.04841,1.04845 2.62828,1.3627 3.99661,0.79416 1.37126,-0.56564 2.26546,-1.9055 2.26546,-3.38814 0,-2.02544 -1.64265,-3.6681 -3.66809,-3.6681 z"
     id="path9"
     style="fill:#000000;stroke-width:0.731337" /><path
     d="m 273.55753,254.08077 c -0.63135,0 -1.14272,-0.51137 -1.14272,-1.14272 v -2.1483 c 0,-0.63135 0.51137,-1.14272 1.14272,-1.14272 0.63135,0 1.14271,0.51137 1.14271,1.14272 v 2.1483 c 0,0.30282 -0.11998,0.59421 -0.33424,0.8085 -0.21426,0.21428 -0.50566,0.33424 -0.8085,0.33424 z"
     id="path10"
     style="fill:#000000;stroke-width:0.731337" /><path
     d="m 265.78707,258.56094 c -0.19712,0 -0.38853,-0.0514 -0.55993,-0.14855 l -1.86264,-1.07419 c -0.26569,-0.15141 -0.45709,-0.39995 -0.53708,-0.6942 -0.08,-0.29424 -0.0371,-0.60849 0.11427,-0.87131 0.15141,-0.26282 0.4028,-0.45423 0.69705,-0.53136 0.29425,-0.0771 0.60563,-0.0343 0.86846,0.11998 l 1.86265,1.06271 c 0.26282,0.15141 0.45422,0.4028 0.53136,0.69705 0.0771,0.29425 0.0343,0.60563 -0.11999,0.86846 -0.20569,0.35425 -0.58564,0.57422 -0.99418,0.57136 z"
     id="path11"
     style="fill:#000000;stroke-width:0.731337" /><path
     d="m 263.93568,268.59343 c -0.51136,-0.006 -0.95988,-0.35139 -1.0913,-0.84557 -0.13426,-0.49423 0.08,-1.017 0.51994,-1.27984 l 1.86264,-1.07419 c 0.54279,-0.28283 1.21124,-0.0886 1.5198,0.43994 0.30567,0.53136 0.13998,1.20839 -0.3771,1.53698 l -1.86264,1.07419 c -0.17426,0.1 -0.37138,0.14855 -0.57136,0.14855 z"
     id="path12"
     style="fill:#000000;stroke-width:0.731337" /><path
     d="m 273.55753,274.15891 c -0.63135,0 -1.14272,-0.51137 -1.14272,-1.14272 v -2.1483 c 0,-0.63135 0.51137,-1.14272 1.14272,-1.14272 0.63135,0 1.14271,0.51137 1.14271,1.14272 v 2.1483 c 0,0.30282 -0.11998,0.59421 -0.33424,0.8085 -0.21426,0.21426 -0.50566,0.33424 -0.8085,0.33424 z"
     id="path13"
     style="fill:#000000;stroke-width:0.731337" /><path
     d="m 283.179,268.59343 c -0.19997,0 -0.39709,-0.0486 -0.57136,-0.14855 l -1.85116,-1.07419 c -0.27711,-0.1457 -0.47994,-0.39423 -0.56849,-0.6942 -0.0857,-0.29996 -0.0457,-0.61992 0.10856,-0.89135 0.15712,-0.26854 0.41423,-0.4628 0.71705,-0.53708 0.30282,-0.0743 0.62278,-0.02 0.88558,0.14569 l 1.85116,1.07419 c 0.54279,0.31425 0.73419,1.00844 0.4228,1.55409 -0.20569,0.35425 -0.58564,0.57422 -0.99418,0.57136 z"
     id="path14"
     style="fill:#000000;stroke-width:0.731337" /><path
     d="m 281.32799,258.56094 c -0.51994,0.003 -0.977,-0.34567 -1.11127,-0.8485 -0.13427,-0.50279 0.0886,-1.03133 0.53993,-1.28839 l 1.85116,-1.06271 c 0.26283,-0.15427 0.57422,-0.19712 0.86847,-0.11998 0.29424,0.0771 0.54564,0.26854 0.69705,0.53136 0.15141,0.26282 0.19426,0.57707 0.11427,0.87131 -0.08,0.29425 -0.27139,0.54279 -0.53708,0.6942 l -1.85116,1.07419 c -0.17426,0.1 -0.37138,0.14855 -0.57136,0.14855 z"
     id="path15"
     style="fill:#000000;stroke-width:0.731337" /></g></svg>
