<?xml version="1.0" encoding="UTF-8" standalone="no"?>
<!-- Uploaded to: SVG Repo, www.svgrepo.com, Generator: SVG Repo Mixer Tools -->

<svg
   fill="#000000"
   version="1.1"
   id="Capa_1"
   width="800px"
   height="800px"
   viewBox="0 0 585.07 585.07"
   xml:space="preserve"
   sodipodi:docname="sword.svg"
   inkscape:version="1.4.3 (0d15f75042, 2025-12-25)"
   xmlns:inkscape="http://www.inkscape.org/namespaces/inkscape"
   xmlns:sodipodi="http://sodipodi.sourceforge.net/DTD/sodipodi-0.dtd"
   xmlns="http://www.w3.org/2000/svg"
   xmlns:svg="http://www.w3.org/2000/svg"><defs
   id="defs2"><rect
     x="0"
     y="549"
     width="541"
     height="162"
     id="rect3" /></defs><sodipodi:namedview
   id="namedview2"
   pagecolor="#ffffff"
   bordercolor="#000000"
   borderopacity="0.25"
   inkscape:showpageshadow="2"
   inkscape:pageopacity="0.0"
   inkscape:pagecheckerboard="0"
   inkscape:deskcolor="#d1d1d1"
   inkscape:zoom="1"
   inkscape:cx="399.5"
   inkscape:cy="400"
   inkscape:window-width="1920"
   inkscape:window-height="1011"
   inkscape:window-x="0"
   inkscape:window-y="0"
   inkscape:window-maximized="1"
   inkscape:current-layer="Capa_1" />

<path
   d="M 453.79595,3.3433066e-4 C 450.94893,0.13093058 448.28471,1.4368863 446.4039,3.5787422 L 142.71152,346.42147 l -6.63437,-6.60826 -0.0783,-0.0783 c -1.3321,-11.88412 -6.89523,-27.13829 -15.46278,-35.70517 -10.31743,-10.29138 -23.899271,-15.4628 -37.481778,-15.4628 -13.582507,0 -27.190424,5.17169 -37.481782,15.48887 -20.608127,20.60814 -20.608127,54.35481 0,74.96362 8.566883,8.56689 23.794963,14.15689 35.679073,15.48887 l 17.212667,17.21268 -32.466829,32.46685 -0.02607,-0.026 c -0.130591,0.1045 -0.235102,0.20895 -0.339548,0.33954 -0.130591,0.1045 -0.261177,0.23511 -0.391767,0.3657 l -38.918064,38.9181 c -0.313403,0.26116 -0.600726,0.52241 -0.88805,0.80967 -0.313468,0.28732 -0.600751,0.62688 -0.861969,0.94028 l -9.115855,9.14193 c -20.6081267,20.60814 -20.6081267,54.32873 0,74.93687 20.608126,20.60815 54.354768,20.60815 74.963564,0 l 49.783798,-49.78384 c 0.13054,-0.13054 0.26118,-0.2351 0.39177,-0.36569 0.1045,-0.13055 0.23509,-0.2351 0.33954,-0.36569 l 32.44075,-32.44077 17.21267,17.21268 c 1.3321,11.88412 6.92198,27.06005 15.48886,35.62693 20.60813,20.60815 54.35477,20.60815 74.99031,0 20.60813,-20.60812 20.60813,-54.32873 0,-74.93687 -8.59362,-8.59363 -23.66457,-14.20904 -35.54868,-15.54102 l -6.76485,-6.73876 342.79566,-303.58562 c 2.50749,-2.19408 3.78737,-5.45902 3.4739,-8.77618 L 575.01946,19.563091 c -0.49627,-4.988815 -4.4403,-8.932646 -9.42945,-9.402715 L 455.20748,0.05222244 C 454.73735,0 454.26722,0 453.79701,0 Z M 458.60194,21.313915 l 96.40751,8.802257 8.72403,96.380838 -339.81344,300.95109 -66.42209,-66.26566 z m 55.84388,38.865939 v 0.02607 c -2.76865,0 -5.43287,1.097005 -7.39205,3.082126 L 216.10608,354.18248 c -1.95898,1.95898 -3.08213,4.6232 -3.08213,7.41812 0,2.76867 1.12315,5.43289 3.08213,7.39206 1.95898,1.95898 4.62318,3.08213 7.39205,3.08213 2.79479,0 5.43286,-1.12315 7.41812,-3.08213 L 521.86394,78.071493 c 1.95898,-1.958978 3.08213,-4.623192 3.08213,-7.392053 0,-2.768658 -1.12315,-5.432873 -3.08213,-7.39205 -1.95898,-1.985121 -4.62318,-3.082127 -7.41812,-3.082127 z M 83.005795,309.38994 c 8.201794,0 16.402919,3.16049 22.723775,9.45553 6.47765,6.47765 9.84736,15.30633 9.35055,24.4476 -0.18281,3.00375 0.94027,5.903 3.08212,8.01858 l 17.21267,17.21267 v 0.026 c 0.28733,0.3134 0.57465,0.62687 0.88805,0.88805 l 79.37672,79.35003 v 0.026 c 0.28732,0.31342 0.57465,0.62688 0.88806,0.91421 l 17.21267,17.21268 c 2.11571,2.11571 5.04109,3.18656 8.01857,3.00375 9.14193,-0.49627 17.97025,2.95155 24.44758,9.40272 12.6417,12.64171 12.6417,32.77979 0,45.42217 -12.6417,12.64237 -32.80584,12.64171 -45.42213,0 -6.47766,-6.47766 -9.84736,-15.38456 -9.32448,-24.50043 0.15675,-2.95153 -0.91418,-5.85079 -3.00375,-7.96643 l -27.6605,-27.66051 -0.0783,-0.0783 h -0.026 v -0.026 c -0.1045,-0.1045 -0.20897,-0.20895 -0.31347,-0.3134 L 120.8777,404.69859 c -0.10451,-0.1045 -0.20895,-0.20895 -0.3134,-0.31347 h -0.0261 l -0.26118,-0.26118 c -0.0261,-0.0521 -0.0784,-0.0783 -0.10452,-0.1045 L 92.77279,376.61977 c -2.11571,-2.08958 -4.988812,-3.1605 -7.940347,-3.00376 -9.141931,0.49627 -18.074571,-2.95154 -24.526478,-9.42946 -12.641703,-12.64171 -12.641703,-32.70155 0,-45.34326 6.294838,-6.29486 14.496565,-9.45555 22.69769,-9.45555 z m 30.089735,117.09595 45.47429,45.47433 -25.36231,25.38841 -45.500361,-45.47432 z m -40.171802,40.14577 45.500362,45.47431 -25.362305,25.36234 -45.448207,-45.5004 z m -40.119649,40.11968 45.500362,45.44823 -2.664211,2.66422 c -12.641703,12.64171 -32.858662,12.64171 -45.500364,0 -12.641701,-12.64171 -12.641701,-32.83261 0,-45.47432 z"
   id="path1"
   style="stroke-width:6.68661;fill:#000000" /></svg>
