<?xml version="1.0" encoding="UTF-8" standalone="no"?>
<!-- Uploaded to: SVG Repo, www.svgrepo.com, Generator: SVG Repo Mixer Tools -->

<svg
   fill="#000000"
   width="800px"
   height="800px"
   viewBox="0 0 14 14"
   role="img"
   focusable="false"
   aria-hidden="true"
   version="1.1"
   id="svg1"
   sodipodi:docname="mystery.svg"
   inkscape:version="1.4.3 (0d15f75042, 2025-12-25)"
   xml:space="preserve"
   xmlns:inkscape="http://www.inkscape.org/namespaces/inkscape"
   xmlns:sodipodi="http://sodipodi.sourceforge.net/DTD/sodipodi-0.dtd"
   xmlns="http://www.w3.org/2000/svg"
   xmlns:svg="http://www.w3.org/2000/svg"><defs
     id="defs1" /><sodipodi:namedview
     id="namedview1"
     pagecolor="#ffffff"
     bordercolor="#000000"
     borderopacity="0.25"
     inkscape:showpageshadow="2"
     inkscape:pageopacity="0.0"
     inkscape:pagecheckerboard="0"
     inkscape:deskcolor="#d1d1d1"
     inkscape:zoom="1"
     inkscape:cx="399.5"
     inkscape:cy="459"
     inkscape:window-width="1920"
     inkscape:window-height="1011"
     inkscape:window-x="0"
     inkscape:window-y="0"
     inkscape:window-maximized="1"
     inkscape:current-layer="svg1" /><g
     id="g4"
     transform="matrix(0.1658925,0,0,0.17043897,-1.2945935,-1.5219689)"><path
       d="m 49.23,32.055 c -0.01172,-0.01563 -0.01172,-0.03516 -0.01953,-0.05078 l -40.934,-10.969 -0.47266,-0.12109 v 58.617 c 0,0.20312 0.14453,0.38672 0.34375,0.44141 l 41.402,11.098 v -58.84 c -0.125,-0.01172 -0.24609,-0.07031 -0.32031,-0.17578 z"
       id="path1" /><path
       d="m 50.016,8.9297 c -0.04687,0 -0.09375,0.00391 -0.13672,0.015624 l -41.023,10.992 41.191,11.035 41.148,-11.023 -41.074,-11.004 C 50.09003,8.937512 50.047061,8.933606 50.01581,8.9297 Z"
       id="path2" /><path
       d="m 91.938,20.965 c -0.02734,0.01563 -0.05469,0.03125 -0.08594,0.03906 l -41.352,11.078 v 58.336 h -0.01172 v 0.64453 l 41.352,-11.082 c 0.20703,-0.04687 0.35547,-0.23047 0.35547,-0.44141 v -58.648 z M 73.165,72.832 c -0.51953,0.66016 -1.1602,1.0938 -1.9023,1.293 -0.26562,0.07031 -0.52344,0.10547 -0.76953,0.10547 -0.48438,0 -0.92188,-0.14062 -1.3008,-0.41406 -0.58203,-0.42578 -0.875,-1.0469 -0.875,-1.8477 0,-0.76562 0.26562,-1.4883 0.78516,-2.1484 0.51953,-0.65625 1.1641,-1.0977 1.9258,-1.3008 0.78125,-0.21094 1.4805,-0.10156 2.0508,0.3125 0.57812,0.42578 0.875,1.0547 0.875,1.8672 -0.0039,0.75781 -0.26562,1.4727 -0.78906,2.1328 z m 5.918,-21.105 c -0.47656,1.2461 -1.3516,2.7656 -2.6719,4.6328 -1.8242,2.5547 -3.0234,4.4141 -3.5664,5.5312 -0.05469,0.10938 -0.10547,0.22656 -0.14844,0.32031 -0.18359,0.43359 -0.33594,0.94531 -0.47266,1.5664 -0.0625,0.27734 -0.07813,0.92969 -0.0625,1.9336 l 0.0039,0.15234 c 0,0.52734 -0.39453,1.0312 -0.91406,1.1719 -0.08594,0.01953 -0.17188,0.03516 -0.25781,0.03516 -0.26953,0 -0.50781,-0.11328 -0.67969,-0.31641 -0.07422,-0.08594 -0.13281,-0.1875 -0.16406,-0.3125 -0.01953,-0.06641 -0.05078,-0.15625 -0.05078,-0.26953 0,-0.02344 0.09766,-2.7305 0.52734,-4.1406 0.02734,-0.08984 0.03516,-0.125 0.03906,-0.15234 0.0039,-0.01563 0.02344,-0.11328 0.02734,-0.13281 0.35547,-1.3008 1.207,-3.1484 2.2812,-5.4883 0.01563,-0.03125 0.10156,-0.18359 0.23438,-0.42578 0.42969,-0.75 1.4258,-2.5078 2.0586,-3.8008 0.125,-0.22656 0.22656,-0.44922 0.31641,-0.6875 0.12109,-0.28125 0.14844,-0.39453 0.15625,-0.42578 0.0039,-0.03516 0.0078,-0.07031 0.01563,-0.10547 0.15234,-0.55859 0.23438,-1.1562 0.23438,-1.7305 0,-0.95703 -0.26172,-1.6875 -0.80078,-2.2344 -0.39062,-0.39453 -1.3281,-0.89453 -1.793,-1.0078 -0.63281,-0.15234 -1.3594,-0.12891 -2.1055,0.07031 -2.5781,0.69141 -3.0664,2.5195 -3.0703,5.6523 0.0039,0.0078 0.01563,0.14453 0.01563,0.22266 0,1.3203 -1.0273,2.6367 -2.3477,2.9883 -1.3711,0.36719 -2.582,-0.53906 -2.582,-1.9102 v -1.1094 c 0,-1.6992 0.73047,-3.4102 2.1641,-5.0781 0.31641,-0.36719 0.67969,-0.72656 1.0742,-1.0625 1.3008,-1.2461 2.8672,-2.1445 4.5078,-2.5859 1.1367,-0.30469 2.1797,-0.41797 3.2031,-0.35547 1.6836,0.09766 2.9883,0.59375 3.8945,1.4648 1.0938,1.0742 1.6445,2.4453 1.6445,4.0781 0.0078,1.0742 -0.23047,2.2578 -0.71094,3.5117 z"
       id="path3" /></g></svg>
