<?xml version="1.0" encoding="UTF-8" standalone="no"?>
<!-- Uploaded to: SVG Repo, www.svgrepo.com, Generator: SVG Repo Mixer Tools -->

<svg
   fill="#000000"
   version="1.1"
   id="Capa_1"
   width="800px"
   height="800px"
   viewBox="0 0 585.07 585.07"
   xml:space="preserve"
   sodipodi:docname="treasure.svg"
   inkscape:version="1.4.3 (0d15f75042, 2025-12-25)"
   xmlns:inkscape="http://www.inkscape.org/namespaces/inkscape"
   xmlns:sodipodi="http://sodipodi.sourceforge.net/DTD/sodipodi-0.dtd"
   xmlns="http://www.w3.org/2000/svg"
   xmlns:svg="http://www.w3.org/2000/svg"><defs
   id="defs2"><rect
     x="0"
     y="549"
     width="541"
     height="162"
     id="rect3" /></defs><sodipodi:namedview
   id="namedview2"
   pagecolor="#ffffff"
   bordercolor="#000000"
   borderopacity="0.25"
   inkscape:showpageshadow="2"
   inkscape:pageopacity="0.0"
   inkscape:pagecheckerboard="0"
   inkscape:deskcolor="#d1d1d1"
   inkscape:zoom="1"
   inkscape:cx="399.5"
   inkscape:cy="400"
   inkscape:window-width="1920"
   inkscape:window-height="1011"
   inkscape:window-x="0"
   inkscape:window-y="0"
   inkscape:window-maximized="1"
   inkscape:current-layer="Capa_1" />

<g
   id="g3"
   style="fill:#000000"
   transform="matrix(9.110356,0,0,8.282853,-2392.5846,-2054.0169)"><path
     d="m 276.66827,260.81048 4.22516,2.56823 2.17119,4.44229 c 0.17141,0.35139 0.52279,0.57993 0.91417,0.59993 h 0.0486 c 0.37138,0 0.71992,-0.19427 0.91417,-0.51423 l 2.56824,-4.22515 4.44229,-2.1712 c 0.35139,-0.17141 0.57993,-0.52279 0.59992,-0.91417 0.0171,-0.39138 -0.17997,-0.75993 -0.51421,-0.96273 l -4.22516,-2.56824 -2.17119,-4.44229 c -0.17141,-0.35139 -0.52279,-0.57993 -0.91418,-0.59992 -0.38281,-0.009 -0.75993,0.17997 -0.96273,0.51422 l -2.56824,4.22516 -4.44229,2.17119 c -0.35138,0.17141 -0.57993,0.52279 -0.59992,0.91417 -0.0171,0.39139 0.17997,0.75994 0.51422,0.96274 z m 5.75073,-2.26262 c 0.18283,-0.0885 0.3371,-0.2314 0.44566,-0.40566 l 1.71411,-2.82253 1.45126,2.96536 c 0.0886,0.18283 0.23141,0.3371 0.40567,0.44566 l 2.82252,1.71411 -2.96535,1.45127 c -0.18284,0.0885 -0.3371,0.2314 -0.44566,0.40566 l -1.71411,2.82253 -1.45127,-2.96536 c -0.0886,-0.18283 -0.2314,-0.3371 -0.40566,-0.44566 l -2.82253,-1.71411 z"
     id="path1"
     style="fill:#000000;stroke-width:0.731337" /><path
     d="m 326.32755,275.27487 -2.87394,-1.74834 -1.47693,-3.02247 c -0.17141,-0.35138 -0.52279,-0.57993 -0.91418,-0.59992 -0.38281,-0.003 -0.75993,0.17997 -0.96273,0.51422 l -1.74833,2.87393 -3.02248,1.47694 c -0.35138,0.17141 -0.57992,0.52279 -0.59992,0.91417 -0.0171,0.39138 0.17998,0.75993 0.51422,0.96273 l 2.87394,1.74834 1.47693,3.02247 c 0.17141,0.35139 0.52279,0.57993 0.91417,0.59992 h 0.0486 c 0.37138,0 0.71992,-0.19425 0.91417,-0.51421 l 1.74834,-2.87394 3.02247,-1.47694 c 0.35139,-0.17141 0.57993,-0.52279 0.59992,-0.91132 0.0172,-0.39138 -0.17997,-0.76278 -0.51421,-0.96558 z m -4.33091,1.56835 c -0.18283,0.0886 -0.3371,0.23141 -0.44566,0.40567 l -0.89421,1.47123 -0.75415,-1.54554 c -0.0886,-0.18283 -0.23141,-0.3371 -0.40567,-0.44566 l -1.46838,-0.8942 1.54554,-0.75416 c 0.18283,-0.0886 0.3371,-0.2314 0.44566,-0.40567 l 0.89421,-1.46837 0.75415,1.54553 c 0.0886,0.18284 0.2314,0.3371 0.40567,0.44566 l 1.47123,0.8942 z"
     id="path2"
     style="fill:#000000;stroke-width:0.731337" /><path
     d="m 276.39402,292.42108 c 4.4537,3.18819 9.01593,5.68783 12.84375,7.03912 0.37995,0.13427 0.73704,0.24283 1.097,0.35139 -2.53393,3.44811 -6.96767,10.36451 -4.11377,13.18674 0.003,0.003 0.006,0.009 0.009,0.0143 l 4.82515,4.73372 c 0.61135,0.59993 1.43408,0.87417 2.41685,0.87417 4.2223,0 11.38692,-5.0708 17.37511,-11.17264 7.38213,-7.52473 13.16115,-16.80394 9.92133,-19.98599 l -4.78799,-4.69943 c -0.0114,-0.0114 -0.02,-0.0257 -0.0314,-0.0371 -2.70251,-2.65395 -9.24191,1.06556 -14.83226,5.71643 -2.10259,-3.91668 -7.1448,-8.76728 -12.72966,-12.76696 -8.57054,-6.13636 -18.63228,-10.41863 -21.2746,-6.72487 l -3.9395,5.49929 c -2.64539,3.69099 4.64802,11.83597 13.22112,17.97189 z m 32.92481,13.52974 c -8.15295,8.31019 -15.37491,11.63265 -16.76664,10.26725 l -2.54542,-2.49686 c 4.29375,-0.87702 10.62706,-5.51648 16.01775,-11.00444 5.3765,-5.48503 9.90158,-11.90105 10.70459,-16.21229 l 2.53394,2.48823 c 1.39407,1.3627 -1.79119,8.64734 -9.94473,16.95826 z m 5.11651,-21.70025 c 0.003,0.003 0.003,0.006 0.006,0.009 l 0.0114,0.0114 c 1.35985,1.39407 -1.82835,8.66196 -9.95277,16.94948 -8.15588,8.30433 -15.38076,11.6268 -16.7725,10.26432 -0.88557,-0.86846 0.0829,-4.87656 4.87941,-11.13023 0.61136,0.1 1.19128,0.16855 1.70833,0.16855 1.56265,0 2.69681,-0.45708 3.35099,-1.37125 l 3.93665,-5.49644 c 0.59707,-0.83702 0.68277,-1.90265 0.36281,-3.1196 6.86484,-5.8564 11.48126,-7.23336 12.47003,-6.28496 z m -44.02578,-14.56093 c 2.91394,0 9.26751,2.39111 16.72642,7.72732 7.18765,5.14795 11.44397,10.1985 12.58412,13.02951 0.0114,0.0371 0.0229,0.0714 0.0371,0.10856 0.31996,0.83986 0.36567,1.48264 0.1057,1.8483 -1.13416,1.58269 -8.82139,-0.4428 -18.28636,-7.2191 -9.46424,-6.77628 -13.86104,-13.40103 -12.72674,-14.98364 0.23997,-0.33711 0.77419,-0.51137 1.5598,-0.51137 z m -5.49644,6.00494 2.06829,-2.88819 c 1.53413,4.10521 7.0991,9.64487 13.34984,14.11847 6.25067,4.47659 13.28694,7.95622 17.66619,8.08493 l -2.07115,2.89105 c -0.46851,0.65421 -2.49971,0.76564 -5.97642,-0.45994 -3.64243,-1.28555 -8.01619,-3.68529 -12.30987,-6.75917 -9.46424,-6.77913 -13.86104,-13.40395 -12.72674,-14.98657 z"
     id="path3"
     style="fill:#000000;stroke-width:0.731337" /><path
     d="m 293.00342,275.49427 4.23949,3.49382 c 0.49709,0.40852 1.10272,0.61135 1.81979,0.61135 1.33126,0 3.03959,-0.70848 5.10796,-2.11971 2.73966,-1.8712 5.81354,-4.80225 8.65903,-8.25314 5.51078,-6.69057 9.54761,-14.73279 6.5963,-17.16376 l -4.23949,-3.49382 c -2.94532,-2.42826 -10.07052,3.07104 -15.58407,9.75897 -5.51363,6.69057 -9.55054,14.73499 -6.59915,17.16669 z m 18.17228,-7.62785 c -2.71677,3.29958 -5.63357,6.08495 -8.21292,7.84506 -2.53972,1.73407 -3.99661,1.91976 -4.35658,1.62269 l -1.93687,-1.59695 c 0.96273,-0.34281 2.04833,-0.92273 3.26242,-1.75119 2.73966,-1.8712 5.81355,-4.80225 8.65904,-8.25314 3.85663,-4.68224 6.982,-10.02152 7.50498,-13.64091 l 1.97118,1.62555 c 0.95988,0.79701 -0.59708,6.51058 -6.89059,14.14991 z m -9.92133,-8.17343 c 6.29353,-7.64174 11.60706,-10.26432 12.57023,-9.46716 0.96274,0.79416 -0.59421,6.50773 -6.88773,14.14992 -2.71678,3.29957 -5.63357,6.08494 -8.21292,7.84505 -2.53972,1.73408 -3.99662,1.91976 -4.35658,1.6227 -0.96559,-0.79702 0.59135,-6.51059 6.88774,-14.14992 z"
     id="path4"
     style="fill:#000000;stroke-width:0.731337" /></g></svg>
